<svg width="500" height="500" viewBox="0 0 500 500" fill="none" xmlns="http://www.w3.org/2000/svg">
<path fill-rule="evenodd" clip-rule="evenodd" d="M186.569 113.451C193.804 104.385 201.111 96.3434 208.271 89.5862C208.506 89.3386 232.646 64.2362 272.52 50.1062C273.119 49.8988 273.79 49.9991 274.293 50.3737C274.795 50.7484 275.058 51.344 274.987 51.9529C274.42 56.8101 273.309 66.2767 273.309 66.2767C281.752 67.1799 289.562 70.7927 293.02 72.5924C293.473 72.8399 293.782 73.2683 293.861 73.7567C293.94 74.2517 293.78 74.7534 293.425 75.1147C290.812 77.8243 285.588 83.2102 285.579 83.2169C294.976 91.0647 304.769 101.348 314.431 113.451C319.001 113.136 323.2 112.648 326.993 111.898C333.762 110.56 339.087 108.6 342.298 104.586C346.82 98.9392 346.685 90.0944 343.178 76.4795L338.649 58.8974L354.677 67.374C400.922 91.834 415.707 118.234 408.75 146.287C406.626 154.851 398.725 163.153 386.152 169.991C380.78 172.914 374.517 175.651 367.621 178.193C390.672 180.963 420.211 184.509 433.014 186.048C434.704 186.248 436.211 187.165 437.121 188.537C438.03 189.915 438.247 191.607 437.711 193.153C430.914 212.983 411.361 227.334 388.325 227.334C383.81 227.334 379.428 226.779 375.248 225.742C382.914 248.288 395.753 293.06 390.628 361.422C390.595 361.87 390.338 362.272 389.938 362.513C389.538 362.754 389.043 362.794 388.606 362.626C384.509 361.047 375.125 357.428 375.125 357.428C371.805 374.361 365.907 387.829 363.583 392.726C363.379 393.128 362.964 393.402 362.495 393.429C362.026 393.462 361.575 393.255 361.313 392.88C358.851 389.374 353.728 382.075 353.728 382.075L353.7 382.015C324.351 425.342 261.841 450.197 250.5 450.197C239.16 450.197 178.127 425.65 147.272 382.075C147.272 382.075 142.149 389.374 139.687 392.88C139.425 393.255 138.974 393.462 138.505 393.429C138.036 393.402 137.621 393.128 137.417 392.726C135.093 387.829 129.195 374.361 125.875 357.428C125.875 357.428 116.491 361.047 112.394 362.626C111.957 362.794 111.462 362.754 111.062 362.513C110.662 362.272 110.405 361.87 110.372 361.422C105.237 292.926 118.086 248.288 125.752 225.742C121.572 226.779 117.19 227.334 112.675 227.334C89.6395 227.334 70.0863 212.983 63.2888 193.153C62.7533 191.607 62.9696 189.915 63.879 188.537C64.7885 187.165 66.2956 186.248 67.9863 186.048C80.7887 184.509 110.328 180.963 133.379 178.193C126.48 175.651 120.215 172.908 114.841 169.984C102.272 163.147 94.373 154.844 92.2496 146.287C85.2925 118.234 100.078 91.834 146.323 67.374L162.351 58.8974L157.822 76.4795C154.313 90.1011 154.18 98.9458 158.71 104.592C161.928 108.607 167.265 110.574 174.048 111.905C177.831 112.648 182.016 113.136 186.569 113.451Z" fill="#972CC9"/>
<path fill-rule="evenodd" clip-rule="evenodd" d="M308.625 247.474C308.625 247.474 310.982 239.171 312.631 233.357C312.999 232.066 314.04 231.069 315.349 230.761C316.658 230.454 318.033 230.882 318.941 231.879C323.876 237.318 326.113 244.691 324.076 251.876C322.333 258.025 317.859 262.641 312.177 265.11C310.394 265.886 308.324 265.565 306.862 264.28C305.4 262.996 304.799 260.982 305.333 259.109C306.869 253.676 308.625 247.474 308.625 247.474ZM182.05 231.912C182.958 230.909 184.327 230.48 185.642 230.788C186.951 231.089 187.992 232.086 188.366 233.384C190.022 239.184 192.393 247.474 192.393 247.474C192.393 247.474 194.162 253.669 195.711 259.102C196.246 260.975 195.658 262.989 194.196 264.273C192.733 265.558 190.67 265.886 188.881 265.116C183.191 262.661 178.711 258.051 176.955 251.91C174.898 244.737 177.115 237.365 182.05 231.912Z" fill="#C4FC36"/>
<path fill-rule="evenodd" clip-rule="evenodd" d="M211.285 273.348C213.093 281.616 220.4 287.506 228.846 287.506C241.062 287.524 258.475 287.524 270.682 287.524C279.09 287.524 286.377 281.689 288.235 273.472C292.182 253.15 296.701 221.959 298.872 196.04C299.333 190.013 296.071 184.315 290.641 181.681C283.045 178.21 270.266 174.305 250.942 174.305C231.065 174.305 217.528 178.434 209.527 182.015C204.061 184.567 200.715 190.214 201.097 196.246C202.887 221.767 207.138 252.171 211.285 273.348Z" fill="white"/>
<path fill-rule="evenodd" clip-rule="evenodd" d="M289.427 323.517C290.29 319.182 289.166 314.687 286.367 311.267C283.571 307.846 279.387 305.866 274.978 305.866C260.378 305.866 239.821 305.866 225.138 305.866C220.658 305.866 216.417 307.887 213.594 311.376C210.771 314.861 209.667 319.434 210.59 323.828C210.591 323.828 210.591 323.828 210.591 323.828C214.226 341.104 229.443 353.474 247.067 353.474C249.023 353.479 250.993 353.479 252.95 353.479C270.678 353.479 285.942 340.944 289.427 323.531C289.427 323.531 289.427 323.531 289.427 323.517Z" fill="white"/>
</svg>
