<svg width="64" height="64" viewBox="0 0 64 64" fill="none" xmlns="http://www.w3.org/2000/svg">
<g clip-path="url(#clip0_3436_1943)">
<rect width="64" height="64" rx="19" fill="#FEC628"/>
<g clip-path="url(#clip1_3436_1943)">
<path fill-rule="evenodd" clip-rule="evenodd" d="M24.0795 14.7803C24.9623 13.6692 25.854 12.6835 26.7279 11.8553C26.7566 11.825 29.7024 8.74828 34.5686 7.01643C34.6417 6.99101 34.7235 7.0033 34.7848 7.04922C34.8462 7.09514 34.8783 7.16815 34.8696 7.24277C34.8004 7.8381 34.6648 8.99838 34.6648 8.99838C35.6951 9.10908 36.6483 9.55188 37.0702 9.77246C37.1255 9.8028 37.1633 9.8553 37.1729 9.91516C37.1825 9.97584 37.1629 10.0373 37.1197 10.0816C36.8007 10.4137 36.1633 11.0738 36.1621 11.0747C37.309 12.0365 38.5041 13.2969 39.6832 14.7803C40.2409 14.7417 40.7533 14.6818 41.2162 14.59C42.0422 14.426 42.6921 14.1858 43.0839 13.6938C43.6357 13.0017 43.6192 11.9176 43.1913 10.2489C43.1913 10.2489 42.9347 9.2485 42.7713 8.61136C42.7481 8.52034 42.7801 8.4244 42.853 8.367C42.9259 8.30878 43.0259 8.29975 43.1081 8.34321C43.6868 8.65072 44.5945 9.13287 44.5945 9.13287C50.2381 12.1308 52.0425 15.3666 51.1934 18.8049C50.9342 19.8545 49.97 20.8721 48.4356 21.7101C47.78 22.0685 47.0158 22.4039 46.1743 22.7155C48.9873 23.0549 52.5921 23.4895 54.1544 23.6781C54.3608 23.7027 54.5447 23.8151 54.6557 23.9832C54.7666 24.1521 54.793 24.3596 54.7277 24.549C53.8982 26.9795 51.512 28.7384 48.7008 28.7384C48.1498 28.7384 47.615 28.6703 47.1049 28.5432C48.0405 31.3067 49.6073 36.7941 48.9819 45.173C48.9778 45.2279 48.9464 45.2771 48.8976 45.3066C48.8488 45.3362 48.7884 45.3411 48.7351 45.3206C48.2351 45.1271 47.0899 44.6834 47.0899 44.6834C46.6848 46.7589 45.9651 48.4095 45.6814 49.0098C45.6566 49.059 45.6059 49.0926 45.5487 49.0959C45.4914 49.1 45.4364 49.0745 45.4044 49.0286C45.1039 48.5989 44.4788 47.7043 44.4788 47.7043L44.4753 47.697C40.8937 53.0073 33.2653 56.0537 31.8813 56.0537C30.4974 56.0537 23.0492 53.045 19.2838 47.7043C19.2838 47.7043 18.6586 48.5989 18.3582 49.0286C18.3262 49.0745 18.2712 49.1 18.2139 49.0959C18.1567 49.0926 18.106 49.059 18.0811 49.0098C17.7975 48.4095 17.0778 46.7589 16.6726 44.6834C16.6726 44.6834 15.5274 45.1271 15.0275 45.3206C14.9741 45.3411 14.9137 45.3362 14.8649 45.3066C14.8161 45.2771 14.7848 45.2279 14.7807 45.173C14.154 36.7777 15.7221 31.3067 16.6577 28.5432C16.1475 28.6703 15.6127 28.7384 15.0617 28.7384C12.2506 28.7384 9.86441 26.9795 9.03488 24.549C8.96952 24.3596 8.99592 24.1521 9.10691 23.9832C9.21789 23.8151 9.40181 23.7027 9.60813 23.6781C11.1705 23.4895 14.7753 23.0549 17.5883 22.7155C16.7465 22.4039 15.9819 22.0677 15.3261 21.7093C13.7922 20.8713 12.8283 19.8536 12.5691 18.8049C11.7201 15.3666 13.5245 12.1308 19.168 9.13287C19.168 9.13287 20.0759 8.65072 20.6545 8.34321C20.7366 8.29975 20.8367 8.30878 20.9096 8.367C20.9825 8.4244 21.0145 8.52034 20.9913 8.61136C20.8278 9.2485 20.5713 10.2489 20.5713 10.2489C20.1431 11.9184 20.1269 13.0025 20.6796 13.6946C21.0724 14.1866 21.7236 14.4277 22.5514 14.5908C23.0131 14.6819 23.5238 14.7417 24.0795 14.7803Z" fill="#382B38"/>
<path fill-rule="evenodd" clip-rule="evenodd" d="M39.7815 32.4155C39.7815 32.4155 40.1063 31.2665 40.3327 30.4618C40.3842 30.2831 40.5268 30.1452 40.7081 30.1026C40.8884 30.06 41.078 30.1192 41.2031 30.2572C41.8831 31.01 42.1913 32.0304 41.9107 33.0248C41.6383 33.9896 40.882 34.6822 39.9471 34.9776C39.7539 35.0378 39.5423 34.9869 39.3978 34.8443C39.2524 34.7026 39.1963 34.4915 39.2524 34.2952C39.4769 33.497 39.7815 32.4155 39.7815 32.4155ZM22.5603 30.2618C22.6855 30.123 22.8741 30.0637 23.0553 30.1063C23.2357 30.1479 23.3792 30.2859 23.4308 30.4655C23.6599 31.2683 23.9856 32.4155 23.9856 32.4155C23.9856 32.4155 24.2929 33.4961 24.5193 34.2943C24.5754 34.4896 24.5202 34.7007 24.3748 34.8443C24.2304 34.9869 24.0197 35.0378 23.8264 34.9776C22.8907 34.685 22.1325 33.9933 21.8583 33.0294C21.5758 32.0368 21.8803 31.0165 22.5603 30.2618Z" fill="#FEC806"/>
<path fill-rule="evenodd" clip-rule="evenodd" d="M37.3185 41.1751C37.4377 40.5749 37.2831 39.9529 36.8967 39.4798C36.5102 39.0067 35.9338 38.7322 35.3266 38.7322C33.3148 38.732 30.4815 38.732 28.4587 38.732C27.8426 38.732 27.2574 39.0122 26.8687 39.4947C26.48 39.9769 26.3277 40.61 26.4535 41.218C26.9548 43.6094 29.0527 45.3209 31.4819 45.3209C31.7513 45.3216 32.0229 45.3216 32.2923 45.3216C34.7347 45.3216 36.8371 43.5871 37.3185 41.1769C37.3185 41.1767 37.3185 41.1767 37.3185 41.1751ZM26.5507 34.2322C26.8002 35.376 27.8072 36.1913 28.971 36.1913C30.6538 36.1937 33.052 36.1937 34.7347 36.1937C35.8941 36.1937 36.8989 35.3864 37.1528 34.2491C37.6983 31.4368 38.321 27.1199 38.6192 23.5323C38.6832 22.6984 38.2327 21.9102 37.4863 21.5455C36.4395 21.0648 34.6773 20.5244 32.0141 20.5244C29.2758 20.5244 27.4097 21.0961 26.3078 21.5917C25.5547 21.9448 25.0932 22.7265 25.1462 23.5609C25.3935 27.0929 25.9787 31.3013 26.5507 34.2322Z" fill="#FCF5EB"/>
</g>
</g>
<defs>
<clipPath id="clip0_3436_1943">
<rect width="64" height="64" fill="white"/>
</clipPath>
<clipPath id="clip1_3436_1943">
<rect width="46" height="49.1011" fill="white" transform="translate(9 7)"/>
</clipPath>
</defs>
</svg>
