<svg width="66" height="18" viewBox="0 0 66 18" fill="none" xmlns="http://www.w3.org/2000/svg">
<path fill-rule="evenodd" clip-rule="evenodd" d="M23.2941 7.76471C25.4383 7.76471 27.1765 6.02652 27.1765 3.88235C27.1765 1.73819 25.4383 0 23.2941 0C21.15 0 19.4118 1.73819 19.4118 3.88235C19.4118 6.02652 21.15 7.76471 23.2941 7.76471ZM7.76471 3.88236C7.76471 6.02652 6.02652 7.76471 3.88235 7.76471C1.73819 7.76471 0 6.02652 0 3.88236C0 1.73819 1.73819 3.5903e-06 3.88235 3.5903e-06C6.02652 3.5903e-06 7.76471 1.73819 7.76471 3.88236ZM17.4706 13.5882C17.4706 15.7323 15.7324 17.4705 13.5882 17.4705C11.4441 17.4705 9.70588 15.7323 9.70588 13.5882C9.70588 11.444 11.4441 9.70582 13.5882 9.70582C15.7324 9.70582 17.4706 11.444 17.4706 13.5882ZM36.8824 13.5882C36.8824 15.7323 35.1442 17.4705 33 17.4705C30.8558 17.4705 29.1176 15.7323 29.1176 13.5882C29.1176 11.444 30.8558 9.70582 33 9.70582C35.1442 9.70582 36.8824 11.444 36.8824 13.5882ZM42.7056 7.76471C44.8498 7.76471 46.588 6.02652 46.588 3.88235C46.588 1.73819 44.8498 0 42.7056 0C40.5615 0 38.8233 1.73819 38.8233 3.88235C38.8233 6.02652 40.5615 7.76471 42.7056 7.76471ZM56.2941 13.5882C56.2941 15.7323 54.5559 17.4705 52.4118 17.4705C50.2676 17.4705 48.5294 15.7323 48.5294 13.5882C48.5294 11.444 50.2676 9.70582 52.4118 9.70582C54.5559 9.70582 56.2941 11.444 56.2941 13.5882ZM62.1176 7.76471C64.2618 7.76471 66 6.02652 66 3.88235C66 1.73819 64.2618 0 62.1176 0C59.9735 0 58.2353 1.73819 58.2353 3.88235C58.2353 6.02652 59.9735 7.76471 62.1176 7.76471Z" fill="#123052" fill-opacity="0.8"/>
</svg>
