<svg fill="none" height="93" viewBox="0 0 330 93" width="330" xmlns="http://www.w3.org/2000/svg" xmlns:xlink="http://www.w3.org/1999/xlink"><filter id="a" color-interpolation-filters="sRGB" filterUnits="userSpaceOnUse" height="91.89" width="457.687" x="-63.9404" y="-1.23154"><feFlood flood-opacity="0" result="BackgroundImageFix"/><feColorMatrix in="SourceAlpha" result="hardAlpha" type="matrix" values="0 0 0 0 0 0 0 0 0 0 0 0 0 0 0 0 0 0 127 0"/><feOffset dy="2"/><feGaussianBlur stdDeviation="2.5"/><feComposite in2="hardAlpha" operator="out"/><feColorMatrix type="matrix" values="0 0 0 0 0 0 0 0 0 0 0 0 0 0 0 0 0 0 0.18 0"/><feBlend in2="BackgroundImageFix" mode="normal" result="effect1_dropShadow_285_234"/><feBlend in="SourceGraphic" in2="effect1_dropShadow_285_234" mode="normal" result="shape"/></filter><clipPath id="b"><path d="m0 0h330v93h-330z"/></clipPath><g clip-path="url(#b)"><g filter="url(#a)"><path d="m-58.9404 44.794h446v39.0466h-446z" fill="#f1dd02" transform="matrix(.9953359 -.09646994 .09646994 .9953359 -4.596179 -5.477053)"/></g><g fill="#1e1e1e"><path d="m56.3876 63.2716 1.6564-.7884c.2894.7421.9684 1.0368 1.8508.9503.6797-.0667 1.3979-.3538 1.3372-.9738-.055-.5605-.6781-.7763-1.553-.8591l-.9846-.0961c-1.3243-.123-2.5071-.6451-2.6404-2.0045-.1671-1.7052 1.5348-2.6425 3.1327-2.7991 1.2878-.1263 2.6009.2507 3.2221 1.4298l-1.6444.7872c-.2672-.5156-.845-.7599-1.5962-.6863-.7274.0713-1.249.3994-1.2011.8883.0397.4054.4267.6684.9857.722l1.0942.1094c1.3136.1361 2.9273.3873 3.0886 2.0328.166 1.6933-1.4587 2.8036-3.1043 2.9649-1.741.1707-3.0297-.4494-3.6437-1.6774zm7.3382-.4424c-.1414-1.4429 1.4443-2.0919 3.7174-2.4833l-.0222-.2265c-.0666-.6797-.4489-.8951-1.0809-.8331-.5008.0491-.884.3154-.9565.8041l-1.5801-.3989c.3163-.8256 1.2118-1.5154 2.5712-1.6486 1.6813-.1648 2.69.4225 2.8653 2.2112l.1274 1.2997c.076.7751.26 1.7924.4295 2.2935l-1.6813.1648-.2848-.6944c-.3804.6633-1.0486.9696-1.8953 1.0526-1.1209.1098-2.1045-.4679-2.2097-1.5411zm3.8584-1.4136c-1.2416.2301-2.0599.4788-1.9991 1.0989.0374.3816.4196.5969.8966.5502.7155-.0702 1.2229-.4209 1.1165-1.506zm4.715 2.1864-2.6903-5.7076 1.8721-.1835 1.6591 3.9065.8689-4.1543 1.8721-.1835-1.5428 6.1225zm4.0424-3.418c-.1847-1.8841 1.1401-3.2298 2.8691-3.3993 1.9437-.1906 3.2941 1.1819 3.3794 3.2804l-4.3762.4289c.1415.8289.8251 1.1712 1.4929 1.1058.5604-.055.9483-.2736 1.1492-.5581l1.4942.3832c-.5312.967-1.4919 1.4826-2.4578 1.5773-1.9198.1881-3.3591-.8626-3.5508-2.8182zm3.0489-2.0566c-.6797.0667-1.2539.4721-1.2818 1.2935l2.6949-.2642c-.0986-.7608-.7096-1.0982-1.4131-1.0293zm7.5258 1.0321c-.2093-2.1345 1.1866-3.2465 2.8322-3.4078 1.6217-.159 3.2188.6596 3.428 2.7941.2093 2.1345-1.1962 3.2715-2.8179 3.4304-1.6455.1613-3.2331-.6823-3.4423-2.8167zm2.9701-2.0007c-.7155.0701-1.2446.5674-1.1219 1.8195.1216 1.2401.7169 1.6633 1.4562 1.5908.7274-.0713 1.2291-.602 1.1076-1.8421-.1228-1.2521-.7384-1.6372-1.4419-1.5682zm3.8879-1.6332 1.5859-.1554.3037.7648c.2191-.4669.8247-1.044 1.7309-1.1328 1.5264-.1496 2.0779.6872 2.2345 2.285l.353 3.6012-1.8125.1777-.3085-3.1481c-.0819-.8347-.1854-1.5228-1.0559-1.4374-.7632.0748-1.0421.6679-.9369 1.7411l.298 3.0407-1.8124.1777zm10.7417 3.0283 1.656-.7884c.29.7421.969 1.0367 1.851.9502.68-.0666 1.398-.3537 1.337-.9738-.055-.5604-.678-.7762-1.553-.859l-.984-.0961c-1.325-.123-2.508-.6451-2.641-2.0045-.167-1.7052 1.535-2.6425 3.133-2.7991 1.288-.1263 2.601.2507 3.222 1.4298l-1.644.7872c-.268-.5156-.845-.7599-1.597-.6863-.727.0713-1.249.3994-1.201.8883.04.4054.427.6684.986.722l1.094.1094c1.314.1361 2.928.3872 3.089 2.0328.166 1.6933-1.459 2.8036-3.104 2.9649-1.741.1707-3.03-.4494-3.644-1.6774zm6.979-3.3688-.136-1.3832.978-.0959-.145-1.4786 1.813-.1777.145 1.4787 1.287-.1263.136 1.3832-1.288.1263.234 2.3849c.055.5604.244.6502.829.5929l.524-.0514.145 1.4786-1.145.1122c-1.454.1426-1.982-.0826-2.119-1.4777l-.28-2.8618zm4.649-.4557-.135-1.3833 2.945-.2887.58 5.9145-1.825.1788-.444-4.5312zm1.808-2.5609c-.596.0584-1.121-.3837-1.178-.968-.059-.5963.371-1.12.968-1.1784.596-.0585 1.119.3718 1.178.968.057.5843-.372 1.1199-.968 1.1784zm5.441 6.5696c-1.956.1917-3.153-.9671-3.337-2.8392-.182-1.8602.926-3.2088 2.726-3.3853 1.014-.0994 2.16.1735 2.823 1.2883l-1.46.697c-.24-.4821-.664-.6332-1.117-.5887-.656.0642-1.245.5674-1.122 1.8194.126 1.2879.812 1.654 1.456 1.5909.501-.0491.837-.2988 1.006-.6645l1.531.3917c-.502 1.1328-1.564 1.5981-2.506 1.6904zm2.681-8.4493 1.813-.1777.42 4.2928 1.76-2.4358 2.146-.2104-2.071 2.6951 2.83 3.2018-2.146.2104-1.749-1.9956-.556.7166.146 1.4906-1.812.1776zm6.594 4.3739c-.185-1.8841 1.14-3.2299 2.869-3.3993 1.944-.1906 3.294 1.1819 3.379 3.2804l-4.376.4289c.142.8289.825 1.1712 1.493 1.1058.56-.055.948-.2736 1.149-.5581l1.494.3832c-.531.967-1.492 1.4826-2.457 1.5772-1.92.1882-3.36-.8625-3.551-2.8181zm3.049-2.0566c-.68.0667-1.254.4721-1.282 1.2935l2.695-.2642c-.099-.7608-.71-1.0982-1.413-1.0293zm6.121 4.1795-1.813.1776-.58-5.9144 1.431-.1403.429 1.0536c.276-.9902.874-1.398 1.785-1.4391l.178 1.8125c-.194-.0052-.326-.0042-.493.0121-.882.0865-1.322.5149-1.23 1.4569zm5.19-.3643c-1.384.1356-2.495-.2731-3.045-1.2184l1.483-.7113c.228.4833.788.6692 1.468.6026.584-.0573 1.103-.2888 1.067-.6584-.025-.2504-.28-.394-.971-.4466l-1.079-.0748c-1.163-.0786-2.007-.5858-2.104-1.5755-.122-1.2401 1.068-1.9948 2.535-2.1386 1.133-.111 2.219.1677 2.752 1.0545l-1.472.7101c-.161-.4176-.626-.4924-1.162-.4398-.644.0631-.962.2628-.931.5728.023.2385.24.3617.774.4057l1.117.0951c1.456.1221 2.165.474 2.262 1.4637.137 1.3952-1.108 2.2034-2.694 2.3589zm4.601-.4872c-.524-.069-.951-.4966-1.005-1.0451-.063-.6439.411-1.2081 1.055-1.2712.632-.062 1.207.3993 1.271 1.0552.014.1431.004.2885-.03.4243l-.69 2.4272-1.073.1052zm7.857-7.2471-2.563.2513-.163-1.6575 7-.6861.162 1.6575-2.564.2513.619 6.308-1.872.1835zm4.204 2.9348c-.185-1.8841 1.14-3.2298 2.869-3.3993 1.943-.1906 3.294 1.1819 3.379 3.2804l-4.376.429c.141.8288.825 1.1711 1.493 1.1057.56-.055.948-.2736 1.149-.5581l1.494.3832c-.531.967-1.492 1.4826-2.458 1.5773-1.919.1882-3.359-.8626-3.55-2.8182zm3.049-2.0566c-.68.0667-1.254.4721-1.282 1.2935l2.695-.2642c-.099-.7608-.71-1.0982-1.413-1.0293zm3.705 1.3945c-.185-1.884 1.14-3.2298 2.869-3.3993 1.943-.1905 3.294 1.182 3.379 3.2804l-4.376.429c.141.8289.825 1.1712 1.493 1.1057.56-.0549.948-.2735 1.149-.5581l1.494.3833c-.531.967-1.492 1.4825-2.458 1.5772-1.919.1882-3.359-.8626-3.55-2.8182zm3.049-2.0565c-.68.0666-1.254.472-1.282 1.2934l2.695-.2642c-.099-.7608-.71-1.0982-1.413-1.0292zm6.874 4.2501c-1.383.1355-2.495-.2732-3.045-1.2185l1.483-.7112c.228.4833.788.6692 1.468.6026.584-.0573 1.103-.2888 1.067-.6584-.024-.2505-.279-.394-.971-.4466l-1.078-.0749c-1.164-.0785-2.008-.5857-2.105-1.5754-.122-1.2401 1.068-1.9949 2.535-2.1386 1.133-.1111 2.22.1676 2.752 1.0545l-1.471.71c-.162-.4175-.627-.4924-1.163-.4398-.644.0632-.962.2628-.931.5729.023.2384.24.3617.774.4056l1.117.0952c1.456.1221 2.165.474 2.262 1.4637.137 1.3951-1.108 2.2034-2.694 2.3589zm4.601-.4872c-.524-.069-.951-.4966-1.005-1.0452-.063-.6439.411-1.208 1.055-1.2712.632-.0619 1.207.3994 1.271 1.0552.014.1431.005.2886-.03.4244l-.689 2.4272-1.073.1052zm5.477-8.6872 2.826-.277 2.218 5.5493 1.121-5.8766 2.826-.277.781 7.9654-1.836.18-.614-6.2602-1.282 6.4461-1.551.1519-2.497-6.0756.613 6.2603-1.824.1788zm10.311 1.06 1.812-.1777.304 3.1004c.083.8466.176 1.5478 1.058 1.4613.763-.0748 1.006-.5441.899-1.6411l-.305-3.1122 1.824-.1789.58 5.9145-1.574.1543-.332-.8102c-.289.6182-.715 1.0573-1.622 1.1461-1.574.1543-2.138-.6932-2.296-2.303zm6.767 2.1899c-.202-2.063.97-3.1289 2.198-3.2493.751-.0736 1.512.2009 2.029.8004l.159-.8342 1.562-.1532.536 5.4733c.195 1.9914-.888 2.9764-2.736 3.1576-.978.0958-2.107-.1186-2.761-1.1499l1.426-.6816c.256.4083.734.4938 1.152.4529.727-.0713 1.233-.4339 1.154-1.2448l-.104-1.0612c-.451.6822-1.114 1.0481-1.781 1.1136-1.288.1262-2.657-.8231-2.834-2.6236zm1.875-.2801c.103 1.0493.749 1.5036 1.465 1.4335.703-.069 1.264-.4851 1.151-1.6418s-.747-1.4798-1.451-1.4108c-.715.0701-1.267.5817-1.165 1.6191zm8.419 2.5336c-1.383.1356-2.495-.2731-3.045-1.2185l1.483-.7112c.228.4833.788.6692 1.468.6026.584-.0573 1.103-.2888 1.067-.6584-.025-.2504-.279-.394-.971-.4466l-1.079-.0748c-1.163-.0786-2.007-.5858-2.104-1.5755-.122-1.2401 1.068-1.9948 2.535-2.1386 1.133-.1111 2.219.1677 2.752 1.0545l-1.472.7101c-.161-.4176-.626-.4924-1.162-.4398-.644.0631-.962.2627-.931.5728.023.2385.24.3617.774.4056l1.117.0952c1.456.1221 2.165.474 2.262 1.4637.137 1.3952-1.108 2.2034-2.694 2.3589zm7.09-3.1389c-.084-.8586.389-1.8078 1.657-2.498-.576-.5937-.851-1.1927-.904-1.7293-.118-1.2044.875-2.1323 2.282-2.2703 1.157-.1133 2.382.7176 2.494 1.8624.068.6916-.274 1.5076-1.293 2.2817l1.247 1.178c.251-.5062.434-1.102.51-1.7957l1.514-.1484c-.075 1.1992-.46 2.3084-.907 3.0264l1.66 1.5829-2.098.2057-.611-.5782c-.851.6493-1.676.9588-2.427 1.0325-1.705.1671-3.001-.8977-3.124-2.1497zm1.889-.2574c.052.5366.612.9633 1.327.8932.37-.0363.81-.2119 1.225-.5294l-1.671-1.5698c-.677.3432-.921.8006-.881 1.206zm1.208-4.8738c-.418.0409-.727.3241-.687.7295.03.31.274.7075.856 1.12.576-.3816.786-.8235.752-1.1693-.042-.4293-.433-.7281-.921-.6802zm8.776-1.7752 2.826-.2771 2.217 5.5493 1.122-5.8765 2.826-.2771.781 7.9655-1.837.18-.613-6.2603-1.283 6.4462-1.55.1519-2.497-6.0756.613 6.2603-1.824.1788zm10.288 4.0238c-.209-2.1345 1.187-3.2465 2.832-3.4078 1.622-.1589 3.219.6597 3.428 2.7941.21 2.1345-1.196 3.2715-2.818 3.4304-1.645.1613-3.233-.6823-3.442-2.8167zm2.97-2.0007c-.715.0701-1.244.5674-1.122 1.8195.122 1.2401.717 1.6633 1.456 1.5909.728-.0713 1.23-.6021 1.108-1.8422-.123-1.2521-.738-1.6372-1.442-1.5682zm6.28 4.1037-1.812.1776-.58-5.9145 1.431-.1402.428 1.0535c.276-.9901.875-1.3979 1.785-1.439l.178 1.8125c-.193-.0052-.325-.0042-.492.0121-.883.0865-1.322.5148-1.23 1.4569zm2.021-3.2199c-.185-1.884 1.14-3.2298 2.869-3.3993 1.944-.1905 3.294 1.1819 3.38 3.2804l-4.377.429c.142.8288.826 1.1711 1.493 1.1057.561-.055.949-.2736 1.149-.5581l1.495.3832c-.532.9671-1.492 1.4826-2.458 1.5773-1.92.1882-3.359-.8626-3.551-2.8182zm3.049-2.0565c-.68.0666-1.254.472-1.282 1.2934l2.695-.2642c-.099-.7608-.709-1.0982-1.413-1.0292zm10.373 2.7273c-.063-.6439.41-1.2201 1.054-1.2832s1.208.4113 1.271 1.0552-.398 1.2189-1.042 1.282-1.22-.4101-1.283-1.054zm-6.272.6148c-.063-.6439.41-1.22 1.054-1.2831.632-.062 1.208.4112 1.271 1.0552.063.6439-.41 1.22-1.042 1.2819-.644.0631-1.22-.4101-1.283-1.054zm3.148-.3086c-.063-.6439.386-1.2177 1.03-1.2808s1.22.4101 1.283 1.054c.063.644-.41 1.2201-1.054 1.2832s-1.196-.4125-1.259-1.0564z"/><path clip-rule="evenodd" d="m273.671 18.177 4.056-.3976.338 3.4431-.333 4.9304-2.459.241-1.265-4.7743zm1.071 10.9257c-.111-1.1314.723-2.1187 1.848-2.2289 1.108-.1086 2.116.6997 2.227 1.8294.11 1.1264-.717 2.1365-1.828 2.2455-1.128.1106-2.137-.718-2.247-1.846z" fill-rule="evenodd"/><path clip-rule="evenodd" d="m265.555 23.2888c.784-.9687 1.967-1.5827 3.411-1.7242 1.616-.1584 3.495.2753 4.582 2.1031l.14.2354-2.716 1.2962-.11-.2202c-.161-.3247-.378-.5262-.621-.6427-.245-.1179-.535-.1565-.849-.1256-.448.0439-.856.2345-1.136.6138-.281.3818-.456.9888-.366 1.9122.093.9515.389 1.5212.741 1.8429.35.3195.787.4232 1.226.3801.69-.0676 1.127-.4031 1.346-.8782l.087-.189 2.844.7274-.12.2704c-.822 1.8519-2.556 2.6004-4.061 2.748-1.56.1529-2.845-.2318-3.778-1.0547-.931-.8206-1.482-2.0513-1.628-3.5378-.145-1.4867.223-2.7887 1.008-3.7571z" fill-rule="evenodd"/><path clip-rule="evenodd" d="m259.497 19.8176c-.103-1.0547.659-1.9827 1.714-2.0861 1.054-.1034 1.982.6589 2.086 1.7136.101 1.0345-.658 1.9826-1.714 2.0861-1.056.1036-1.985-.6791-2.086-1.7136zm-1.201 3.0522 5.029-.493.94 9.5968-3.304.324-.683-6.9712-1.725.169z" fill-rule="evenodd"/><path clip-rule="evenodd" d="m253.196 20.184 3.286-.3221.902 9.2012c.042.424.129.5645.225.6271.053.0348.135.0632.271.0748.138.0116.313.0048.543-.0177l1.037-.1017.272 2.7724-2.028.1988c-1.113.1091-1.96.092-2.551-.2881-.611-.3936-.876-1.1224-.983-2.2097z" fill-rule="evenodd"/><path clip-rule="evenodd" d="m242.268 21.2552 3.286-.3221.385 3.9269c.628-.7629 1.593-1.1944 2.421-1.2755 1.24-.1216 2.36.2401 3.207 1.0353.845.7928 1.397 1.9968 1.547 3.5283.15 1.5313-.155 2.8454-.824 3.8132-.672.9713-1.698 1.5749-2.943 1.6969-.882.0865-2.004-.1471-2.782-.8748l-.17.942-2.877.282zm4.29 5.7297c-.28.3961-.441 1.0083-.354 1.8962.089.9075.367 1.4753.716 1.8041.346.325.792.4454 1.286.397.894-.0877 1.67-.9946 1.512-2.6012-.077-.7901-.351-1.3498-.707-1.6975-.354-.3456-.803-.4963-1.271-.4504-.49.048-.904.2598-1.182.6518z" fill-rule="evenodd"/><path clip-rule="evenodd" d="m232.115 25.4361 3.286-.3221.492 5.0186c.066.6657.132 1.206.325 1.5693.091.172.206.2925.357.3675.153.0762.366.1171.673.087.536-.0525.831-.2339.998-.5428.182-.3362.242-.8737.16-1.7088l-.494-5.0369 3.305-.3239.94 9.5968-2.855.2799-.381-.9288c-.189.3034-.417.5755-.707.8001-.438.3389-.997.5554-1.732.6274-1.259.1234-2.172-.1506-2.793-.8346-.607-.6677-.891-1.6814-1.013-2.933z" fill-rule="evenodd"/><path clip-rule="evenodd" d="m224.411 27.1375c.617-.8756 1.667-1.3689 2.558-1.4562 1.244-.122 2.367.2657 3.214 1.0811.844.8125 1.399 2.0334 1.548 3.5559.151 1.5403-.156 2.8375-.83 3.7859-.675.9516-1.704 1.5292-2.945 1.6508-.83.0814-1.86-.1674-2.623-.7977l.37 3.7783-3.286.3221-1.23-12.5503 2.856-.28zm.752 1.9217c-.278.3832-.442.9842-.354 1.882.088.8976.367 1.4766.721 1.8178.349.3374.797.4679 1.285.42.468-.0459.879-.2806 1.158-.6921.282-.4144.441-1.026.362-1.8357-.156-1.5844-1.088-2.3093-1.986-2.2213-.495.0486-.91.25-1.186.6293z" fill-rule="evenodd"/><path clip-rule="evenodd" d="m210.784 32.316c-.299-3.0526 1.858-5.2304 4.639-5.5029 1.562-.1532 2.904.3226 3.871 1.2734.963.9478 1.534 2.3476 1.602 4.012l.009.236-6.684.6552c.129.431.375.737.676.9373.363.2419.823.3395 1.289.2939.813-.0796 1.332-.392 1.588-.7539l.099-.1408 2.778.7124-.155.2825c-.863 1.5709-2.421 2.4026-3.976 2.555-1.527.1497-2.886-.1919-3.906-.9823-1.021-.7919-1.677-2.015-1.83-3.5778zm3.245-1.4768 3.571-.3501c-.102-.384-.311-.6593-.58-.8412-.331-.2233-.775-.3201-1.272-.2714-.483.0474-.91.2133-1.218.4951-.25.2287-.433.5447-.501.9676z" fill-rule="evenodd"/><path clip-rule="evenodd" d="m200.393 33.3346c-.299-3.0526 1.858-5.2304 4.638-5.5029 1.563-.1532 2.905.3226 3.872 1.2734.963.9478 1.534 2.3475 1.602 4.012l.009.2359-6.684.6553c.129.431.374.737.675.9373.364.2419.824.3395 1.29.2939.812-.0797 1.332-.3921 1.588-.754l.099-.1408 2.778.7125-.155.2825c-.863 1.5708-2.421 2.4025-3.976 2.5549-1.528.1498-2.887-.1918-3.906-.9822-1.021-.7919-1.677-2.015-1.83-3.5778zm3.245-1.4768 3.571-.3501c-.102-.384-.311-.6594-.58-.8412-.331-.2233-.775-.3201-1.272-.2714-.483.0473-.91.2133-1.218.4951-.25.2287-.434.5447-.501.9676z" fill-rule="evenodd"/><path clip-rule="evenodd" d="m189.708 26.4074 11.266-1.1044.299 3.0476-3.944.3866.951 9.7046-3.378.3311-.951-9.7046-3.944.3867z" fill-rule="evenodd"/><path clip-rule="evenodd" d="m176.869 34.1032c-.355-3.623 2.309-6.8859 5.968-7.2446 3.505-.3435 6.699 2.0961 7.049 5.6723l.023.2318c.126 2.4814-1.364 3.7996-2.828 3.9431-.792.0776-1.582-.1898-2.073-.8136-.526.7035-1.258 1.1031-2.003 1.1761-1.437.1409-2.876-.8838-3.078-2.95-.142-1.4471.205-2.4888.868-3.1916.658-.6967 1.591-1.0235 2.554-1.1178.764-.0749 1.576-.0005 2.297.1575l.177.039.358 3.6481c.037.3753.167.6192.318.7624.151.1423.337.2001.523.1819.422-.0413.999-.5078.966-1.7599l-.023-.2298c-.248-2.5292-2.492-4.209-4.99-3.9641-2.685.2631-4.599 2.669-4.341 5.3047.262 2.6653 2.648 4.5826 5.34 4.3188.835-.0819 1.561-.3628 2.255-.8547l.351-.2493.199 2.0222-.143.0799c-.75.4212-1.628.6994-2.542.789-3.624.3552-6.868-2.3105-7.225-5.9514zm5.609-1.7119c-.207.249-.354.6866-.278 1.4672.037.3753.167.6185.32.7611.152.1415.342.2007.54.1813.415-.0406.941-.4976.845-1.48l-.131-1.3301c-.142-.0068-.289-.0074-.433.0067-.352.0345-.657.145-.863.3938z" fill-rule="evenodd"/><path d="m168.231 27.4013c-1.234.121-2.169.3625-2.761.8989-.612.5544-.805 1.3698-.696 2.4879l.121 1.2372-3.45.3381-.096-.9803c-.033-.3413.017-.4301.077-.4792.043-.0347.118-.0728.259-.1073.14-.0343.325-.0605.57-.0845l1.019-.0999-.265-2.699-1.514.1484c-1.235.121-2.169.3625-2.761.8989-.612.5544-.806 1.3698-.696 2.4879l.121 1.2372-1.504.1474.257 2.6257 1.504-.1475.684 6.9712 3.286-.3222-.683-6.9711 3.45-.3382.683 6.9712 3.286-.3221-.683-6.9712 1.981-.1942-.257-2.6257-1.982.1943-.096-.9804c-.033-.3413.018-.4301.078-.4792.042-.0347.118-.0727.259-.1073.14-.0343.324-.0605.569-.0845l1.019-.0999-.264-2.699z"/><path clip-rule="evenodd" d="m148.129 34.6365c.863-.923 2.094-1.4324 3.406-1.561 1.295-.1268 2.597.1346 3.623.872 1.031.7415 1.758 1.9461 1.925 3.651.167 1.7048-.311 3.0362-1.177 3.9726-.862.9319-2.087 1.4512-3.383 1.5782-1.314.1288-2.622-.1418-3.648-.8889-1.032-.7509-1.754-1.9648-1.921-3.669-.167-1.7043.307-3.0269 1.175-3.9549zm2.5 1.7154c-.269.3783-.425.9825-.334 1.912.09.922.353 1.4962.69 1.827.33.3243.764.4463 1.277.3961.502-.0493.9-.2521 1.159-.6343.265-.39.411-1.0047.321-1.9267-.092-.9294-.362-1.4923-.698-1.8115-.331-.314-.76-.4244-1.248-.3766-.498.0488-.902.2416-1.167.614z" fill-rule="evenodd"/><path clip-rule="evenodd" d="m122.746 36.6675c-.21-2.1354 1.343-4.0502 3.482-4.2598 2.12-.2078 4.034 1.3663 4.243 3.5025.21 2.1395-1.369 4.0156-3.486 4.2231-2.135.2093-4.03-1.3272-4.239-3.4658zm11.409-4.8146 2.938-.288-7.684 13.628-2.919.286zm-7.664 3.2355c-.65.0636-1.13.6444-1.065 1.3163.064.6514.647 1.1301 1.298 1.0662.672-.0658 1.149-.6504 1.085-1.2998-.066-.6697-.648-1.1484-1.318-1.0827zm6.602 6.0471c-.21-2.1386 1.35-4.0137 3.486-4.2231 2.135-.2093 4.03 1.3272 4.239 3.4659.21 2.1353-1.343 4.0501-3.482 4.2597-2.139.2097-4.034-1.3671-4.243-3.5025zm3.747-1.5607c-.656.0643-1.149.6524-1.085 1.2998.065.6677.665 1.1468 1.318 1.0828.654-.0641 1.148-.6504 1.083-1.3182-.064-.6473-.661-1.1287-1.316-1.0644z" fill-rule="evenodd"/><path clip-rule="evenodd" d="m112.338 33.9914 8.669-.8498.272 2.7725-5.917.58-.035 1.606c.591-.3428 1.389-.5742 2.092-.6432 1.144-.1121 2.315.1514 3.242.8271.931.6793 1.597 1.7626 1.743 3.251.145 1.4796-.356 2.6801-1.249 3.5399-.886.8539-2.146 1.3595-3.509 1.4932-2.204.216-4.168-.5939-5.176-2.4425l-.126-.2314 2.814-1.3468.099.2474c.214.5328.515.8487.847 1.0266.335.1798.727.2312 1.143.1905.593-.0582 1.065-.2835 1.372-.6357.305-.3498.472-.8511.407-1.5101-.067-.6917-.349-1.1487-.719-1.4243-.375-.2791-.868-.3915-1.388-.3405-.807.0791-1.385.5111-1.696 1.2395l-.084.1986-2.967-.7796z" fill-rule="evenodd"/><path clip-rule="evenodd" d="m100.611 37.7658c.571-2.0848 2.567-3.0987 4.634-3.3013 1.15-.1127 2.36.0199 3.321.4793.97.4638 1.695 1.2678 1.813 2.4728.121 1.2327-.459 2.2862-1.177 2.9497 1.124.5077 1.835 1.6835 1.94 2.7542.133 1.3617-.389 2.4454-1.276 3.2125-.879.7603-2.108 1.2043-3.401 1.3311-2.133.209-4.248-.4642-5.254-2.4608l-.115-.2281 2.919-1.3935.095.2571c.194.5249.509.852.879 1.0417.376.1922.827.2519 1.297.2058.539-.0528.935-.2299 1.184-.4816.243-.2463.368-.5872.325-1.0265-.032-.3293-.144-.5749-.308-.7618-.167-.1891-.401-.3327-.699-.434-.604-.2051-1.428-.222-2.336-.133l-.249.0244-.239-2.4422.249-.0244c1.037-.1017 1.798-.3276 2.279-.6378.468-.302.657-.6702.615-1.0987-.038-.3861-.243-.6529-.552-.8216-.318-.1738-.754-.2439-1.223-.1978-.417.0408-.796.1685-1.082.4001-.28.2272-.489.5687-.546 1.0794l-.033.2859-3.127-.8061z" fill-rule="evenodd"/><path clip-rule="evenodd" d="m85.6047 40.7654c.8634-.923 2.0949-1.4324 3.4069-1.561 1.2943-.1269 2.5964.1345 3.6222.8719 1.0313.7415 1.7578 1.9461 1.9249 3.6511.1672 1.7048-.3106 3.0361-1.1765 3.9726-.8617.9318-2.0873 1.4511-3.3832 1.5781-1.3134.1288-2.6214-.1418-3.6481-.8889-1.0317-.7508-1.7539-1.9648-1.921-3.669-.167-1.7043.3067-3.0268 1.1748-3.9548zm2.5005 1.7153c-.2696.3783-.4253.9825-.3342 1.912.0904.922.3532 1.4962.6901 1.827.3303.3243.7644.4463 1.277.3961.5022-.0492.9-.252 1.1592-.6343.2645-.39.4107-1.0047.3203-1.9266-.0911-.9295-.3612-1.4924-.6974-1.8115-.3308-.3141-.76-.4245-1.2477-.3767-.498.0488-.9019.2416-1.1673.614z" fill-rule="evenodd"/><path clip-rule="evenodd" d="m78.0917 38.2374 3.2861-.3221.223 2.2748 1.9812-.1942.2574 2.6257-1.9813.1942.3353 3.4202c.0416.4239.1288.5664.2224.6292.0512.0343.1292.0625.2596.0743.1315.0119.2998.0058.5196-.0157l1.056-.1035.2718 2.7724-2.01.197c-1.1122.1091-1.9594.092-2.5502-.2881-.6119-.3936-.8768-1.1224-.9833-2.2097l-.4072-4.154-1.5043.1474-.2574-2.6256 1.5043-.1475z" fill-rule="evenodd"/><path clip-rule="evenodd" d="m63.9089 42.8705c.617-.8756 1.6669-1.3688 2.5582-1.4562 1.244-.122 2.3669.2657 3.2141 1.0811.8442.8125 1.3985 2.0334 1.5478 3.5559.151 1.5403-.1563 2.8376-.8295 3.7859-.6756.9517-1.7042 1.5292-2.945 1.6509-.8301.0813-1.8606-.1675-2.6237-.7977l.3704 3.7782-3.2861.3221-1.2303-12.5503 2.8566-.28zm.7526 1.9217c-.2788.3832-.442.9842-.354 1.882.0879.8976.3669 1.4766.7202 1.8179.3493.3373.7973.4678 1.2853.4199.4682-.0459.8788-.2805 1.1583-.6921.2813-.4144.4409-1.026.3615-1.8357-.1553-1.5844-1.0875-2.3093-1.9853-2.2213-.4951.0486-.9101.25-1.186.6293z" fill-rule="evenodd"/><path clip-rule="evenodd" d="m48.1533 40.2831 3.3962-.3329.7239 7.385c.0889.9076.2457 1.5727.5864 1.9917.3201.3937.846.6172 1.8166.522.9605-.0941 1.4286-.4145 1.6642-.8626.2509-.4772.2755-1.1606.1866-2.068l-.724-7.3851 3.3962-.3329.7005 7.1466c.1876 1.9134-.0383 3.4199-.8448 4.4982-.8107 1.0838-2.1647 1.6785-4.098 1.868-1.9509.1912-3.3995-.1284-4.4056-1.0345-1.0008-.9014-1.5102-2.3362-1.6976-4.249z" fill-rule="evenodd"/></g></g></svg>