<svg fill="none" height="18" viewBox="0 0 70 18" width="70" xmlns="http://www.w3.org/2000/svg"><path d="m15.5879 9.97076c2.1441 0 3.8827 1.73784 3.8828 3.88184 0 2.1442-1.7386 3.8828-3.8828 3.8828-2.144-.0002-3.8818-1.7388-3.8818-3.8828.0001-2.1439 1.7379-3.88165 3.8818-3.88184zm19.4121 0c2.1441 0 3.8827 1.73784 3.8828 3.88184 0 2.1442-1.7386 3.8828-3.8828 3.8828s-3.8828-1.7386-3.8828-3.8828c.0001-2.144 1.7387-3.88184 3.8828-3.88184zm19.4121 0c2.1439.00019 3.8817 1.73794 3.8818 3.88184 0 2.144-1.7378 3.8826-3.8818 3.8828-2.1442 0-3.8828-1.7386-3.8828-3.8828.0001-2.144 1.7387-3.88184 3.8828-3.88184zm-48.52929-9.706051c2.14396.000249 3.88184 1.738801 3.88184 3.882811-.00025 2.1438-1.73804 3.88159-3.88184 3.88184-2.14401 0-3.88256-1.73789-3.88281-3.88184 0-2.14416 1.73865-3.882811 3.88281-3.882811zm19.41109 0c2.1442 0 3.8829 1.738651 3.8829 3.882811-.0003 2.14395-1.7388 3.88184-3.8829 3.88184-2.1439-.00009-3.8815-1.73794-3.8818-3.88184 0-2.14411 1.7378-3.882718 3.8818-3.882811zm19.4122 0c2.1439.000222 3.8818 1.738781 3.8818 3.882811-.0003 2.14382-1.738 3.88162-3.8818 3.88184-2.1441 0-3.8826-1.73789-3.8829-3.88184 0-2.14416 1.7387-3.882811 3.8829-3.882811zm19.4111 0c2.1442 0 3.8828 1.738651 3.8828 3.882811-.0003 2.14395-1.7388 3.88184-3.8828 3.88184-2.1438-.00025-3.8816-1.73804-3.8818-3.88184 0-2.14401 1.7378-3.882562 3.8818-3.882811z" fill="#e2d5c0"/></svg>