<svg fill="none" height="500" viewBox="0 0 500 500" width="500" xmlns="http://www.w3.org/2000/svg" xmlns:xlink="http://www.w3.org/1999/xlink"><clipPath id="a"><path d="m68 56h364v387.634h-364z"/></clipPath><rect fill="#f0e600" height="488" rx="110" width="488" x="6" y="6"/><g clip-path="url(#a)" clip-rule="evenodd" fill-rule="evenodd"><path d="m187.891 117.441c7.019-8.779 14.108-16.566 21.056-23.1095.228-.2397 23.649-24.548 62.338-38.2311.582-.2008 1.232-.1037 1.72.2591s.743.9397.674 1.5292c-.55 4.7036-1.628 13.8707-1.628 13.8707 8.191.8747 15.769 4.3731 19.124 6.1159.439.2397.74.6545.816 1.1275.077.4794-.079.9651-.423 1.315-2.535 2.6239-7.604 7.8395-7.613 7.846 9.118 7.5995 18.62 17.5572 27.995 29.2772 4.434-.304 8.508-.778 12.188-1.503 6.568-1.296 11.734-3.194 14.849-7.081 4.388-5.468 4.257-14.0333.854-27.2175 0 0-2.039-7.9039-3.339-12.9378-.184-.7192.07-1.4772.65-1.9307.579-.46 1.375-.5313 2.028-.1879 4.601 2.4295 11.818 6.2389 11.818 6.2389 44.87 23.6862 59.216 49.251 52.466 76.417-2.061 8.292-9.728 16.332-21.927 22.954-5.212 2.831-11.288 5.481-17.979 7.943 22.365 2.682 51.026 6.115 63.447 7.605 1.641.195 3.103 1.083 3.985 2.411.883 1.334 1.093 2.973.573 4.47-6.595 19.203-25.567 33.1-47.917 33.1-4.381 0-8.633-.538-12.689-1.542 7.439 21.833 19.896 65.188 14.923 131.388-.032.434-.281.823-.669 1.056-.389.234-.869.272-1.293.11-3.975-1.529-13.08-5.034-13.08-5.034-3.221 16.398-8.943 29.44-11.198 34.182-.198.389-.601.655-1.056.68-.455.033-.893-.168-1.146-.531-2.39-3.395-7.36-10.463-7.36-10.463l-.028-.058c-28.475 41.956-89.127 66.024-100.13 66.024s-70.22-23.77-100.158-65.966c0 0-4.97 7.068-7.359 10.463-.255.363-.692.564-1.147.531-.455-.025-.858-.291-1.056-.68-2.255-4.742-7.977-17.784-11.198-34.182 0 0-9.105 3.505-13.08 5.034-.424.162-.905.124-1.293-.11-.388-.233-.637-.622-.67-1.056-4.982-66.329 7.485-109.555 14.924-131.388-4.056 1.004-8.308 1.542-12.689 1.542-22.3503 0-41.3219-13.897-47.9172-33.1-.5196-1.497-.3097-3.136.5727-4.47.8824-1.328 2.3446-2.216 3.985-2.411 12.4217-1.49 41.0825-4.923 63.4475-7.605-6.693-2.462-12.772-5.119-17.986-7.95-12.195-6.621-19.8595-14.661-21.9198-22.947-6.7501-27.166 7.5958-52.7308 52.4658-76.417 0 0 7.218-3.8094 11.818-6.2389.653-.3434 1.449-.2721 2.028.1879.58.4535.834 1.2115.65 1.9307-1.3 5.0339-3.339 12.9378-3.339 12.9378-3.405 13.1906-3.534 21.7555.861 27.2235 3.122 3.887 8.3 5.792 14.882 7.081 3.67.72 7.731 1.193 12.149 1.497z" fill="#1e1e1e"/><path d="m305.538 255.201s2.287-8.04 3.881-13.67c.363-1.25 1.367-2.216 2.643-2.514 1.27-.298 2.605.117 3.486 1.082 4.788 5.267 6.958 12.407 4.982 19.365-1.918 6.751-7.243 11.597-13.826 13.664-1.36.421-2.85.065-3.868-.933-1.023-.991-1.418-2.469-1.023-3.842 1.581-5.585 3.725-13.152 3.725-13.152zm-121.256-15.069c.881-.972 2.21-1.387 3.486-1.089 1.27.292 2.28 1.257 2.643 2.514 1.613 5.617 3.907 13.644 3.907 13.644s2.164 7.561 3.758 13.146c.395 1.367.006 2.844-1.018 3.848-1.017.998-2.5 1.354-3.861.933-6.589-2.048-11.927-6.887-13.858-13.632-1.989-6.945.156-14.084 4.943-19.364z" fill="#f0e600"/><path d="m288.188 316.479c.84-4.2-.249-8.552-2.97-11.862-2.721-3.311-6.779-5.231-11.055-5.231-14.165-.001-34.114-.001-48.357-.001-4.338 0-8.459 1.96-11.195 5.336-2.737 3.374-3.81 7.804-2.924 12.058 3.53 16.732 18.302 28.708 35.405 28.708 1.897.005 3.81.005 5.707.005 17.197 0 31.999-12.136 35.389-29 0-.002 0-.002 0-.013zm-75.817-48.579c1.757 8.003 8.848 13.708 17.042 13.708 11.848.017 28.735.017 40.583.017 8.163 0 15.238-5.649 17.026-13.607 3.84-19.677 8.225-49.882 10.324-74.985.451-5.835-2.721-11.35-7.976-13.902-7.37-3.363-19.778-7.144-38.53-7.144-19.281 0-32.42 4-40.179 7.468-5.302 2.471-8.552 7.94-8.179 13.778 1.742 24.714 5.862 54.159 9.889 74.667z" fill="#e7e7d3"/></g></svg>