<svg width="357" height="144" viewBox="0 0 357 144" fill="none" xmlns="http://www.w3.org/2000/svg">
<g clip-path="url(#clip0_206_3293)">
<path fill-rule="evenodd" clip-rule="evenodd" d="M35.9925 30.4452C38.0997 27.8098 40.228 25.4719 42.3138 23.5075C42.3823 23.4355 49.4136 16.1379 61.0284 12.0301C61.2029 11.9698 61.3981 11.999 61.5446 12.1079C61.6911 12.2168 61.7677 12.39 61.7469 12.567C61.5817 13.9791 61.2581 16.7311 61.2581 16.7311C63.7173 16.9937 65.9924 18.044 66.9995 18.5672C67.1314 18.6391 67.2216 18.7637 67.2446 18.9057C67.2675 19.0496 67.2208 19.1954 67.1175 19.3004C66.3563 20.0882 64.8347 21.6539 64.832 21.6559C67.5694 23.9373 70.4219 26.9267 73.2362 30.4452C74.5674 30.3538 75.7904 30.2118 76.8953 29.9939C78.867 29.6049 80.4181 29.0351 81.3532 27.8681C82.6704 26.2266 82.6311 23.6552 81.6096 19.6972C81.6096 19.6972 80.9973 17.3244 80.6071 15.8132C80.5517 15.5973 80.6281 15.3697 80.8022 15.2336C80.9761 15.0955 81.2149 15.0741 81.411 15.1771C82.7923 15.9065 84.959 17.0501 84.959 17.0501C98.4293 24.161 102.736 31.8359 100.71 39.9912C100.091 42.4807 97.7894 44.8944 94.127 46.8822C92.5623 47.7321 90.7381 48.5277 88.7295 49.2668C95.4438 50.072 104.048 51.1028 107.777 51.5501C108.27 51.6085 108.709 51.875 108.973 52.2737C109.238 52.6743 109.301 53.1664 109.145 53.6157C107.165 59.3806 101.47 63.5526 94.7601 63.5526C93.4449 63.5526 92.1685 63.3911 90.9509 63.0897C93.1839 69.6442 96.9237 82.66 95.431 102.534C95.4212 102.664 95.3464 102.781 95.2299 102.851C95.1133 102.921 94.9692 102.933 94.8418 102.884C93.6486 102.425 90.9151 101.373 90.9151 101.373C89.9481 106.295 88.2303 110.211 87.5532 111.634C87.4939 111.751 87.3729 111.831 87.2364 111.839C87.0997 111.848 86.9684 111.788 86.8921 111.679C86.1748 110.66 84.6826 108.538 84.6826 108.538L84.6745 108.52C76.1257 121.116 57.9176 128.342 54.6143 128.342C51.3111 128.342 33.5334 121.206 24.5459 108.538C24.5459 108.538 23.0537 110.66 22.3366 111.679C22.2602 111.788 22.1289 111.848 21.9921 111.839C21.8556 111.831 21.7346 111.751 21.6753 111.634C20.9983 110.211 19.2804 106.295 18.3134 101.373C18.3134 101.373 15.5799 102.425 14.3867 102.884C14.2593 102.933 14.1152 102.921 13.9987 102.851C13.8822 102.781 13.8073 102.664 13.7976 102.534C12.3019 82.6211 16.0446 69.6442 18.2776 63.0897C17.0601 63.3911 15.7836 63.5526 14.4684 63.5526C7.7586 63.5526 2.06313 59.3806 0.0831418 53.6157C-0.0728454 53.1664 -0.00983354 52.6743 0.255072 52.2737C0.519978 51.875 0.95896 51.6085 1.45143 51.5501C5.18053 51.1028 13.7847 50.072 20.499 49.2668C18.4896 48.5277 16.6647 47.7302 15.0993 46.8803C11.4383 44.8925 9.13739 42.4788 8.51889 39.9912C6.49241 31.8359 10.7992 24.161 24.2695 17.0501C24.2695 17.0501 26.4364 15.9065 27.8175 15.1771C28.0136 15.0741 28.2524 15.0955 28.4263 15.2336C28.6004 15.3697 28.6768 15.5973 28.6214 15.8132C28.2312 17.3244 27.619 19.6972 27.619 19.6972C26.5969 23.6572 26.5582 26.2285 27.8774 27.87C28.8149 29.037 30.3693 29.6089 32.3452 29.9959C33.4471 30.2118 34.6662 30.3538 35.9925 30.4452Z" fill="#1E1E1E"/>
<path fill-rule="evenodd" clip-rule="evenodd" d="M71.3111 71.8022C71.3111 71.8022 71.9977 69.3884 72.4762 67.6983C72.5851 67.3229 72.8866 67.0331 73.2697 66.9436C73.6509 66.8542 74.0516 66.9786 74.3162 67.2684C75.7535 68.8497 76.405 70.9931 75.8118 73.082C75.2361 75.1087 73.6373 76.5635 71.6612 77.1839C71.2528 77.3103 70.8054 77.2034 70.5001 76.9039C70.1928 76.6063 70.0741 76.1628 70.1928 75.7504C70.6673 74.0739 71.3111 71.8022 71.3111 71.8022ZM34.909 67.2782C35.1735 66.9865 35.5722 66.8619 35.9553 66.9514C36.3365 67.0389 36.64 67.3287 36.7489 67.706C37.2332 69.3923 37.9217 71.8022 37.9217 71.8022C37.9217 71.8022 38.5714 74.072 39.0498 75.7485C39.1685 76.1589 39.0517 76.6024 38.7444 76.9039C38.4391 77.2034 37.9937 77.3103 37.5852 77.1839C35.6072 76.5693 34.0046 75.1164 33.425 73.0917C32.8279 71.0067 33.4716 68.8634 34.909 67.2782Z" fill="#F0E600"/>
<path fill-rule="evenodd" clip-rule="evenodd" d="M66.1027 90.1985C66.3547 88.9377 66.028 87.6311 65.2111 86.6373C64.3942 85.6435 63.1759 85.067 61.8922 85.067C57.6397 85.0665 51.6507 85.0665 47.3749 85.0665C46.0725 85.0665 44.8355 85.6552 44.014 86.6686C43.1924 87.6815 42.8703 89.0114 43.1364 90.2886C44.196 95.3117 48.6306 98.907 53.7653 98.907C54.3348 98.9084 54.9089 98.9084 55.4784 98.9084C60.6412 98.9084 65.0851 95.265 66.1027 90.2022C66.1027 90.2017 66.1027 90.2017 66.1027 90.1985ZM43.3418 75.6144C43.8692 78.017 45.9979 79.7297 48.4579 79.7297C52.0148 79.7348 57.0842 79.7348 60.6412 79.7348C63.0919 79.7348 65.2158 78.0389 65.7526 75.6499C66.9056 69.7426 68.2219 60.6747 68.8521 53.1387C68.9874 51.3871 68.0352 49.7314 66.4574 48.9653C64.2448 47.9557 60.5198 46.8205 54.8903 46.8205C49.102 46.8205 45.1576 48.0214 42.8283 49.0624C41.2365 49.8042 40.2609 51.446 40.373 53.1988C40.8958 60.618 42.1328 69.4579 43.3418 75.6144Z" fill="#E7E7D3"/>
</g>
<g clip-path="url(#clip1_206_3293)">
<path d="M354.998 90.4376C355.502 90.4376 355.938 90.621 356.305 90.988C356.671 91.3549 356.855 91.7908 356.855 92.2954V103.663C356.855 104.168 356.671 104.604 356.305 104.971C355.938 105.338 355.502 105.521 354.998 105.521H343.023C342.518 105.521 342.083 105.338 341.716 104.971C341.349 104.604 341.166 104.168 341.166 103.663V92.2954C341.166 91.7908 341.349 91.3549 341.716 90.988C342.083 90.621 342.518 90.4376 343.023 90.4376H354.998ZM307.633 76.0419C307.495 79.7956 307.495 83.5876 307.633 87.433C307.724 89.5048 308.206 90.9421 309.092 91.7372C309.971 92.5247 311.156 92.9222 312.646 92.9222C313.823 92.9222 314.847 92.6471 315.726 92.1043C316.612 91.5615 317.277 90.6134 317.728 89.2602C317.957 88.4881 318.232 87.9758 318.576 87.7006C318.912 87.433 319.47 87.2955 320.234 87.2955H334.051C334.464 87.2955 334.808 87.4407 335.106 87.7312C335.396 88.0294 335.541 88.3811 335.541 88.7863C335.503 91.8596 334.823 94.4894 333.516 96.6835C332.202 98.87 330.49 100.667 328.365 102.066C326.241 103.472 323.826 104.497 321.113 105.154C318.408 105.804 315.603 106.133 312.715 106.133C309.459 106.133 306.479 105.781 303.774 105.085C301.061 104.382 298.699 103.289 296.689 101.798C294.68 100.307 293.105 98.4113 291.951 96.1025C290.797 93.8014 290.156 91.0186 290.018 87.7694C289.926 85.9193 289.888 83.9316 289.888 81.8063C289.888 79.681 289.926 77.6475 290.018 75.7056C290.156 72.5406 290.82 69.8113 292.02 67.5025C293.212 65.2013 294.817 63.29 296.827 61.7763C298.837 60.2626 301.198 59.1464 303.911 58.4201C306.616 57.7015 309.551 57.3422 312.715 57.3422C315.603 57.3422 318.408 57.6633 321.113 58.3208C323.826 58.9783 326.241 60.0026 328.365 61.4017C330.49 62.8083 332.202 64.6049 333.516 66.7914C334.823 68.9855 335.503 71.6155 335.541 74.6888C335.541 75.094 335.396 75.4456 335.106 75.7361C334.808 76.0343 334.464 76.1796 334.051 76.1796H320.234C319.47 76.1796 318.928 76.0419 318.607 75.7743C318.293 75.4991 317.995 74.9794 317.728 74.2149C317.231 72.77 316.551 71.7989 315.695 71.302C314.839 70.8051 313.823 70.5529 312.646 70.5529C311.156 70.5529 309.971 70.9504 309.092 71.7378C308.206 72.5329 307.724 73.9625 307.633 76.0419ZM143.353 58.015C146.425 58.015 149.214 58.3589 151.721 59.0317C154.227 59.7121 156.367 60.7366 158.155 62.1203C159.936 63.4964 161.319 65.2243 162.29 67.3037C163.26 69.3832 163.742 71.8219 163.742 74.62C163.742 77.4257 163.26 79.8416 162.29 81.8751C161.319 83.9087 159.936 85.5753 158.155 86.8902C156.367 88.1975 154.227 89.1608 151.721 89.7648C149.214 90.3764 146.425 90.6822 143.353 90.6822H138.607V103.625C138.607 104.122 138.431 104.55 138.064 104.917C137.706 105.277 137.277 105.46 136.781 105.46H122.825C122.328 105.46 121.899 105.277 121.538 104.917C121.176 104.55 120.996 104.122 120.996 103.625V59.8498C120.996 59.3529 121.176 58.9171 121.538 58.5578C121.899 58.1984 122.328 58.015 122.825 58.015H143.353ZM268.139 105.46C267.642 105.46 267.214 105.277 266.855 104.917C266.488 104.55 266.312 104.122 266.312 103.625V59.8498C266.312 59.3529 266.488 58.9171 266.855 58.5578C267.214 58.1984 267.642 58.015 268.139 58.015H281.956C282.452 58.015 282.888 58.1984 283.247 58.5578C283.606 58.9171 283.79 59.3529 283.79 59.8498V103.625C283.79 104.122 283.606 104.55 283.247 104.917C282.888 105.277 282.452 105.46 281.956 105.46H268.139ZM257.027 58.015C257.524 58.015 257.952 58.1984 258.319 58.5578C258.678 58.9171 258.854 59.3529 258.854 59.8498V103.625C258.854 104.122 258.678 104.55 258.319 104.917C257.952 105.277 257.524 105.46 257.027 105.46H246.321C245.419 105.46 244.77 105.254 244.357 104.848C243.952 104.443 243.684 104.122 243.547 103.9L232.099 86.6151V103.625C232.099 104.122 231.916 104.55 231.557 104.917C231.198 105.277 230.762 105.46 230.265 105.46H218.007C217.511 105.46 217.083 105.277 216.724 104.917C216.357 104.55 216.181 104.122 216.181 103.625V59.8498C216.181 59.3529 216.357 58.9171 216.724 58.5578C217.083 58.1984 217.511 58.015 218.007 58.015H228.714C229.616 58.015 230.265 58.2214 230.678 58.6266C231.083 59.0318 231.35 59.3529 231.488 59.5746L242.936 78.3508V59.8498C242.936 59.3529 243.119 58.9171 243.478 58.5578C243.837 58.1984 244.273 58.015 244.77 58.015H257.027ZM194.226 58.015C195.135 58.015 195.83 58.2672 196.327 58.7641C196.824 59.261 197.145 59.758 197.275 60.2549L212.383 103.495C212.429 103.625 212.452 103.786 212.452 103.969C212.452 104.374 212.307 104.726 212.008 105.017C211.718 105.307 211.367 105.46 210.962 105.46H198.429C197.527 105.46 196.893 105.269 196.533 104.879C196.174 104.497 195.922 104.122 195.784 103.763L194.164 99.2906H179.599L177.971 103.763C177.833 104.122 177.589 104.497 177.222 104.879C176.863 105.269 176.229 105.46 175.327 105.46H162.794C162.389 105.46 162.037 105.307 161.747 105.017C161.449 104.726 161.304 104.374 161.304 103.969C161.304 103.786 161.327 103.625 161.373 103.495L176.481 60.2549C176.618 59.758 176.932 59.261 177.428 58.7641C177.925 58.2672 178.628 58.015 179.53 58.015H194.226ZM354.998 57.9385C355.502 57.9385 355.938 58.122 356.305 58.4889C356.671 58.8559 356.855 59.2916 356.855 59.7962V85.8199C356.855 86.3245 356.671 86.7603 356.305 87.1272C355.938 87.4942 355.502 87.6777 354.998 87.6777H343.023C342.518 87.6777 342.083 87.4942 341.716 87.1272C341.349 86.7603 341.166 86.3245 341.166 85.8199V59.7962C341.166 59.2916 341.349 58.8559 341.716 58.4889C342.083 58.122 342.518 57.9385 343.023 57.9385H354.998ZM190.703 86.0723L186.843 73.4656L183.053 86.0723H190.703ZM138.271 78.1443H143.016C143.735 78.1443 144.438 77.8615 145.11 77.2957C145.791 76.73 146.127 75.7974 146.127 74.4824C146.127 73.6262 145.913 72.7698 145.485 71.9136C145.057 71.0497 144.232 70.6217 143.016 70.6217H138.271V78.1443ZM181.777 21.8616C182.105 21.8616 182.388 21.9838 182.633 22.2208C182.87 22.4655 182.992 22.7484 182.992 23.0772V41.5169C182.992 43.6499 182.633 45.4848 181.907 47.0368C181.188 48.581 180.187 49.8653 178.911 50.8897C177.635 51.9142 176.106 52.6634 174.318 53.145C172.53 53.6267 170.574 53.8637 168.441 53.8637C166.279 53.8637 164.292 53.6267 162.488 53.145C160.692 52.6634 159.149 51.9142 157.873 50.8897C156.596 49.8653 155.595 48.581 154.877 47.0368C154.159 45.4848 153.792 43.6499 153.792 41.5169V23.0772C153.792 22.7484 153.914 22.4655 154.159 22.2208C154.395 21.9838 154.678 21.8616 155.014 21.8616H163.841C164.17 21.8616 164.46 21.9838 164.697 22.2208C164.941 22.4655 165.056 22.7484 165.056 23.0772V41.3334C165.056 43.6499 166.172 44.8043 168.396 44.8043C170.619 44.8043 171.727 43.6499 171.727 41.3334V23.0772C171.727 22.7484 171.85 22.4655 172.087 22.2208C172.331 21.9838 172.614 21.8616 172.943 21.8616H181.777ZM335.457 33.7648C335.518 35.0569 335.541 36.3948 335.541 37.7709C335.541 39.1546 335.518 40.462 335.457 41.6928C335.366 43.7111 334.945 45.4694 334.196 46.9908C333.44 48.5045 332.416 49.7813 331.109 50.798C329.802 51.8225 328.236 52.587 326.424 53.0992C324.606 53.6114 322.596 53.8637 320.41 53.8637C318.186 53.8637 316.169 53.6114 314.373 53.0992C312.57 52.587 311.011 51.8225 309.704 50.798C308.397 49.7813 307.373 48.5045 306.616 46.9908C305.867 45.4694 305.447 43.7111 305.355 41.6928C305.302 40.462 305.271 39.1546 305.271 37.7709C305.271 36.3948 305.302 35.0569 305.355 33.7648C305.447 31.7771 305.867 30.0188 306.616 28.4898C307.373 26.9531 308.397 25.6612 309.704 24.6138C311.011 23.5588 312.57 22.7636 314.373 22.2208C316.169 21.6857 318.186 21.4105 320.41 21.4105C322.596 21.4105 324.606 21.6857 326.424 22.2208C328.236 22.7636 329.802 23.5588 331.109 24.6138C332.416 25.6612 333.44 26.9531 334.196 28.4898C334.945 30.0188 335.366 31.7771 335.457 33.7648ZM122.213 53.4126C121.882 53.4126 121.597 53.2903 121.357 53.0533C121.116 52.8087 120.996 52.5259 120.996 52.1972V23.0772C120.996 22.7484 121.116 22.4655 121.357 22.2208C121.597 21.9838 121.882 21.8616 122.213 21.8616H137.17C141.496 21.8616 144.66 22.6413 146.654 24.2085C148.649 25.7681 149.65 28.1459 149.65 31.3262C149.65 32.0525 149.527 32.7175 149.291 33.3368C149.054 33.9484 148.748 34.4912 148.389 34.9576C148.03 35.4239 147.64 35.829 147.22 36.173C146.799 36.5171 146.41 36.7847 146.043 36.9605C146.616 37.2052 147.166 37.5416 147.693 37.9774C148.213 38.4131 148.672 38.9177 149.061 39.4834C149.459 40.0568 149.764 40.6837 149.986 41.3564C150.215 42.0292 150.33 42.7478 150.33 43.497C150.33 46.8914 149.237 49.3913 147.059 51.0044C144.881 52.6099 141.733 53.4126 137.621 53.4126H122.213ZM211.603 21.8616C211.932 21.8616 212.215 21.9838 212.459 22.2208C212.696 22.4655 212.818 22.7484 212.818 23.0772V29.9271C212.818 30.2635 212.696 30.5463 212.459 30.7833C212.215 31.0279 211.932 31.1503 211.603 31.1503H198.711V34.4835H210.702C211.03 34.4835 211.313 34.6059 211.558 34.8429C211.794 35.0876 211.917 35.3704 211.917 35.6991V42.5032C211.917 42.8396 211.794 43.1224 211.558 43.3594C211.313 43.604 211.03 43.7264 210.702 43.7264H198.711V52.1972C198.711 52.5259 198.597 52.8087 198.352 53.0533C198.115 53.2903 197.825 53.4126 197.496 53.4126H188.891C188.563 53.4126 188.28 53.2903 188.036 53.0533C187.799 52.8087 187.676 52.5259 187.676 52.1972V23.0772C187.676 22.7484 187.799 22.4655 188.036 22.2208C188.28 21.9838 188.563 21.8616 188.891 21.8616H211.603ZM240.704 21.8616C241.033 21.8616 241.323 21.9838 241.56 22.2208C241.805 22.4655 241.919 22.7484 241.919 23.0772V29.9271C241.919 30.2635 241.805 30.5463 241.56 30.7833C241.323 31.0279 241.033 31.1503 240.704 31.1503H227.82V34.4835H239.802C240.131 34.4835 240.421 34.6059 240.658 34.8429C240.903 35.0876 241.017 35.3704 241.017 35.6991V42.5032C241.017 42.8396 240.903 43.1224 240.658 43.3594C240.421 43.604 240.131 43.7264 239.802 43.7264H227.82V52.1972C227.82 52.5259 227.697 52.8087 227.461 53.0533C227.216 53.2903 226.933 53.4126 226.605 53.4126H218C217.671 53.4126 217.381 53.2903 217.144 53.0533C216.899 52.8087 216.785 52.5259 216.785 52.1972V23.0772C216.785 22.7484 216.899 22.4655 217.144 22.2208C217.381 21.9838 217.671 21.8616 218 21.8616H240.704ZM302.207 44.1699C302.536 44.1699 302.818 44.2921 303.063 44.5367C303.3 44.7737 303.422 45.0567 303.422 45.3931V52.1972C303.422 52.5259 303.3 52.8087 303.063 53.0533C302.818 53.2903 302.536 53.4126 302.207 53.4126H279.495C279.166 53.4126 278.884 53.2903 278.639 53.0533C278.402 52.8087 278.28 52.5259 278.28 52.1972V23.0772C278.28 22.7484 278.402 22.4655 278.639 22.2208C278.884 21.9838 279.166 21.8616 279.495 21.8616H288.505C288.841 21.8616 289.124 21.9838 289.361 22.2208C289.605 22.4655 289.728 22.7484 289.728 23.0772V44.1699H302.207ZM263.684 21.8616C264.287 21.8616 264.746 22.0298 265.082 22.3585C265.411 22.6872 265.617 23.016 265.709 23.3524L275.758 52.1053C275.789 52.1971 275.804 52.3041 275.804 52.4187C275.804 52.694 275.705 52.9234 275.513 53.1222C275.315 53.3133 275.086 53.4126 274.81 53.4126H266.473C265.877 53.4126 265.457 53.2826 265.212 53.0303C264.975 52.7781 264.807 52.5258 264.723 52.2888L263.638 49.3149H253.948L252.87 52.2888C252.778 52.5258 252.618 52.7781 252.373 53.0303C252.137 53.2826 251.716 53.4126 251.113 53.4126H242.775C242.508 53.4126 242.278 53.3133 242.08 53.1222C241.881 52.9234 241.789 52.694 241.789 52.4187C241.789 52.3041 241.805 52.1971 241.835 52.1053L251.877 23.3524C251.968 23.016 252.182 22.6872 252.511 22.3585C252.84 22.0298 253.306 21.8616 253.91 21.8616H263.684ZM132.26 45.6606H136.45C137.201 45.6606 137.734 45.4236 138.049 44.942C138.362 44.4603 138.523 43.9634 138.523 43.4512C138.523 42.9084 138.347 42.4114 138.003 41.945C137.659 41.4787 137.141 41.2418 136.45 41.2418H132.26V45.6606ZM317.071 41.4253C317.132 42.6867 317.453 43.6117 318.041 44.1927C318.63 44.7814 319.417 45.0719 320.41 45.0719C321.396 45.0719 322.183 44.7814 322.772 44.1927C323.36 43.6117 323.681 42.6867 323.742 41.4253C323.834 38.8718 323.834 36.349 323.742 33.8491C323.681 32.5876 323.352 31.6625 322.749 31.0815C322.145 30.4928 321.365 30.2023 320.41 30.2023C319.447 30.2023 318.668 30.4928 318.064 31.0815C317.46 31.6625 317.132 32.5876 317.071 33.8491C316.979 36.349 316.979 38.8718 317.071 41.4253ZM261.338 40.5231L258.77 32.1365L256.248 40.5231H261.338ZM137.889 31.6855C137.889 31.2115 137.749 30.7452 137.463 30.2941C137.178 29.8431 136.705 29.6137 136.044 29.6137H132.26V33.719H136.044C136.705 33.719 137.178 33.4973 137.463 33.0616C137.749 32.6258 137.889 32.1671 137.889 31.6855Z" fill="#1E1E1E"/>
</g>
<path d="M356.624 121.256C356.726 121.256 356.815 121.293 356.889 121.367C356.963 121.441 357 121.529 357 121.631V122.564C357 122.666 356.963 122.754 356.889 122.828C356.815 122.902 356.726 122.939 356.624 122.939H355.692C355.59 122.939 355.502 122.902 355.428 122.828C355.354 122.754 355.316 122.666 355.316 122.564V121.631C355.316 121.529 355.354 121.441 355.428 121.367C355.502 121.293 355.59 121.256 355.692 121.256H356.624Z" fill="#1E1E1E"/>
<path d="M348.697 119.809C348.734 120.18 348.813 120.495 348.934 120.755C349.064 121.015 349.217 121.228 349.393 121.395C349.579 121.562 349.783 121.687 350.005 121.771C350.228 121.845 350.455 121.882 350.687 121.882C351.132 121.882 351.513 121.798 351.828 121.631C352.144 121.464 352.389 121.186 352.566 120.797C352.631 120.648 352.696 120.551 352.76 120.504C352.835 120.449 352.923 120.421 353.025 120.421H353.442C353.544 120.421 353.632 120.458 353.707 120.532C353.79 120.606 353.827 120.695 353.818 120.797C353.809 121.019 353.735 121.265 353.595 121.534C353.465 121.794 353.266 122.04 352.997 122.272C352.737 122.494 352.413 122.684 352.023 122.842C351.643 123 351.197 123.079 350.687 123.079C350.177 123.079 349.722 122.995 349.324 122.828C348.934 122.661 348.6 122.434 348.322 122.146C348.053 121.859 347.839 121.52 347.682 121.131C347.533 120.741 347.45 120.323 347.431 119.878C347.422 119.73 347.413 119.549 347.403 119.336C347.403 119.113 347.413 118.923 347.431 118.765C347.468 118.32 347.561 117.902 347.709 117.513C347.867 117.123 348.08 116.785 348.35 116.497C348.619 116.209 348.948 115.982 349.337 115.815C349.727 115.648 350.177 115.565 350.687 115.565C351.197 115.565 351.643 115.644 352.023 115.801C352.413 115.959 352.737 116.154 352.997 116.386C353.266 116.608 353.465 116.854 353.595 117.123C353.735 117.383 353.809 117.624 353.818 117.847C353.827 117.949 353.79 118.037 353.707 118.111C353.632 118.185 353.544 118.222 353.442 118.222H353.025C352.923 118.222 352.835 118.199 352.76 118.153C352.696 118.097 352.631 117.995 352.566 117.847C352.389 117.457 352.144 117.179 351.828 117.012C351.513 116.845 351.132 116.761 350.687 116.761C350.455 116.761 350.223 116.803 349.991 116.887C349.769 116.961 349.565 117.081 349.379 117.248C349.203 117.415 349.05 117.629 348.92 117.888C348.799 118.148 348.725 118.464 348.697 118.835C348.67 119.178 348.67 119.503 348.697 119.809Z" fill="#1E1E1E"/>
<path d="M344.086 120.504C344.086 120.681 344.1 120.848 344.128 121.005C344.165 121.154 344.225 121.284 344.309 121.395C344.392 121.506 344.508 121.594 344.656 121.659C344.814 121.715 345.014 121.743 345.255 121.743H345.992C346.094 121.743 346.182 121.78 346.257 121.854C346.331 121.928 346.368 122.016 346.368 122.118V122.564C346.368 122.666 346.331 122.754 346.257 122.828C346.182 122.902 346.094 122.939 345.992 122.939H345.116C344.309 122.939 343.724 122.731 343.362 122.313C343.001 121.896 342.82 121.293 342.82 120.504V116.9H341.79C341.688 116.9 341.6 116.863 341.526 116.789C341.451 116.715 341.414 116.627 341.414 116.525V116.079C341.414 115.977 341.451 115.889 341.526 115.815C341.6 115.741 341.688 115.704 341.79 115.704H342.82V113.436C342.82 113.334 342.857 113.246 342.931 113.171C343.005 113.097 343.093 113.06 343.195 113.06H343.71C343.812 113.06 343.9 113.097 343.975 113.171C344.049 113.246 344.086 113.334 344.086 113.436V115.704H345.853C345.955 115.704 346.043 115.741 346.117 115.815C346.192 115.889 346.229 115.977 346.229 116.079V116.525C346.229 116.627 346.192 116.715 346.117 116.789C346.043 116.863 345.955 116.9 345.853 116.9H344.086V120.504Z" fill="#1E1E1E"/>
<path d="M340.218 121.687C340.32 121.687 340.408 121.724 340.482 121.798C340.557 121.873 340.594 121.961 340.594 122.063V122.564C340.594 122.666 340.557 122.754 340.482 122.828C340.408 122.902 340.32 122.939 340.218 122.939H334.596C334.494 122.939 334.406 122.902 334.332 122.828C334.258 122.754 334.221 122.666 334.221 122.564V113.575C334.221 113.473 334.258 113.385 334.332 113.31C334.406 113.236 334.494 113.199 334.596 113.199H340.107C340.209 113.199 340.297 113.236 340.371 113.31C340.445 113.385 340.482 113.473 340.482 113.575V114.076C340.482 114.178 340.445 114.266 340.371 114.34C340.297 114.414 340.209 114.451 340.107 114.451H335.543V117.387H339.801C339.903 117.387 339.991 117.425 340.065 117.499C340.139 117.573 340.176 117.661 340.176 117.763V118.264C340.176 118.366 340.139 118.454 340.065 118.528C339.991 118.603 339.903 118.64 339.801 118.64H335.543V121.687H340.218Z" fill="#1E1E1E"/>
<path d="M325.454 118.765C325.454 118.552 325.491 118.352 325.565 118.167C325.649 117.981 325.76 117.819 325.899 117.68C326.039 117.541 326.201 117.434 326.386 117.36C326.572 117.276 326.771 117.234 326.985 117.234C327.198 117.234 327.398 117.276 327.583 117.36C327.769 117.434 327.931 117.541 328.07 117.68C328.209 117.819 328.316 117.981 328.39 118.167C328.474 118.352 328.515 118.552 328.515 118.765C328.515 118.978 328.474 119.178 328.39 119.363C328.316 119.549 328.209 119.711 328.07 119.85C327.931 119.99 327.769 120.101 327.583 120.184C327.398 120.259 327.198 120.296 326.985 120.296C326.771 120.296 326.572 120.259 326.386 120.184C326.201 120.101 326.039 119.99 325.899 119.85C325.76 119.711 325.649 119.549 325.565 119.363C325.491 119.178 325.454 118.978 325.454 118.765Z" fill="#1E1E1E"/>
<path d="M319.067 120.936C319.067 120.759 319.016 120.616 318.914 120.504C318.821 120.384 318.678 120.282 318.483 120.198C318.288 120.115 318.038 120.036 317.731 119.962C317.435 119.887 317.087 119.809 316.688 119.725C315.936 119.567 315.408 119.308 315.102 118.946C314.805 118.575 314.656 118.144 314.656 117.652C314.656 117.374 314.712 117.109 314.823 116.859C314.935 116.608 315.102 116.386 315.324 116.191C315.547 115.996 315.825 115.843 316.159 115.732C316.502 115.62 316.901 115.565 317.356 115.565C317.81 115.565 318.205 115.616 318.539 115.718C318.882 115.82 319.169 115.95 319.401 116.107C319.633 116.265 319.809 116.437 319.93 116.622C320.051 116.798 320.116 116.97 320.125 117.137C320.134 117.239 320.097 117.327 320.013 117.401C319.939 117.476 319.851 117.513 319.749 117.513H319.29C319.234 117.513 319.165 117.503 319.081 117.485C319.007 117.457 318.937 117.401 318.872 117.318C318.752 117.16 318.571 117.03 318.33 116.928C318.098 116.817 317.773 116.761 317.356 116.761C316.929 116.761 316.581 116.84 316.312 116.998C316.052 117.156 315.923 117.374 315.923 117.652C315.923 117.828 315.96 117.972 316.034 118.083C316.108 118.185 316.229 118.278 316.396 118.362C316.563 118.436 316.781 118.505 317.05 118.57C317.328 118.635 317.671 118.714 318.079 118.807C318.506 118.9 318.863 119.02 319.151 119.169C319.438 119.308 319.67 119.47 319.847 119.656C320.023 119.832 320.148 120.031 320.222 120.254C320.296 120.467 320.334 120.695 320.334 120.936C320.334 121.214 320.264 121.483 320.125 121.743C319.995 122.003 319.805 122.23 319.554 122.425C319.304 122.619 318.998 122.777 318.636 122.898C318.283 123.018 317.88 123.079 317.425 123.079C316.971 123.079 316.567 123.023 316.215 122.912C315.862 122.8 315.561 122.666 315.31 122.508C315.06 122.341 314.865 122.165 314.726 121.979C314.596 121.785 314.526 121.604 314.517 121.437C314.508 121.335 314.54 121.246 314.615 121.172C314.689 121.098 314.782 121.061 314.893 121.061H315.394C315.449 121.061 315.514 121.07 315.589 121.089C315.663 121.098 315.732 121.149 315.797 121.242C315.946 121.446 316.15 121.604 316.41 121.715C316.669 121.826 317.008 121.882 317.425 121.882C317.629 121.882 317.829 121.859 318.024 121.812C318.228 121.766 318.404 121.701 318.552 121.618C318.71 121.534 318.835 121.437 318.928 121.325C319.021 121.205 319.067 121.075 319.067 120.936Z" fill="#1E1E1E"/>
<path d="M306.869 118.626C306.906 118.199 307.008 117.8 307.175 117.429C307.342 117.058 307.56 116.733 307.829 116.455C308.098 116.177 308.418 115.959 308.789 115.801C309.17 115.644 309.592 115.565 310.055 115.565C310.556 115.565 311.002 115.648 311.391 115.815C311.79 115.973 312.129 116.205 312.407 116.511C312.685 116.817 312.899 117.188 313.047 117.624C313.196 118.06 313.27 118.547 313.27 119.085V119.461C313.27 119.563 313.233 119.651 313.158 119.725C313.084 119.799 312.996 119.836 312.894 119.836H308.107V119.92C308.126 120.551 308.316 121.038 308.678 121.381C309.049 121.715 309.508 121.882 310.055 121.882C310.566 121.882 310.946 121.812 311.196 121.673C311.456 121.525 311.665 121.362 311.823 121.186C311.897 121.112 311.962 121.061 312.017 121.033C312.073 121.005 312.157 120.991 312.268 120.991H312.685C312.787 120.991 312.88 121.028 312.964 121.103C313.047 121.177 313.08 121.265 313.061 121.367C313.033 121.534 312.954 121.72 312.825 121.924C312.695 122.118 312.504 122.304 312.254 122.48C312.013 122.647 311.707 122.791 311.336 122.912C310.974 123.023 310.547 123.079 310.055 123.079C309.592 123.079 309.174 123 308.803 122.842C308.432 122.675 308.107 122.452 307.829 122.174C307.56 121.887 307.342 121.553 307.175 121.172C307.008 120.783 306.906 120.361 306.869 119.906C306.823 119.479 306.823 119.053 306.869 118.626ZM308.107 118.668H312.017V118.626C312.017 118.06 311.837 117.61 311.475 117.276C311.122 116.933 310.649 116.761 310.055 116.761C309.786 116.761 309.536 116.808 309.304 116.9C309.072 116.984 308.868 117.109 308.692 117.276C308.516 117.434 308.376 117.629 308.274 117.861C308.172 118.092 308.117 118.348 308.107 118.626V118.668Z" fill="#1E1E1E"/>
<path d="M303.524 120.504C303.524 120.681 303.538 120.848 303.566 121.005C303.603 121.154 303.663 121.284 303.747 121.395C303.83 121.506 303.946 121.594 304.094 121.659C304.252 121.715 304.452 121.743 304.693 121.743H305.43C305.532 121.743 305.62 121.78 305.695 121.854C305.769 121.928 305.806 122.016 305.806 122.118V122.564C305.806 122.666 305.769 122.754 305.695 122.828C305.62 122.902 305.532 122.939 305.43 122.939H304.554C303.747 122.939 303.162 122.731 302.8 122.313C302.439 121.896 302.258 121.293 302.258 120.504V116.9H301.228C301.126 116.9 301.038 116.863 300.964 116.789C300.889 116.715 300.852 116.627 300.852 116.525V116.079C300.852 115.977 300.889 115.889 300.964 115.815C301.038 115.741 301.126 115.704 301.228 115.704H302.258V113.436C302.258 113.334 302.295 113.246 302.369 113.171C302.443 113.097 302.531 113.06 302.633 113.06H303.148C303.25 113.06 303.338 113.097 303.413 113.171C303.487 113.246 303.524 113.334 303.524 113.436V115.704H305.291C305.393 115.704 305.481 115.741 305.555 115.815C305.63 115.889 305.667 115.977 305.667 116.079V116.525C305.667 116.627 305.63 116.715 305.555 116.789C305.481 116.863 305.393 116.9 305.291 116.9H303.524V120.504Z" fill="#1E1E1E"/>
<path d="M296.66 115.565C297.161 115.565 297.606 115.644 297.996 115.801C298.385 115.95 298.719 116.158 298.998 116.427C299.276 116.696 299.494 117.026 299.652 117.415C299.818 117.796 299.921 118.213 299.958 118.668C299.967 118.751 299.972 118.853 299.972 118.974C299.972 119.085 299.972 119.206 299.972 119.336C299.972 119.456 299.972 119.577 299.972 119.697C299.972 119.809 299.967 119.901 299.958 119.976C299.911 120.439 299.809 120.862 299.652 121.242C299.494 121.622 299.276 121.947 298.998 122.216C298.719 122.485 298.385 122.698 297.996 122.856C297.606 123.004 297.161 123.079 296.66 123.079C296.159 123.079 295.714 123.004 295.324 122.856C294.934 122.698 294.6 122.485 294.322 122.216C294.044 121.947 293.821 121.622 293.654 121.242C293.497 120.862 293.399 120.439 293.362 119.976C293.353 119.901 293.344 119.809 293.334 119.697C293.334 119.577 293.334 119.456 293.334 119.336C293.334 119.206 293.334 119.085 293.334 118.974C293.344 118.853 293.353 118.751 293.362 118.668C293.399 118.213 293.497 117.796 293.654 117.415C293.821 117.026 294.044 116.696 294.322 116.427C294.6 116.158 294.934 115.95 295.324 115.801C295.714 115.644 296.159 115.565 296.66 115.565ZM298.691 119.906C298.71 119.748 298.719 119.558 298.719 119.336C298.719 119.104 298.71 118.904 298.691 118.737C298.664 118.459 298.603 118.199 298.51 117.958C298.418 117.717 298.288 117.508 298.121 117.332C297.954 117.156 297.75 117.016 297.509 116.914C297.267 116.812 296.985 116.761 296.66 116.761C296.335 116.761 296.052 116.812 295.811 116.914C295.57 117.016 295.366 117.156 295.199 117.332C295.032 117.508 294.902 117.717 294.809 117.958C294.716 118.199 294.656 118.459 294.628 118.737C294.61 118.904 294.6 119.104 294.6 119.336C294.6 119.558 294.61 119.748 294.628 119.906C294.656 120.184 294.716 120.444 294.809 120.685C294.902 120.926 295.032 121.135 295.199 121.311C295.366 121.488 295.57 121.627 295.811 121.729C296.052 121.831 296.335 121.882 296.66 121.882C296.985 121.882 297.267 121.831 297.509 121.729C297.75 121.627 297.954 121.488 298.121 121.311C298.288 121.135 298.418 120.926 298.51 120.685C298.603 120.444 298.664 120.184 298.691 119.906Z" fill="#1E1E1E"/>
<path d="M293.27 113.199C293.372 113.199 293.46 113.236 293.534 113.31C293.609 113.385 293.646 113.473 293.646 113.575V114.076C293.646 114.178 293.609 114.266 293.534 114.34C293.46 114.414 293.372 114.451 293.27 114.451H290.668V122.564C290.668 122.666 290.631 122.754 290.557 122.828C290.483 122.902 290.394 122.939 290.292 122.939H289.722C289.62 122.939 289.532 122.902 289.457 122.828C289.383 122.754 289.346 122.666 289.346 122.564V114.451H286.744C286.642 114.451 286.554 114.414 286.48 114.34C286.406 114.266 286.368 114.178 286.368 114.076V113.575C286.368 113.473 286.406 113.385 286.48 113.31C286.554 113.236 286.642 113.199 286.744 113.199H293.27Z" fill="#1E1E1E"/>
<path d="M278.845 118.765C278.845 118.552 278.882 118.352 278.957 118.167C279.04 117.981 279.151 117.819 279.29 117.68C279.43 117.541 279.592 117.434 279.778 117.36C279.963 117.276 280.162 117.234 280.376 117.234C280.589 117.234 280.789 117.276 280.974 117.36C281.16 117.434 281.322 117.541 281.461 117.68C281.6 117.819 281.707 117.981 281.781 118.167C281.865 118.352 281.906 118.552 281.906 118.765C281.906 118.978 281.865 119.178 281.781 119.363C281.707 119.549 281.6 119.711 281.461 119.85C281.322 119.99 281.16 120.101 280.974 120.184C280.789 120.259 280.589 120.296 280.376 120.296C280.162 120.296 279.963 120.259 279.778 120.184C279.592 120.101 279.43 119.99 279.29 119.85C279.151 119.711 279.04 119.549 278.957 119.363C278.882 119.178 278.845 118.978 278.845 118.765Z" fill="#1E1E1E"/>
<path d="M272.458 120.936C272.458 120.759 272.407 120.616 272.305 120.504C272.213 120.384 272.069 120.282 271.874 120.198C271.679 120.115 271.429 120.036 271.123 119.962C270.826 119.887 270.478 119.809 270.079 119.725C269.328 119.567 268.799 119.308 268.493 118.946C268.196 118.575 268.047 118.144 268.047 117.652C268.047 117.374 268.103 117.109 268.214 116.859C268.326 116.608 268.493 116.386 268.715 116.191C268.938 115.996 269.216 115.843 269.55 115.732C269.893 115.62 270.292 115.565 270.747 115.565C271.201 115.565 271.596 115.616 271.93 115.718C272.273 115.82 272.56 115.95 272.792 116.107C273.024 116.265 273.201 116.437 273.321 116.622C273.442 116.798 273.507 116.97 273.516 117.137C273.525 117.239 273.488 117.327 273.405 117.401C273.33 117.476 273.242 117.513 273.14 117.513H272.681C272.625 117.513 272.556 117.503 272.472 117.485C272.398 117.457 272.329 117.401 272.264 117.318C272.143 117.16 271.962 117.03 271.721 116.928C271.489 116.817 271.164 116.761 270.747 116.761C270.32 116.761 269.972 116.84 269.703 116.998C269.444 117.156 269.314 117.374 269.314 117.652C269.314 117.828 269.351 117.972 269.425 118.083C269.499 118.185 269.62 118.278 269.787 118.362C269.954 118.436 270.172 118.505 270.441 118.57C270.719 118.635 271.062 118.714 271.47 118.807C271.897 118.9 272.254 119.02 272.542 119.169C272.829 119.308 273.061 119.47 273.238 119.656C273.414 119.832 273.539 120.031 273.613 120.254C273.688 120.467 273.725 120.695 273.725 120.936C273.725 121.214 273.655 121.483 273.516 121.743C273.386 122.003 273.196 122.23 272.945 122.425C272.695 122.619 272.389 122.777 272.027 122.898C271.675 123.018 271.271 123.079 270.816 123.079C270.362 123.079 269.958 123.023 269.606 122.912C269.253 122.8 268.952 122.666 268.701 122.508C268.451 122.341 268.256 122.165 268.117 121.979C267.987 121.785 267.918 121.604 267.908 121.437C267.899 121.335 267.931 121.246 268.006 121.172C268.08 121.098 268.173 121.061 268.284 121.061H268.785C268.841 121.061 268.906 121.07 268.98 121.089C269.054 121.098 269.124 121.149 269.188 121.242C269.337 121.446 269.541 121.604 269.801 121.715C270.06 121.826 270.399 121.882 270.816 121.882C271.021 121.882 271.22 121.859 271.415 121.812C271.619 121.766 271.795 121.701 271.944 121.618C272.101 121.534 272.226 121.437 272.319 121.325C272.412 121.205 272.458 121.075 272.458 120.936Z" fill="#1E1E1E"/>
<path d="M259.676 118.862C259.703 118.352 259.801 117.893 259.968 117.485C260.135 117.077 260.357 116.733 260.636 116.455C260.914 116.168 261.239 115.95 261.61 115.801C261.99 115.644 262.398 115.565 262.834 115.565C263.409 115.565 263.869 115.667 264.212 115.871C264.555 116.066 264.815 116.279 264.991 116.511V116.079C264.991 115.977 265.028 115.889 265.102 115.815C265.176 115.741 265.265 115.704 265.367 115.704H265.881C265.984 115.704 266.072 115.741 266.146 115.815C266.22 115.889 266.257 115.977 266.257 116.079V122.842C266.257 123.807 265.984 124.572 265.436 125.138C264.889 125.713 264.068 126.001 262.973 126.001C262.417 126.001 261.939 125.931 261.54 125.792C261.15 125.662 260.826 125.495 260.566 125.291C260.316 125.087 260.125 124.864 259.996 124.623C259.875 124.382 259.81 124.15 259.801 123.927C259.791 123.825 259.824 123.737 259.898 123.663C259.982 123.589 260.074 123.552 260.176 123.552H260.594C260.696 123.552 260.779 123.575 260.844 123.621C260.919 123.677 260.988 123.779 261.053 123.927C261.081 123.983 261.123 124.057 261.178 124.15C261.243 124.252 261.341 124.349 261.471 124.442C261.61 124.544 261.786 124.628 261.999 124.693C262.222 124.767 262.5 124.804 262.834 124.804C263.14 124.804 263.423 124.772 263.683 124.707C263.952 124.651 264.184 124.554 264.379 124.414C264.574 124.275 264.722 124.09 264.824 123.858C264.935 123.626 264.991 123.343 264.991 123.009V122.132C264.805 122.383 264.541 122.606 264.198 122.8C263.855 122.986 263.4 123.079 262.834 123.079C262.398 123.079 261.99 123.004 261.61 122.856C261.239 122.698 260.914 122.48 260.636 122.202C260.357 121.914 260.135 121.567 259.968 121.158C259.801 120.75 259.703 120.291 259.676 119.781C259.666 119.642 259.662 119.489 259.662 119.322C259.662 119.155 259.666 119.002 259.676 118.862ZM264.991 118.821C264.963 118.162 264.764 117.656 264.393 117.304C264.031 116.942 263.558 116.761 262.973 116.761C262.361 116.761 261.879 116.956 261.526 117.346C261.174 117.735 260.979 118.264 260.942 118.932C260.932 119.192 260.932 119.451 260.942 119.711C260.979 120.379 261.174 120.908 261.526 121.298C261.879 121.687 262.361 121.882 262.973 121.882C263.558 121.882 264.031 121.701 264.393 121.339C264.764 120.977 264.963 120.472 264.991 119.823C265 119.683 265.005 119.516 265.005 119.322C265.005 119.127 265 118.96 264.991 118.821Z" fill="#1E1E1E"/>
<path d="M251.651 116.079C251.651 115.977 251.688 115.889 251.762 115.815C251.837 115.741 251.925 115.704 252.027 115.704H252.542C252.644 115.704 252.732 115.741 252.806 115.815C252.88 115.889 252.917 115.977 252.917 116.079V119.753C252.917 120.467 253.075 121.001 253.39 121.353C253.715 121.706 254.184 121.882 254.796 121.882C255.38 121.882 255.839 121.706 256.173 121.353C256.507 121.001 256.674 120.467 256.674 119.753V116.079C256.674 115.977 256.711 115.889 256.786 115.815C256.86 115.741 256.948 115.704 257.05 115.704H257.565C257.667 115.704 257.755 115.741 257.829 115.815C257.903 115.889 257.941 115.977 257.941 116.079V122.564C257.941 122.666 257.903 122.754 257.829 122.828C257.755 122.902 257.667 122.939 257.565 122.939H257.05C256.948 122.939 256.86 122.902 256.786 122.828C256.711 122.754 256.674 122.666 256.674 122.564V122.132C256.498 122.364 256.248 122.582 255.923 122.786C255.598 122.981 255.153 123.079 254.587 123.079C254.151 123.079 253.752 123.009 253.39 122.87C253.029 122.721 252.718 122.517 252.458 122.258C252.198 121.989 251.999 121.664 251.86 121.284C251.721 120.894 251.651 120.453 251.651 119.962V116.079Z" fill="#1E1E1E"/>
<path d="M245.154 119.085L247.965 113.644C248.02 113.533 248.095 113.431 248.187 113.338C248.289 113.246 248.419 113.199 248.577 113.199H249.106C249.208 113.199 249.296 113.236 249.37 113.31C249.444 113.385 249.481 113.473 249.481 113.575V122.564C249.481 122.666 249.444 122.754 249.37 122.828C249.296 122.902 249.208 122.939 249.106 122.939H248.535C248.433 122.939 248.345 122.902 248.271 122.828C248.197 122.754 248.159 122.666 248.159 122.564V115.968L245.989 120.157C245.915 120.296 245.836 120.407 245.752 120.49C245.669 120.565 245.557 120.602 245.418 120.602H244.89C244.75 120.602 244.639 120.565 244.556 120.49C244.472 120.407 244.393 120.296 244.319 120.157L242.148 115.968V122.564C242.148 122.666 242.111 122.754 242.037 122.828C241.963 122.902 241.875 122.939 241.773 122.939H241.202C241.1 122.939 241.012 122.902 240.938 122.828C240.864 122.754 240.826 122.666 240.826 122.564V113.575C240.826 113.473 240.864 113.385 240.938 113.31C241.012 113.236 241.1 113.199 241.202 113.199H241.731C241.889 113.199 242.014 113.246 242.107 113.338C242.209 113.431 242.287 113.533 242.343 113.644L245.154 119.085Z" fill="#1E1E1E"/>
<path d="M232.06 118.765C232.06 118.552 232.097 118.352 232.171 118.167C232.254 117.981 232.366 117.819 232.505 117.68C232.644 117.541 232.806 117.434 232.992 117.36C233.177 117.276 233.377 117.234 233.59 117.234C233.804 117.234 234.003 117.276 234.189 117.36C234.374 117.434 234.536 117.541 234.676 117.68C234.815 117.819 234.921 117.981 234.996 118.167C235.079 118.352 235.121 118.552 235.121 118.765C235.121 118.978 235.079 119.178 234.996 119.363C234.921 119.549 234.815 119.711 234.676 119.85C234.536 119.99 234.374 120.101 234.189 120.184C234.003 120.259 233.804 120.296 233.59 120.296C233.377 120.296 233.177 120.259 232.992 120.184C232.806 120.101 232.644 119.99 232.505 119.85C232.366 119.711 232.254 119.549 232.171 119.363C232.097 119.178 232.06 118.978 232.06 118.765Z" fill="#1E1E1E"/>
<path d="M225.673 120.936C225.673 120.759 225.622 120.616 225.52 120.504C225.427 120.384 225.283 120.282 225.089 120.198C224.894 120.115 224.643 120.036 224.337 119.962C224.04 119.887 223.692 119.809 223.294 119.725C222.542 119.567 222.013 119.308 221.707 118.946C221.41 118.575 221.262 118.144 221.262 117.652C221.262 117.374 221.318 117.109 221.429 116.859C221.54 116.608 221.707 116.386 221.93 116.191C222.153 115.996 222.431 115.843 222.765 115.732C223.108 115.62 223.507 115.565 223.961 115.565C224.416 115.565 224.81 115.616 225.144 115.718C225.487 115.82 225.775 115.95 226.007 116.107C226.239 116.265 226.415 116.437 226.536 116.622C226.656 116.798 226.721 116.97 226.731 117.137C226.74 117.239 226.703 117.327 226.619 117.401C226.545 117.476 226.457 117.513 226.355 117.513H225.896C225.84 117.513 225.77 117.503 225.687 117.485C225.613 117.457 225.543 117.401 225.478 117.318C225.358 117.16 225.177 117.03 224.936 116.928C224.704 116.817 224.379 116.761 223.961 116.761C223.535 116.761 223.187 116.84 222.918 116.998C222.658 117.156 222.528 117.374 222.528 117.652C222.528 117.828 222.565 117.972 222.64 118.083C222.714 118.185 222.834 118.278 223.001 118.362C223.168 118.436 223.386 118.505 223.655 118.57C223.934 118.635 224.277 118.714 224.685 118.807C225.112 118.9 225.469 119.02 225.756 119.169C226.044 119.308 226.276 119.47 226.452 119.656C226.628 119.832 226.754 120.031 226.828 120.254C226.902 120.467 226.939 120.695 226.939 120.936C226.939 121.214 226.87 121.483 226.731 121.743C226.601 122.003 226.41 122.23 226.16 122.425C225.91 122.619 225.603 122.777 225.242 122.898C224.889 123.018 224.486 123.079 224.031 123.079C223.577 123.079 223.173 123.023 222.82 122.912C222.468 122.8 222.166 122.666 221.916 122.508C221.666 122.341 221.471 122.165 221.332 121.979C221.202 121.785 221.132 121.604 221.123 121.437C221.114 121.335 221.146 121.246 221.22 121.172C221.294 121.098 221.387 121.061 221.499 121.061H222C222.055 121.061 222.12 121.07 222.194 121.089C222.269 121.098 222.338 121.149 222.403 121.242C222.551 121.446 222.756 121.604 223.015 121.715C223.275 121.826 223.614 121.882 224.031 121.882C224.235 121.882 224.435 121.859 224.629 121.812C224.833 121.766 225.01 121.701 225.158 121.618C225.316 121.534 225.441 121.437 225.534 121.325C225.627 121.205 225.673 121.075 225.673 120.936Z" fill="#1E1E1E"/>
<path d="M217.875 120.504C217.875 120.681 217.889 120.848 217.917 121.005C217.954 121.154 218.014 121.284 218.098 121.395C218.181 121.506 218.297 121.594 218.446 121.659C218.603 121.715 218.803 121.743 219.044 121.743H219.781C219.883 121.743 219.971 121.78 220.046 121.854C220.12 121.928 220.157 122.016 220.157 122.118V122.564C220.157 122.666 220.12 122.754 220.046 122.828C219.971 122.902 219.883 122.939 219.781 122.939H218.905C218.098 122.939 217.513 122.731 217.151 122.313C216.79 121.896 216.609 121.293 216.609 120.504V116.9H215.579C215.477 116.9 215.389 116.863 215.315 116.789C215.24 116.715 215.203 116.627 215.203 116.525V116.079C215.203 115.977 215.24 115.889 215.315 115.815C215.389 115.741 215.477 115.704 215.579 115.704H216.609V113.436C216.609 113.334 216.646 113.246 216.72 113.171C216.794 113.097 216.882 113.06 216.984 113.06H217.499C217.601 113.06 217.689 113.097 217.764 113.171C217.838 113.246 217.875 113.334 217.875 113.436V115.704H219.642C219.744 115.704 219.832 115.741 219.907 115.815C219.981 115.889 220.018 115.977 220.018 116.079V116.525C220.018 116.627 219.981 116.715 219.907 116.789C219.832 116.863 219.744 116.9 219.642 116.9H217.875V120.504Z" fill="#1E1E1E"/>
<path d="M214.398 115.704C214.5 115.704 214.588 115.741 214.662 115.815C214.736 115.889 214.773 115.977 214.773 116.079V116.525C214.773 116.627 214.736 116.715 214.662 116.789C214.588 116.863 214.5 116.9 214.398 116.9H213.591C212.524 116.9 211.99 117.434 211.99 118.501V122.564C211.99 122.666 211.953 122.754 211.879 122.828C211.805 122.902 211.717 122.939 211.615 122.939H211.1C210.998 122.939 210.91 122.902 210.835 122.828C210.761 122.754 210.724 122.666 210.724 122.564V116.079C210.724 115.977 210.761 115.889 210.835 115.815C210.91 115.741 210.998 115.704 211.1 115.704H211.615C211.717 115.704 211.805 115.741 211.879 115.815C211.953 115.889 211.99 115.977 211.99 116.079V116.511C212.176 116.233 212.399 116.028 212.658 115.899C212.918 115.769 213.257 115.704 213.674 115.704H214.398Z" fill="#1E1E1E"/>
<path d="M208.634 122.564C208.634 122.666 208.597 122.754 208.522 122.828C208.448 122.902 208.36 122.939 208.258 122.939H207.743C207.641 122.939 207.553 122.902 207.479 122.828C207.405 122.754 207.367 122.666 207.367 122.564V116.079C207.367 115.977 207.405 115.889 207.479 115.815C207.553 115.741 207.641 115.704 207.743 115.704H208.258C208.36 115.704 208.448 115.741 208.522 115.815C208.597 115.889 208.634 115.977 208.634 116.079V122.564ZM208.773 114.229C208.773 114.331 208.736 114.419 208.661 114.493C208.587 114.567 208.499 114.605 208.397 114.605H207.604C207.502 114.605 207.414 114.567 207.34 114.493C207.265 114.419 207.228 114.331 207.228 114.229V113.436C207.228 113.334 207.265 113.246 207.34 113.171C207.414 113.097 207.502 113.06 207.604 113.06H208.397C208.499 113.06 208.587 113.097 208.661 113.171C208.736 113.246 208.773 113.334 208.773 113.436V114.229Z" fill="#1E1E1E"/>
<path d="M205.344 122.564C205.344 122.666 205.307 122.754 205.233 122.828C205.159 122.902 205.07 122.939 204.968 122.939H204.454C204.352 122.939 204.263 122.902 204.189 122.828C204.115 122.754 204.078 122.666 204.078 122.564V118.89C204.078 118.176 203.906 117.643 203.563 117.29C203.22 116.938 202.742 116.761 202.13 116.761C201.545 116.761 201.072 116.938 200.711 117.29C200.358 117.643 200.182 118.176 200.182 118.89V122.564C200.182 122.666 200.145 122.754 200.07 122.828C199.996 122.902 199.908 122.939 199.806 122.939H199.291C199.189 122.939 199.101 122.902 199.027 122.828C198.953 122.754 198.916 122.666 198.916 122.564V113.436C198.916 113.334 198.953 113.246 199.027 113.171C199.101 113.097 199.189 113.06 199.291 113.06H199.806C199.908 113.06 199.996 113.097 200.07 113.171C200.145 113.246 200.182 113.334 200.182 113.436V116.511C200.358 116.279 200.618 116.066 200.961 115.871C201.313 115.667 201.773 115.565 202.339 115.565C202.775 115.565 203.178 115.639 203.549 115.787C203.92 115.926 204.236 116.131 204.495 116.4C204.764 116.659 204.973 116.984 205.121 117.374C205.27 117.763 205.344 118.199 205.344 118.682V122.564Z" fill="#1E1E1E"/>
<path d="M195.996 120.936C195.996 120.759 195.944 120.616 195.842 120.504C195.75 120.384 195.606 120.282 195.411 120.198C195.216 120.115 194.966 120.036 194.66 119.962C194.363 119.887 194.015 119.809 193.616 119.725C192.865 119.567 192.336 119.308 192.03 118.946C191.733 118.575 191.585 118.144 191.585 117.652C191.585 117.374 191.64 117.109 191.752 116.859C191.863 116.608 192.03 116.386 192.252 116.191C192.475 115.996 192.753 115.843 193.087 115.732C193.431 115.62 193.829 115.565 194.284 115.565C194.739 115.565 195.133 115.616 195.467 115.718C195.81 115.82 196.098 115.95 196.329 116.107C196.561 116.265 196.738 116.437 196.858 116.622C196.979 116.798 197.044 116.97 197.053 117.137C197.062 117.239 197.025 117.327 196.942 117.401C196.868 117.476 196.779 117.513 196.677 117.513H196.218C196.162 117.513 196.093 117.503 196.009 117.485C195.935 117.457 195.866 117.401 195.801 117.318C195.68 117.16 195.499 117.03 195.258 116.928C195.026 116.817 194.701 116.761 194.284 116.761C193.857 116.761 193.509 116.84 193.24 116.998C192.981 117.156 192.851 117.374 192.851 117.652C192.851 117.828 192.888 117.972 192.962 118.083C193.036 118.185 193.157 118.278 193.324 118.362C193.491 118.436 193.709 118.505 193.978 118.57C194.256 118.635 194.599 118.714 195.008 118.807C195.434 118.9 195.791 119.02 196.079 119.169C196.367 119.308 196.598 119.47 196.775 119.656C196.951 119.832 197.076 120.031 197.15 120.254C197.225 120.467 197.262 120.695 197.262 120.936C197.262 121.214 197.192 121.483 197.053 121.743C196.923 122.003 196.733 122.23 196.483 122.425C196.232 122.619 195.926 122.777 195.564 122.898C195.212 123.018 194.808 123.079 194.354 123.079C193.899 123.079 193.495 123.023 193.143 122.912C192.79 122.8 192.489 122.666 192.239 122.508C191.988 122.341 191.793 122.165 191.654 121.979C191.524 121.785 191.455 121.604 191.445 121.437C191.436 121.335 191.469 121.246 191.543 121.172C191.617 121.098 191.71 121.061 191.821 121.061H192.322C192.378 121.061 192.443 121.07 192.517 121.089C192.591 121.098 192.661 121.149 192.726 121.242C192.874 121.446 193.078 121.604 193.338 121.715C193.598 121.826 193.936 121.882 194.354 121.882C194.558 121.882 194.757 121.859 194.952 121.812C195.156 121.766 195.332 121.701 195.481 121.618C195.638 121.534 195.764 121.437 195.856 121.325C195.949 121.205 195.996 121.075 195.996 120.936Z" fill="#1E1E1E"/>
<path d="M191.396 113.199C191.498 113.199 191.586 113.236 191.661 113.31C191.735 113.385 191.772 113.473 191.772 113.575V114.076C191.772 114.178 191.735 114.266 191.661 114.34C191.586 114.414 191.498 114.451 191.396 114.451H188.794V122.564C188.794 122.666 188.757 122.754 188.683 122.828C188.609 122.902 188.521 122.939 188.419 122.939H187.848C187.746 122.939 187.658 122.902 187.584 122.828C187.509 122.754 187.472 122.666 187.472 122.564V114.451H184.87C184.768 114.451 184.68 114.414 184.606 114.34C184.532 114.266 184.495 114.178 184.495 114.076V113.575C184.495 113.473 184.532 113.385 184.606 113.31C184.68 113.236 184.768 113.199 184.87 113.199H191.396Z" fill="#1E1E1E"/>
<path d="M176.971 118.765C176.971 118.552 177.009 118.352 177.083 118.167C177.166 117.981 177.278 117.819 177.417 117.68C177.556 117.541 177.718 117.434 177.904 117.36C178.089 117.276 178.289 117.234 178.502 117.234C178.715 117.234 178.915 117.276 179.1 117.36C179.286 117.434 179.448 117.541 179.587 117.68C179.727 117.819 179.833 117.981 179.907 118.167C179.991 118.352 180.033 118.552 180.033 118.765C180.033 118.978 179.991 119.178 179.907 119.363C179.833 119.549 179.727 119.711 179.587 119.85C179.448 119.99 179.286 120.101 179.1 120.184C178.915 120.259 178.715 120.296 178.502 120.296C178.289 120.296 178.089 120.259 177.904 120.184C177.718 120.101 177.556 119.99 177.417 119.85C177.278 119.711 177.166 119.549 177.083 119.363C177.009 119.178 176.971 118.978 176.971 118.765Z" fill="#1E1E1E"/>
<path d="M170.585 120.936C170.585 120.759 170.534 120.616 170.432 120.504C170.339 120.384 170.195 120.282 170 120.198C169.806 120.115 169.555 120.036 169.249 119.962C168.952 119.887 168.604 119.809 168.205 119.725C167.454 119.567 166.925 119.308 166.619 118.946C166.322 118.575 166.174 118.144 166.174 117.652C166.174 117.374 166.23 117.109 166.341 116.859C166.452 116.608 166.619 116.386 166.842 116.191C167.064 115.996 167.343 115.843 167.677 115.732C168.02 115.62 168.419 115.565 168.873 115.565C169.328 115.565 169.722 115.616 170.056 115.718C170.399 115.82 170.687 115.95 170.919 116.107C171.151 116.265 171.327 116.437 171.448 116.622C171.568 116.798 171.633 116.97 171.642 117.137C171.652 117.239 171.615 117.327 171.531 117.401C171.457 117.476 171.369 117.513 171.267 117.513H170.807C170.752 117.513 170.682 117.503 170.599 117.485C170.525 117.457 170.455 117.401 170.39 117.318C170.269 117.16 170.089 117.03 169.847 116.928C169.615 116.817 169.291 116.761 168.873 116.761C168.447 116.761 168.099 116.84 167.83 116.998C167.57 117.156 167.44 117.374 167.44 117.652C167.44 117.828 167.477 117.972 167.551 118.083C167.626 118.185 167.746 118.278 167.913 118.362C168.08 118.436 168.298 118.505 168.567 118.57C168.846 118.635 169.189 118.714 169.597 118.807C170.024 118.9 170.381 119.02 170.668 119.169C170.956 119.308 171.188 119.47 171.364 119.656C171.54 119.832 171.666 120.031 171.74 120.254C171.814 120.467 171.851 120.695 171.851 120.936C171.851 121.214 171.782 121.483 171.642 121.743C171.513 122.003 171.322 122.23 171.072 122.425C170.821 122.619 170.515 122.777 170.154 122.898C169.801 123.018 169.397 123.079 168.943 123.079C168.488 123.079 168.085 123.023 167.732 122.912C167.38 122.8 167.078 122.666 166.828 122.508C166.577 122.341 166.383 122.165 166.243 121.979C166.114 121.785 166.044 121.604 166.035 121.437C166.025 121.335 166.058 121.246 166.132 121.172C166.206 121.098 166.299 121.061 166.41 121.061H166.911C166.967 121.061 167.032 121.07 167.106 121.089C167.18 121.098 167.25 121.149 167.315 121.242C167.463 121.446 167.667 121.604 167.927 121.715C168.187 121.826 168.525 121.882 168.943 121.882C169.147 121.882 169.346 121.859 169.541 121.812C169.745 121.766 169.922 121.701 170.07 121.618C170.228 121.534 170.353 121.437 170.446 121.325C170.538 121.205 170.585 121.075 170.585 120.936Z" fill="#1E1E1E"/>
<path d="M164.881 115.704C164.983 115.704 165.071 115.741 165.145 115.815C165.219 115.889 165.256 115.977 165.256 116.079V116.525C165.256 116.627 165.219 116.715 165.145 116.789C165.071 116.863 164.983 116.9 164.881 116.9H164.074C163.007 116.9 162.474 117.434 162.474 118.501V122.564C162.474 122.666 162.436 122.754 162.362 122.828C162.288 122.902 162.2 122.939 162.098 122.939H161.583C161.481 122.939 161.393 122.902 161.319 122.828C161.244 122.754 161.207 122.666 161.207 122.564V116.079C161.207 115.977 161.244 115.889 161.319 115.815C161.393 115.741 161.481 115.704 161.583 115.704H162.098C162.2 115.704 162.288 115.741 162.362 115.815C162.436 115.889 162.474 115.977 162.474 116.079V116.511C162.659 116.233 162.882 116.028 163.141 115.899C163.401 115.769 163.74 115.704 164.157 115.704H164.881Z" fill="#1E1E1E"/>
<path d="M153.128 118.626C153.165 118.199 153.267 117.8 153.434 117.429C153.601 117.058 153.819 116.733 154.088 116.455C154.357 116.177 154.677 115.959 155.048 115.801C155.428 115.644 155.85 115.565 156.314 115.565C156.815 115.565 157.26 115.648 157.65 115.815C158.049 115.973 158.387 116.205 158.666 116.511C158.944 116.817 159.157 117.188 159.306 117.624C159.454 118.06 159.528 118.547 159.528 119.085V119.461C159.528 119.563 159.491 119.651 159.417 119.725C159.343 119.799 159.255 119.836 159.153 119.836H154.366V119.92C154.385 120.551 154.575 121.038 154.936 121.381C155.308 121.715 155.767 121.882 156.314 121.882C156.824 121.882 157.205 121.812 157.455 121.673C157.715 121.525 157.924 121.362 158.081 121.186C158.155 121.112 158.22 121.061 158.276 121.033C158.332 121.005 158.415 120.991 158.526 120.991H158.944C159.046 120.991 159.139 121.028 159.222 121.103C159.306 121.177 159.338 121.265 159.32 121.367C159.292 121.534 159.213 121.72 159.083 121.924C158.953 122.118 158.763 122.304 158.513 122.48C158.271 122.647 157.965 122.791 157.594 122.912C157.232 123.023 156.806 123.079 156.314 123.079C155.85 123.079 155.433 123 155.062 122.842C154.691 122.675 154.366 122.452 154.088 122.174C153.819 121.887 153.601 121.553 153.434 121.172C153.267 120.783 153.165 120.361 153.128 119.906C153.081 119.479 153.081 119.053 153.128 118.626ZM154.366 118.668H158.276V118.626C158.276 118.06 158.095 117.61 157.733 117.276C157.381 116.933 156.908 116.761 156.314 116.761C156.045 116.761 155.795 116.808 155.563 116.9C155.331 116.984 155.127 117.109 154.95 117.276C154.774 117.434 154.635 117.629 154.533 117.861C154.431 118.092 154.375 118.348 154.366 118.626V118.668Z" fill="#1E1E1E"/>
<path d="M148.029 119.878V122.564C148.029 122.666 147.992 122.754 147.917 122.828C147.843 122.902 147.755 122.939 147.653 122.939H147.138C147.036 122.939 146.948 122.902 146.874 122.828C146.8 122.754 146.762 122.666 146.762 122.564V113.436C146.762 113.334 146.8 113.246 146.874 113.171C146.948 113.097 147.036 113.06 147.138 113.06H147.653C147.755 113.06 147.843 113.097 147.917 113.171C147.992 113.246 148.029 113.334 148.029 113.436V118.041L150.742 115.94C150.798 115.894 150.867 115.843 150.951 115.787C151.044 115.732 151.155 115.704 151.285 115.704H151.98C152.073 115.704 152.152 115.736 152.217 115.801C152.282 115.866 152.314 115.945 152.314 116.038C152.314 116.084 152.305 116.131 152.287 116.177C152.277 116.214 152.236 116.26 152.161 116.316L148.808 118.932L152.509 122.341C152.565 122.397 152.602 122.443 152.621 122.48C152.639 122.517 152.648 122.559 152.648 122.605C152.648 122.698 152.616 122.777 152.551 122.842C152.486 122.907 152.407 122.939 152.314 122.939H151.66C151.521 122.939 151.401 122.912 151.299 122.856C151.206 122.8 151.136 122.749 151.09 122.703L148.029 119.878Z" fill="#1E1E1E"/>
<path d="M139.976 119.809C140.014 120.18 140.092 120.495 140.213 120.755C140.343 121.015 140.496 121.228 140.672 121.395C140.858 121.562 141.062 121.687 141.284 121.771C141.507 121.845 141.734 121.882 141.966 121.882C142.412 121.882 142.792 121.798 143.107 121.631C143.423 121.464 143.668 121.186 143.845 120.797C143.91 120.648 143.975 120.551 144.04 120.504C144.114 120.449 144.202 120.421 144.304 120.421H144.721C144.823 120.421 144.912 120.458 144.986 120.532C145.069 120.606 145.106 120.695 145.097 120.797C145.088 121.019 145.014 121.265 144.874 121.534C144.745 121.794 144.545 122.04 144.276 122.272C144.016 122.494 143.692 122.684 143.302 122.842C142.922 123 142.476 123.079 141.966 123.079C141.456 123.079 141.001 122.995 140.603 122.828C140.213 122.661 139.879 122.434 139.601 122.146C139.332 121.859 139.118 121.52 138.961 121.131C138.812 120.741 138.729 120.323 138.71 119.878C138.701 119.73 138.692 119.549 138.682 119.336C138.682 119.113 138.692 118.923 138.71 118.765C138.747 118.32 138.84 117.902 138.988 117.513C139.146 117.123 139.36 116.785 139.629 116.497C139.898 116.209 140.227 115.982 140.617 115.815C141.006 115.648 141.456 115.565 141.966 115.565C142.476 115.565 142.922 115.644 143.302 115.801C143.692 115.959 144.016 116.154 144.276 116.386C144.545 116.608 144.745 116.854 144.874 117.123C145.014 117.383 145.088 117.624 145.097 117.847C145.106 117.949 145.069 118.037 144.986 118.111C144.912 118.185 144.823 118.222 144.721 118.222H144.304C144.202 118.222 144.114 118.199 144.04 118.153C143.975 118.097 143.91 117.995 143.845 117.847C143.668 117.457 143.423 117.179 143.107 117.012C142.792 116.845 142.412 116.761 141.966 116.761C141.734 116.761 141.502 116.803 141.271 116.887C141.048 116.961 140.844 117.081 140.658 117.248C140.482 117.415 140.329 117.629 140.199 117.888C140.078 118.148 140.004 118.464 139.976 118.835C139.949 119.178 139.949 119.503 139.976 119.809Z" fill="#1E1E1E"/>
<path d="M136.954 122.564C136.954 122.666 136.917 122.754 136.843 122.828C136.768 122.902 136.68 122.939 136.578 122.939H136.063C135.961 122.939 135.873 122.902 135.799 122.828C135.725 122.754 135.688 122.666 135.688 122.564V116.079C135.688 115.977 135.725 115.889 135.799 115.815C135.873 115.741 135.961 115.704 136.063 115.704H136.578C136.68 115.704 136.768 115.741 136.843 115.815C136.917 115.889 136.954 115.977 136.954 116.079V122.564ZM137.093 114.229C137.093 114.331 137.056 114.419 136.982 114.493C136.908 114.567 136.819 114.605 136.717 114.605H135.924C135.822 114.605 135.734 114.567 135.66 114.493C135.586 114.419 135.549 114.331 135.549 114.229V113.436C135.549 113.334 135.586 113.246 135.66 113.171C135.734 113.097 135.822 113.06 135.924 113.06H136.717C136.819 113.06 136.908 113.097 136.982 113.171C137.056 113.246 137.093 113.334 137.093 113.436V114.229Z" fill="#1E1E1E"/>
<path d="M132.009 120.504C132.009 120.681 132.023 120.848 132.051 121.005C132.088 121.154 132.148 121.284 132.231 121.395C132.315 121.506 132.431 121.594 132.579 121.659C132.737 121.715 132.936 121.743 133.178 121.743H133.915C134.017 121.743 134.105 121.78 134.179 121.854C134.254 121.928 134.291 122.016 134.291 122.118V122.564C134.291 122.666 134.254 122.754 134.179 122.828C134.105 122.902 134.017 122.939 133.915 122.939H133.038C132.231 122.939 131.647 122.731 131.285 122.313C130.923 121.896 130.743 121.293 130.743 120.504V116.9H129.713C129.611 116.9 129.523 116.863 129.448 116.789C129.374 116.715 129.337 116.627 129.337 116.525V116.079C129.337 115.977 129.374 115.889 129.448 115.815C129.523 115.741 129.611 115.704 129.713 115.704H130.743V113.436C130.743 113.334 130.78 113.246 130.854 113.171C130.928 113.097 131.016 113.06 131.118 113.06H131.633C131.735 113.06 131.823 113.097 131.897 113.171C131.972 113.246 132.009 113.334 132.009 113.436V115.704H133.776C133.878 115.704 133.966 115.741 134.04 115.815C134.115 115.889 134.152 115.977 134.152 116.079V116.525C134.152 116.627 134.115 116.715 134.04 116.789C133.966 116.863 133.878 116.9 133.776 116.9H132.009V120.504Z" fill="#1E1E1E"/>
<path d="M124.66 113.06C125.225 113.06 125.722 113.148 126.148 113.324C126.584 113.501 126.951 113.719 127.248 113.978C127.554 114.229 127.786 114.502 127.943 114.799C128.101 115.087 128.185 115.347 128.194 115.579C128.203 115.662 128.175 115.736 128.11 115.801C128.045 115.857 127.971 115.885 127.888 115.885H127.317C127.215 115.885 127.132 115.866 127.067 115.829C127.011 115.792 126.951 115.708 126.886 115.579C126.84 115.486 126.761 115.37 126.649 115.231C126.547 115.082 126.404 114.943 126.218 114.813C126.042 114.674 125.824 114.558 125.564 114.465C125.304 114.363 125.003 114.312 124.66 114.312C124.4 114.312 124.149 114.345 123.908 114.41C123.676 114.465 123.468 114.554 123.282 114.674C123.096 114.795 122.948 114.948 122.837 115.133C122.725 115.31 122.67 115.518 122.67 115.759C122.67 116.001 122.721 116.205 122.823 116.372C122.934 116.539 123.106 116.692 123.338 116.831C123.579 116.961 123.88 117.081 124.242 117.193C124.604 117.304 125.045 117.429 125.564 117.568C126.093 117.708 126.538 117.861 126.9 118.028C127.271 118.195 127.572 118.385 127.804 118.598C128.036 118.802 128.203 119.043 128.305 119.322C128.417 119.591 128.472 119.897 128.472 120.24C128.472 120.657 128.379 121.042 128.194 121.395C128.018 121.738 127.767 122.035 127.443 122.285C127.118 122.536 126.724 122.731 126.26 122.87C125.805 123.009 125.295 123.079 124.729 123.079C124.191 123.079 123.695 123 123.24 122.842C122.786 122.684 122.396 122.48 122.071 122.23C121.747 121.979 121.487 121.701 121.292 121.395C121.107 121.089 121.009 120.787 121 120.49C121 120.407 121.028 120.337 121.083 120.282C121.148 120.217 121.223 120.184 121.306 120.184H121.877C121.969 120.184 122.048 120.203 122.113 120.24C122.187 120.277 122.252 120.361 122.308 120.49C122.364 120.62 122.447 120.764 122.558 120.922C122.679 121.07 122.837 121.214 123.032 121.353C123.226 121.483 123.463 121.594 123.741 121.687C124.019 121.78 124.349 121.826 124.729 121.826C125.054 121.826 125.36 121.789 125.648 121.715C125.944 121.641 126.204 121.534 126.427 121.395C126.649 121.256 126.826 121.089 126.956 120.894C127.085 120.699 127.15 120.481 127.15 120.24C127.15 119.999 127.076 119.795 126.928 119.628C126.779 119.451 126.566 119.294 126.288 119.155C126.009 119.015 125.666 118.89 125.258 118.779C124.859 118.658 124.404 118.533 123.894 118.403C123.43 118.283 123.036 118.139 122.712 117.972C122.387 117.796 122.122 117.596 121.918 117.374C121.714 117.151 121.566 116.905 121.473 116.636C121.39 116.367 121.348 116.075 121.348 115.759C121.348 115.416 121.417 115.082 121.557 114.758C121.696 114.433 121.9 114.145 122.169 113.895C122.447 113.644 122.79 113.445 123.199 113.297C123.616 113.139 124.103 113.06 124.66 113.06Z" fill="#1E1E1E"/>
<defs>
<clipPath id="clip0_206_3293">
<rect width="109.276" height="116.372" fill="white" transform="translate(0 12)"/>
</clipPath>
<clipPath id="clip1_206_3293">
<rect width="236" height="84.7284" fill="white" transform="translate(121 21.4105)"/>
</clipPath>
</defs>
</svg>
