<svg fill="none" height="210" viewBox="0 0 854 210" width="854" xmlns="http://www.w3.org/2000/svg" xmlns:xlink="http://www.w3.org/1999/xlink"><clipPath id="a"><path d="m0 0h854v210h-854z"/></clipPath><g clip-path="url(#a)" fill="#f0d101"><path clip-rule="evenodd" d="m92.221-3.7647c5.4063-6.7453 10.86-12.7317 16.195-17.7665.179-.1828 18.192-18.8697 47.962-29.3875.443-.1578.945-.0825 1.316.1972.383.2797.574.7244.526 1.175-.43 3.6195-1.256 10.6661-1.256 10.6661 6.304.673 12.128 3.3613 14.712 4.6977.335.1853.562.5056.622.8714.06.367-.06.7387-.323 1.0101-1.95 2.0141-5.849 6.0233-5.849 6.0305 7.009 5.8405 14.317 13.4967 21.53 22.50719 3.408-.23428 6.542-.59888 9.377-1.15592 5.047-.99452 9.018-2.45763 11.422-5.44237 3.373-4.2053 3.277-10.7868.658-20.9246 0 0-1.567-6.0747-2.572-9.9477-.143-.5498.048-1.132.503-1.4834.442-.3526 1.052-.4088 1.555-.1434 3.54 1.8671 9.09 4.7957 9.09 4.7957 34.518 18.2087 45.558 37.863803 40.355 58.7465-1.579 6.3736-7.475 12.5548-16.864 17.6457-4.007 2.1756-8.684 4.2148-13.827 6.1094 17.199 2.0596 39.255 4.699 48.812 5.8429 1.256.1518 2.38.8331 3.062 1.8576.681 1.0232.837 2.2831.442 3.433-5.083 14.7661-19.675 25.4454-36.863 25.4454-3.373 0-6.638-.4112-9.76-1.1822 5.718 16.7826 15.298 50.1139 11.483 101.0029-.024.335-.216.637-.515.814s-.669.208-1.004.083c-3.05-1.175-10.059-3.868-10.059-3.868-2.476 12.606-6.878 22.63-8.612 26.276-.156.301-.467.503-.813.527-.347.023-.682-.134-.885-.411-1.83-2.61-5.658-8.045-5.658-8.045l-.024-.043c-21.9 32.256-68.559 50.756-77.015 50.756-8.468 0-54.0263-18.271-77.0506-50.713 0 0-3.8274 5.435-5.6574 8.045-.2033.277-.5383.434-.8851.411-.3469-.024-.6579-.226-.8133-.527-1.7343-3.646-6.1359-13.67-8.6117-26.276 0 0-7.009 2.693-10.059 3.868-.3349.125-.6936.094-.9927-.083-.299-.177-.4904-.479-.5144-.814-3.8394-50.991 5.7532-84.2203 11.4704-101.0029-3.1218.771-6.387 1.1822-9.7599 1.1822-17.1875 0-31.77964-10.6793-36.850982-25.4454-.406664-1.1499-.2391438-2.4098.430655-3.433.681757-1.0245 1.805977-1.7058 3.073807-1.8576 9.55662-1.1439 31.60012-3.7833 48.79962-5.8429-5.1431-1.8958-9.8196-3.9362-13.8384-6.1129-9.3772-5.0898-15.2739-11.2698-16.8527-17.6422-5.1909-20.882697 5.8369-40.5378 40.3555-58.7465 0 0 5.5497-2.9286 9.0901-4.7957.5024-.2654 1.1124-.2092 1.5549.1434.4545.3514.6458.9336.5023 1.4834-.9928 3.873-2.5716 9.9477-2.5716 9.9477-2.6074 10.1437-2.715 16.7277.6699 20.9317 2.4041 2.98601 6.387 4.44792 11.4464 5.44126 2.8227.55344 5.9444.91684 9.3412 1.14874zm77.147 153.0117c.645-3.228-.192-6.575-2.273-9.119-2.093-2.545-5.215-4.02-8.504-4.02-10.896-.002-26.242-.002-37.198-.002-3.349 0-6.506 1.507-8.623 4.102-2.106 2.595-2.931 6-2.237 9.27 2.715 12.863 14.066 22.07 27.222 22.07 1.46.003 2.931.003 4.39.003 13.229 0 24.627-9.33 27.223-22.295 0 0 0 0 0-.009zm-58.321-37.346c1.352 6.153 6.806 10.538 13.109 10.538 9.114.013 22.115.013 31.229.013 6.268 0 11.71-4.343 13.097-10.459 2.943-15.1286 6.316-38.3482 7.942-57.6471.347-4.4849-2.093-8.7249-6.147-10.6864-5.67-2.5856-15.202-5.4926-29.627-5.4926-14.831 0-24.938 3.0756-30.907 5.7412-4.078 1.8994-6.578 6.1034-6.291 10.592 1.328 18.9988 4.509 41.6351 7.595 57.4009zm-21.6009-21.3552c.6698-.7447 1.6985-1.0651 2.6793-.838s1.7582.9671 2.0333 1.9329c1.232 4.3212 3.0021 10.4913 3.0021 10.4913s1.6626 5.811 2.8942 10.105c.299 1.054 0 2.189-.7771 2.957-.7894.767-1.9258 1.045-2.9783.721-5.0713-1.578-9.1738-5.295-10.6569-10.48-1.531-5.34.1195-10.8298 3.8034-14.8892zm93.2699 11.5872s1.758-6.1795 2.99-10.5079c.275-.9658 1.052-1.7069 2.033-1.9364.969-.2295 1.998.0896 2.679.8331 3.684 4.0475 5.347 9.5402 3.828 14.8892-1.471 5.189-5.574 8.914-10.633 10.501-1.053.327-2.189.052-2.978-.713-.778-.767-1.089-1.901-.79-2.955 1.22-4.296 2.871-10.111 2.871-10.111z" fill-rule="evenodd"/><path d="m849.532 172.791c1.184 0 2.206.465 3.067 1.394s1.291 2.033 1.291 3.311v28.786c0 1.278-.43 2.381-1.291 3.311-.861.929-1.883 1.394-3.067 1.394h-28.1c-1.184 0-2.206-.465-3.067-1.394-.861-.93-1.291-2.033-1.291-3.311v-28.786c0-1.278.43-2.382 1.291-3.311s1.883-1.394 3.067-1.394zm-111.147-36.452c-.323 9.505-.323 19.107 0 28.844.215 5.247 1.345 8.886 3.425 10.899 2.062 1.994 4.842 3.001 8.339 3.001 2.761 0 5.164-.697 7.227-2.071 2.08-1.375 3.64-3.775 4.698-7.202.538-1.955 1.184-3.252 1.991-3.949.789-.678 2.098-1.026 3.891-1.026h32.423c.968 0 1.775.368 2.474 1.103.682.755 1.022 1.646 1.022 2.672-.089 7.782-1.685 14.442-4.752 19.998-3.084 5.536-7.101 10.086-12.086 13.628-4.986 3.562-10.653 6.156-17.019 7.821-6.348 1.646-12.929 2.478-19.708 2.478-7.639 0-14.633-.89-20.981-2.652-6.366-1.781-11.908-4.549-16.624-8.324s-8.411-8.576-11.118-14.423c-2.708-5.827-4.215-12.873-4.537-21.101-.216-4.685-.305-9.718-.305-15.1s.089-10.531.305-15.448c.322-8.015 1.883-14.926 4.698-20.772 2.798-5.827 6.563-10.667 11.28-14.5 4.716-3.8331 10.257-6.6596 16.623-8.4987 6.349-1.8197 13.235-2.7295 20.659-2.7295 6.779 0 13.36.8132 19.708 2.4781 6.366 1.6648 12.033 4.2587 17.019 7.8014 4.985 3.5617 9.002 8.1117 12.086 13.6477 3.067 5.556 4.663 12.216 4.752 19.998 0 1.026-.34 1.917-1.022 2.652-.699.755-1.506 1.123-2.474 1.123h-32.423c-1.793 0-3.067-.348-3.82-1.026-.735-.697-1.434-2.013-2.062-3.949-1.166-3.659-2.762-6.118-4.77-7.376-2.009-1.258-4.394-1.897-7.155-1.897-3.497 0-6.277 1.007-8.339 3.001-2.08 2.013-3.21 5.633-3.425 10.899zm-385.502-45.6485c7.209 0 13.754.8709 19.636 2.5745 5.882 1.7229 10.903 4.3171 15.1 7.821 4.178 3.485 7.424 7.86 9.701 13.126 2.278 5.265 3.407 11.44 3.407 18.526 0 7.105-1.129 13.222-3.407 18.372-2.277 5.149-5.523 9.369-9.701 12.699-4.197 3.31-9.218 5.749-15.1 7.279-5.882 1.548-12.427 2.323-19.636 2.323h-11.137v32.775c0 1.258-.412 2.342-1.273 3.271-.841.91-1.847 1.375-3.013 1.375h-32.749c-1.165 0-2.171-.465-3.019-1.375-.849-.929-1.272-2.013-1.272-3.271v-110.8494c0-1.2583.423-2.3618 1.272-3.2717.848-.9099 1.854-1.3744 3.019-1.3744zm292.825 120.1415c-1.166 0-2.17-.465-3.013-1.375-.861-.929-1.273-2.013-1.273-3.271v-110.8494c0-1.2583.412-2.3618 1.273-3.2717.843-.9099 1.847-1.3744 3.013-1.3744h32.422c1.166 0 2.188.4645 3.031 1.3744s1.273 2.0134 1.273 3.2717v110.8494c0 1.258-.43 2.342-1.273 3.271-.843.91-1.865 1.375-3.031 1.375zm-26.074-120.1415c1.165 0 2.169.4645 3.03 1.3744.843.9099 1.256 2.0134 1.256 3.2717v110.8494c0 1.258-.413 2.342-1.256 3.271-.861.91-1.865 1.375-3.03 1.375h-25.124c-2.116 0-3.641-.523-4.609-1.549-.951-1.026-1.578-1.839-1.901-2.401l-26.863-43.77v43.074c0 1.258-.431 2.342-1.274 3.271-.842.91-1.865 1.375-3.03 1.375h-28.764c-1.166 0-2.17-.465-3.013-1.375-.861-.929-1.273-2.013-1.273-3.271v-110.8494c0-1.2583.412-2.3618 1.273-3.2717.843-.9099 1.847-1.3744 3.013-1.3744h25.123c2.116 0 3.641.5227 4.609 1.5487.951 1.026 1.578 1.8392 1.901 2.4006l26.863 47.5452v-46.8484c0-1.2583.431-2.3618 1.274-3.2717.842-.9099 1.865-1.3744 3.03-1.3744zm-147.372 0c2.134 0 3.765.6386 4.931 1.8969 1.166 1.2584 1.919 2.5167 2.224 3.775l35.453 109.4946c.107.329.161.735.161 1.2 0 1.026-.34 1.916-1.04 2.652-.681.735-1.506 1.123-2.457 1.123h-29.409c-2.116 0-3.605-.484-4.448-1.472-.843-.967-1.434-1.916-1.757-2.826l-3.802-11.325h-34.18l-3.82 11.325c-.322.91-.896 1.859-1.757 2.826-.843.988-2.331 1.472-4.447 1.472h-29.41c-.951 0-1.776-.388-2.457-1.123-.699-.736-1.04-1.626-1.04-2.652 0-.465.054-.871.161-1.2l35.453-109.4946c.323-1.2583 1.059-2.5166 2.224-3.775 1.166-1.2583 2.816-1.8969 4.932-1.8969zm377.27-.1936c1.184 0 2.206.4645 3.067 1.3937s1.291 2.0326 1.291 3.3103v65.8981c0 1.277-.43 2.381-1.291 3.31s-1.883 1.394-3.067 1.394h-28.1c-1.184 0-2.206-.465-3.067-1.394s-1.291-2.033-1.291-3.31v-65.8981c0-1.2777.43-2.3811 1.291-3.3103s1.883-1.3937 3.067-1.3937zm-385.538 71.2411-9.056-31.923-8.894 31.923zm-123.037-20.076h11.137c1.685 0 3.335-.716 4.913-2.149 1.596-1.432 2.385-3.794 2.385-7.123 0-2.169-.502-4.337-1.506-6.505-1.004-2.188-2.941-3.272-5.792-3.272h-11.137zm102.092-142.51975c.771 0 1.435.309591 2.008.9097164.556.6194846.843 1.3359936.843 2.1684236v46.69351c0 5.4011-.843 10.0475-2.546 13.9773-1.686 3.9105-4.035 7.1625-7.03 9.7566s-6.581 4.4913-10.777 5.7109c-4.197 1.2196-8.788 1.8198-13.791 1.8198-5.075 0-9.737-.6002-13.969-1.8198-4.215-1.2196-7.837-3.1168-10.832-5.7109s-5.344-5.8461-7.03-9.7566c-1.685-3.9298-2.546-8.5762-2.546-13.9773v-46.69351c0-.83243.287-1.548939.861-2.1684236.556-.6001254 1.219-.9097164 2.008-.9097164h20.712c.772 0 1.453.309591 2.009.9097164.574.6194846.843 1.3359936.843 2.1684236v46.22881c0 5.8657 2.618 8.789 7.837 8.789 5.218 0 7.818-2.9233 7.818-8.789v-46.22881c0-.83243.287-1.548939.843-2.1684236.574-.6001254 1.237-.9097164 2.009-.9097164zm360.629 30.14165c.144 3.2716.197 6.6595.197 10.1441 0 3.504-.053 6.8145-.197 9.9313-.215 5.1107-1.201 9.563-2.959 13.4155-1.775 3.833-4.178 7.0661-7.245 9.6408-3.066 2.5941-6.742 4.5299-10.993 5.827-4.268 1.297-8.984 1.9359-14.113 1.9359-5.218 0-9.952-.6389-14.166-1.9359-4.233-1.2971-7.891-3.2329-10.958-5.827-3.066-2.5747-5.469-5.8078-7.244-9.6408-1.758-3.8525-2.744-8.3048-2.959-13.4155-.126-3.1168-.198-6.4273-.198-9.9313 0-3.4846.072-6.8725.198-10.1441.215-5.0333 1.201-9.4859 2.959-13.3576 1.775-3.8912 4.178-7.16268 7.244-9.81485 3.067-2.67153 6.725-4.685 10.958-6.0594836 4.214-1.3551264 8.948-2.0519664 14.166-2.0519664 5.129 0 9.845.69684 14.113 2.0519664 4.251 1.3744836 7.927 3.3879536 10.993 6.0594836 3.067 2.65217 5.47 5.92365 7.245 9.81485 1.758 3.8717 2.744 8.3243 2.959 13.3576zm-500.403 49.7523c-.776 0-1.445-.3096-2.008-.9097-.565-.6195-.847-1.3356-.847-2.168v-73.73811c0-.83243.282-1.548939.847-2.1684236.563-.6001254 1.232-.9097164 2.008-.9097164h35.1c10.15 0 17.574 1.97446 22.255 5.94303 4.68 3.94921 7.029 9.97012 7.029 18.02342 0 1.8391-.287 3.5231-.843 5.0912-.555 1.5487-1.273 2.9234-2.116 4.1043-.842 1.1809-1.757 2.2066-2.743 3.0777-.987.8712-1.901 1.5489-2.762 1.9942 1.345.6194 2.636 1.4714 3.873 2.5748 1.22 1.1035 2.296 2.381 3.21 3.8136.933 1.4519 1.65 3.0393 2.17 4.7429.538 1.7036.807 3.5233.807 5.4205 0 8.5953-2.564 14.9255-7.675 19.0103-5.111 4.0653-12.499 6.098-22.147 6.098zm209.766-79.89395c.771 0 1.434.309591 2.008.9097164.556.6194846.843 1.3359936.843 2.1684236v17.34551c0 .8518-.287 1.5679-.843 2.168-.574.6195-1.237.9294-2.008.9294h-30.253v8.4404h28.137c.771 0 1.434.31 2.008.9101.556.6195.843 1.3356.843 2.168v17.2294c0 .8518-.287 1.568-.843 2.1681-.574.6195-1.237.9294-2.008.9294h-28.137v21.4498c0 .8324-.269 1.5485-.843 2.168-.556.6001-1.237.9097-2.008.9097h-20.193c-.771 0-1.434-.3096-2.008-.9097-.556-.6195-.843-1.3356-.843-2.168v-73.73811c0-.83243.287-1.548939.843-2.1684236.574-.6001254 1.237-.9097164 2.008-.9097164zm68.288 0c.771 0 1.452.309591 2.008.9097164.574.6194846.843 1.3359936.843 2.1684236v17.34551c0 .8518-.269 1.5679-.843 2.168-.556.6195-1.237.9294-2.008.9294h-30.235v8.4404h28.119c.771 0 1.452.31 2.008.9101.574.6195.843 1.3356.843 2.168v17.2294c0 .8518-.269 1.568-.843 2.1681-.556.6195-1.237.9294-2.008.9294h-28.119v21.4498c0 .8324-.287 1.5485-.843 2.168-.574.6001-1.237.9097-2.008.9097h-20.192c-.772 0-1.453-.3096-2.009-.9097-.574-.6195-.843-1.3356-.843-2.168v-73.73811c0-.83243.269-1.548939.843-2.1684236.556-.6001254 1.237-.9097164 2.009-.9097164zm144.323 56.48935c.772 0 1.435.3095 2.009.929.556.6002.843 1.3167.843 2.1685v17.2294c0 .8324-.287 1.5485-.843 2.168-.574.6001-1.237.9097-2.009.9097h-53.296c-.771 0-1.435-.3096-2.008-.9097-.556-.6195-.843-1.3356-.843-2.168v-73.73811c0-.83243.287-1.548939.843-2.1684236.573-.6001254 1.237-.9097164 2.008-.9097164h21.143c.789 0 1.452.309591 2.008.9097164.574.6194846.861 1.3359936.861 2.1684236v53.41121zm-90.399-56.48935c1.417 0 2.493.425895 3.282 1.258328.771.832432 1.255 1.664862 1.47 2.516652l23.582 72.80867c.072.2323.108.5033.108.7937 0 .6969-.234 1.2779-.682 1.7812-.466.484-1.004.7354-1.65.7354h-19.565c-1.398 0-2.385-.3291-2.958-.9679-.556-.6389-.951-1.2776-1.148-1.8777l-2.547-7.5307h-22.738l-2.529 7.5307c-.215.6001-.592 1.2388-1.166 1.8777-.556.6388-1.542.9679-2.959.9679h-19.564c-.628 0-1.166-.2514-1.632-.7354-.466-.5033-.682-1.0843-.682-1.7812 0-.2904.036-.5614.108-.7937l23.564-72.80867c.215-.85179.717-1.68422 1.488-2.516652.771-.832433 1.865-1.258328 3.282-1.258328zm-308.402 60.26435h9.833c1.763 0 3.013-.6002 3.753-1.8198.735-1.2196 1.112-2.4779 1.112-3.775 0-1.3745-.412-2.633-1.219-3.8139-.809-1.1809-2.025-1.7809-3.646-1.7809h-9.833zm433.681-10.7249c.143 3.1942.896 5.5365 2.277 7.0078 1.381 1.4906 3.228 2.2263 5.559 2.2263 2.314 0 4.161-.7357 5.542-2.2263 1.38-1.4713 2.134-3.8136 2.277-7.0078.215-6.4659.215-12.8542 0-19.1846-.143-3.1942-.914-5.5368-2.331-7.0081-1.417-1.4906-3.246-2.2263-5.488-2.2263-2.259 0-4.088.7357-5.505 2.2263-1.417 1.4713-2.188 3.8139-2.331 7.0081-.215 6.3304-.215 12.7187 0 19.1846zm-130.784-2.2845-6.026-21.2365-5.918 21.2365zm-289.687-22.3788c0-1.2002-.329-2.381-.999-3.5231-.669-1.1422-1.779-1.7231-3.33-1.7231h-8.881v10.3956h8.881c1.551 0 2.661-.5613 3.33-1.6648.67-1.1034.999-2.265.999-3.4846z"/></g></svg>