<svg width="854" height="210" viewBox="0 0 854 210" fill="none" xmlns="http://www.w3.org/2000/svg">
<g clip-path="url(#clip0_206_3295)">
<path fill-rule="evenodd" clip-rule="evenodd" d="M92.221 -3.7647C97.6273 -10.51 103.081 -16.4964 108.416 -21.5312C108.595 -21.714 126.608 -40.4009 156.378 -50.9187C156.821 -51.0765 157.323 -51.0012 157.694 -50.7215C158.077 -50.4418 158.268 -49.9971 158.22 -49.5465C157.79 -45.927 156.964 -38.8804 156.964 -38.8804C163.268 -38.2074 169.092 -35.5191 171.676 -34.1827C172.011 -33.9974 172.238 -33.6771 172.298 -33.3113C172.358 -32.9443 172.238 -32.5726 171.975 -32.3012C170.025 -30.2871 166.126 -26.2779 166.126 -26.2707C173.135 -20.4302 180.443 -12.774 187.656 -3.76351C191.064 -3.99779 194.198 -4.36239 197.033 -4.91943C202.08 -5.91395 206.051 -7.37706 208.455 -10.3618C211.828 -14.5671 211.732 -21.1486 209.113 -31.2864C209.113 -31.2864 207.546 -37.3611 206.541 -41.2341C206.398 -41.7839 206.589 -42.3661 207.044 -42.7175C207.486 -43.0701 208.096 -43.1263 208.599 -42.8609C212.139 -40.9938 217.689 -38.0652 217.689 -38.0652C252.207 -19.8565 263.247 -0.201397 258.044 20.6813C256.465 27.0549 250.569 33.2361 241.18 38.327C237.173 40.5026 232.496 42.5418 227.353 44.4364C244.552 46.496 266.608 49.1354 276.165 50.2793C277.421 50.4311 278.545 51.1124 279.227 52.1369C279.908 53.1601 280.064 54.42 279.669 55.5699C274.586 70.336 259.994 81.0153 242.806 81.0153C239.433 81.0153 236.168 80.6041 233.046 79.8331C238.764 96.6157 248.344 129.947 244.529 180.836C244.505 181.171 244.313 181.473 244.014 181.65C243.715 181.827 243.345 181.858 243.01 181.733C239.96 180.558 232.951 177.865 232.951 177.865C230.475 190.471 226.073 200.495 224.339 204.141C224.183 204.442 223.872 204.644 223.526 204.668C223.179 204.691 222.844 204.534 222.641 204.257C220.811 201.647 216.983 196.212 216.983 196.212L216.959 196.169C195.059 228.425 148.4 246.925 139.944 246.925C131.476 246.925 85.9177 228.654 62.8934 196.212C62.8934 196.212 59.066 201.647 57.236 204.257C57.0327 204.534 56.6977 204.691 56.3509 204.668C56.004 204.644 55.693 204.442 55.5376 204.141C53.8033 200.495 49.4017 190.471 46.9259 177.865C46.9259 177.865 39.9169 180.558 36.8669 181.733C36.532 181.858 36.1733 181.827 35.8742 181.65C35.5752 181.473 35.3838 181.171 35.3598 180.836C31.5204 129.845 41.113 96.6157 46.8302 79.8331C43.7084 80.6041 40.4432 81.0153 37.0703 81.0153C19.8828 81.0153 5.29066 70.336 0.219318 55.5699C-0.187346 54.42 -0.0198258 53.1601 0.649973 52.1369C1.33173 51.1124 2.45595 50.4311 3.72378 50.2793C13.2804 49.1354 35.3239 46.496 52.5234 44.4364C47.3803 42.5406 42.7038 40.5002 38.685 38.3235C29.3078 33.2337 23.4111 27.0537 21.8323 20.6813C16.6414 -0.201397 27.6692 -19.8565 62.1878 -38.0652C62.1878 -38.0652 67.7375 -40.9938 71.2779 -42.8609C71.7803 -43.1263 72.3903 -43.0701 72.8328 -42.7175C73.2873 -42.3661 73.4786 -41.7839 73.3351 -41.2341C72.3423 -37.3611 70.7635 -31.2864 70.7635 -31.2864C68.1561 -21.1427 68.0485 -14.5587 71.4334 -10.3547C73.8375 -7.36869 77.8204 -5.90678 82.8798 -4.91344C85.7025 -4.36 88.8242 -3.9966 92.221 -3.7647ZM169.368 149.247C170.013 146.019 169.176 142.672 167.095 140.128C165.002 137.583 161.88 136.108 158.591 136.108C147.695 136.106 132.349 136.106 121.393 136.106C118.044 136.106 114.887 137.613 112.77 140.208C110.664 142.803 109.839 146.208 110.533 149.478C113.248 162.341 124.599 171.548 137.755 171.548C139.215 171.551 140.686 171.551 142.145 171.551C155.374 171.551 166.772 162.221 169.368 149.256C169.368 149.256 169.368 149.256 169.368 149.247ZM111.047 111.901C112.399 118.054 117.853 122.439 124.156 122.439C133.27 122.452 146.271 122.452 155.385 122.452C161.653 122.452 167.095 118.109 168.482 111.993C171.425 96.8644 174.798 73.6448 176.424 54.3459C176.771 49.861 174.331 45.621 170.277 43.6595C164.607 41.0739 155.075 38.1669 140.65 38.1669C125.819 38.1669 115.712 41.2425 109.743 43.9081C105.665 45.8075 103.165 50.0115 103.452 54.5001C104.78 73.4989 107.961 96.1352 111.047 111.901ZM89.4461 90.5458C90.1159 89.8011 91.1446 89.4807 92.1254 89.7078C93.1062 89.9349 93.8836 90.6749 94.1587 91.6407C95.3907 95.9619 97.1608 102.132 97.1608 102.132C97.1608 102.132 98.8234 107.943 100.055 112.237C100.354 113.291 100.055 114.426 99.2779 115.194C98.4885 115.961 97.3521 116.239 96.2996 115.915C91.2283 114.337 87.1258 110.62 85.6427 105.435C84.1117 100.095 85.7622 94.6052 89.4461 90.5458ZM182.716 102.133C182.716 102.133 184.474 95.9535 185.706 91.6251C185.981 90.6593 186.758 89.9182 187.739 89.6887C188.708 89.4592 189.737 89.7783 190.418 90.5218C194.102 94.5693 195.765 100.062 194.246 105.411C192.775 110.6 188.672 114.325 183.613 115.912C182.56 116.239 181.424 115.964 180.635 115.199C179.857 114.432 179.546 113.298 179.845 112.244C181.065 107.948 182.716 102.133 182.716 102.133Z" fill="#F0D101"/>
<path d="M849.532 172.791C850.716 172.791 851.738 173.256 852.599 174.185C853.46 175.114 853.89 176.218 853.89 177.496V206.282C853.89 207.56 853.46 208.663 852.599 209.593C851.738 210.522 850.716 210.987 849.532 210.987H821.432C820.248 210.987 819.226 210.522 818.365 209.593C817.504 208.663 817.074 207.56 817.074 206.282V177.496C817.074 176.218 817.504 175.114 818.365 174.185C819.226 173.256 820.248 172.791 821.432 172.791H849.532ZM738.385 136.339C738.062 145.844 738.062 155.446 738.385 165.183C738.6 170.43 739.73 174.069 741.81 176.082C743.872 178.076 746.652 179.083 750.149 179.083C752.91 179.083 755.313 178.386 757.376 177.012C759.456 175.637 761.016 173.237 762.074 169.81C762.612 167.855 763.258 166.558 764.065 165.861C764.854 165.183 766.163 164.835 767.956 164.835H800.379C801.347 164.835 802.154 165.203 802.853 165.938C803.535 166.693 803.875 167.584 803.875 168.61C803.786 176.392 802.19 183.052 799.123 188.608C796.039 194.144 792.022 198.694 787.037 202.236C782.051 205.798 776.384 208.392 770.018 210.057C763.67 211.703 757.089 212.535 750.31 212.535C742.671 212.535 735.677 211.645 729.329 209.883C722.963 208.102 717.421 205.334 712.705 201.559C707.989 197.784 704.294 192.983 701.587 187.136C698.879 181.309 697.372 174.263 697.05 166.035C696.834 161.35 696.745 156.317 696.745 150.935C696.745 145.553 696.834 140.404 697.05 135.487C697.372 127.472 698.933 120.561 701.748 114.715C704.546 108.888 708.311 104.048 713.028 100.215C717.744 96.3819 723.285 93.5554 729.651 91.7163C736 89.8966 742.886 88.9868 750.31 88.9868C757.089 88.9868 763.67 89.8 770.018 91.4649C776.384 93.1297 782.051 95.7236 787.037 99.2663C792.022 102.828 796.039 107.378 799.123 112.914C802.19 118.47 803.786 125.13 803.875 132.912C803.875 133.938 803.535 134.829 802.853 135.564C802.154 136.319 801.347 136.687 800.379 136.687H767.956C766.163 136.687 764.889 136.339 764.136 135.661C763.401 134.964 762.702 133.648 762.074 131.712C760.908 128.053 759.312 125.594 757.304 124.336C755.295 123.078 752.91 122.439 750.149 122.439C746.652 122.439 743.872 123.446 741.81 125.44C739.73 127.453 738.6 131.073 738.385 136.339ZM352.883 90.6905C360.092 90.6905 366.637 91.5614 372.519 93.265C378.401 94.9879 383.422 97.5821 387.619 101.086C391.797 104.571 395.043 108.946 397.32 114.212C399.598 119.477 400.727 125.652 400.727 132.738C400.727 139.843 399.598 145.96 397.32 151.11C395.043 156.259 391.797 160.479 387.619 163.809C383.422 167.119 378.401 169.558 372.519 171.088C366.637 172.636 360.092 173.411 352.883 173.411H341.746V206.186C341.746 207.444 341.334 208.528 340.473 209.457C339.632 210.367 338.626 210.832 337.46 210.832H304.711C303.546 210.832 302.54 210.367 301.692 209.457C300.843 208.528 300.42 207.444 300.42 206.186V95.3366C300.42 94.0783 300.843 92.9748 301.692 92.0649C302.54 91.155 303.546 90.6905 304.711 90.6905H352.883ZM645.708 210.832C644.542 210.832 643.538 210.367 642.695 209.457C641.834 208.528 641.422 207.444 641.422 206.186V95.3366C641.422 94.0783 641.834 92.9748 642.695 92.0649C643.538 91.155 644.542 90.6905 645.708 90.6905H678.13C679.296 90.6905 680.318 91.155 681.161 92.0649C682.004 92.9748 682.434 94.0783 682.434 95.3366V206.186C682.434 207.444 682.004 208.528 681.161 209.457C680.318 210.367 679.296 210.832 678.13 210.832H645.708ZM619.634 90.6905C620.799 90.6905 621.803 91.155 622.664 92.0649C623.507 92.9748 623.92 94.0783 623.92 95.3366V206.186C623.92 207.444 623.507 208.528 622.664 209.457C621.803 210.367 620.799 210.832 619.634 210.832H594.51C592.394 210.832 590.869 210.309 589.901 209.283C588.95 208.257 588.323 207.444 588 206.882L561.137 163.112V206.186C561.137 207.444 560.706 208.528 559.863 209.457C559.021 210.367 557.998 210.832 556.833 210.832H528.069C526.903 210.832 525.899 210.367 525.056 209.457C524.195 208.528 523.783 207.444 523.783 206.186V95.3366C523.783 94.0783 524.195 92.9748 525.056 92.0649C525.899 91.155 526.903 90.6905 528.069 90.6905H553.192C555.308 90.6905 556.833 91.2132 557.801 92.2392C558.752 93.2652 559.379 94.0784 559.702 94.6398L586.565 142.185V95.3366C586.565 94.0783 586.996 92.9748 587.839 92.0649C588.681 91.155 589.704 90.6905 590.869 90.6905H619.634ZM472.262 90.6905C474.396 90.6905 476.027 91.3291 477.193 92.5874C478.359 93.8458 479.112 95.1041 479.417 96.3624L514.87 205.857C514.977 206.186 515.031 206.592 515.031 207.057C515.031 208.083 514.691 208.973 513.991 209.709C513.31 210.444 512.485 210.832 511.534 210.832H482.125C480.009 210.832 478.52 210.348 477.677 209.36C476.834 208.393 476.243 207.444 475.92 206.534L472.118 195.209H437.938L434.118 206.534C433.796 207.444 433.222 208.393 432.361 209.36C431.518 210.348 430.03 210.832 427.914 210.832H398.504C397.553 210.832 396.728 210.444 396.047 209.709C395.348 208.973 395.007 208.083 395.007 207.057C395.007 206.592 395.061 206.186 395.168 205.857L430.621 96.3624C430.944 95.1041 431.68 93.8458 432.845 92.5874C434.011 91.3291 435.661 90.6905 437.777 90.6905H472.262ZM849.532 90.4969C850.716 90.4969 851.738 90.9614 852.599 91.8906C853.46 92.8198 853.89 93.9232 853.89 95.2009V161.099C853.89 162.376 853.46 163.48 852.599 164.409C851.738 165.338 850.716 165.803 849.532 165.803H821.432C820.248 165.803 819.226 165.338 818.365 164.409C817.504 163.48 817.074 162.376 817.074 161.099V95.2009C817.074 93.9232 817.504 92.8198 818.365 91.8906C819.226 90.9614 820.248 90.4969 821.432 90.4969H849.532ZM463.994 161.738L454.938 129.815L446.044 161.738H463.994ZM340.957 141.662H352.094C353.779 141.662 355.429 140.946 357.007 139.513C358.603 138.081 359.392 135.719 359.392 132.39C359.392 130.221 358.89 128.053 357.886 125.885C356.882 123.697 354.945 122.613 352.094 122.613H340.957V141.662ZM443.049 -0.85775C443.82 -0.85775 444.484 -0.548159 445.057 0.0519664C445.613 0.671451 445.9 1.38796 445.9 2.22039V48.9139C445.9 54.315 445.057 58.9614 443.354 62.8912C441.668 66.8017 439.319 70.0537 436.324 72.6478C433.329 75.2419 429.743 77.1391 425.547 78.3587C421.35 79.5783 416.759 80.1785 411.756 80.1785C406.681 80.1785 402.019 79.5783 397.787 78.3587C393.572 77.1391 389.95 75.2419 386.955 72.6478C383.96 70.0537 381.611 66.8017 379.925 62.8912C378.24 58.9614 377.379 54.315 377.379 48.9139V2.22039C377.379 1.38796 377.666 0.671451 378.24 0.0519664C378.796 -0.548159 379.459 -0.85775 380.248 -0.85775H400.96C401.732 -0.85775 402.413 -0.548159 402.969 0.0519664C403.543 0.671451 403.812 1.38796 403.812 2.22039V48.4492C403.812 54.3149 406.43 57.2382 411.649 57.2382C416.867 57.2382 419.467 54.3149 419.467 48.4492V2.22039C419.467 1.38796 419.754 0.671451 420.31 0.0519664C420.884 -0.548159 421.547 -0.85775 422.319 -0.85775H443.049ZM803.678 29.2839C803.822 32.5555 803.875 35.9434 803.875 39.428C803.875 42.932 803.822 46.2425 803.678 49.3593C803.463 54.47 802.477 58.9223 800.719 62.7748C798.944 66.6078 796.541 69.8409 793.474 72.4156C790.408 75.0097 786.732 76.9455 782.481 78.2426C778.213 79.5396 773.497 80.1785 768.368 80.1785C763.15 80.1785 758.416 79.5396 754.202 78.2426C749.969 76.9455 746.311 75.0097 743.244 72.4156C740.178 69.8409 737.775 66.6078 736 62.7748C734.242 58.9223 733.256 54.47 733.041 49.3593C732.915 46.2425 732.843 42.932 732.843 39.428C732.843 35.9434 732.915 32.5555 733.041 29.2839C733.256 24.2506 734.242 19.798 736 15.9263C737.775 12.0351 740.178 8.76362 743.244 6.11145C746.311 3.43992 749.969 1.42645 754.202 0.0519664C758.416 -1.30316 763.15 -2 768.368 -2C773.497 -2 778.213 -1.30316 782.481 0.0519664C786.732 1.42645 790.408 3.43992 793.474 6.11145C796.541 8.76362 798.944 12.0351 800.719 15.9263C802.477 19.798 803.463 24.2506 803.678 29.2839ZM303.275 79.0362C302.499 79.0362 301.83 78.7266 301.267 78.1265C300.702 77.507 300.42 76.7909 300.42 75.9585V2.22039C300.42 1.38796 300.702 0.671451 301.267 0.0519664C301.83 -0.548159 302.499 -0.85775 303.275 -0.85775H338.375C348.525 -0.85775 355.949 1.11671 360.63 5.08528C365.31 9.03449 367.659 15.0554 367.659 23.1087C367.659 24.9478 367.372 26.6318 366.816 28.1999C366.261 29.7486 365.543 31.1233 364.7 32.3042C363.858 33.4851 362.943 34.5108 361.957 35.3819C360.97 36.2531 360.056 36.9308 359.195 37.3761C360.54 37.9955 361.831 38.8475 363.068 39.9509C364.288 41.0544 365.364 42.3319 366.278 43.7645C367.211 45.2164 367.928 46.8038 368.448 48.5074C368.986 50.211 369.255 52.0307 369.255 53.9279C369.255 62.5232 366.691 68.8534 361.58 72.9382C356.469 77.0035 349.081 79.0362 339.433 79.0362H303.275ZM513.041 -0.85775C513.812 -0.85775 514.475 -0.548159 515.049 0.0519664C515.605 0.671451 515.892 1.38796 515.892 2.22039V19.5659C515.892 20.4177 515.605 21.1338 515.049 21.7339C514.475 22.3534 513.812 22.6633 513.041 22.6633H482.788V31.1037H510.925C511.696 31.1037 512.359 31.4137 512.933 32.0138C513.489 32.6333 513.776 33.3494 513.776 34.1818V51.4112C513.776 52.263 513.489 52.9792 512.933 53.5793C512.359 54.1988 511.696 54.5087 510.925 54.5087H482.788V75.9585C482.788 76.7909 482.519 77.507 481.945 78.1265C481.389 78.7266 480.708 79.0362 479.937 79.0362H459.744C458.973 79.0362 458.31 78.7266 457.736 78.1265C457.18 77.507 456.893 76.7909 456.893 75.9585V2.22039C456.893 1.38796 457.18 0.671451 457.736 0.0519664C458.31 -0.548159 458.973 -0.85775 459.744 -0.85775H513.041ZM581.329 -0.85775C582.1 -0.85775 582.781 -0.548159 583.337 0.0519664C583.911 0.671451 584.18 1.38796 584.18 2.22039V19.5659C584.18 20.4177 583.911 21.1338 583.337 21.7339C582.781 22.3534 582.1 22.6633 581.329 22.6633H551.094V31.1037H579.213C579.984 31.1037 580.665 31.4137 581.221 32.0138C581.795 32.6333 582.064 33.3494 582.064 34.1818V51.4112C582.064 52.263 581.795 52.9792 581.221 53.5793C580.665 54.1988 579.984 54.5087 579.213 54.5087H551.094V75.9585C551.094 76.7909 550.807 77.507 550.251 78.1265C549.677 78.7266 549.014 79.0362 548.243 79.0362H528.051C527.279 79.0362 526.598 78.7266 526.042 78.1265C525.468 77.507 525.199 76.7909 525.199 75.9585V2.22039C525.199 1.38796 525.468 0.671451 526.042 0.0519664C526.598 -0.548159 527.279 -0.85775 528.051 -0.85775H581.329ZM725.652 55.6316C726.424 55.6316 727.087 55.9411 727.661 56.5606C728.217 57.1608 728.504 57.8773 728.504 58.7291V75.9585C728.504 76.7909 728.217 77.507 727.661 78.1265C727.087 78.7266 726.424 79.0362 725.652 79.0362H672.356C671.585 79.0362 670.921 78.7266 670.348 78.1265C669.792 77.507 669.505 76.7909 669.505 75.9585V2.22039C669.505 1.38796 669.792 0.671451 670.348 0.0519664C670.921 -0.548159 671.585 -0.85775 672.356 -0.85775H693.499C694.288 -0.85775 694.951 -0.548159 695.507 0.0519664C696.081 0.671451 696.368 1.38796 696.368 2.22039V55.6316H725.652ZM635.253 -0.85775C636.67 -0.85775 637.746 -0.431855 638.535 0.400578C639.306 1.23301 639.79 2.06544 640.005 2.91723L663.587 75.7259C663.659 75.9582 663.695 76.2292 663.695 76.5196C663.695 77.2165 663.461 77.7975 663.013 78.3008C662.547 78.7848 662.009 79.0362 661.363 79.0362H641.798C640.4 79.0362 639.413 78.7071 638.84 78.0683C638.284 77.4294 637.889 76.7907 637.692 76.1906L635.145 68.6599H612.407L609.878 76.1906C609.663 76.7907 609.286 77.4294 608.712 78.0683C608.156 78.7071 607.17 79.0362 605.753 79.0362H586.189C585.561 79.0362 585.023 78.7848 584.557 78.3008C584.091 77.7975 583.875 77.2165 583.875 76.5196C583.875 76.2292 583.911 75.9582 583.983 75.7259L607.547 2.91723C607.762 2.06544 608.264 1.23301 609.035 0.400578C609.806 -0.431855 610.9 -0.85775 612.317 -0.85775H635.253ZM326.851 59.4066H336.684C338.447 59.4066 339.697 58.8064 340.437 57.5868C341.172 56.3672 341.549 55.1089 341.549 53.8118C341.549 52.4373 341.137 51.1788 340.33 49.9979C339.521 48.817 338.305 48.217 336.684 48.217H326.851V59.4066ZM760.532 48.6817C760.675 51.8759 761.428 54.2182 762.809 55.6895C764.19 57.1801 766.037 57.9158 768.368 57.9158C770.682 57.9158 772.529 57.1801 773.91 55.6895C775.29 54.2182 776.044 51.8759 776.187 48.6817C776.402 42.2158 776.402 35.8275 776.187 29.4971C776.044 26.3029 775.273 23.9603 773.856 22.489C772.439 20.9984 770.61 20.2627 768.368 20.2627C766.109 20.2627 764.28 20.9984 762.863 22.489C761.446 23.9603 760.675 26.3029 760.532 29.4971C760.317 35.8275 760.317 42.2158 760.532 48.6817ZM629.748 46.3972L623.722 25.1607L617.804 46.3972H629.748ZM340.061 24.0184C340.061 22.8182 339.732 21.6374 339.062 20.4953C338.393 19.3531 337.283 18.7722 335.732 18.7722H326.851V29.1678H335.732C337.283 29.1678 338.393 28.6065 339.062 27.503C339.732 26.3996 340.061 25.238 340.061 24.0184Z" fill="#F0D101"/>
</g>
<defs>
<clipPath id="clip0_206_3295">
<rect width="854" height="210" fill="white"/>
</clipPath>
</defs>
</svg>
