<svg fill="none" height="144" viewBox="0 0 357 144" width="357" xmlns="http://www.w3.org/2000/svg" xmlns:xlink="http://www.w3.org/1999/xlink"><clipPath id="a"><path d="m0 12h109.276v116.372h-109.276z"/></clipPath><clipPath id="b"><path d="m121 21.4105h236v84.7284h-236z"/></clipPath><g clip-path="url(#a)" clip-rule="evenodd" fill-rule="evenodd"><path d="m35.9925 30.4452c2.1072-2.6354 4.2355-4.9733 6.3213-6.9377.0685-.072 7.0998-7.3696 18.7146-11.4774.1745-.0603.3697-.0311.5162.0778s.2231.2821.2023.4591c-.1652 1.4121-.4888 4.1641-.4888 4.1641 2.4592.2626 4.7343 1.3129 5.7414 1.8361.1319.0719.2221.1965.2451.3385.0229.1439-.0238.2897-.1271.3947-.7612.7878-2.2828 2.3535-2.2855 2.3555 2.7374 2.2814 5.5899 5.2708 8.4042 8.7893 1.3312-.0914 2.5542-.2334 3.6591-.4513 1.9717-.389 3.5228-.9588 4.4579-2.1258 1.3172-1.6415 1.2779-4.2129.2564-8.1709 0 0-.6123-2.3728-1.0025-3.884-.0554-.2159.021-.4435.1951-.5796.1739-.1381.4127-.1595.6088-.0565 1.3813.7294 3.548 1.873 3.548 1.873 13.4703 7.1109 17.777 14.7858 15.751 22.9411-.619 2.4895-2.9206 4.9032-6.583 6.891-1.5647.8499-3.3889 1.6455-5.3975 2.3846 6.7143.8052 15.3185 1.836 19.0475 2.2833.493.0584.932.3249 1.196.7236.265.4006.328.8927.172 1.342-1.98 5.7649-7.675 9.9369-14.3849 9.9369-1.3152 0-2.5916-.1615-3.8092-.4629 2.233 6.5545 5.9728 19.5703 4.4801 39.4443-.0098.13-.0846.247-.2011.317-.1166.07-.2607.082-.3881.033-1.1932-.459-3.9267-1.511-3.9267-1.511-.967 4.922-2.6848 8.838-3.3619 10.261-.0593.117-.1803.197-.3168.205-.1367.009-.268-.051-.3443-.16-.7173-1.019-2.2095-3.141-2.2095-3.141l-.0081-.018c-8.5488 12.596-26.7569 19.822-30.0602 19.822-3.3032 0-21.0809-7.136-30.0684-19.804 0 0-1.4922 2.122-2.2093 3.141-.0764.109-.2077.169-.3445.16-.1365-.008-.2575-.088-.3168-.205-.677-1.423-2.3949-5.339-3.3619-10.261 0 0-2.7335 1.052-3.9267 1.511-.1274.049-.2715.037-.388-.033s-.1914-.187-.2011-.317c-1.4957-19.9129 2.247-32.8898 4.48-39.4443-1.2175.3014-2.494.4629-3.8092.4629-6.7098 0-12.40527-4.172-14.3852582-9.9369-.1559872-.4493-.09297534-.9414.1719302-1.342.264906-.3987.703888-.6652 1.196358-.7236 3.7291-.4473 12.33327-1.4781 19.04757-2.2833-2.0094-.7391-3.8343-1.5366-5.3997-2.3865-3.661-1.9878-5.96191-4.4015-6.58041-6.8891-2.02648-8.1553 2.28031-15.8302 15.75061-22.9411 0 0 2.1669-1.1436 3.548-1.873.1961-.103.4349-.0816.6088.0565.1741.1361.2505.3637.1951.5796-.3902 1.5112-1.0024 3.884-1.0024 3.884-1.0221 3.96-1.0608 6.5313.2584 8.1728.9375 1.167 2.4919 1.7389 4.4678 2.1259 1.1019.2159 2.321.3579 3.6473.4493z" fill="#1e1e1e"/><path d="m71.3111 71.8022s.6866-2.4138 1.1651-4.1039c.1089-.3754.4104-.6652.7935-.7547.3812-.0894.7819.035 1.0465.3248 1.4373 1.5813 2.0888 3.7247 1.4956 5.8136-.5757 2.0267-2.1745 3.4815-4.1506 4.1019-.4084.1264-.8558.0195-1.1611-.28-.3073-.2976-.426-.7411-.3073-1.1535.4745-1.6765 1.1183-3.9482 1.1183-3.9482zm-36.4021-4.524c.2645-.2917.6632-.4163 1.0463-.3268.3812.0875.6847.3773.7936.7546.4843 1.6863 1.1728 4.0962 1.1728 4.0962s.6497 2.2698 1.1281 3.9463c.1187.4104.0019.8539-.3054 1.1554-.3053.2995-.7507.4064-1.1592.28-1.978-.6146-3.5806-2.0675-4.1602-4.0922-.5971-2.085.0466-4.2283 1.484-5.8135z" fill="#f0e600"/><path d="m66.1027 90.1985c.252-1.2608-.0747-2.5674-.8916-3.5612s-2.0352-1.5703-3.3189-1.5703c-4.2525-.0005-10.2415-.0005-14.5173-.0005-1.3024 0-2.5394.5887-3.3609 1.6021-.8216 1.0129-1.1437 2.3428-.8776 3.62 1.0596 5.0231 5.4942 8.6184 10.6289 8.6184.5695.0014 1.1436.0014 1.7131.0014 5.1628 0 9.6067-3.6434 10.6243-8.7062 0-.0005 0-.0005 0-.0037zm-22.7609-14.5841c.5274 2.4026 2.6561 4.1153 5.1161 4.1153 3.5569.0051 8.6263.0051 12.1833.0051 2.4507 0 4.5746-1.6959 5.1114-4.0849 1.153-5.9073 2.4693-14.9752 3.0995-22.5112.1353-1.7516-.8169-3.4073-2.3947-4.1734-2.2126-1.0096-5.9376-2.1448-11.5671-2.1448-5.7883 0-9.7327 1.2009-12.062 2.2419-1.5918.7418-2.5674 2.3836-2.4553 4.1364.5228 7.4192 1.7598 16.2591 2.9688 22.4156z" fill="#e7e7d3"/></g><g clip-path="url(#b)"><path d="m354.998 90.4376c.504 0 .94.1834 1.307.5504.366.3669.55.8028.55 1.3074v11.3676c0 .505-.184.941-.55 1.308-.367.367-.803.55-1.307.55h-11.975c-.505 0-.94-.183-1.307-.55s-.55-.803-.55-1.308v-11.3676c0-.5046.183-.9405.55-1.3074.367-.367.802-.5504 1.307-.5504zm-47.365-14.3957c-.138 3.7537-.138 7.5457 0 11.3911.091 2.0718.573 3.5091 1.459 4.3042.879.7875 2.064 1.185 3.554 1.185 1.177 0 2.201-.2751 3.08-.8179.886-.5428 1.551-1.4909 2.002-2.8441.229-.7721.504-1.2844.848-1.5596.336-.2676.894-.4051 1.658-.4051h13.817c.413 0 .757.1452 1.055.4357.29.2982.435.6499.435 1.0551-.038 3.0733-.718 5.7031-2.025 7.8972-1.314 2.1865-3.026 3.9835-5.151 5.3825-2.124 1.406-4.539 2.431-7.252 3.088-2.705.65-5.51.979-8.398.979-3.256 0-6.236-.352-8.941-1.048-2.713-.703-5.075-1.796-7.085-3.287-2.009-1.491-3.584-3.3867-4.738-5.6955-1.154-2.3011-1.795-5.0839-1.933-8.3331-.092-1.8501-.13-3.8378-.13-5.9631s.038-4.1588.13-6.1007c.138-3.165.802-5.8943 2.002-8.2031 1.192-2.3012 2.797-4.2125 4.807-5.7262s4.371-2.6299 7.084-3.3562c2.705-.7186 5.64-1.0779 8.804-1.0779 2.888 0 5.693.3211 8.398.9786 2.713.6575 5.128 1.6818 7.252 3.0809 2.125 1.4066 3.837 3.2032 5.151 5.3897 1.307 2.1941 1.987 4.8241 2.025 7.8974 0 .4052-.145.7568-.435 1.0473-.298.2982-.642.4435-1.055.4435h-13.817c-.764 0-1.306-.1377-1.627-.4053-.314-.2752-.612-.7949-.879-1.5594-.497-1.4449-1.177-2.416-2.033-2.9129s-1.872-.7491-3.049-.7491c-1.49 0-2.675.3975-3.554 1.1849-.886.7951-1.368 2.2247-1.459 4.3041zm-164.28-18.0269c3.072 0 5.861.3439 8.368 1.0167 2.506.6804 4.646 1.7049 6.434 3.0886 1.781 1.3761 3.164 3.104 4.135 5.1834.97 2.0795 1.452 4.5182 1.452 7.3163 0 2.8057-.482 5.2216-1.452 7.2551-.971 2.0336-2.354 3.7002-4.135 5.0151-1.788 1.3073-3.928 2.2706-6.434 2.8746-2.507.6116-5.296.9174-8.368.9174h-4.746v12.9428c0 .497-.176.925-.543 1.292-.358.36-.787.543-1.283.543h-13.956c-.497 0-.926-.183-1.287-.543-.362-.367-.542-.795-.542-1.292v-43.7752c0-.4969.18-.9327.542-1.292.361-.3594.79-.5428 1.287-.5428zm124.786 47.445c-.497 0-.925-.183-1.284-.543-.367-.367-.543-.795-.543-1.292v-43.7752c0-.4969.176-.9327.543-1.292.359-.3594.787-.5428 1.284-.5428h13.817c.496 0 .932.1834 1.291.5428.359.3593.543.7951.543 1.292v43.7752c0 .497-.184.925-.543 1.292-.359.36-.795.543-1.291.543zm-11.112-47.445c.497 0 .925.1834 1.292.5428.359.3593.535.7951.535 1.292v43.7752c0 .497-.176.925-.535 1.292-.367.36-.795.543-1.292.543h-10.706c-.902 0-1.551-.206-1.964-.612-.405-.405-.673-.726-.81-.948l-11.448-17.2849v17.0099c0 .497-.183.925-.542 1.292-.359.36-.795.543-1.292.543h-12.258c-.496 0-.924-.183-1.283-.543-.367-.367-.543-.795-.543-1.292v-43.7752c0-.4969.176-.9327.543-1.292.359-.3594.787-.5428 1.283-.5428h10.707c.902 0 1.551.2064 1.964.6116.405.4052.672.7263.81.948l11.448 18.7762v-18.501c0-.4969.183-.9327.542-1.292.359-.3594.795-.5428 1.292-.5428zm-62.801 0c.909 0 1.604.2522 2.101.7491s.818.9939.948 1.4908l15.108 43.2401c.046.13.069.291.069.474 0 .405-.145.757-.444 1.048-.29.29-.641.443-1.046.443h-12.533c-.902 0-1.536-.191-1.896-.581-.359-.382-.611-.757-.749-1.116l-1.62-4.4724h-14.565l-1.628 4.4724c-.138.359-.382.734-.749 1.116-.359.39-.993.581-1.895.581h-12.533c-.405 0-.757-.153-1.047-.443-.298-.291-.443-.643-.443-1.048 0-.183.023-.344.069-.474l15.108-43.2401c.137-.4969.451-.9939.947-1.4908.497-.4969 1.2-.7491 2.102-.7491zm160.772-.0765c.504 0 .94.1835 1.307.5504.366.367.55.8027.55 1.3073v26.0237c0 .5046-.184.9404-.55 1.3073-.367.367-.803.5505-1.307.5505h-11.975c-.505 0-.94-.1835-1.307-.5505-.367-.3669-.55-.8027-.55-1.3073v-26.0237c0-.5046.183-.9403.55-1.3073.367-.3669.802-.5504 1.307-.5504zm-164.295 28.1338-3.86-12.6067-3.79 12.6067zm-52.432-7.928h4.745c.719 0 1.422-.2828 2.094-.8486.681-.5657 1.017-1.4983 1.017-2.8133 0-.8562-.214-1.7126-.642-2.5688-.428-.8639-1.253-1.2919-2.469-1.2919h-4.745zm43.506-56.2827c.328 0 .611.1222.856.3592.237.2447.359.5276.359.8564v18.4397c0 2.133-.359 3.9679-1.085 5.5199-.719 1.5442-1.72 2.8285-2.996 3.8529-1.276 1.0245-2.805 1.7737-4.593 2.2553-1.788.4817-3.744.7187-5.877.7187-2.162 0-4.149-.237-5.953-.7187-1.796-.4816-3.339-1.2308-4.615-2.2553-1.277-1.0244-2.278-2.3087-2.996-3.8529-.718-1.552-1.085-3.3869-1.085-5.5199v-18.4397c0-.3288.122-.6117.367-.8564.236-.237.519-.3592.855-.3592h8.827c.329 0 .619.1222.856.3592.244.2447.359.5276.359.8564v18.2562c0 2.3165 1.116 3.4709 3.34 3.4709 2.223 0 3.331-1.1544 3.331-3.4709v-18.2562c0-.3288.123-.6117.36-.8564.244-.237.527-.3592.856-.3592zm153.68 11.9032c.061 1.2921.084 2.63.084 4.0061 0 1.3837-.023 2.6911-.084 3.9219-.091 2.0183-.512 3.7766-1.261 5.298-.756 1.5137-1.78 2.7905-3.087 3.8072-1.307 1.0245-2.873 1.789-4.685 2.3012-1.818.5122-3.828.7645-6.014.7645-2.224 0-4.241-.2523-6.037-.7645-1.803-.5122-3.362-1.2767-4.669-2.3012-1.307-1.0167-2.331-2.2935-3.088-3.8072-.749-1.5214-1.169-3.2797-1.261-5.298-.053-1.2308-.084-2.5382-.084-3.9219 0-1.3761.031-2.714.084-4.0061.092-1.9877.512-3.746 1.261-5.275.757-1.5367 1.781-2.8286 3.088-3.876 1.307-1.055 2.866-1.8502 4.669-2.393 1.796-.5351 3.813-.8103 6.037-.8103 2.186 0 4.196.2752 6.014.8103 1.812.5428 3.378 1.338 4.685 2.393 1.307 1.0474 2.331 2.3393 3.087 3.876.749 1.529 1.17 3.2873 1.261 5.275zm-213.244 19.6478c-.331 0-.616-.1223-.856-.3593-.241-.2446-.361-.5274-.361-.8561v-29.12c0-.3288.12-.6117.361-.8564.24-.237.525-.3592.856-.3592h14.957c4.326 0 7.49.7797 9.484 2.3469 1.995 1.5596 2.996 3.9374 2.996 7.1177 0 .7263-.123 1.3913-.359 2.0106-.237.6116-.543 1.1544-.902 1.6208-.359.4663-.749.8714-1.169 1.2154-.421.3441-.81.6117-1.177.7875.573.2447 1.123.5811 1.65 1.0169.52.4357.979.9403 1.368 1.506.398.5734.703 1.2003.925 1.873.229.6728.344 1.3914.344 2.1406 0 3.3944-1.093 5.8943-3.271 7.5074-2.178 1.6055-5.326 2.4082-9.438 2.4082zm89.39-31.551c.329 0 .612.1222.856.3592.237.2447.359.5276.359.8564v6.8499c0 .3364-.122.6192-.359.8562-.244.2446-.527.367-.856.367h-12.892v3.3332h11.991c.328 0 .611.1224.856.3594.236.2447.359.5275.359.8562v6.8041c0 .3364-.123.6192-.359.8562-.245.2446-.528.367-.856.367h-11.991v8.4708c0 .3287-.114.6115-.359.8561-.237.237-.527.3593-.856.3593h-8.605c-.328 0-.611-.1223-.855-.3593-.237-.2446-.36-.5274-.36-.8561v-29.12c0-.3288.123-.6117.36-.8564.244-.237.527-.3592.855-.3592zm29.101 0c.329 0 .619.1222.856.3592.245.2447.359.5276.359.8564v6.8499c0 .3364-.114.6192-.359.8562-.237.2446-.527.367-.856.367h-12.884v3.3332h11.982c.329 0 .619.1224.856.3594.245.2447.359.5275.359.8562v6.8041c0 .3364-.114.6192-.359.8562-.237.2446-.527.367-.856.367h-11.982v8.4708c0 .3287-.123.6115-.359.8561-.245.237-.528.3593-.856.3593h-8.605c-.329 0-.619-.1223-.856-.3593-.245-.2446-.359-.5274-.359-.8561v-29.12c0-.3288.114-.6117.359-.8564.237-.237.527-.3592.856-.3592zm61.503 22.3083c.329 0 .611.1222.856.3668.237.237.359.52.359.8564v6.8041c0 .3287-.122.6115-.359.8561-.245.237-.527.3593-.856.3593h-22.712c-.329 0-.611-.1223-.856-.3593-.237-.2446-.359-.5274-.359-.8561v-29.12c0-.3288.122-.6117.359-.8564.245-.237.527-.3592.856-.3592h9.01c.336 0 .619.1222.856.3592.244.2447.367.5276.367.8564v21.0927zm-38.523-22.3083c.603 0 1.062.1682 1.398.4969.329.3287.535.6575.627.9939l10.049 28.7529c.031.0918.046.1988.046.3134 0 .2753-.099.5047-.291.7035-.198.1911-.427.2904-.703.2904h-8.337c-.596 0-1.016-.13-1.261-.3823-.237-.2522-.405-.5045-.489-.7415l-1.085-2.9739h-9.69l-1.078 2.9739c-.092.237-.252.4893-.497.7415-.236.2523-.657.3823-1.26.3823h-8.338c-.267 0-.497-.0993-.695-.2904-.199-.1988-.291-.4282-.291-.7035 0-.1146.016-.2216.046-.3134l10.042-28.7529c.091-.3364.305-.6652.634-.9939s.795-.4969 1.399-.4969zm-131.424 23.799h4.19c.751 0 1.284-.237 1.599-.7186.313-.4817.474-.9786.474-1.4908 0-.5428-.176-1.0398-.52-1.5062-.344-.4663-.862-.7032-1.553-.7032h-4.19zm184.811-4.2353c.061 1.2614.382 2.1864.97 2.7674.589.5887 1.376.8792 2.369.8792.986 0 1.773-.2905 2.362-.8792.588-.581.909-1.506.97-2.7674.092-2.5535.092-5.0763 0-7.5762-.061-1.2615-.39-2.1866-.993-2.7676-.604-.5887-1.384-.8792-2.339-.8792-.963 0-1.742.2905-2.346.8792-.604.581-.932 1.5061-.993 2.7676-.092 2.4999-.092 5.0227 0 7.5762zm-55.733-.9022-2.568-8.3866-2.522 8.3866zm-123.449-8.8376c0-.474-.14-.9403-.426-1.3914-.285-.451-.758-.6804-1.419-.6804h-3.784v4.1053h3.784c.661 0 1.134-.2217 1.419-.6574.286-.4358.426-.8945.426-1.3761z" fill="#1e1e1e"/></g><g fill="#1e1e1e"><path d="m356.624 121.256c.102 0 .191.037.265.111s.111.162.111.264v.933c0 .102-.037.19-.111.264s-.163.111-.265.111h-.932c-.102 0-.19-.037-.264-.111s-.112-.162-.112-.264v-.933c0-.102.038-.19.112-.264s.162-.111.264-.111z"/><path d="m348.697 119.809c.037.371.116.686.237.946.13.26.283.473.459.64.186.167.39.292.612.376.223.074.45.111.682.111.445 0 .826-.084 1.141-.251.316-.167.561-.445.738-.834.065-.149.13-.246.194-.293.075-.055.163-.083.265-.083h.417c.102 0 .19.037.265.111.083.074.12.163.111.265-.009.222-.083.468-.223.737-.13.26-.329.506-.598.738-.26.222-.584.412-.974.57-.38.158-.826.237-1.336.237s-.965-.084-1.363-.251c-.39-.167-.724-.394-1.002-.682-.269-.287-.483-.626-.64-1.015-.149-.39-.232-.808-.251-1.253-.009-.148-.018-.329-.028-.542 0-.223.01-.413.028-.571.037-.445.13-.863.278-1.252.158-.39.371-.728.641-1.016.269-.288.598-.515.987-.682.39-.167.84-.25 1.35-.25s.956.079 1.336.236c.39.158.714.353.974.585.269.222.468.468.598.737.14.26.214.501.223.724.009.102-.028.19-.111.264-.075.074-.163.111-.265.111h-.417c-.102 0-.19-.023-.265-.069-.064-.056-.129-.158-.194-.306-.177-.39-.422-.668-.738-.835-.315-.167-.696-.251-1.141-.251-.232 0-.464.042-.696.126-.222.074-.426.194-.612.361-.176.167-.329.381-.459.64-.121.26-.195.576-.223.947-.027.343-.027.668 0 .974z"/><path d="m344.086 120.504c0 .177.014.344.042.501.037.149.097.279.181.39.083.111.199.199.347.264.158.056.358.084.599.084h.737c.102 0 .19.037.265.111.074.074.111.162.111.264v.446c0 .102-.037.19-.111.264-.075.074-.163.111-.265.111h-.876c-.807 0-1.392-.208-1.754-.626-.361-.417-.542-1.02-.542-1.809v-3.604h-1.03c-.102 0-.19-.037-.264-.111-.075-.074-.112-.162-.112-.264v-.446c0-.102.037-.19.112-.264.074-.074.162-.111.264-.111h1.03v-2.268c0-.102.037-.19.111-.265.074-.074.162-.111.264-.111h.515c.102 0 .19.037.265.111.074.075.111.163.111.265v2.268h1.767c.102 0 .19.037.264.111.075.074.112.162.112.264v.446c0 .102-.037.19-.112.264-.074.074-.162.111-.264.111h-1.767z"/><path d="m340.218 121.687c.102 0 .19.037.264.111.075.075.112.163.112.265v.501c0 .102-.037.19-.112.264-.074.074-.162.111-.264.111h-5.622c-.102 0-.19-.037-.264-.111s-.111-.162-.111-.264v-8.989c0-.102.037-.19.111-.265.074-.074.162-.111.264-.111h5.511c.102 0 .19.037.264.111.074.075.111.163.111.265v.501c0 .102-.037.19-.111.264s-.162.111-.264.111h-4.564v2.936h4.258c.102 0 .19.038.264.112s.111.162.111.264v.501c0 .102-.037.19-.111.264-.074.075-.162.112-.264.112h-4.258v3.047z"/><path d="m325.454 118.765c0-.213.037-.413.111-.598.084-.186.195-.348.334-.487.14-.139.302-.246.487-.32.186-.084.385-.126.599-.126.213 0 .413.042.598.126.186.074.348.181.487.32s.246.301.32.487c.084.185.125.385.125.598s-.041.413-.125.598c-.074.186-.181.348-.32.487-.139.14-.301.251-.487.334-.185.075-.385.112-.598.112-.214 0-.413-.037-.599-.112-.185-.083-.347-.194-.487-.334-.139-.139-.25-.301-.334-.487-.074-.185-.111-.385-.111-.598z"/><path d="m319.067 120.936c0-.177-.051-.32-.153-.432-.093-.12-.236-.222-.431-.306-.195-.083-.445-.162-.752-.236-.296-.075-.644-.153-1.043-.237-.752-.158-1.28-.417-1.586-.779-.297-.371-.446-.802-.446-1.294 0-.278.056-.543.167-.793.112-.251.279-.473.501-.668.223-.195.501-.348.835-.459.343-.112.742-.167 1.197-.167.454 0 .849.051 1.183.153.343.102.63.232.862.389.232.158.408.33.529.515.121.176.186.348.195.515.009.102-.028.19-.112.264-.074.075-.162.112-.264.112h-.459c-.056 0-.125-.01-.209-.028-.074-.028-.144-.084-.209-.167-.12-.158-.301-.288-.542-.39-.232-.111-.557-.167-.974-.167-.427 0-.775.079-1.044.237-.26.158-.389.376-.389.654 0 .176.037.32.111.431.074.102.195.195.362.279.167.074.385.143.654.208.278.065.621.144 1.029.237.427.093.784.213 1.072.362.287.139.519.301.696.487.176.176.301.375.375.598.074.213.112.441.112.682 0 .278-.07.547-.209.807-.13.26-.32.487-.571.682-.25.194-.556.352-.918.473-.353.12-.756.181-1.211.181-.454 0-.858-.056-1.21-.167-.353-.112-.654-.246-.905-.404-.25-.167-.445-.343-.584-.529-.13-.194-.2-.375-.209-.542-.009-.102.023-.191.098-.265.074-.074.167-.111.278-.111h.501c.055 0 .12.009.195.028.074.009.143.06.208.153.149.204.353.362.613.473.259.111.598.167 1.015.167.204 0 .404-.023.599-.07.204-.046.38-.111.528-.194.158-.084.283-.181.376-.293.093-.12.139-.25.139-.389z"/><path d="m306.869 118.626c.037-.427.139-.826.306-1.197s.385-.696.654-.974.589-.496.96-.654c.381-.157.803-.236 1.266-.236.501 0 .947.083 1.336.25.399.158.738.39 1.016.696s.492.677.64 1.113c.149.436.223.923.223 1.461v.376c0 .102-.037.19-.112.264-.074.074-.162.111-.264.111h-4.787v.084c.019.631.209 1.118.571 1.461.371.334.83.501 1.377.501.511 0 .891-.07 1.141-.209.26-.148.469-.311.627-.487.074-.074.139-.125.194-.153.056-.028.14-.042.251-.042h.417c.102 0 .195.037.279.112.083.074.116.162.097.264-.028.167-.107.353-.236.557-.13.194-.321.38-.571.556-.241.167-.547.311-.918.432-.362.111-.789.167-1.281.167-.463 0-.881-.079-1.252-.237-.371-.167-.696-.39-.974-.668-.269-.287-.487-.621-.654-1.002-.167-.389-.269-.811-.306-1.266-.046-.427-.046-.853 0-1.28zm1.238.042h3.91v-.042c0-.566-.18-1.016-.542-1.35-.353-.343-.826-.515-1.42-.515-.269 0-.519.047-.751.139-.232.084-.436.209-.612.376-.176.158-.316.353-.418.585-.102.231-.157.487-.167.765z"/><path d="m303.524 120.504c0 .177.014.344.042.501.037.149.097.279.181.39.083.111.199.199.347.264.158.056.358.084.599.084h.737c.102 0 .19.037.265.111.074.074.111.162.111.264v.446c0 .102-.037.19-.111.264-.075.074-.163.111-.265.111h-.876c-.807 0-1.392-.208-1.754-.626-.361-.417-.542-1.02-.542-1.809v-3.604h-1.03c-.102 0-.19-.037-.264-.111-.075-.074-.112-.162-.112-.264v-.446c0-.102.037-.19.112-.264.074-.074.162-.111.264-.111h1.03v-2.268c0-.102.037-.19.111-.265.074-.074.162-.111.264-.111h.515c.102 0 .19.037.265.111.074.075.111.163.111.265v2.268h1.767c.102 0 .19.037.264.111.075.074.112.162.112.264v.446c0 .102-.037.19-.112.264-.074.074-.162.111-.264.111h-1.767z"/><path d="m296.66 115.565c.501 0 .946.079 1.336.236.389.149.723.357 1.002.626.278.269.496.599.654.988.166.381.269.798.306 1.253.009.083.014.185.014.306v.362.361c0 .112-.005.204-.014.279-.047.463-.149.886-.306 1.266-.158.38-.376.705-.654.974-.279.269-.613.482-1.002.64-.39.148-.835.223-1.336.223s-.946-.075-1.336-.223c-.39-.158-.724-.371-1.002-.64s-.501-.594-.668-.974c-.157-.38-.255-.803-.292-1.266-.009-.075-.018-.167-.028-.279 0-.12 0-.241 0-.361 0-.13 0-.251 0-.362.01-.121.019-.223.028-.306.037-.455.135-.872.292-1.253.167-.389.39-.719.668-.988s.612-.477 1.002-.626c.39-.157.835-.236 1.336-.236zm2.031 4.341c.019-.158.028-.348.028-.57 0-.232-.009-.432-.028-.599-.027-.278-.088-.538-.181-.779-.092-.241-.222-.45-.389-.626s-.371-.316-.612-.418c-.242-.102-.524-.153-.849-.153s-.608.051-.849.153-.445.242-.612.418-.297.385-.39.626-.153.501-.181.779c-.018.167-.028.367-.028.599 0 .222.01.412.028.57.028.278.088.538.181.779s.223.45.39.626c.167.177.371.316.612.418s.524.153.849.153.607-.051.849-.153c.241-.102.445-.241.612-.418.167-.176.297-.385.389-.626.093-.241.154-.501.181-.779z"/><path d="m293.27 113.199c.102 0 .19.037.264.111.075.075.112.163.112.265v.501c0 .102-.037.19-.112.264-.074.074-.162.111-.264.111h-2.602v8.113c0 .102-.037.19-.111.264s-.163.111-.265.111h-.57c-.102 0-.19-.037-.265-.111-.074-.074-.111-.162-.111-.264v-8.113h-2.602c-.102 0-.19-.037-.264-.111s-.112-.162-.112-.264v-.501c0-.102.038-.19.112-.265.074-.074.162-.111.264-.111z"/><path d="m278.845 118.765c0-.213.037-.413.112-.598.083-.186.194-.348.333-.487.14-.139.302-.246.488-.32.185-.084.384-.126.598-.126.213 0 .413.042.598.126.186.074.348.181.487.32s.246.301.32.487c.084.185.125.385.125.598s-.041.413-.125.598c-.074.186-.181.348-.32.487-.139.14-.301.251-.487.334-.185.075-.385.112-.598.112-.214 0-.413-.037-.598-.112-.186-.083-.348-.194-.488-.334-.139-.139-.25-.301-.333-.487-.075-.185-.112-.385-.112-.598z"/><path d="m272.458 120.936c0-.177-.051-.32-.153-.432-.092-.12-.236-.222-.431-.306-.195-.083-.445-.162-.751-.236-.297-.075-.645-.153-1.044-.237-.751-.158-1.28-.417-1.586-.779-.297-.371-.446-.802-.446-1.294 0-.278.056-.543.167-.793.112-.251.279-.473.501-.668.223-.195.501-.348.835-.459.343-.112.742-.167 1.197-.167.454 0 .849.051 1.183.153.343.102.63.232.862.389.232.158.409.33.529.515.121.176.186.348.195.515.009.102-.028.19-.111.264-.075.075-.163.112-.265.112h-.459c-.056 0-.125-.01-.209-.028-.074-.028-.143-.084-.208-.167-.121-.158-.302-.288-.543-.39-.232-.111-.557-.167-.974-.167-.427 0-.775.079-1.044.237-.259.158-.389.376-.389.654 0 .176.037.32.111.431.074.102.195.195.362.279.167.074.385.143.654.208.278.065.621.144 1.029.237.427.093.784.213 1.072.362.287.139.519.301.696.487.176.176.301.375.375.598.075.213.112.441.112.682 0 .278-.07.547-.209.807-.13.26-.32.487-.571.682-.25.194-.556.352-.918.473-.352.12-.756.181-1.211.181-.454 0-.858-.056-1.21-.167-.353-.112-.654-.246-.905-.404-.25-.167-.445-.343-.584-.529-.13-.194-.199-.375-.209-.542-.009-.102.023-.191.098-.265.074-.074.167-.111.278-.111h.501c.056 0 .121.009.195.028.074.009.144.06.208.153.149.204.353.362.613.473.259.111.598.167 1.015.167.205 0 .404-.023.599-.07.204-.046.38-.111.529-.194.157-.084.282-.181.375-.293.093-.12.139-.25.139-.389z"/><path d="m259.676 118.862c.027-.51.125-.969.292-1.377s.389-.752.668-1.03c.278-.287.603-.505.974-.654.38-.157.788-.236 1.224-.236.575 0 1.035.102 1.378.306.343.195.603.408.779.64v-.432c0-.102.037-.19.111-.264s.163-.111.265-.111h.514c.103 0 .191.037.265.111s.111.162.111.264v6.763c0 .965-.273 1.73-.821 2.296-.547.575-1.368.863-2.463.863-.556 0-1.034-.07-1.433-.209-.39-.13-.714-.297-.974-.501-.25-.204-.441-.427-.57-.668-.121-.241-.186-.473-.195-.696-.01-.102.023-.19.097-.264.084-.074.176-.111.278-.111h.418c.102 0 .185.023.25.069.075.056.144.158.209.306.028.056.07.13.125.223.065.102.163.199.293.292.139.102.315.186.528.251.223.074.501.111.835.111.306 0 .589-.032.849-.097.269-.056.501-.153.696-.293.195-.139.343-.324.445-.556.111-.232.167-.515.167-.849v-.877c-.186.251-.45.474-.793.668-.343.186-.798.279-1.364.279-.436 0-.844-.075-1.224-.223-.371-.158-.696-.376-.974-.654-.279-.288-.501-.635-.668-1.044-.167-.408-.265-.867-.292-1.377-.01-.139-.014-.292-.014-.459s.004-.32.014-.46zm5.315-.041c-.028-.659-.227-1.165-.598-1.517-.362-.362-.835-.543-1.42-.543-.612 0-1.094.195-1.447.585-.352.389-.547.918-.584 1.586-.01.26-.01.519 0 .779.037.668.232 1.197.584 1.587.353.389.835.584 1.447.584.585 0 1.058-.181 1.42-.543.371-.362.57-.867.598-1.516.009-.14.014-.307.014-.501 0-.195-.005-.362-.014-.501z"/><path d="m251.651 116.079c0-.102.037-.19.111-.264.075-.074.163-.111.265-.111h.515c.102 0 .19.037.264.111s.111.162.111.264v3.674c0 .714.158 1.248.473 1.6.325.353.794.529 1.406.529.584 0 1.043-.176 1.377-.529.334-.352.501-.886.501-1.6v-3.674c0-.102.037-.19.112-.264.074-.074.162-.111.264-.111h.515c.102 0 .19.037.264.111s.112.162.112.264v6.485c0 .102-.038.19-.112.264s-.162.111-.264.111h-.515c-.102 0-.19-.037-.264-.111-.075-.074-.112-.162-.112-.264v-.432c-.176.232-.426.45-.751.654-.325.195-.77.293-1.336.293-.436 0-.835-.07-1.197-.209-.361-.149-.672-.353-.932-.612-.26-.269-.459-.594-.598-.974-.139-.39-.209-.831-.209-1.322z"/><path d="m245.154 119.085 2.811-5.441c.055-.111.13-.213.222-.306.102-.092.232-.139.39-.139h.529c.102 0 .19.037.264.111.074.075.111.163.111.265v8.989c0 .102-.037.19-.111.264s-.162.111-.264.111h-.571c-.102 0-.19-.037-.264-.111s-.112-.162-.112-.264v-6.596l-2.17 4.189c-.074.139-.153.25-.237.333-.083.075-.195.112-.334.112h-.528c-.14 0-.251-.037-.334-.112-.084-.083-.163-.194-.237-.333l-2.171-4.189v6.596c0 .102-.037.19-.111.264s-.162.111-.264.111h-.571c-.102 0-.19-.037-.264-.111s-.112-.162-.112-.264v-8.989c0-.102.038-.19.112-.265.074-.074.162-.111.264-.111h.529c.158 0 .283.047.376.139.102.093.18.195.236.306z"/><path d="m232.06 118.765c0-.213.037-.413.111-.598.083-.186.195-.348.334-.487s.301-.246.487-.32c.185-.084.385-.126.598-.126.214 0 .413.042.599.126.185.074.347.181.487.32.139.139.245.301.32.487.083.185.125.385.125.598s-.042.413-.125.598c-.075.186-.181.348-.32.487-.14.14-.302.251-.487.334-.186.075-.385.112-.599.112-.213 0-.413-.037-.598-.112-.186-.083-.348-.194-.487-.334-.139-.139-.251-.301-.334-.487-.074-.185-.111-.385-.111-.598z"/><path d="m225.673 120.936c0-.177-.051-.32-.153-.432-.093-.12-.237-.222-.431-.306-.195-.083-.446-.162-.752-.236-.297-.075-.645-.153-1.043-.237-.752-.158-1.281-.417-1.587-.779-.297-.371-.445-.802-.445-1.294 0-.278.056-.543.167-.793.111-.251.278-.473.501-.668s.501-.348.835-.459c.343-.112.742-.167 1.196-.167.455 0 .849.051 1.183.153.343.102.631.232.863.389.232.158.408.33.529.515.12.176.185.348.195.515.009.102-.028.19-.112.264-.074.075-.162.112-.264.112h-.459c-.056 0-.126-.01-.209-.028-.074-.028-.144-.084-.209-.167-.12-.158-.301-.288-.542-.39-.232-.111-.557-.167-.975-.167-.426 0-.774.079-1.043.237-.26.158-.39.376-.39.654 0 .176.037.32.112.431.074.102.194.195.361.279.167.074.385.143.654.208.279.065.622.144 1.03.237.427.093.784.213 1.071.362.288.139.52.301.696.487.176.176.302.375.376.598.074.213.111.441.111.682 0 .278-.069.547-.208.807-.13.26-.321.487-.571.682-.25.194-.557.352-.918.473-.353.12-.756.181-1.211.181-.454 0-.858-.056-1.211-.167-.352-.112-.654-.246-.904-.404-.25-.167-.445-.343-.584-.529-.13-.194-.2-.375-.209-.542-.009-.102.023-.191.097-.265s.167-.111.279-.111h.501c.055 0 .12.009.194.028.075.009.144.06.209.153.148.204.353.362.612.473.26.111.599.167 1.016.167.204 0 .404-.023.598-.07.204-.046.381-.111.529-.194.158-.084.283-.181.376-.293.093-.12.139-.25.139-.389z"/><path d="m217.875 120.504c0 .177.014.344.042.501.037.149.097.279.181.39.083.111.199.199.348.264.157.056.357.084.598.084h.737c.102 0 .19.037.265.111.074.074.111.162.111.264v.446c0 .102-.037.19-.111.264-.075.074-.163.111-.265.111h-.876c-.807 0-1.392-.208-1.754-.626-.361-.417-.542-1.02-.542-1.809v-3.604h-1.03c-.102 0-.19-.037-.264-.111-.075-.074-.112-.162-.112-.264v-.446c0-.102.037-.19.112-.264.074-.074.162-.111.264-.111h1.03v-2.268c0-.102.037-.19.111-.265.074-.074.162-.111.264-.111h.515c.102 0 .19.037.265.111.074.075.111.163.111.265v2.268h1.767c.102 0 .19.037.265.111.074.074.111.162.111.264v.446c0 .102-.037.19-.111.264-.075.074-.163.111-.265.111h-1.767z"/><path d="m214.398 115.704c.102 0 .19.037.264.111s.111.162.111.264v.446c0 .102-.037.19-.111.264s-.162.111-.264.111h-.807c-1.067 0-1.601.534-1.601 1.601v4.063c0 .102-.037.19-.111.264s-.162.111-.264.111h-.515c-.102 0-.19-.037-.265-.111-.074-.074-.111-.162-.111-.264v-6.485c0-.102.037-.19.111-.264.075-.074.163-.111.265-.111h.515c.102 0 .19.037.264.111s.111.162.111.264v.432c.186-.278.409-.483.668-.612.26-.13.599-.195 1.016-.195z"/><path d="m208.634 122.564c0 .102-.037.19-.112.264-.074.074-.162.111-.264.111h-.515c-.102 0-.19-.037-.264-.111s-.112-.162-.112-.264v-6.485c0-.102.038-.19.112-.264s.162-.111.264-.111h.515c.102 0 .19.037.264.111.075.074.112.162.112.264zm.139-8.335c0 .102-.037.19-.112.264-.074.074-.162.112-.264.112h-.793c-.102 0-.19-.038-.264-.112-.075-.074-.112-.162-.112-.264v-.793c0-.102.037-.19.112-.265.074-.074.162-.111.264-.111h.793c.102 0 .19.037.264.111.075.075.112.163.112.265z"/><path d="m205.344 122.564c0 .102-.037.19-.111.264s-.163.111-.265.111h-.514c-.102 0-.191-.037-.265-.111s-.111-.162-.111-.264v-3.674c0-.714-.172-1.247-.515-1.6-.343-.352-.821-.529-1.433-.529-.585 0-1.058.177-1.419.529-.353.353-.529.886-.529 1.6v3.674c0 .102-.037.19-.112.264-.074.074-.162.111-.264.111h-.515c-.102 0-.19-.037-.264-.111s-.111-.162-.111-.264v-9.128c0-.102.037-.19.111-.265.074-.074.162-.111.264-.111h.515c.102 0 .19.037.264.111.075.075.112.163.112.265v3.075c.176-.232.436-.445.779-.64.352-.204.812-.306 1.378-.306.436 0 .839.074 1.21.222.371.139.687.344.946.613.269.259.478.584.626.974.149.389.223.825.223 1.308z"/><path d="m195.996 120.936c0-.177-.052-.32-.154-.432-.092-.12-.236-.222-.431-.306-.195-.083-.445-.162-.751-.236-.297-.075-.645-.153-1.044-.237-.751-.158-1.28-.417-1.586-.779-.297-.371-.445-.802-.445-1.294 0-.278.055-.543.167-.793.111-.251.278-.473.5-.668.223-.195.501-.348.835-.459.344-.112.742-.167 1.197-.167s.849.051 1.183.153c.343.102.631.232.862.389.232.158.409.33.529.515.121.176.186.348.195.515.009.102-.028.19-.111.264-.074.075-.163.112-.265.112h-.459c-.056 0-.125-.01-.209-.028-.074-.028-.143-.084-.208-.167-.121-.158-.302-.288-.543-.39-.232-.111-.557-.167-.974-.167-.427 0-.775.079-1.044.237-.259.158-.389.376-.389.654 0 .176.037.32.111.431.074.102.195.195.362.279.167.074.385.143.654.208.278.065.621.144 1.03.237.426.093.783.213 1.071.362.288.139.519.301.696.487.176.176.301.375.375.598.075.213.112.441.112.682 0 .278-.07.547-.209.807-.13.26-.32.487-.57.682-.251.194-.557.352-.919.473-.352.12-.756.181-1.21.181-.455 0-.859-.056-1.211-.167-.353-.112-.654-.246-.904-.404-.251-.167-.446-.343-.585-.529-.13-.194-.199-.375-.209-.542-.009-.102.024-.191.098-.265s.167-.111.278-.111h.501c.056 0 .121.009.195.028.074.009.144.06.209.153.148.204.352.362.612.473s.598.167 1.016.167c.204 0 .403-.023.598-.07.204-.046.38-.111.529-.194.157-.084.283-.181.375-.293.093-.12.14-.25.14-.389z"/><path d="m191.396 113.199c.102 0 .19.037.265.111.074.075.111.163.111.265v.501c0 .102-.037.19-.111.264-.075.074-.163.111-.265.111h-2.602v8.113c0 .102-.037.19-.111.264s-.162.111-.264.111h-.571c-.102 0-.19-.037-.264-.111-.075-.074-.112-.162-.112-.264v-8.113h-2.602c-.102 0-.19-.037-.264-.111s-.111-.162-.111-.264v-.501c0-.102.037-.19.111-.265.074-.074.162-.111.264-.111z"/><path d="m176.971 118.765c0-.213.038-.413.112-.598.083-.186.195-.348.334-.487s.301-.246.487-.32c.185-.084.385-.126.598-.126s.413.042.598.126c.186.074.348.181.487.32.14.139.246.301.32.487.084.185.126.385.126.598s-.042.413-.126.598c-.074.186-.18.348-.32.487-.139.14-.301.251-.487.334-.185.075-.385.112-.598.112s-.413-.037-.598-.112c-.186-.083-.348-.194-.487-.334-.139-.139-.251-.301-.334-.487-.074-.185-.112-.385-.112-.598z"/><path d="m170.585 120.936c0-.177-.051-.32-.153-.432-.093-.12-.237-.222-.432-.306-.194-.083-.445-.162-.751-.236-.297-.075-.645-.153-1.044-.237-.751-.158-1.28-.417-1.586-.779-.297-.371-.445-.802-.445-1.294 0-.278.056-.543.167-.793.111-.251.278-.473.501-.668.222-.195.501-.348.835-.459.343-.112.742-.167 1.196-.167.455 0 .849.051 1.183.153.343.102.631.232.863.389.232.158.408.33.529.515.12.176.185.348.194.515.01.102-.027.19-.111.264-.074.075-.162.112-.264.112h-.46c-.055 0-.125-.01-.208-.028-.074-.028-.144-.084-.209-.167-.121-.158-.301-.288-.543-.39-.232-.111-.556-.167-.974-.167-.426 0-.774.079-1.043.237-.26.158-.39.376-.39.654 0 .176.037.32.111.431.075.102.195.195.362.279.167.074.385.143.654.208.279.065.622.144 1.03.237.427.093.784.213 1.071.362.288.139.52.301.696.487.176.176.302.375.376.598.074.213.111.441.111.682 0 .278-.069.547-.209.807-.129.26-.32.487-.57.682-.251.194-.557.352-.918.473-.353.12-.757.181-1.211.181-.455 0-.858-.056-1.211-.167-.352-.112-.654-.246-.904-.404-.251-.167-.445-.343-.585-.529-.129-.194-.199-.375-.208-.542-.01-.102.023-.191.097-.265s.167-.111.278-.111h.501c.056 0 .121.009.195.028.074.009.144.06.209.153.148.204.352.362.612.473s.598.167 1.016.167c.204 0 .403-.023.598-.07.204-.046.381-.111.529-.194.158-.084.283-.181.376-.293.092-.12.139-.25.139-.389z"/><path d="m164.881 115.704c.102 0 .19.037.264.111s.111.162.111.264v.446c0 .102-.037.19-.111.264s-.162.111-.264.111h-.807c-1.067 0-1.6.534-1.6 1.601v4.063c0 .102-.038.19-.112.264s-.162.111-.264.111h-.515c-.102 0-.19-.037-.264-.111-.075-.074-.112-.162-.112-.264v-6.485c0-.102.037-.19.112-.264.074-.074.162-.111.264-.111h.515c.102 0 .19.037.264.111s.112.162.112.264v.432c.185-.278.408-.483.667-.612.26-.13.599-.195 1.016-.195z"/><path d="m153.128 118.626c.037-.427.139-.826.306-1.197s.385-.696.654-.974.589-.496.96-.654c.38-.157.802-.236 1.266-.236.501 0 .946.083 1.336.25.399.158.737.39 1.016.696.278.306.491.677.64 1.113.148.436.222.923.222 1.461v.376c0 .102-.037.19-.111.264s-.162.111-.264.111h-4.787v.084c.019.631.209 1.118.57 1.461.372.334.831.501 1.378.501.51 0 .891-.07 1.141-.209.26-.148.469-.311.626-.487.074-.074.139-.125.195-.153s.139-.042.25-.042h.418c.102 0 .195.037.278.112.084.074.116.162.098.264-.028.167-.107.353-.237.557-.13.194-.32.38-.57.556-.242.167-.548.311-.919.432-.362.111-.788.167-1.28.167-.464 0-.881-.079-1.252-.237-.371-.167-.696-.39-.974-.668-.269-.287-.487-.621-.654-1.002-.167-.389-.269-.811-.306-1.266-.047-.427-.047-.853 0-1.28zm1.238.042h3.91v-.042c0-.566-.181-1.016-.543-1.35-.352-.343-.825-.515-1.419-.515-.269 0-.519.047-.751.139-.232.084-.436.209-.613.376-.176.158-.315.353-.417.585-.102.231-.158.487-.167.765z"/><path d="m148.029 119.878v2.686c0 .102-.037.19-.112.264-.074.074-.162.111-.264.111h-.515c-.102 0-.19-.037-.264-.111s-.112-.162-.112-.264v-9.128c0-.102.038-.19.112-.265.074-.074.162-.111.264-.111h.515c.102 0 .19.037.264.111.075.075.112.163.112.265v4.605l2.713-2.101c.056-.046.125-.097.209-.153.093-.055.204-.083.334-.083h.695c.093 0 .172.032.237.097s.097.144.097.237c0 .046-.009.093-.027.139-.01.037-.051.083-.126.139l-3.353 2.616 3.701 3.409c.056.056.093.102.112.139.018.037.027.079.027.125 0 .093-.032.172-.097.237s-.144.097-.237.097h-.654c-.139 0-.259-.027-.361-.083-.093-.056-.163-.107-.209-.153z"/><path d="m139.976 119.809c.038.371.116.686.237.946.13.26.283.473.459.64.186.167.39.292.612.376.223.074.45.111.682.111.446 0 .826-.084 1.141-.251.316-.167.561-.445.738-.834.065-.149.13-.246.195-.293.074-.055.162-.083.264-.083h.417c.102 0 .191.037.265.111.083.074.12.163.111.265-.009.222-.083.468-.223.737-.129.26-.329.506-.598.738-.26.222-.584.412-.974.57-.38.158-.826.237-1.336.237s-.965-.084-1.363-.251c-.39-.167-.724-.394-1.002-.682-.269-.287-.483-.626-.64-1.015-.149-.39-.232-.808-.251-1.253-.009-.148-.018-.329-.028-.542 0-.223.01-.413.028-.571.037-.445.13-.863.278-1.252.158-.39.372-.728.641-1.016s.598-.515.988-.682c.389-.167.839-.25 1.349-.25s.956.079 1.336.236c.39.158.714.353.974.585.269.222.469.468.598.737.14.26.214.501.223.724.009.102-.028.19-.111.264-.074.074-.163.111-.265.111h-.417c-.102 0-.19-.023-.264-.069-.065-.056-.13-.158-.195-.306-.177-.39-.422-.668-.738-.835-.315-.167-.695-.251-1.141-.251-.232 0-.464.042-.695.126-.223.074-.427.194-.613.361-.176.167-.329.381-.459.64-.121.26-.195.576-.223.947-.027.343-.027.668 0 .974z"/><path d="m136.954 122.564c0 .102-.037.19-.111.264-.075.074-.163.111-.265.111h-.515c-.102 0-.19-.037-.264-.111s-.111-.162-.111-.264v-6.485c0-.102.037-.19.111-.264s.162-.111.264-.111h.515c.102 0 .19.037.265.111.074.074.111.162.111.264zm.139-8.335c0 .102-.037.19-.111.264s-.163.112-.265.112h-.793c-.102 0-.19-.038-.264-.112s-.111-.162-.111-.264v-.793c0-.102.037-.19.111-.265.074-.074.162-.111.264-.111h.793c.102 0 .191.037.265.111.074.075.111.163.111.265z"/><path d="m132.009 120.504c0 .177.014.344.042.501.037.149.097.279.18.39.084.111.2.199.348.264.158.056.357.084.599.084h.737c.102 0 .19.037.264.111.075.074.112.162.112.264v.446c0 .102-.037.19-.112.264-.074.074-.162.111-.264.111h-.877c-.807 0-1.391-.208-1.753-.626-.362-.417-.542-1.02-.542-1.809v-3.604h-1.03c-.102 0-.19-.037-.265-.111-.074-.074-.111-.162-.111-.264v-.446c0-.102.037-.19.111-.264.075-.074.163-.111.265-.111h1.03v-2.268c0-.102.037-.19.111-.265.074-.074.162-.111.264-.111h.515c.102 0 .19.037.264.111.075.075.112.163.112.265v2.268h1.767c.102 0 .19.037.264.111.075.074.112.162.112.264v.446c0 .102-.037.19-.112.264-.074.074-.162.111-.264.111h-1.767z"/><path d="m124.66 113.06c.565 0 1.062.088 1.488.264.436.177.803.395 1.1.654.306.251.538.524.695.821.158.288.242.548.251.78.009.083-.019.157-.084.222-.065.056-.139.084-.222.084h-.571c-.102 0-.185-.019-.25-.056-.056-.037-.116-.121-.181-.25-.046-.093-.125-.209-.237-.348-.102-.149-.245-.288-.431-.418-.176-.139-.394-.255-.654-.348-.26-.102-.561-.153-.904-.153-.26 0-.511.033-.752.098-.232.055-.44.144-.626.264-.186.121-.334.274-.445.459-.112.177-.167.385-.167.626 0 .242.051.446.153.613.111.167.283.32.515.459.241.13.542.25.904.362.362.111.803.236 1.322.375.529.14.974.293 1.336.46.371.167.672.357.904.57.232.204.399.445.501.724.112.269.167.575.167.918 0 .417-.093.802-.278 1.155-.176.343-.427.64-.751.89-.325.251-.719.446-1.183.585-.455.139-.965.209-1.531.209-.538 0-1.034-.079-1.489-.237-.454-.158-.844-.362-1.169-.612-.324-.251-.584-.529-.779-.835-.185-.306-.283-.608-.292-.905 0-.083.028-.153.083-.208.065-.065.14-.098.223-.098h.571c.092 0 .171.019.236.056.074.037.139.121.195.25.056.13.139.274.25.432.121.148.279.292.474.431.194.13.431.241.709.334s.608.139.988.139c.325 0 .631-.037.919-.111.296-.074.556-.181.779-.32.222-.139.399-.306.529-.501.129-.195.194-.413.194-.654s-.074-.445-.222-.612c-.149-.177-.362-.334-.64-.473-.279-.14-.622-.265-1.03-.376-.399-.121-.854-.246-1.364-.376-.464-.12-.858-.264-1.182-.431-.325-.176-.59-.376-.794-.598-.204-.223-.352-.469-.445-.738-.083-.269-.125-.561-.125-.877 0-.343.069-.677.209-1.001.139-.325.343-.613.612-.863.278-.251.621-.45 1.03-.598.417-.158.904-.237 1.461-.237z"/></g></svg>