<svg fill="none" height="32" viewBox="0 0 268 32" width="268" xmlns="http://www.w3.org/2000/svg"><g fill="#d9d1b8"><path d="m267.086 25.6636-1.272-.6359v-.8785c0-.482-.396-.8786-.878-.8786h-12.3c-.482 0-.879.3966-.879.8786v.8785l-1.271.6359c-.297.1485-.486.4534-.486.7858v1.214c0 .482.397.8786.879.8786h15.814c.482 0 .878-.3966.878-.8786v-1.214c0-.3322-.188-.6372-.485-.7858zm-13.143-13.687-.795 9.5368h11.275l-.795-9.5379 1.682-1.7083c.323-.32866.504-.77173.504-1.23277v-4.65313c0-.241-.198-.43928-.439-.43928h-1.932c-.241 0-.439.19828-.439.43928v2.19643h-1.809v-2.19643c0-.241-.198-.43928-.439-.43928h-3.94c-.241 0-.439.19828-.439.43928v2.19643h-1.809v-2.19643c0-.241-.198-.43928-.439-.43928h-1.933c-.241 0-.439.19828-.439.43928v4.65753c0 .46158.182.90509.506 1.23387zm3.547 1.1679c0-.7106.585-1.2953 1.296-1.2953.71 0 1.295.5847 1.295 1.2953v2.5907h-2.591z"/><path d="m59.1062 25.5783-6.7349-2.1499 6.7349-2.1498c.3974-.127.6188-.5586.4946-.9643l-.4499-1.4699c-.1241-.4056-.5471-.6318-.944-.5052l-10.8892 3.4759-10.8893-3.4759c-.3974-.1266-.8199.0996-.944.5052l-.4499 1.4699c-.1241.4057.0972.8378.4946.9643l6.7349 2.1498-6.7349 2.1499c-.3974.1265-.6187.5586-.4946.9642l.4499 1.47c.1241.4056.5471.6318.944.5052l10.8893-3.4759 10.8892 3.4759c.3974.1266.8199-.0996.944-.5052l.4499-1.47c.1242-.4056-.0972-.8372-.4946-.9642zm-11.7885-6.2633c3.8267 0 6.9287-3.1021 6.9287-6.9288 0-1.6018-1.608-4.90594-3.8493-6.92875-.6433.58028-1.2245 1.19088-1.7389 1.8034-.843-1.12929-1.8886-2.27446-3.0727-3.34313-3.0395 2.74168-5.1966 6.31388-5.1966 8.46848 0 3.8267 3.1021 6.9288 6.9288 6.9288zm-1.7082-10.94747c.2036.24491 2.9072 3.85217 2.9072 3.85217l1.7245-2.0555c.1218.2103.2324.4162.3315.614.8041 1.6037.4648 3.6563-.9835 4.7149-.637.4662-1.4228.7424-2.2715.7424-2.1225 0-3.8493-1.467-3.8493-3.8493 0-1.1865.715-2.2321 2.1411-4.01867z"/><path d="m95.6547 17.8184c-.023.8386-.7322 1.4964-1.5711 1.4964h-2.6625v.7698c0 1.052-.2349 2.049-.6544 2.9421l2.8979 2.8979c.6013.6013.6013 1.5762 0 2.1775s-1.5762.6012-2.1775 0l-2.6337-2.6337c-1.1908.9658-2.7082 1.5449-4.361 1.5449v-11.7402c0-.3189-.2585-.5774-.5774-.5774h-1.1548c-.3188 0-.5773.2585-.5773.5774v11.7402c-1.6529 0-3.1702-.5791-4.3611-1.5449l-2.6336 2.6337c-.6014.6013-1.5763.6012-2.1776 0-.6012-.6013-.6012-1.5762 0-2.1775l2.898-2.8979c-.4195-.8931-.6544-1.8901-.6544-2.9421v-.7698h-2.6625c-.8389 0-1.5481-.6578-1.5711-1.4964-.0239-.8701.6744-1.583 1.5391-1.583h2.6945v-2.8266l-2.2436-2.2435c-.6012-.6013-.6012-1.57621 0-2.17752.6014-.6013 1.5762-.6013 2.1776 0l2.6284 2.62852h11.042l2.6285-2.62847c.6013-.6013 1.5761-.6013 2.1775 0 .6012.6013.6012 1.57617 0 2.17747l-2.2435 2.2435v2.8266h2.6945c.8647 0 1.563.7129 1.5391 1.583zm-12.2689-13.90068c-2.9763 0-5.389 2.41272-5.389 5.38897h10.7779c0-2.97625-2.4127-5.38897-5.3889-5.38897z"/><path d="m129.768 10.7553-2.218 2.2182c-.227.2262-.592.2262-.818 0l-5.341-5.34104c-.227-.22615-.227-.59184 0-.818l2.218-2.21822c.9-.8998 2.362-.8998 3.267 0l2.892 2.89187c.904.8998.904 2.36258 0 3.26719zm-10.283-2.03538-12.636 12.63568-1.02 5.8463c-.139.7892.549 1.4724 1.338 1.3377l5.846-1.0249 12.636-12.6357c.226-.2262.226-.5919 0-.818l-5.341-5.34108c-.231-.22615-.597-.22615-.823 0zm-7.704 11.55308c-.264-.2647-.264-.6881 0-.9527l7.411-7.4102c.264-.2646.688-.2646.952 0 .265.2647.265.6881 0 .9528l-7.41 7.4101c-.264.2646-.688.2646-.953 0zm-1.737 4.0467h2.31v1.7467l-3.104.5437-1.496-1.4965.544-3.1036h1.746z"/><path d="m219.634 16.2618 2.082.9256c.404.1796.864.1884 1.275.0241l.655-.2624c.463-.1854.818-.5726.961-1.0506l.473-1.5708c.087-.3483.322-.6415.643-.8021l1.134-.5679v2.5795c0 .9304-.528 1.7845-1.36 2.2006l-2.932 1.4683c-1.387.694-2.265 2.1172-2.265 3.6675v.7441h16.393v-9.84c0-5.43246-4.404-9.83996-9.836-9.83996h-7.582c-.337 0-.615.27763-.615.615 0 .13484.031.26789.092.38848l.728 1.45652-.461.46125c-.231.23119-.36.54484-.359.87125v7.03206c0 .6471.382 1.2366.974 1.4995zm1.691-7.40406c.562 0 1.025.46269 1.025 1.025 0 .56236-.463 1.02496-1.025 1.02496s-1.025-.4626-1.025-1.02496c0-.56231.463-1.025 1.025-1.025zm16.195 16.39996h-18.04c-.45 0-.82.3702-.82.82v1.64c0 .4499.37.82.82.82h18.04c.45 0 .82-.3701.82-.82v-1.64c0-.4498-.37-.82-.82-.82z"/><path d="m23.0057 23.3247-5.6311-9.0569v-7.25505h.3843c.6391 0 1.1532-.51411 1.1532-1.15313v-.76875c0-.63902-.5141-1.15313-1.1532-1.15313h-9.99372c-.63903 0-1.15313.51411-1.15313 1.15313v.76875c0 .63902.5141 1.15313 1.15313 1.15313h.38437v7.25505l-5.63109 9.0569c-1.40778 2.263.21621 5.2131 2.88761 5.2131h14.71193c2.6762 0 4.2954-2.9549 2.8877-5.2131zm-14.38048-4.0119 2.31588-3.7285c.1778-.2498.2786-.5573.2786-.884v-7.68755h3.0751v7.68755c0 .3315.1057.6342.2786.884l2.3159 3.7285z"/><path d="m145.956 22.0504h8.643c2.386 0 4.322-1.9357 4.322-4.3216h1.44c3.178 0 5.762-2.5839 5.762-5.7621 0-3.17816-2.584-5.76211-5.762-5.76211h-17.646c-.599 0-1.081.48168-1.081 1.0804v10.44381c0 2.3859 1.936 4.3216 4.322 4.3216zm14.405-12.96475c1.589 0 2.881 1.29195 2.881 2.88105s-1.292 2.8811-2.881 2.8811h-1.44v-5.76215zm2.147 17.28635h-23.021c-2.143 0-2.746-2.8811-1.621-2.8811h26.259c1.125 0 .531 2.8811-1.617 2.8811z"/><path d="m206.425 9.80228h-1.701c-.111 0-.222.02217-.325.06524s-.197.10621-.276.18578c-.079.0796-.142.1741-.184.2781-.043.104-.065.2155-.065.328v4.2857h-1.701v-2.5714c0-.1126-.022-.224-.065-.328s-.105-.1985-.184-.2781-.173-.1427-.276-.1858-.214-.0652-.326-.0652h-2.551v-3.4286h2.551c.226-.00002.442-.09033.602-.25107.159-.16074.249-.37875.249-.60608v-1.71428c0-.11257-.022-.22403-.065-.32802-.043-.104-.105-.19849-.184-.27808-.079-.0796-.173-.14273-.276-.18581-.103-.04307-.214-.06524-.326-.06524h-1.701c-.111 0-.222.02217-.325.06524-.103.04308-.197.10621-.276.18581-.079.07959-.142.17408-.184.27808-.043.10399-.065.21545-.065.32802v.85714h-2.552c-.111 0-.222.02216-.325.06524-.103.04307-.197.10621-.276.1858-.079.0796-.142.17409-.184.27808-.043.104-.065.21546-.065.32802v2.57143h-6.804v-2.57143c0-.11256-.022-.22402-.065-.32802-.043-.10399-.105-.19848-.184-.27808-.079-.07959-.173-.14273-.276-.1858-.103-.04308-.214-.06524-.326-.06524h-2.551v-.85714c0-.11257-.022-.22403-.065-.32802-.043-.104-.105-.19849-.184-.27808-.079-.0796-.173-.14273-.276-.18581-.103-.04307-.214-.06524-.326-.06524h-1.701c-.111 0-.222.02217-.325.06524-.103.04308-.197.10621-.276.18581-.079.07959-.142.17408-.184.27808-.043.10399-.065.21545-.065.32802v1.71428c0 .22733.09.44534.249.60608.16.16074.376.25105.601.25107h2.552v3.4286h-2.552c-.111 0-.222.0221-.325.0652s-.197.1062-.276.1858-.142.1741-.184.2781c-.043.104-.065.2154-.065.328v2.5714h-1.701v-4.2857c0-.1125-.022-.224-.065-.328s-.105-.1985-.184-.2781c-.079-.07957-.173-.14271-.276-.18578s-.214-.06524-.326-.06524h-1.701c-.111 0-.222.02217-.325.06524s-.197.10621-.276.18578c-.079.0796-.142.1741-.184.2781-.043.104-.065.2155-.065.328v6.8572c0 .2273.09.4453.249.606.16.1608.376.2511.601.2511h2.552v4.2857c0 .2273.09.4454.249.6061.16.1607.376.2511.601.2511h2.552v4.2857c0 .2273.09.4453.249.6061.16.1607.376.251.601.251h5.103c.226 0 .442-.0903.602-.251.159-.1608.249-.3788.249-.6061v-1.7143c0-.1126-.022-.224-.065-.328s-.105-.1985-.184-.2781-.173-.1427-.276-.1858-.214-.0653-.326-.0652h-2.551v-1.7143h10.206v1.7143h-2.552c-.111-.0001-.222.0221-.325.0652s-.197.1062-.276.1858-.142.1741-.184.2781c-.043.104-.065.2154-.065.328v1.7143c0 .2273.09.4453.249.6061.16.1607.376.251.601.251h5.103c.226 0 .442-.0903.602-.251.159-.1608.249-.3788.249-.6061v-4.2857h2.551c.226 0 .442-.0904.602-.2511.159-.1607.249-.3788.249-.6061v-4.2857h2.551c.226 0 .442-.0903.602-.2511.159-.1607.249-.3787.249-.606v-6.8572c0-.1125-.022-.224-.065-.328s-.105-.1985-.184-.2781c-.079-.07957-.173-.14271-.276-.18578s-.214-.06524-.326-.06524zm-17.86 10.28572h-3.402v-5.1429h3.402zm10.206 0h-3.402v-5.1429h3.402z"/></g></svg>