<svg fill="none" height="116" viewBox="0 0 108 116" width="108" xmlns="http://www.w3.org/2000/svg" xmlns:xlink="http://www.w3.org/1999/xlink"><clipPath id="a"><path d="m0 0h108v116h-108z"/></clipPath><g clip-path="url(#a)"><path clip-rule="evenodd" d="m35.4043 18.372c2.0727-2.625 4.1663-4.9535 6.2179-6.9101.0674-.0717 6.9837-7.34031 18.4086-11.4317704.1716-.0600545.3637-.0310148.5077.0774704.1441.108486.2195.280969.199.457258-.1624 1.406442-.4808 4.147572-.4808 4.147572 2.419.26153 4.6569 1.30763 5.6475 1.82875.1297.07168.2185.19571.2411.33713.0225.14335-.0234.2886-.125.39322-.7488.78458-2.2455 2.34413-2.2481 2.34607 2.6926 2.2724 5.4984 5.2499 8.2668 8.7544 1.3093-.0911 2.5123-.2325 3.5992-.4495 1.9394-.3875 3.4651-.955 4.385-2.1174 1.2956-1.635 1.257-4.1961.2522-8.13837l-.9861-3.86862c-.0545-.21504.0207-.44169.1919-.5773.171-.13754.406-.15886.5988-.05619l3.49 1.86555c13.2501 7.08253 17.486 14.72693 15.4931 22.84983-.6086 2.4797-2.8725 4.8837-6.475 6.8636-1.5391.8466-3.3335 1.639-5.3092 2.3751l18.7361 2.2743c.484.0581.916.3235 1.177.7207.26.3991.322.8892.169 1.3367-1.948 5.742-7.5501 9.8973-14.1501 9.8973-1.2937 0-2.5493-.1608-3.747-.461 2.1965 6.5285 5.8752 19.4925 4.4068 39.2872-.0095.1298-.0832.2461-.1978.3159-.1146.0697-.2564.0813-.3817.0329l-3.8625-1.5052c-.9512 4.9031-2.6409 8.8028-3.3069 10.2208-.0583.1163-.1773.1957-.3116.2035-.1345.0097-.2637-.0504-.3387-.1589l-2.1733-3.1287-.0081-.0174c-8.4089 12.5452-26.3193 19.7422-29.5686 19.7422-3.2491 0-20.7361-7.107-29.5766-19.7248l-2.1732 3.1287c-.0752.1085-.2043.1686-.3388.1589-.1343-.0078-.2533-.0872-.3117-.2035-.666-1.418-2.3557-5.3177-3.3069-10.2208l-3.8625 1.5052c-.1253.0484-.2671.0368-.3817-.0329-.1146-.0698-.1882-.1861-.1978-.3159-1.4712-19.8335 2.2103-32.7587 4.4068-39.2872-1.1976.3002-2.4533.461-3.7469.461-6.6001 0-12.20243-4.1553-14.1500371-9.8973-.1534362-.4475-.09145487-.9376.1691191-1.3367.260574-.3972.692376-.6626 1.176788-.7207l18.73603-2.2743c-1.9765-.7361-3.7716-1.5304-5.3113-2.377-3.6012-1.9799-5.86446-4.384-6.47285-6.8617-1.99333-8.1229 2.24305-15.7673 15.49305-22.84983l3.49-1.86555c.1929-.10267.4278-.08135.5988.05619.1713.13561.2464.36226.1919.5773l-.986 3.86862c-1.0054 3.94427-1.0435 6.50527.2542 8.14027.9222 1.1624 2.4512 1.732 4.3948 2.1175 1.0838.215 2.283.3564 3.5876.4475zm35.5044 41.1393-1.1525 4.1166c-.1204.4282.0013.8912.3168 1.2031.3155.3099.7742.4223 1.1951.2905 2.0347-.647 3.6814-2.1638 4.2739-4.2754.611-2.1775-.0597-4.4131-1.5407-6.0617-.2717-.3022-.6838-.432-1.0769-.339-.3932.093-.7054.3952-.8158.7884zm-37.475-4.7172c-1.4804 1.6524-2.1443 3.888-1.5294 6.0616.5971 2.1116 2.247 3.6246 4.2828 4.2658.4215.1318.8801.0195 1.1952-.2924.3149-.3139.4356-.775.3143-1.205l-1.1617-4.1128-1.2079-4.2716c-.1112-.3933-.424-.6935-.8173-.7865-.3932-.093-.8051.0387-1.076.3409zm8.681 8.6943c.5424 2.5049 2.7335 4.2891 5.266 4.2891 3.6633.0058 8.8849.0059 12.5456.0059 2.5214 0 4.7066-1.7687 5.2633-4.2581 1.1841-6.1585 2.5388-15.6104 3.1895-23.4659.1389-1.8268-.8399-3.5529-2.4674-4.3511-2.2782-1.0538-6.1099-2.2355-11.9051-2.2355-5.9605 0-10.0199 1.2514-12.4192 2.3363-1.6388.7729-2.6421 2.4855-2.5277 4.3123.5367 7.7335 1.8114 16.9489 3.055 23.367zm23.4325 15.2035c.2587-1.3154-.0779-2.6773-.9174-3.7137-.8393-1.0364-2.0928-1.6369-3.4161-1.6369h-14.9449c-1.3435 0-2.6152.614-3.4617 1.6698-.8464 1.0558-1.1772 2.443-.9008 3.7739 1.0902 5.2363 5.6533 8.9849 10.9382 8.9849h1.7643c5.316 0 9.8934-3.797 10.9386-9.076-.001 0-.001-.0001-.0002-.002z" fill="#938876" fill-rule="evenodd"/></g></svg>