<svg fill="none" height="134" viewBox="0 0 128 134" width="128" xmlns="http://www.w3.org/2000/svg" xmlns:xlink="http://www.w3.org/1999/xlink"><filter id="a" color-interpolation-filters="sRGB" filterUnits="userSpaceOnUse" height="133.185" width="127" x="1" y="0"><feFlood flood-opacity="0" result="BackgroundImageFix"/><feColorMatrix in="SourceAlpha" result="hardAlpha" type="matrix" values="0 0 0 0 0 0 0 0 0 0 0 0 0 0 0 0 0 0 127 0"/><feOffset/><feGaussianBlur stdDeviation="8"/><feComposite in2="hardAlpha" operator="out"/><feColorMatrix type="matrix" values="0 0 0 0 0.592157 0 0 0 0 0.172549 0 0 0 0 0.788235 0 0 0 0.3 0"/><feBlend in2="BackgroundImageFix" mode="normal" result="effect1_dropShadow_38_32"/><feBlend in="SourceGraphic" in2="effect1_dropShadow_38_32" mode="normal" result="shape"/></filter><g clip-rule="evenodd" fill-rule="evenodd" filter="url(#a)"><path d="m48.3042 32.0428c1.8327-2.2921 3.6838-4.3254 5.4979-6.0339.0595-.0626 6.1748-6.4094 16.2764-9.9821.1517-.0524.3216-.027.449.0677.1273.0947.194.2453.1759.3993-.1436 1.2281-.4251 3.6216-.4251 3.6216 2.1388.2284 4.1175 1.1418 4.9934 1.5968.1147.0626.1932.1709.2131.2944.02.1252-.0206.252-.1104.3434-.6621.6851-1.9855 2.0469-1.9878 2.0485 2.3807 1.9843 4.8616 4.5842 7.3093 7.6443 1.1577-.0795 2.2214-.203 3.1824-.3925 1.7148-.3383 3.0638-.8339 3.8771-1.8488 1.1456-1.4277 1.1114-3.6641.223-7.1064l-1.1473-4.4455 4.0604 2.1432c11.7155 6.1845 15.4615 12.8595 13.6985 19.9523-.538 2.1653-2.54 4.2645-5.7249 5.9933-1.3609.7392-2.9474 1.4311-4.6943 2.0739 5.8392.7003 13.3232 1.5968 16.5662 1.9859.428.0507.81.2825 1.04.6293.231.3485.286.7764.15 1.1672-1.722 5.0138-6.676 8.6423-12.5113 8.6423-1.1439 0-2.254-.1404-3.313-.4026 1.9421 5.7006 5.1943 17.0207 3.8964 34.3053-.0084.1134-.0736.2149-.1749.2758s-.2267.071-.3375.0288c-1.0377-.3993-3.4151-1.3144-3.4151-1.3144-.8411 4.2814-2.3351 7.6861-2.9239 8.9251-.0516.101-.1568.171-.2756.177-.1189.009-.2331-.044-.2994-.138-.6238-.887-1.9216-2.7323-1.9216-2.7323l-.0071-.0152c-7.4351 10.9545-23.271 17.2385-26.144 17.2385-2.8728 0-18.3344-6.206-26.1511-17.2233 0 0-1.2978 1.8453-1.9215 2.7323-.0664.094-.1806.147-.2995.138-.1188-.006-.224-.076-.2756-.177-.5888-1.239-2.0828-4.6437-2.9239-8.9251 0 0-2.3774.9151-3.4151 1.3144-.1108.0422-.2362.0321-.3375-.0288s-.1665-.1624-.1749-.2758c-1.3009-17.3184 1.9543-28.6047 3.8964-34.3053-1.059.2622-2.1692.4026-3.313.4026-5.8356 0-10.7891-3.6285-12.5111-8.6423-.1357-.3908-.0809-.8187.1495-1.1672.2304-.3468.6122-.5786 1.0405-.6293 3.2433-.3891 10.7265-1.2856 16.566-1.9859-1.7475-.6428-3.3348-1.3364-4.6961-2.0756-3.1841-1.7288-5.1853-3.828-5.7232-5.9916-1.7625-7.0928 1.9832-13.7678 13.6986-19.9523l4.0604-2.1432-1.1473 4.4455c-.8889 3.444-.9226 5.6803.2248 7.108.8154 1.015 2.1673 1.5123 3.8858 1.8489.9583.1878 2.0185.3113 3.172.3908z" fill="#972cc9"/><path d="m79.1841 69.909s.5971-2.0993 1.0149-3.5693c.0931-.3265.3569-.5785.6885-.6563.3315-.0778.68.0304.9101.2825 1.25 1.3752 1.8167 3.2394 1.3008 5.0561-.4415 1.5546-1.5749 2.7218-3.0144 3.346-.4517.1962-.9761.115-1.3465-.2098-.3705-.3247-.5227-.8339-.3874-1.3076.389-1.3735.834-2.9416.834-2.9416zm-32.0658-3.9346c.2301-.2538.5768-.3621.9101-.2843.3315.0762.5954.3282.6902.6564.4195 1.4666 1.02 3.5625 1.02 3.5625s.4483 1.5663.8407 2.9399c.1353.4737-.0135.9828-.384 1.3076-.3704.3248-.8931.4077-1.3465.2132-1.4412-.6208-2.5763-1.7864-3.0212-3.3392-.521-1.8134.0407-3.6775 1.2907-5.0561z" fill="#c4fc36"/><g fill="#fff"><path d="m54.6945 72.4713c.4582 2.0904 2.3094 3.5796 4.4489 3.5796 3.0948.0046 7.5061.0046 10.5985.0046 2.13 0 3.976-1.4753 4.4466-3.553 1.0001-5.1381 2.1449-13.0245 2.6949-19.5778.1167-1.5239-.7096-2.9645-2.0851-3.6305-1.9245-.8775-5.1619-1.8649-10.0572-1.8649-5.0356 0-8.4649 1.044-10.4919 1.9493-1.3846.6452-2.2323 2.0731-2.1355 3.5981.4534 6.4527 1.5303 14.1403 2.5808 19.4946z"/><path d="m74.4907 85.1559c.2185-1.0961-.0661-2.2326-.7754-3.0974-.7081-.8649-1.7681-1.3655-2.8852-1.3655-3.6985 0-8.9063 0-12.6261 0-1.1349 0-2.2092.511-2.9244 1.3932-.7151.881-.9948 2.0372-.7612 3.1483h.0005c.9208 4.3681 4.7757 7.4956 9.2405 7.4956.4955.0012.9946.0012 1.4905.0012 4.4909 0 8.3579-3.1691 9.2408-7.5719 0 0 0 0 0-.0035z"/></g></g></svg>