<svg fill="none" height="158" viewBox="0 0 251 158" width="251" xmlns="http://www.w3.org/2000/svg" xmlns:xlink="http://www.w3.org/1999/xlink"><filter id="a" color-interpolation-filters="sRGB" filterUnits="userSpaceOnUse" height="157.521" width="250.976" x="0" y="0"><feFlood flood-opacity="0" result="BackgroundImageFix"/><feColorMatrix in="SourceAlpha" result="hardAlpha" type="matrix" values="0 0 0 0 0 0 0 0 0 0 0 0 0 0 0 0 0 0 127 0"/><feOffset/><feGaussianBlur stdDeviation="12"/><feComposite in2="hardAlpha" operator="out"/><feColorMatrix type="matrix" values="0 0 0 0 0.592157 0 0 0 0 0.172549 0 0 0 0 0.788235 0 0 0 0.4 0"/><feBlend in2="BackgroundImageFix" mode="normal" result="effect1_dropShadow_38_33"/><feBlend in="SourceGraphic" in2="effect1_dropShadow_38_33" mode="normal" result="shape"/></filter><g filter="url(#a)"><path clip-rule="evenodd" d="m133.483 25.4675-1.613-1.4675h-79.304v3.7097l-3.5797-3.7097h-24.9863v51.7138h.0117v46.4072l6.4762 5.87 17.8745 5.53.2707-15.438c3.556-1.186 6.9237-2.994 10.0087-5.142l5.0161 4.543 14.7658 11.493s4.1331-10.46 5.5579-13.923l.8477-.176c.5181 4.238 1.0127 8.323 1.2835 10.624l.2355 1.926 6.4762 5.87 19.3105-6.927s-.259-1.561-.612-3.768l.424.387 16.096 2.266s-.153-8.23-.223-12.714c3.355 3.522 6.676 6.903 7.288 7.466l.024.024 6.476 5.87 10.021-2.806 3.756 3.404 17.297-4.825s-.023-1.467-.059-3.428l5.911 5.354c.036.035.047.058.059.058l21.101-3.768 4.945 4.484 17.003-2.277c.106-4.966-.388-8.124-.73-11.752l-.129-1.35.33-1.819c1.601-8.7819 4.792-28.7865 5.863-42.4986l-6.476-5.8699-2.649-.1291v-28.8095l-6.476-5.8699h-31.204v5.2829l-5.817-5.2829h-16.438v5.9286l-.011-.0587h-.059l-6.418-5.8699h-17.674z" fill="#972cc9" fill-rule="evenodd"/><path clip-rule="evenodd" d="m76.7282 103.431.3532 2.842 9.4319-1.937c1.307 10.554 2.2488 19.288 2.2842 19.088l13.5535-4.86c-.895-5.435-1.778-11.082-2.6852-16.952l5.6872-1.033-1.601-8.4999-5.452.634c-1.2482-8.2296-2.5435-16.8349-3.9329-25.7689l-14.3889 1.9841c-7.2062 12.3503-13.6237 26.3793-19.2874 41.6877l9.9615 7.749c1.9311-4.908 3.9093-9.85 6.0759-14.934zm-49.6077-32.3074-.1649.0233v48.8141l11.9869 3.71-.0236-19.981 2.2961 5.729c12.9995-4.321 23.2321-17.3987 26.0463-24.7126l-6.3585-17.1988zm125.5675.129c-.788 11.8925-1 32.5784-.871 45.5154l11.398-3.182c-.365-16.0949.106-29.3609 1.378-42.0986zm-16.708 45.4914 11.033-3.099c-.2-8.453.153-36.3462 2.143-49.5887l-11.645 1.3501c-1.284 12.0802-2.143 18.9714-2.367 30.6525l-.012.2818c-7.513-6.856-18.758-20.263-22.631-26.309l-10.41 5.7761c1.731 2.5475 3.686 5.318 5.888 8.2412-.306 10.695-.53 21.378.235 30.488l10.351 1.468c-.071-4.426-.307-15.015-.165-19.1126 3.073 4.6376 10.656 13.1136 17.58 19.8516zm65.28-12.185c-.071 3.345-.212 7.795-.188 10.589l11.115-1.479c-.023-2.689-.671-8.899-.671-8.899zm-11.975-40.7258c-10.998 9.8732-17.71 17.0344-22.019 25.4284l-.919 1.7843.283 1.9841c.777 5.2125 2.92 12.82 5.11 17.305l2.049 4.167 23.114-4.12-1.224-13.8301-14.283 4.0381c-.801-2.3945-1.484-5.0477-1.943-7.3839 3.768-6.4921 9.537-12.2094 18.263-20.0281zm13.023-3.0173c-1.072 13.7708-1.495 29.5961-1.048 39.6101 3.486.117 6.983.247 10.48.364 1.589-8.7227 4.133-25.5926 5.181-39.1991zm-162.9887 23.9845-.2355 11.1645c6.3702-2.5475 11.0331-5.5764 14.2948-10.1432l-.9068-2.43zm45.8868 9.4623c-.3297-2.4654-.6711-4.9071-1.0243-7.2551-1.2835 2.6532-2.508 5.2477-3.662 7.807z" fill="#c4fc36" fill-rule="evenodd"/><path d="m156.682 68.4-5.098-.094c.153-1.3736 1.06-7.6192 1.06-7.6192l-18.004 2.0662c-.365 3.4632-.707 6.7974-1.013 10.0258h-5.946l8.513-45.8439h12.788zm-101.17-3.2521v-38.213h10.5503v32.5779h4.2155v-32.5779h10.5503v38.9057l-2.6728.3756c-.3768.27-2.0254 3.1463-3.8505 6.5626h-8.3248l-3.1086-8.429zm52.54 4.0152v-42.2282h20.865v10.918h-10.315v6.5509h8.207v10.918h-8.207v17.457h-.129c-2.049-2.7471-3.745-5.1421-4.769-6.7387zm52.799-.681v-41.5472h10.55v32.5779h8.443v8.8636c-1.46 1.4792-2.85 2.9584-4.169 4.4024h-8.207c.212-2.4067.377-4.1559.377-4.1559zm47.582-10.2957-8.843-.4579s-.659 9.0513-.824 12.2211l-9.561-10.4719c-2.108 1.8902-4.145 3.7802-6.088 5.6585v-38.2013h25.316zm-181.4987 10.0492v-41.3007h20.7945l4.5334 4.6842v11.5284l-4.2273 4.3673 4.2273 4.3672v13.6181zm57.0025-2.8176v-38.4831h20.8652v10.918h-10.3149v6.5509h8.2069v10.918h-8.2069v8.6522zm-42.2249-5.9052v-4.5198l-1.1423-2.0191h-3.085v6.5389zm151.9561-21.6599v21.6599h4.215v-21.6599zm-49.126 19.6408-1.954-13.0899-1.955 13.0899zm-103.9724-15.4379 1.1423-1.9487v-4.6022h-4.2273v6.5509z" fill="#ffe"/></g></svg>