<svg width="252" height="104" viewBox="0 0 252 104" fill="none" xmlns="http://www.w3.org/2000/svg">
<g clip-path="url(#clip0_3301_38)">
<path fill-rule="evenodd" clip-rule="evenodd" d="M227.736 80.571C227.736 80.5728 227.736 80.5727 227.736 80.5727C226.989 81.6141 226.33 82.3023 225.634 82.916C224.122 84.2524 222.309 85.3065 220.18 86.0546C218.233 86.7394 216.067 87.1917 213.678 87.3962C211.288 87.6007 209.077 87.5224 207.042 87.1785C204.817 86.8016 202.851 86.0707 201.135 85.0106C200.23 84.4523 199.408 83.8022 198.669 83.0567L195.991 80.4066C195.773 81.9502 195.01 83.3711 193.832 84.4074C192.528 85.553 190.823 86.1353 189.092 86.0236L184.208 85.7075C182.592 85.6028 181.076 84.9039 179.949 83.7501C178.953 85.5272 177.145 86.8146 174.966 87.0582L170.353 87.5758C167.92 87.7822 166.434 87.0301 165.062 85.7108L162.815 83.4602C162.653 84.614 162.185 85.7138 161.446 86.639C160.363 87.9962 158.786 88.8669 157.061 89.0593L152.924 89.5212C151.199 89.7135 149.469 89.2126 148.113 88.1296C147.958 88.0067 146.525 86.6002 146.525 86.6002C145.287 87.9194 143.798 88.4108 142.13 88.3066L135.463 87.7375C134.217 87.6008 133.308 87.1828 132.566 86.415L129.334 83.1807L126.027 82.9002C125.066 85.3675 123.32 86.6521 120.823 86.4965L114.158 85.9359C112.572 85.7382 111.501 85.1544 110.641 84.2293L106.918 80.5031L106.909 80.4949L106.911 80.4948C106.046 79.6546 105.614 78.6949 105.494 77.6487C104.557 77.9046 102.387 78.25 102.346 78.2344L102.856 81.9509C103.347 85.5316 100.843 88.8334 97.2633 89.3259L91.595 90.103C89.8757 90.3384 88.1332 89.8812 86.7509 88.8322C86.5527 88.6819 86.3643 88.5208 86.1861 88.3506L82.3351 84.4951C81.8155 83.989 81.3858 83.4028 81.061 82.7617C80.4608 84.9432 79.8155 86.5957 79.482 87.3922C79.4343 87.4981 79.3308 87.5736 79.2107 87.5859C79.0906 87.5999 78.9725 87.5514 78.901 87.4578L76.8297 84.7566L76.8218 84.7414C69.7816 96.2534 54.0152 103.377 51.1033 103.507C48.1915 103.636 32.2394 97.9977 23.8183 87.1072L21.9944 89.9811C21.9313 90.0808 21.8179 90.1395 21.697 90.1362C21.5764 90.1346 21.4666 90.0685 21.4097 89.9673C20.7568 88.7303 19.0885 85.3229 18.0423 80.9921L14.6403 82.4867C14.53 82.5349 14.4024 82.5301 14.297 82.4726C14.1915 82.415 14.1209 82.3143 14.1072 82.199C12.0052 64.5862 14.7938 52.9237 16.5043 47.0197C15.4429 47.3348 14.324 47.528 13.1646 47.5794C7.24985 47.8416 2.06504 44.3619 0.092801 39.3233C-0.0623839 38.9307 -0.0262012 38.4915 0.19155 38.1256C0.409378 37.7614 0.78586 37.5078 1.21768 37.4367L17.9185 34.6659C16.1181 34.0885 14.478 33.4522 13.0647 32.7591C9.75927 31.1381 7.636 29.0861 6.99289 26.9026C4.8856 19.7445 8.38006 12.7652 19.9745 5.9282L23.0285 4.12735C23.1972 4.0282 23.4086 4.03786 23.5673 4.15361C23.7261 4.26763 23.8025 4.46659 23.7621 4.66035L23.0313 8.1464C22.2861 11.7006 22.3532 13.9839 23.5807 15.3892C24.4531 16.3881 25.8458 16.8349 27.6028 17.1011C28.5826 17.2496 29.6629 17.328 30.8356 17.3573C32.5894 14.9361 34.3736 12.7782 36.135 10.9534C36.1925 10.8868 42.1035 4.13583 52.1805 0.0364145C52.3319 -0.0239125 52.5052 -0.00567177 52.6386 0.0852622C52.7719 0.176196 52.8463 0.32688 52.8349 0.484764C52.7449 1.74433 52.5679 4.19928 52.5679 4.19928C54.7461 4.33617 56.7929 5.1793 57.7013 5.60424C57.8204 5.66295 57.9048 5.76993 57.9306 5.89503C57.9565 6.02186 57.9211 6.1531 57.8342 6.25035C57.1941 6.97915 55.9145 8.42816 55.9122 8.42999C58.415 10.3476 61.0471 12.8891 63.6665 15.9015C64.8363 15.7683 65.9088 15.5945 66.8743 15.358C68.597 14.9357 69.9419 14.3694 70.7203 13.2972C71.8168 11.7889 71.681 9.50858 70.6247 6.036L69.5882 2.62831C69.5309 2.43889 69.5893 2.23395 69.7374 2.10633C69.8852 1.97698 70.0949 1.94865 70.2718 2.03247L73.4732 3.55595C85.0699 9.07401 89.3329 15.3756 88.4265 22.2972L93.174 22.296C96.8333 22.2963 99.46 23.1413 101.15 24.4638C101.307 24.5865 101.459 24.7147 101.605 24.8466C102.521 23.1232 104.116 22.2916 105.868 22.2917L109.725 22.2919C111.043 22.2922 112.504 22.8051 113.435 24.0384C113.977 23.2742 115.277 22.2912 117.144 22.2915L121.001 22.2917C122.388 22.2924 123.68 22.9269 124.316 23.6113C125.184 22.7496 126.408 22.2924 127.63 22.2918L140.214 22.2924C141.657 22.3028 142.457 22.7775 143.319 23.4379C143.956 22.7577 145.219 22.2935 146.423 22.292L159.007 22.2926C160.315 22.2934 161.451 22.7325 162.409 23.6152L164.017 25.2232C164.485 23.748 166.488 22.293 168.662 22.2934L173.876 22.2939C175.499 22.3309 176.565 22.844 177.458 23.7366L180.751 27.0322C180.751 24.4587 182.916 22.2926 185.615 22.294L189.586 22.2943C191.019 22.293 192.231 22.8359 193.207 23.8839L197.065 27.7459C197.941 28.6116 198.244 29.8986 198.272 30.987C198.272 30.987 198.31 32.0628 198.323 32.8992C198.402 31.1663 198.79 29.634 199.447 28.294C200.134 26.8921 201.077 25.7123 202.273 24.7496C203.407 23.8363 204.749 23.1317 206.314 22.6628C207.728 22.2387 209.305 22.0148 211.049 22.0153C212.768 22.0152 214.338 22.2379 215.763 22.6607C217.341 23.1303 218.694 23.8312 219.825 24.7495C220.592 25.3727 222.63 27.4718 223.914 28.7604C224.478 27.4107 225.308 26.1701 226.374 25.1215C228.578 22.9554 231.586 21.8068 234.673 21.9553L237.487 22.0899C240.295 22.2249 242.934 23.4204 244.884 25.418L244.883 25.4128L248.458 28.9951C248.558 29.0927 248.657 29.1921 248.754 29.2915L248.789 29.3263L248.788 29.3263C248.949 29.4956 249.105 29.6703 249.256 29.8504C251.242 32.2181 252.15 35.3081 251.759 38.3762L248.591 63.2684C248.309 65.4877 247.191 67.4103 245.583 68.7441L246.154 69.3154C246.31 69.4624 246.46 69.6148 246.605 69.7744C247.997 71.3073 248.723 73.3296 248.624 75.399C248.488 78.2361 247.231 80.9016 245.13 82.8106C243.03 84.7197 240.257 85.716 237.422 85.5806L236.63 85.5414C233.888 85.4105 231.306 84.2296 229.413 82.252L227.736 80.571Z" fill="#382B38"/>
<path fill-rule="evenodd" clip-rule="evenodd" d="M66.5181 54.0515C66.5181 54.0515 67.0797 51.6646 67.4708 49.9933C67.5602 49.622 67.8402 49.3261 68.208 49.2222C68.574 49.1184 68.9681 49.2227 69.2373 49.4943C70.7002 50.9768 71.425 53.042 70.9399 55.1076C70.4691 57.1117 68.9809 58.6014 67.0906 59.2924C66.6998 59.4334 66.2612 59.3482 65.952 59.0689C65.641 58.7915 65.5067 58.3635 65.6039 57.9556C65.9918 56.2978 66.5181 54.0515 66.5181 54.0515ZM31.0059 51.2005C31.2499 50.9042 31.6313 50.7654 32.0069 50.8363C32.3806 50.9053 32.6875 51.1753 32.8095 51.5391C33.3523 53.1651 34.1246 55.489 34.1246 55.489C34.1246 55.489 34.853 57.6778 35.3898 59.2946C35.5227 59.6903 35.4286 60.1284 35.1435 60.436C34.8602 60.7417 34.4327 60.8653 34.031 60.7594C32.0854 60.2444 30.4677 58.8944 29.8177 56.942C29.1482 54.9314 29.68 52.8105 31.0059 51.2005Z" fill="#FEC806"/>
<path fill-rule="evenodd" clip-rule="evenodd" d="M62.2619 72.2463C62.4518 71.004 62.0783 69.742 61.2427 68.8065C60.4072 67.8711 59.2002 67.3605 57.9548 67.4158C53.829 67.5984 48.0185 67.8562 43.8701 68.0403C42.6065 68.0964 41.4318 68.7246 40.6786 69.7497C39.9254 70.7744 39.6704 72.0872 39.9839 73.3231C41.2293 78.1835 45.6873 81.504 50.669 81.2829C51.2216 81.2598 51.7786 81.2351 52.3311 81.2105C57.34 80.9883 61.4938 77.2386 62.262 72.2499C62.262 72.2495 62.262 72.2495 62.2619 72.2463ZM39.5481 58.9823C40.1638 61.3061 42.3031 62.8872 44.6898 62.7813C48.141 62.6332 53.0593 62.4149 56.5103 62.2618C58.8879 62.1562 60.8752 60.4085 61.2926 58.052C62.1556 52.2328 63.0403 43.3197 63.3256 35.9322C63.3811 34.2157 62.3856 32.6396 60.8217 31.9593C58.6313 31.0684 54.9682 30.1201 49.5064 30.3625C43.8907 30.6117 40.1157 31.9544 37.9009 33.0715C36.3887 33.8645 35.5132 35.51 35.6977 37.2172C36.526 44.4409 38.1087 53.0213 39.5481 58.9823Z" fill="#FCF5EB"/>
<path fill-rule="evenodd" clip-rule="evenodd" d="M221.713 65.9054C222.08 65.8765 222.451 65.9976 222.726 66.2395C223.007 66.4859 223.173 66.8341 223.187 67.2087L223.187 67.2517C223.282 69.3521 223.021 71.1785 222.405 72.7205C221.789 74.2677 220.877 75.576 219.664 76.646C218.456 77.7153 216.995 78.5503 215.293 79.155C213.585 79.7552 211.686 80.1396 209.593 80.3195C207.499 80.4993 205.561 80.4374 203.778 80.139C201.994 79.8353 200.416 79.2615 199.041 78.4124C197.667 77.5632 196.544 76.4321 195.677 75.0078C194.81 73.5887 194.243 71.8384 193.978 69.7506C193.815 68.563 193.678 67.2858 193.56 65.9199C193.443 64.554 193.365 63.2418 193.312 61.9908C193.225 59.9484 193.506 58.1515 194.148 56.6006C194.791 55.0551 195.717 53.734 196.929 52.6535C198.141 51.5676 199.599 50.7167 201.3 50.1014C203.005 49.4854 204.876 49.0942 206.911 48.917C208.947 48.7451 210.854 48.8166 212.639 49.1309C214.425 49.4504 216.005 50.04 217.381 50.8997C218.758 51.7647 219.893 52.905 220.791 54.3197C221.685 55.7403 222.265 57.4622 222.527 59.4912C222.576 59.8501 222.475 60.2134 222.245 60.4977C222.016 60.782 221.685 60.9566 221.324 60.99L212.519 61.7417C211.865 61.7991 211.289 61.3242 211.212 60.6788C211.105 59.8652 210.92 59.2185 210.649 58.7288C210.342 58.2547 209.99 57.9265 209.599 57.7383C209.03 57.4722 208.376 57.3683 207.637 57.4268C206.899 57.4958 206.273 57.7108 205.757 58.0667C205.405 58.3194 205.113 58.7036 204.889 59.2238C204.708 59.7487 204.634 60.4204 204.67 61.2381C204.787 63.6581 204.998 66.0974 205.293 68.5628C205.398 69.3658 205.582 70.0073 205.842 70.4932C206.14 70.9364 206.485 71.26 206.883 71.4581C207.467 71.7544 208.128 71.8734 208.868 71.8149C209.605 71.7459 210.236 71.5196 210.762 71.1246C211.118 70.8606 211.406 70.4877 211.624 70.0006C211.8 69.4764 211.87 68.8108 211.834 68.0036L211.835 67.9713C211.796 67.2937 212.302 66.7133 212.977 66.653L221.713 65.9054ZM188.975 75.8848C188.922 76.7525 188.522 77.5602 187.869 78.1338C187.217 78.7073 186.365 79.0018 185.497 78.9435L180.61 78.6303C179.742 78.5721 178.935 78.1773 178.362 77.5246C177.788 76.872 177.493 76.0145 177.552 75.1461L179.055 51.8807C179.109 51.013 179.509 50.2052 180.161 49.6317C180.814 49.0581 181.666 48.7637 182.534 48.822L187.421 49.1352C188.283 49.1942 189.095 49.5881 189.67 50.2461C190.243 50.8987 190.532 51.7518 190.479 52.6195L188.975 75.8848ZM160.219 52.3209C160.122 51.4577 160.374 50.5896 160.916 49.9129C161.457 49.231 162.252 48.7939 163.115 48.6969L167.25 48.2367C169.05 48.0326 170.669 49.3322 170.873 51.1326L173.688 76.3756C173.891 78.1707 172.593 79.7954 170.797 79.9935L166.181 80.5144C165.132 80.6314 164.097 80.2143 163.421 79.4037L154.74 69.0229L155.786 78.3761C155.883 79.2394 155.631 80.1075 155.089 80.7841C154.543 81.4668 153.753 81.8978 152.89 81.9948L148.755 82.4603C147.892 82.5573 147.024 82.3053 146.343 81.7643C145.665 81.2174 145.229 80.4276 145.132 79.5644L142.318 54.3268C142.114 52.5264 143.407 50.9023 145.208 50.7035L149.793 50.1871C150.883 50.0642 151.962 50.5184 152.629 51.3894L161.376 62.6806L160.219 52.3209ZM119.7 51.5004C120.458 49.81 122.198 48.7806 124.043 48.9414L130.439 49.483C132.288 49.6378 133.833 50.9475 134.289 52.7402L140.885 78.5397C141.059 79.2203 140.894 79.9419 140.441 80.4773C139.982 81.0135 139.3 81.2954 138.599 81.2357L131.935 80.6664C131.255 80.6091 130.684 80.1335 130.508 79.4748L129.684 76.4421L120.214 75.6395L118.896 78.4932C118.61 79.1132 117.967 79.4864 117.287 79.4291L110.625 78.8703C109.923 78.8107 109.294 78.4131 108.937 77.8114C108.585 77.2037 108.542 76.4621 108.826 75.821L119.7 51.5004ZM128.168 67.659L126.354 59.2502L123.191 67.2398L128.168 67.659ZM95.0423 48.626C97.1652 48.3345 99.1238 48.3077 100.918 48.5346C102.713 48.7667 104.289 49.2764 105.654 50.0569C107.013 50.8382 108.127 51.9008 108.994 53.2444C109.866 54.5874 110.429 56.2254 110.694 58.1573C110.96 60.0944 110.856 61.808 110.373 63.3047C109.895 64.8007 109.104 66.087 107.998 67.1583C106.887 68.2304 105.501 69.0984 103.828 69.7582C102.154 70.4128 100.257 70.8884 98.1344 71.1798L94.8602 71.6293L95.8139 78.5859C96.0592 80.3752 94.8052 82.0316 93.0116 82.2778L87.3433 83.056C86.4822 83.1742 85.6093 82.9445 84.9171 82.4211C84.2243 81.8924 83.7695 81.1159 83.6515 80.2556L80.0515 53.9965C79.9336 53.1362 80.1619 52.2605 80.6876 51.5699C81.2126 50.8741 81.9914 50.4176 82.8526 50.2994L95.0423 48.626ZM93.4396 63.0051L96.7139 62.5556C97.2131 62.4871 97.6696 62.2255 98.0843 61.776C98.4993 61.321 98.6425 60.6399 98.5188 59.7373C98.437 59.1409 98.2082 58.5701 97.8317 58.0195C97.4533 57.4637 96.844 57.2462 96.0019 57.3618L92.7276 57.8113L93.4396 63.0051ZM237.335 25.2737C239.515 25.3776 241.546 26.3894 242.947 28.0577C244.348 29.726 244.991 31.9071 244.712 34.0695L241.574 58.0808C241.226 60.7959 238.854 62.7885 236.116 62.6589L232.122 62.4652C229.389 62.3349 227.215 60.122 227.13 57.3857L226.334 33.1884C226.267 31.0091 227.112 28.9033 228.666 27.3726C230.225 25.8411 232.345 25.0338 234.52 25.1384L237.335 25.2737ZM237.236 66.5921C238.437 66.6477 239.569 67.1806 240.38 68.0749C241.19 68.9639 241.61 70.1432 241.554 71.3446C241.459 73.3152 240.583 75.1669 239.126 76.4962C237.668 77.8203 235.742 78.5149 233.772 78.4197L232.977 78.3837C231.007 78.2885 229.156 77.4133 227.832 75.9548C226.502 74.4918 225.813 72.5645 225.909 70.5939C225.965 69.3925 226.497 68.26 227.386 67.4496C228.28 66.6385 229.454 66.2193 230.66 66.2742L237.236 66.5921Z" fill="#FEC806"/>
<path fill-rule="evenodd" clip-rule="evenodd" d="M220.516 33.049C220.554 33.8615 220.569 34.7029 220.569 35.5683C220.569 36.4385 220.554 37.2606 220.516 38.0347C220.458 39.304 220.194 40.4097 219.723 41.3664C219.247 42.3184 218.603 43.1213 217.781 43.7607C216.959 44.405 215.974 44.8857 214.835 45.2079C213.691 45.53 212.428 45.6886 211.053 45.6886C209.655 45.6886 208.386 45.53 207.257 45.2079C206.122 44.8857 205.142 44.405 204.32 43.7607C203.498 43.1213 202.855 42.3184 202.379 41.3664C201.908 40.4097 201.643 39.304 201.586 38.0347C201.552 37.2606 201.533 36.4385 201.533 35.5683C201.533 34.7029 201.552 33.8615 201.586 33.049C201.643 31.799 201.908 30.6932 202.379 29.7316C202.855 28.7653 203.498 27.9528 204.32 27.2941C205.142 26.6306 206.122 26.1306 207.257 25.7892C208.386 25.4527 209.655 25.2796 211.053 25.2796C212.428 25.2796 213.691 25.4527 214.835 25.7892C215.974 26.1306 216.959 26.6306 217.781 27.2941C218.603 27.9528 219.247 28.7653 219.723 29.7316C220.194 30.6932 220.458 31.799 220.516 33.049ZM208.953 37.8664C208.991 38.6597 209.193 39.2414 209.563 39.6068C209.933 39.977 210.428 40.1597 211.053 40.1597C211.673 40.1597 212.168 39.977 212.538 39.6068C212.908 39.2414 213.11 38.6597 213.148 37.8664C213.206 36.2606 213.206 34.6741 213.148 33.1019C213.11 32.3087 212.903 31.7269 212.524 31.3615C212.144 30.9913 211.654 30.8086 211.053 30.8086C210.448 30.8086 209.957 30.9913 209.578 31.3615C209.198 31.7269 208.991 32.3087 208.953 33.1019C208.895 34.6741 208.895 36.2606 208.953 37.8664ZM198.203 39.5924C198.63 39.5924 199.039 39.7654 199.341 40.0683C199.644 40.3712 199.812 40.7799 199.812 41.2078V43.8088C199.812 44.7031 199.092 45.4242 198.203 45.4242H185.616C184.727 45.4242 184.006 44.7031 184.006 43.8088V27.1739C184.006 26.746 184.174 26.3325 184.477 26.0296C184.78 25.7267 185.188 25.5585 185.616 25.5585H189.586C190.013 25.5585 190.427 25.7267 190.73 26.0296C191.032 26.3325 191.2 26.746 191.2 27.1739V39.5924H198.203ZM166.782 26.895C167.061 26.0969 167.816 25.5585 168.666 25.5585H173.876C174.726 25.5585 175.481 26.0969 175.76 26.895L181.599 43.6117C181.743 44.03 181.68 44.4915 181.426 44.8521C181.171 45.2127 180.758 45.4242 180.315 45.4242H176.303C175.678 45.4242 175.12 45.0348 174.904 44.4434L174.318 42.828H168.224L167.638 44.4434C167.422 45.0348 166.864 45.4242 166.239 45.4242H162.226C161.784 45.4242 161.371 45.2127 161.116 44.8521C160.862 44.4915 160.799 44.03 160.943 43.6117L166.782 26.895ZM172.871 37.2991L171.257 32.025L169.671 37.2991H172.871ZM144.81 27.1739C144.81 26.2797 145.536 25.5585 146.425 25.5585H159.011C159.9 25.5585 160.621 26.2797 160.621 27.1739V29.7894C160.621 30.2173 160.453 30.6259 160.15 30.9288C159.848 31.2317 159.439 31.4048 159.011 31.4048H151.755V34.0442H157.353C158.247 34.0442 158.968 34.7654 158.968 35.6596V38.2414C158.968 39.1356 158.247 39.8569 157.353 39.8569H151.755V43.8088C151.755 44.2367 151.586 44.6502 151.284 44.9531C150.981 45.256 150.568 45.4242 150.14 45.4242H146.425C145.997 45.4242 145.589 45.256 145.286 44.9531C144.983 44.6502 144.81 44.2367 144.81 43.8088V27.1739ZM126.02 27.1739C126.02 26.2797 126.741 25.5585 127.634 25.5585H140.216C141.105 25.5585 141.831 26.2797 141.831 27.1739V29.7894C141.831 30.2173 141.658 30.6259 141.355 30.9288C141.057 31.2317 140.644 31.4048 140.216 31.4048H132.959V34.0442H138.563C139.452 34.0442 140.173 34.7654 140.173 35.6596V38.2414C140.173 39.1356 139.452 39.8569 138.563 39.8569H132.959V43.8088C132.959 44.2367 132.791 44.6502 132.488 44.9531C132.186 45.256 131.777 45.4242 131.349 45.4242H127.634C127.207 45.4242 126.793 45.256 126.491 44.9531C126.188 44.6502 126.02 44.2367 126.02 43.8088V27.1739ZM115.534 27.1739C115.534 26.746 115.702 26.3325 116.005 26.0296C116.307 25.7267 116.721 25.5585 117.148 25.5585H121.003C121.43 25.5585 121.844 25.7267 122.146 26.0296C122.449 26.3325 122.617 26.746 122.617 27.1739V37.9241C122.617 39.2655 122.391 40.4194 121.935 41.3954C121.483 42.3665 120.854 43.1742 120.051 43.8184C119.248 44.4626 118.287 44.9338 117.163 45.2367C116.038 45.5396 114.808 45.6886 113.467 45.6886C112.107 45.6886 110.858 45.5396 109.723 45.2367C108.594 44.9338 107.623 44.4626 106.821 43.8184C106.018 43.1742 105.389 42.3665 104.937 41.3954C104.485 40.4194 104.259 39.2655 104.259 37.9241V27.1739C104.259 26.746 104.427 26.3325 104.73 26.0296C105.033 25.7267 105.441 25.5585 105.869 25.5585H109.728C110.156 25.5585 110.564 25.7267 110.867 26.0296C111.17 26.3325 111.338 26.746 111.338 27.1739V37.8087C111.338 39.2654 112.04 39.9914 113.438 39.9914C114.837 39.9914 115.534 39.2654 115.534 37.8087V27.1739ZM84.618 45.405C84.1903 45.405 83.7799 45.2367 83.4771 44.9339C83.1748 44.631 83.0047 44.2175 83.0047 43.7896V27.1787C83.0047 26.7508 83.1748 26.3374 83.4771 26.0345C83.7799 25.7364 84.1903 25.5633 84.618 25.5633H93.1766C95.8967 25.5633 97.8868 26.0537 99.1411 27.0393C100.395 28.02 101.025 29.5153 101.025 31.5154C101.025 31.9721 100.948 32.3903 100.799 32.7798C100.645 33.1644 100.458 33.5058 100.232 33.7991C100.006 34.0923 99.761 34.3471 99.4967 34.5634C99.2324 34.7798 98.9825 34.9481 98.7566 35.0587C99.117 35.2125 99.463 35.4241 99.7946 35.6981C100.121 35.9722 100.41 36.2895 100.655 36.6452C100.9 37.0058 101.097 37.4001 101.236 37.8231C101.381 38.2462 101.448 38.6982 101.448 39.1693C101.448 41.304 100.765 42.8761 99.3958 43.8905C98.0261 44.9001 96.0476 45.405 93.4597 45.405H84.618ZM93.6298 31.7413C93.6298 31.4432 93.5399 31.15 93.3607 30.8663C93.1814 30.5827 92.8839 30.4384 92.4682 30.4384H90.0884V33.0202H92.4682C92.8839 33.0202 93.1814 32.8807 93.3607 32.6067C93.5399 32.3327 93.6298 32.0442 93.6298 31.7413ZM90.0884 40.53H92.7234C93.1954 40.53 93.5308 40.3809 93.7293 40.078C93.9273 39.7751 94.0263 39.4626 94.0263 39.1405C94.0263 38.7991 93.9177 38.4866 93.7009 38.1933C93.4837 37.9 93.1574 37.751 92.7234 37.751H90.0884V40.53Z" fill="#FCF5EB"/>
</g>
<defs>
<clipPath id="clip0_3301_38">
<rect width="252" height="104" fill="white"/>
</clipPath>
</defs>
</svg>
