<svg fill="none" height="104" viewBox="0 0 252 104" width="252" xmlns="http://www.w3.org/2000/svg" xmlns:xlink="http://www.w3.org/1999/xlink"><clipPath id="a"><path d="m0 0h252v104h-252z"/></clipPath><g clip-path="url(#a)" clip-rule="evenodd" fill-rule="evenodd"><path d="m227.736 80.571v.0017c-.747 1.0414-1.406 1.7296-2.102 2.3433-1.512 1.3364-3.325 2.3905-5.454 3.1386-1.947.6848-4.113 1.1371-6.502 1.3416-2.39.2045-4.601.1262-6.636-.2177-2.225-.3769-4.191-1.1078-5.907-2.1679-.905-.5583-1.727-1.2084-2.466-1.9539l-2.678-2.6501c-.218 1.5436-.981 2.9645-2.159 4.0008-1.304 1.1456-3.009 1.7279-4.74 1.6162l-4.884-.3161c-1.616-.1047-3.132-.8036-4.259-1.9574-.996 1.7771-2.804 3.0645-4.983 3.3081l-4.613.5176c-2.433.2064-3.919-.5457-5.291-1.865l-2.247-2.2506c-.162 1.1538-.63 2.2536-1.369 3.1788-1.083 1.3572-2.66 2.2279-4.385 2.4203l-4.137.4619c-1.725.1923-3.455-.3086-4.811-1.3916-.155-.1229-1.588-1.5294-1.588-1.5294-1.238 1.3192-2.727 1.8106-4.395 1.7064l-6.667-.5691c-1.246-.1367-2.155-.5547-2.897-1.3225l-3.232-3.2343-3.307-.2805c-.961 2.4673-2.707 3.7519-5.204 3.5963l-6.665-.5606c-1.586-.1977-2.657-.7815-3.517-1.7066l-3.723-3.7262-.009-.0082.002-.0001c-.865-.8402-1.297-1.7999-1.417-2.8461-.937.2559-3.107.6013-3.148.5857l.51 3.7165c.491 3.5807-2.013 6.8825-5.5927 7.375l-5.6683.7771c-1.7193.2354-3.4618-.2218-4.8441-1.2708-.1982-.1503-.3866-.3114-.5648-.4816l-3.851-3.8555c-.5196-.5061-.9493-1.0923-1.2741-1.7334-.6002 2.1815-1.2455 3.834-1.579 4.6305-.0477.1059-.1512.1814-.2713.1937-.1201.014-.2382-.0345-.3097-.1281l-2.0713-2.7012-.0079-.0152c-7.0402 11.512-22.8066 18.6356-25.7185 18.7656-2.9118.129-18.8639-5.5093-27.285-16.3998l-1.8239 2.8739c-.0631.0997-.1765.1584-.2974.1551-.1206-.0016-.2304-.0677-.2873-.1689-.6529-1.237-2.3212-4.6444-3.3674-8.9752l-3.402 1.4946c-.1103.0482-.2379.0434-.3433-.0141-.1055-.0576-.1761-.1583-.1898-.2736-2.102-17.6128.6866-29.2753 2.3971-35.1793-1.0614.3151-2.1803.5083-3.3397.5597-5.91475.2622-11.09956-3.2175-13.071799-8.2561-.1551849-.3926-.1190022-.8318.098749-1.1977.217828-.3642.59431-.6178 1.02613-.6889l16.70082-2.7708c-1.8004-.5774-3.4405-1.2137-4.8538-1.9068-3.30543-1.621-5.4287-3.673-6.07181-5.8565-2.10729-7.1581 1.38717-14.1374 12.98161-20.9744l3.054-1.80085c.1687-.09915.3801-.08949.5388.02626.1588.11402.2352.31298.1948.50674l-.7308 3.48605c-.7452 3.5542-.6781 5.8375.5494 7.2428.8724.9989 2.2651 1.4457 4.0221 1.7119.9798.1485 2.0601.2269 3.2328.2562 1.7538-2.4212 3.538-4.5791 5.2994-6.4039.0575-.0666 5.9685-6.81757 16.0455-10.9169855.1514-.060327.3247-.04208627.4581.0488477.1333.0909338.2077.2416178.1963.3995018-.09 1.259566-.267 3.714516-.267 3.714516 2.1782.13689 4.225.98002 5.1334 1.40496.1191.05871.2035.16569.2293.29079.0259.12683-.0095.25807-.0964.35532-.6401.7288-1.9197 2.17781-1.922 2.17964 2.5028 1.91761 5.1349 4.45911 7.7543 7.47151 1.1698-.1332 2.2423-.307 3.2078-.5435 1.7227-.4223 3.0676-.9886 3.846-2.0608 1.0965-1.5083.9607-3.78862-.0956-7.2612l-1.0365-3.40769c-.0573-.18942.0011-.39436.1492-.52198.1478-.12935.3575-.15768.5344-.07386l3.2014 1.52348c11.5967 5.51806 15.8597 11.81965 14.9533 18.74125l4.7475-.0012c3.6593.0003 6.286.8453 7.976 2.1678.157.1227.309.2509.455.3828.916-1.7234 2.511-2.555 4.263-2.5549l3.857.0002c1.318.0003 2.779.5132 3.71 1.7465.542-.7642 1.842-1.7472 3.709-1.7469l3.857.0002c1.387.0007 2.679.6352 3.315 1.3196.868-.8617 2.092-1.3189 3.314-1.3195l12.584.0006c1.443.0104 2.243.4851 3.105 1.1455.637-.6802 1.9-1.1444 3.104-1.1459l12.584.0006c1.308.0008 2.444.4399 3.402 1.3226l1.608 1.608c.468-1.4752 2.471-2.9302 4.645-2.9298l5.214.0005c1.623.037 2.689.5501 3.582 1.4427l3.293 3.2956c0-2.5735 2.165-4.7396 4.864-4.7382l3.971.0003c1.433-.0013 2.645.5416 3.621 1.5896l3.858 3.862c.876.8657 1.179 2.1527 1.207 3.2411 0 0 .038 1.0758.051 1.9122.079-1.7329.467-3.2652 1.124-4.6052.687-1.4019 1.63-2.5817 2.826-3.5444 1.134-.9133 2.476-1.6179 4.041-2.0868 1.414-.4241 2.991-.648 4.735-.6475 1.719-.0001 3.289.2226 4.714.6454 1.578.4696 2.931 1.1705 4.062 2.0888.767.6232 2.805 2.7223 4.089 4.0109.564-1.3497 1.394-2.5903 2.46-3.6389 2.204-2.1661 5.212-3.3147 8.299-3.1662l2.814.1346c2.808.135 5.447 1.3305 7.397 3.3281l-.001-.0052 3.575 3.5823c.1.0976.199.197.296.2964l.035.0348h-.001c.161.1693.317.344.468.5241 1.986 2.3677 2.894 5.4577 2.503 8.5258l-3.168 24.8922c-.282 2.2193-1.4 4.1419-3.008 5.4757l.571.5713c.156.147.306.2994.451.459 1.392 1.5329 2.118 3.5552 2.019 5.6246-.136 2.8371-1.393 5.5026-3.494 7.4116-2.1 1.9091-4.873 2.9054-7.708 2.77l-.792-.0392c-2.742-.1309-5.324-1.3118-7.217-3.2894z" fill="#382b38"/><path d="m66.5181 54.0515s.5616-2.3869.9527-4.0582c.0894-.3713.3694-.6672.7372-.7711.366-.1038.7601.0005 1.0293.2721 1.4629 1.4825 2.1877 3.5477 1.7026 5.6133-.4708 2.0041-1.959 3.4938-3.8493 4.1848-.3908.141-.8294.0558-1.1386-.2235-.311-.2774-.4453-.7054-.3481-1.1133.3879-1.6578.9142-3.9041.9142-3.9041zm-35.5122-2.851c.244-.2963.6254-.4351 1.001-.3642.3737.069.6806.339.8026.7028.5428 1.626 1.3151 3.9499 1.3151 3.9499s.7284 2.1888 1.2652 3.8056c.1329.3957.0388.8338-.2463 1.1414-.2833.3057-.7108.4293-1.1125.3234-1.9456-.515-3.5633-1.865-4.2133-3.8174-.6695-2.0106-.1377-4.1315 1.1882-5.7415z" fill="#fec806"/><path d="m62.2619 72.2463c.1899-1.2423-.1836-2.5043-1.0192-3.4398-.8355-.9354-2.0425-1.446-3.2879-1.3907-4.1258.1826-9.9363.4404-14.0847.6245-1.2636.0561-2.4383.6843-3.1915 1.7094-.7532 1.0247-1.0082 2.3375-.6947 3.5734 1.2454 4.8604 5.7034 8.1809 10.6851 7.9598.5526-.0231 1.1096-.0478 1.6621-.0724 5.0089-.2222 9.1627-3.9719 9.9309-8.9606 0-.0004 0-.0004-.0001-.0036zm-22.7138-13.264c.6157 2.3238 2.755 3.9049 5.1417 3.799 3.4512-.1481 8.3695-.3664 11.8205-.5195 2.3776-.1056 4.3649-1.8533 4.7823-4.2098.863-5.8192 1.7477-14.7323 2.033-22.1198.0555-1.7165-.94-3.2926-2.5039-3.9729-2.1904-.8909-5.8535-1.8392-11.3153-1.5968-5.6157.2492-9.3907 1.5919-11.6055 2.709-1.5122.793-2.3877 2.4385-2.2032 4.1457.8283 7.2237 2.411 15.8041 3.8504 21.7651z" fill="#fcf5eb"/><path d="m221.713 65.9054c.367-.0289.738.0922 1.013.3341.281.2464.447.5946.461.9692v.043c.095 2.1004-.166 3.9268-.782 5.4688-.616 1.5472-1.528 2.8555-2.741 3.9255-1.208 1.0693-2.669 1.9043-4.371 2.509-1.708.6002-3.607.9846-5.7 1.1645-2.094.1798-4.032.1179-5.815-.1805-1.784-.3037-3.362-.8775-4.737-1.7266-1.374-.8492-2.497-1.9803-3.364-3.4046-.867-1.4191-1.434-3.1694-1.699-5.2572-.163-1.1876-.3-2.4648-.418-3.8307-.117-1.3659-.195-2.6781-.248-3.9291-.087-2.0424.194-3.8393.836-5.3902.643-1.5455 1.569-2.8666 2.781-3.9471 1.212-1.0859 2.67-1.9368 4.371-2.5521 1.705-.616 3.576-1.0072 5.611-1.1844 2.036-.1719 3.943-.1004 5.728.2139 1.786.3195 3.366.9091 4.742 1.7688 1.377.865 2.512 2.0053 3.41 3.42.894 1.4206 1.474 3.1425 1.736 5.1715.049.3589-.052.7222-.282 1.0065-.229.2843-.56.4589-.921.4923l-8.805.7517c-.654.0574-1.23-.4175-1.307-1.0629-.107-.8136-.292-1.4603-.563-1.95-.307-.4741-.659-.8023-1.05-.9905-.569-.2661-1.223-.37-1.962-.3115-.738.069-1.364.284-1.88.6399-.352.2527-.644.6369-.868 1.1571-.181.5249-.255 1.1966-.219 2.0143.117 2.42.328 4.8593.623 7.3247.105.803.289 1.4445.549 1.9304.298.4432.643.7668 1.041.9649.584.2963 1.245.4153 1.985.3568.737-.069 1.368-.2953 1.894-.6903.356-.264.644-.6369.862-1.124.176-.5242.246-1.1898.21-1.997l.001-.0323c-.039-.6776.467-1.258 1.142-1.3183zm-32.738 9.9794c-.053.8677-.453 1.6754-1.106 2.249-.652.5735-1.504.868-2.372.8097l-4.887-.3132c-.868-.0582-1.675-.453-2.248-1.1057-.574-.6526-.869-1.5101-.81-2.3785l1.503-23.2654c.054-.8677.454-1.6755 1.106-2.249.653-.5736 1.505-.868 2.373-.8097l4.887.3132c.862.059 1.674.4529 2.249 1.1109.573.6526.862 1.5057.809 2.3734zm-28.756-23.5639c-.097-.8632.155-1.7313.697-2.408.541-.6819 1.336-1.119 2.199-1.216l4.135-.4602c1.8-.2041 3.419 1.0955 3.623 2.8959l2.815 25.243c.203 1.7951-1.095 3.4198-2.891 3.6179l-4.616.5209c-1.049.117-2.084-.3001-2.76-1.1107l-8.681-10.3808 1.046 9.3532c.097.8633-.155 1.7314-.697 2.408-.546.6827-1.336 1.1137-2.199 1.2107l-4.135.4655c-.863.097-1.731-.155-2.412-.696-.678-.5469-1.114-1.3367-1.211-2.1999l-2.814-25.2376c-.204-1.8004 1.089-3.4245 2.89-3.6233l4.585-.5164c1.09-.1229 2.169.3313 2.836 1.2023l8.747 11.2912zm-40.519-.8205c.758-1.6904 2.498-2.7198 4.343-2.559l6.396.5416c1.849.1548 3.394 1.4645 3.85 3.2572l6.596 25.7995c.174.6806.009 1.4022-.444 1.9376-.459.5362-1.141.8181-1.842.7584l-6.664-.5693c-.68-.0573-1.251-.5329-1.427-1.1916l-.824-3.0327-9.47-.8026-1.318 2.8537c-.286.62-.929.9932-1.609.9359l-6.662-.5588c-.702-.0596-1.331-.4572-1.688-1.0589-.352-.6077-.395-1.3493-.111-1.9904zm8.468 16.1586-1.814-8.4088-3.163 7.9896zm-33.1257-19.033c2.1229-.2915 4.0815-.3183 5.8757-.0914 1.795.2321 3.371.7418 4.736 1.5223 1.359.7813 2.473 1.8439 3.34 3.1875.872 1.343 1.435 2.981 1.7 4.9129.266 1.9371.162 3.6507-.321 5.1474-.478 1.496-1.269 2.7823-2.375 3.8536-1.111 1.0721-2.497 1.9401-4.17 2.5999-1.674.6546-3.571 1.1302-5.6936 1.4216l-3.2742.4495.9537 6.9566c.2453 1.7893-1.0087 3.4457-2.8023 3.6919l-5.6683.7782c-.8611.1182-1.734-.1115-2.4262-.6349-.6928-.5287-1.1476-1.3052-1.2656-2.1655l-3.6-26.2591c-.1179-.8603.1104-1.736.6361-2.4266.525-.6958 1.3038-1.1523 2.165-1.2705zm-1.6027 14.3791 3.2743-.4495c.4992-.0685.9557-.3301 1.3704-.7796.415-.455.5582-1.1361.4345-2.0387-.0818-.5964-.3106-1.1672-.6871-1.7178-.3784-.5558-.9877-.7733-1.8298-.6577l-3.2743.4495zm143.8954-37.7314c2.18.1039 4.211 1.1157 5.612 2.784s2.044 3.8494 1.765 6.0118l-3.138 24.0113c-.348 2.7151-2.72 4.7077-5.458 4.5781l-3.994-.1937c-2.733-.1303-4.907-2.3432-4.992-5.0795l-.796-24.1973c-.067-2.1793.778-4.2851 2.332-5.8158 1.559-1.5315 3.679-2.3388 5.854-2.2342zm-.099 41.3184c1.201.0556 2.333.5885 3.144 1.4828.81.889 1.23 2.0683 1.174 3.2697-.095 1.9706-.971 3.8223-2.428 5.1516-1.458 1.3241-3.384 2.0187-5.354 1.9235l-.795-.036c-1.97-.0952-3.821-.9704-5.145-2.4289-1.33-1.463-2.019-3.3903-1.923-5.3609.056-1.2014.588-2.3339 1.477-3.1443.894-.8111 2.068-1.2303 3.274-1.1754z" fill="#fec806"/><path d="m220.516 33.049c.038.8125.053 1.6539.053 2.5193 0 .8702-.015 1.6923-.053 2.4664-.058 1.2693-.322 2.375-.793 3.3317-.476.952-1.12 1.7549-1.942 2.3943-.822.6443-1.807 1.125-2.946 1.4472-1.144.3221-2.407.4807-3.782.4807-1.398 0-2.667-.1586-3.796-.4807-1.135-.3222-2.115-.8029-2.937-1.4472-.822-.6394-1.465-1.4423-1.941-2.3943-.471-.9567-.736-2.0624-.793-3.3317-.034-.7741-.053-1.5962-.053-2.4664 0-.8654.019-1.7068.053-2.5193.057-1.25.322-2.3558.793-3.3174.476-.9663 1.119-1.7788 1.941-2.4375.822-.6635 1.802-1.1635 2.937-1.5049 1.129-.3365 2.398-.5096 3.796-.5096 1.375 0 2.638.1731 3.782.5096 1.139.3414 2.124.8414 2.946 1.5049.822.6587 1.466 1.4712 1.942 2.4375.471.9616.735 2.0674.793 3.3174zm-11.563 4.8174c.038.7933.24 1.375.61 1.7404.37.3702.865.5529 1.49.5529.62 0 1.115-.1827 1.485-.5529.37-.3654.572-.9471.61-1.7404.058-1.6058.058-3.1923 0-4.7645-.038-.7932-.245-1.375-.624-1.7404-.38-.3702-.87-.5529-1.471-.5529-.605 0-1.096.1827-1.475.5529-.38.3654-.587.9472-.625 1.7404-.058 1.5722-.058 3.1587 0 4.7645zm-10.75 1.726c.427 0 .836.173 1.138.4759.303.3029.471.7116.471 1.1395v2.601c0 .8943-.72 1.6154-1.609 1.6154h-12.587c-.889 0-1.61-.7211-1.61-1.6154v-16.6349c0-.4279.168-.8414.471-1.1443s.711-.4711 1.139-.4711h3.97c.427 0 .841.1682 1.144.4711.302.3029.47.7164.47 1.1443v12.4185zm-31.421-12.6974c.279-.7981 1.034-1.3365 1.884-1.3365h5.21c.85 0 1.605.5384 1.884 1.3365l5.839 16.7167c.144.4183.081.8798-.173 1.2404-.255.3606-.668.5721-1.111.5721h-4.012c-.625 0-1.183-.3894-1.399-.9808l-.586-1.6154h-6.094l-.586 1.6154c-.216.5914-.774.9808-1.399.9808h-4.013c-.442 0-.855-.2115-1.11-.5721-.254-.3606-.317-.8221-.173-1.2404zm6.089 10.4041-1.614-5.2741-1.586 5.2741zm-28.061-10.1252c0-.8942.726-1.6154 1.615-1.6154h12.586c.889 0 1.61.7212 1.61 1.6154v2.6155c0 .4279-.168.8365-.471 1.1394-.302.3029-.711.476-1.139.476h-7.256v2.6394h5.598c.894 0 1.615.7212 1.615 1.6154v2.5818c0 .8942-.721 1.6155-1.615 1.6155h-5.598v3.9519c0 .4279-.169.8414-.471 1.1443-.303.3029-.716.4711-1.144.4711h-3.715c-.428 0-.836-.1682-1.139-.4711s-.476-.7164-.476-1.1443zm-18.79 0c0-.8942.721-1.6154 1.614-1.6154h12.582c.889 0 1.615.7212 1.615 1.6154v2.6155c0 .4279-.173.8365-.476 1.1394-.298.3029-.711.476-1.139.476h-7.257v2.6394h5.604c.889 0 1.61.7212 1.61 1.6154v2.5818c0 .8942-.721 1.6155-1.61 1.6155h-5.604v3.9519c0 .4279-.168.8414-.471 1.1443-.302.3029-.711.4711-1.139.4711h-3.715c-.427 0-.841-.1682-1.143-.4711-.303-.3029-.471-.7164-.471-1.1443zm-10.486 0c0-.4279.168-.8414.471-1.1443.302-.3029.716-.4711 1.143-.4711h3.855c.427 0 .841.1682 1.143.4711.303.3029.471.7164.471 1.1443v10.7502c0 1.3414-.226 2.4953-.682 3.4713-.452.9711-1.081 1.7788-1.884 2.423s-1.764 1.1154-2.888 1.4183c-1.125.3029-2.355.4519-3.696.4519-1.36 0-2.609-.149-3.744-.4519-1.129-.3029-2.1-.7741-2.902-1.4183-.803-.6442-1.432-1.4519-1.884-2.423-.452-.976-.678-2.1299-.678-3.4713v-10.7502c0-.4279.168-.8414.471-1.1443s.711-.4711 1.139-.4711h3.859c.428 0 .836.1682 1.139.4711s.471.7164.471 1.1443v10.6348c0 1.4567.702 2.1827 2.1 2.1827 1.399 0 2.096-.726 2.096-2.1827zm-30.916 18.2311c-.4277 0-.8381-.1683-1.1409-.4711-.3023-.3029-.4724-.7164-.4724-1.1443v-16.6109c0-.4279.1701-.8413.4724-1.1442.3028-.2981.7132-.4712 1.1409-.4712h8.5586c2.7201 0 4.7102.4904 5.9645 1.476 1.2539.9807 1.8839 2.476 1.8839 4.4761 0 .4567-.077.8749-.226 1.2644-.154.3846-.341.726-.567 1.0193-.226.2932-.471.548-.7353.7643-.2643.2164-.5142.3847-.7401.4953.3604.1538.7064.3654 1.038.6394.3264.2741.6154.5914.8604.9471.245.3606.442.7549.581 1.1779.145.4231.212.8751.212 1.3462 0 2.1347-.683 3.7068-2.0522 4.7212-1.3697 1.0096-3.3482 1.5145-5.9361 1.5145zm9.0118-13.6637c0-.2981-.0899-.5913-.2691-.875-.1793-.2836-.4768-.4279-.8925-.4279h-2.3798v2.5818h2.3798c.4157 0 .7132-.1395.8925-.4135.1792-.274.2691-.5625.2691-.8654zm-3.5414 8.7887h2.635c.472 0 .8074-.1491 1.0059-.452.198-.3029.297-.6154.297-.9375 0-.3414-.1086-.6539-.3254-.9472-.2172-.2933-.5435-.4423-.9775-.4423h-2.635z" fill="#fcf5eb"/></g></svg>