<svg fill="none" height="78" viewBox="0 0 78 78" width="78" xmlns="http://www.w3.org/2000/svg"><path clip-rule="evenodd" d="m0 4.76884c0-1.2647.502346-2.47788 1.3968-3.37204.89416-.894454 2.10734-1.3968 3.37204-1.3968h12.32946c1.2647 0 2.4779.502346 3.3721 1.3968.8944.89416 1.3968 2.10734 1.3968 3.37204v12.32946c0 1.2647-.5024 2.4779-1.3968 3.3721-.8942.8944-2.1074 1.3968-3.3721 1.3968h-12.32946c-1.2647 0-2.47788-.5024-3.37204-1.3968-.894454-.8942-1.3968-2.1074-1.3968-3.3721zm24.8627-3.34178c0-.788119.6389-1.42706 1.427-1.42706h6.432c.3783 0 .7414.150374 1.0092.417873.2675.267798.4178.630857.4178 1.009187v.14139c0 .78811-.6389 1.42705-1.427 1.42705-.9484 0-2.1885 0-3.1369 0-.7881 0-1.4271.63894-1.4271 1.42706v3.43644c0 .78812-.6389 1.42706-1.427 1.42706-.1462 0-.2948 0-.441 0-.7881 0-1.427-.63894-1.427-1.42706zm12.5811 0c0-.37833.1504-.741389.4179-1.009187.2678-.267499.6308-.417873 1.0092-.417873h.1413c.3784 0 .7414.150374 1.0092.417873.2675.267798.4179.630857.4179 1.009187v.14139c0 .37833-.1504.74138-.4179 1.00918-.2678.2675-.6308.41787-1.0092.41787h-.1413c-.3784 0-.7414-.15037-1.0092-.41787-.2675-.2678-.4179-.63085-.4179-1.00918zm6.2905 0c0-.37833.1504-.741389.4179-1.009187.2678-.267499.6309-.417873 1.0092-.417873h.1414c.3783 0 .7414.150374 1.0092.417873.2675.267798.4179.630857.4179 1.009187v.14139c0 .37833-.1504.74138-.4179 1.00918-.2678.2675-.6309.41787-1.0092.41787h-.1414c-.3783 0-.7414-.15037-1.0092-.41787-.2675-.2678-.4179-.63085-.4179-1.00918zm12.2816 3.34178c0-1.2647.5024-2.47788 1.3968-3.37204.8942-.894454 2.1073-1.3968 3.3721-1.3968h12.3294c1.2647 0 2.4779.502346 3.3721 1.3968.8944.89416 1.3968 2.10734 1.3968 3.37204v12.32946c0 1.2647-.5024 2.4779-1.3968 3.3721-.8942.8944-2.1074 1.3968-3.3721 1.3968h-12.3294c-1.2648 0-2.4779-.5024-3.3721-1.3968-.8944-.8942-1.3968-2.1074-1.3968-3.3721zm-50.00303-1.77334c-1.66639 0-3.01737 1.35098-3.01737 3.01737v9.54183c0 1.6664 1.35098 3.0174 3.01737 3.0174h9.54183c1.6664 0 3.0174-1.351 3.0174-3.0174v-9.54183c0-1.66639-1.351-3.01737-3.0174-3.01737zm43.71253 1.42706c0-.78812.6389-1.42706 1.427-1.42706h.4409c.3784 0 .7414.15038 1.0092.41788.2675.26779.4179.63085.4179 1.00918v16.01754c0 .3783-.1504.7414-.4179 1.0092-.2678.2675-.6308.4179-1.0092.4179h-.4409c-.7881 0-1.427-.639-1.427-1.4271 0-2.4212 0-7.3057 0-9.727 0-.7881-.639-1.42704-1.4271-1.42704-.047 0-.0944 0-.1414 0-.3783 0-.7414-.15037-1.0092-.41787-.2675-.2678-.4178-.63086-.4178-1.00919v-.14139c0-.37833.1503-.74138.4178-1.00918.2678-.2675.6309-.41787 1.0092-.41787h.1414c.3783 0 .7414-.15038 1.0092-.41788.2675-.26779.4179-.63085.4179-1.00918 0-.14618 0-.29476 0-.44094zm12.6029-1.42706c-1.6664 0-3.0173 1.35098-3.0173 3.01737v9.54183c0 1.6664 1.3509 3.0174 3.0173 3.0174h9.5419c1.6664 0 3.0174-1.351 3.0174-3.0174v-9.54183c0-1.66639-1.351-3.01737-3.0174-3.01737zm-56.03774 6.31243c0-1.6664 1.35097-3.01737 3.01737-3.01737h3.25127c1.6664 0 3.0174 1.35097 3.0174 3.01737v3.25127c0 1.6664-1.351 3.0174-3.0174 3.0174h-3.25127c-1.6664 0-3.01737-1.351-3.01737-3.0174zm24.86264-1.59032c0-.37833.1504-.74138.4179-1.00918.2678-.2675.6309-.41787 1.0092-.41787h.1414c.3783 0 .7414.15037 1.0092.41787.2675.2678.4178.63085.4178 1.00918v.14139c0 .37833-.1503.74139-.4178 1.00919-.2678.2675-.6309.41787-1.0092.41787h-.1414c-.3783 0-.7414-.15037-1.0092-.41787-.2675-.2678-.4179-.63086-.4179-1.00919zm6.2906 0c0-.78811.6389-1.42705 1.4271-1.42705h3.4364c.7881 0 1.427.63894 1.427 1.42705v3.43649c0 .7881.639 1.427 1.4271 1.427h.1414c.3783 0 .7414.1504 1.0092.4179.2675.2678.4179.6308.4179 1.0092v.1414c0 .7881-.639 1.427-1.4271 1.427-1.0278 0-2.4087 0-3.4364 0-.7882 0-1.4271-.6389-1.4271-1.427v-3.4365c0-.7881-.6389-1.42704-1.4271-1.42704-.047 0-.0943 0-.1413 0-.3784 0-.7414-.15037-1.0092-.41787-.2675-.2678-.4179-.63086-.4179-1.00919zm24.8627 1.59032c0-1.6664 1.3509-3.01737 3.0173-3.01737h3.2514c1.6664 0 3.0173 1.35097 3.0173 3.01737v3.25127c0 1.6664-1.3509 3.0174-3.0173 3.0174h-3.2514c-1.6664 0-3.0173-1.351-3.0173-3.0174zm-37.4438 4.70027c0-.3784.1504-.7414.4178-1.0092.2678-.2675.6309-.4179 1.0092-.4179h.441c.3783 0 .7414.1504 1.0092.4179.2675.2678.4178.6308.4178 1.0092v.1414c0 .3783-.1503.7413-.4178 1.0091-.2678.2675-.6309.4179-1.0092.4179-.1462 0-.2948 0-.441 0-.3783 0-.7414-.1504-1.0092-.4179-.2674-.2678-.4178-.6308-.4178-1.0091 0-.0471 0-.0944 0-.1414zm6.2905 2.9955c0-.7881.639-1.4271 1.4271-1.4271h6.4319c.7882 0 1.4271.639 1.4271 1.4271v3.4364c0 .7881.6389 1.4271 1.4271 1.4271h.4409c.3783 0 .7414.1503 1.0092.4178.2675.2678.4178.6309.4178 1.0092v.1414c0 .7881-.6389 1.4271-1.427 1.4271-1.812 0-4.9195 0-6.7315 0-.7881 0-1.4271-.639-1.4271-1.4271 0-.047 0-.0943 0-.1414 0-.3783.1504-.7414.4179-1.0092.2678-.2675.6309-.4178 1.0092-.4178h.4409c.7881 0 1.4271-.639 1.4271-1.4271v-.4409c0-.7881-.639-1.4271-1.4271-1.4271h-.4409c-.7881 0-1.4271.639-1.4271 1.4271v.4409c0 .3783-.1503.7414-.4178 1.0092-.2678.2675-.6309.4179-1.0092.4179-.0471 0-.0944 0-.1414 0-.7881 0-1.4271-.639-1.4271-1.4271 0-1.0277 0-2.4087 0-3.4364zm-6.2905 2.9955c0-.7881.6389-1.4271 1.427-1.4271h.441c.7881 0 1.427.639 1.427 1.4271v.4409c0 .7881-.6389 1.4271-1.427 1.4271h-.441c-.7881 0-1.427-.639-1.427-1.4271zm18.8716 0c0-.3784.1504-.7414.4179-1.0092.2678-.2675.6309-.4179 1.0092-.4179h.1414c.3783 0 .7414.1504 1.0092.4179.2675.2678.4179.6308.4179 1.0092v.4409c0 .3783-.1504.7414-.4179 1.0092-.2678.2675-.6309.4179-1.0092.4179-.047 0-.0944 0-.1414 0-.3783 0-.7414-.1504-1.0092-.4179-.2675-.2678-.4179-.6309-.4179-1.0092 0-.1462 0-.2947 0-.4409zm-15.5766 3.295c0-.3783.1504-.7414.4179-1.0092.2678-.2675.6309-.4178 1.0092-.4178h.1414c.3783 0 .7414.1503 1.0092.4178.2675.2678.4178.6309.4178 1.0092v.1414c0 .3784.1504.7414.4179 1.0092.2678.2675.6309.4179 1.0092.4179h.1414c.7881 0 1.427.6389 1.427 1.427v3.4365c0 .7881.639 1.427 1.4271 1.427h.4409c.3784 0 .7414.1504 1.0092.4179.2675.2678.4179.6309.4179 1.0092v.1414c0 .3783-.1504.7414-.4179 1.0092-.2678.2675-.6308.4178-1.0092.4178-.1461 0-.2947 0-.4409 0-.7881 0-1.4271.639-1.4271 1.4271v.4409c0 .3784-.1503.7414-.4178 1.0092-.2678.2675-.6309.4179-1.0092.4179-.0471 0-.0944 0-.1414 0-.3783 0-.7414.1504-1.0092.4179-.2675.2678-.4179.6308-.4179 1.0092v6.4319c0 .3783.1504.7414.4179 1.0092.2678.2675.6309.4179 1.0092.4179h.1414c.3783 0 .7414-.1504 1.0092-.4179.2675-.2678.4178-.6309.4178-1.0092v-.1414c0-.7881.639-1.4271 1.4271-1.4271h3.4364c.7882 0 1.4271.639 1.4271 1.4271v.1414c0 .3783-.1504.7414-.4179 1.0092-.2678.2675-.6308.4179-1.0092.4179h-.1413c-.3784 0-.7414.1503-1.0092.4178-.2675.2678-.4179.6309-.4179 1.0092v.1414c0 .3783-.1504.7414-.4179 1.0092-.2678.2675-.6308.4179-1.0092.4179-.1461 0-.2947 0-.4409 0-.7881 0-1.4271.6389-1.4271 1.427v.4409c0 .7882.639 1.4271 1.4271 1.4271h.4409c.7881 0 1.4271-.6389 1.4271-1.4271v-.4409c0-.7881.6389-1.427 1.4271-1.427h3.4364c.7881 0 1.427.6389 1.427 1.427v.4409c0 .7882-.6389 1.4271-1.427 1.4271h-.4409c-.3784 0-.7414.1504-1.0092.4179-.2675.2678-.4179.6308-.4179 1.0092v.1414c0 .3783-.1504.7413-.4179 1.0091-.2678.2675-.6308.4179-1.0092.4179h-.1413c-.7882 0-1.4271.639-1.4271 1.4271v3.4364c0 .7881.6389 1.4271 1.4271 1.4271h.1413c.3784 0 .7414.1503 1.0092.4178.2675.2678.4179.6309.4179 1.0092v.1414c0 .3783.1504.7414.4179 1.0092.2678.2675.6308.4179 1.0092.4179h.4409c.3783 0 .7414-.1504 1.0092-.4179.2675-.2678.4178-.6309.4178-1.0092 0-.047 0-.0943 0-.1414 0-.3783.1504-.7414.4179-1.0092.2678-.2675.6309-.4178 1.0092-.4178h.1414c.3783 0 .7414-.1504 1.0092-.4179.2675-.2678.4179-.6309.4179-1.0092v-.1414c0-.3783.1503-.7414.4178-1.0092.2678-.2675.6309-.4178 1.0092-.4178h.1414c.7881 0 1.4271-.639 1.4271-1.4271 0-1.812 0-4.9195 0-6.7315 0-.7881.6389-1.427 1.427-1.427h6.7315c.7881 0 1.4271-.639 1.4271-1.4271 0-.047 0-.0944 0-.1414 0-.3783.1503-.7414.4178-1.0092.2678-.2675.6309-.4178 1.0092-.4178h.1414c.3783 0 .7414.1503 1.0092.4178.2675.2678.4179.6309.4179 1.0092v.1414c0 .3783.1503.7414.4178 1.0092.2678.2675.6309.4179 1.0092.4179h.1414c.3783 0 .7414.1503 1.0092.4178.2675.2678.4179.6309.4179 1.0092v12.7225c0 .7881-.639 1.4271-1.4271 1.4271-.9484 0-2.1885 0-3.1369 0-.7881 0-1.427.6389-1.427 1.427v.441c0 .7881-.639 1.427-1.4271 1.427h-.4409c-.3784 0-.7414.1504-1.0092.4179-.2675.2678-.4179.6309-.4179 1.0092v.1414c0 .3783-.1504.7414-.4179 1.0092-.2678.2675-.6308.4178-1.0091.4178h-.1414c-.3784 0-.7414-.1503-1.0092-.4178-.2675-.2678-.4179-.6309-.4179-1.0092v-.1414c0-.3783-.1504-.7414-.4179-1.0092-.2678-.2675-.6308-.4179-1.0092-.4179-.1461 0-.2947 0-.4409 0-.3783 0-.7414.1504-1.0092.4179-.2675.2678-.4178.6309-.4178 1.0092v.1414c0 .3783-.1504.7414-.4179 1.0092-.2678.2675-.6309.4178-1.0092.4178h-.1414c-.3783 0-.7414-.1503-1.0092-.4178-.2675-.2678-.4178-.6309-.4178-1.0092v-.1414c0-.3783-.1504-.7414-.4179-1.0092-.2678-.2675-.6309-.4179-1.0092-.4179h-.1414c-.3783 0-.7414.1504-1.0092.4179-.2675.2678-.4179.6309-.4179 1.0092v.1414c0 .3783-.1503.7414-.4178 1.0092-.2678.2675-.6309.4178-1.0092.4178-.1462 0-.2948 0-.4409 0-.3784 0-.7414-.1503-1.0092-.4178-.2675-.2678-.4179-.6309-.4179-1.0092 0-.0471 0-.0944 0-.1414 0-.3783-.1504-.7414-.4179-1.0092-.2678-.2675-.6308-.4179-1.0092-.4179h-.1413c-.7882 0-1.4271.639-1.4271 1.4271v3.4364c0 .7881-.639 1.4271-1.4271 1.4271-.1461 0-.2947 0-.4409 0-.3783 0-.7414.1504-1.0092.4179-.2675.2677-.4179.6308-.4179 1.0091v.1414c0 .3784-.1503.7414-.4178 1.0092-.2678.2675-.6309.4179-1.0092.4179h-.1414c-.3783 0-.7414-.1504-1.0092-.4179-.2675-.2678-.4179-.6308-.4179-1.0092v-.1414c0-.3783-.1503-.7414-.4178-1.0091-.2678-.2675-.6309-.4179-1.0092-.4179h-.1414c-.3783 0-.7414-.1504-1.0092-.4179-.2675-.2678-.4179-.6308-.4179-1.0092 0-.1462 0-.2947 0-.4409 0-.3783.1504-.7414.4179-1.0092.2678-.2675.6309-.4179 1.0092-.4179h.1414c.3783 0 .7414-.1503 1.0092-.4178.2675-.2678.4178-.6309.4178-1.0092v-.1414c0-.3783.1504-.7414.4179-1.0092.2678-.2675.6309-.4179 1.0092-.4179h.1414c.3783 0 .7414-.1504 1.0092-.4178.2675-.2678.4178-.6309.4178-1.0092 0-1.7464 0-4.6856 0-6.432 0-.3783-.1503-.7414-.4178-1.0092-.2678-.2675-.6309-.4178-1.0092-.4178-.0471 0-.0944 0-.1414 0-.7881 0-1.4271-.639-1.4271-1.4271 0-1.812 0-4.9195 0-6.7315 0-.7881-.6389-1.427-1.427-1.427-.0471 0-.0944 0-.1414 0-.3783 0-.7414-.1504-1.0092-.4179-.2675-.2678-.4179-.6309-.4179-1.0092v-.1414c0-.3783-.1503-.7414-.4178-1.0092-.2678-.2675-.6309-.4178-1.0092-.4178-.1462 0-.2948 0-.441 0-.3783 0-.7414-.1504-1.0092-.4179-.2674-.2678-.4178-.6309-.4178-1.0092 0-.047 0-.0944 0-.1414 0-.3783.1504-.7414.4178-1.0092.2678-.2675.6309-.4179 1.0092-.4179h.441c.7881 0 1.427-.6389 1.427-1.427 0-1.0278 0-2.4087 0-3.4364 0-.7882-.6389-1.4271-1.427-1.4271h-3.4365c-.7881 0-1.427-.639-1.427-1.4271 0-.1461 0-.2947 0-.4409 0-.7881-.639-1.4271-1.4271-1.4271h-.4409c-.7881 0-1.4271.639-1.4271 1.4271v.4409c0 .7881.639 1.4271 1.4271 1.4271h.4409c.3783 0 .7414.1504 1.0092.4179.2675.2678.4179.6308.4179 1.0092v.1413c0 .3784-.1504.7414-.4179 1.0092-.2678.2675-.6309.4179-1.0092.4179-.1462 0-.2947 0-.4409 0-.7881 0-1.4271.6389-1.4271 1.4271v.4409c0 .3783-.1504.7414-.4179 1.0092-.2677.2675-.6308.4178-1.0091.4178-.0471 0-.0944 0-.1414 0-.7881 0-1.4271-.6389-1.4271-1.427 0-2.4213 0-7.3057 0-9.727 0-.7881-.6389-1.4271-1.427-1.4271-.0471 0-.0944 0-.1414 0-.3784 0-.7414-.1503-1.0092-.4178-.2675-.2678-.4179-.6309-.4179-1.0092v-.1414c0-.3783-.1504-.7414-.4179-1.0092-.2678-.2675-.6308-.4179-1.0091-.4179-.1462 0-.2948 0-.441 0-.7881 0-1.42704-.6389-1.42704-1.427v-.441c0-.3783.15037-.7414.41787-1.0092.2678-.2674.63087-.4178 1.00917-.4178h16.0176c.3783 0 .7414-.1504 1.0092-.4179.2675-.2678.4178-.6308.4178-1.0092 0-.047 0-.0943 0-.1414zm-28.1577 2.9955c0-.3783.150374-.7414.417873-1.0092.267798-.2674.630857-.4178 1.009187-.4178h.14139c.37833 0 .74138.1504 1.00918.4178.2675.2678.41787.6309.41787 1.0092v.441c0 .3783-.15037.7414-.41787 1.0092-.2678.2675-.63085.4178-1.00918.4178-.04703 0-.09436 0-.14139 0-.37833 0-.741389-.1503-1.009187-.4178-.267499-.2678-.417873-.6309-.417873-1.0092 0-.1462 0-.2948 0-.441zm43.7343 0c0-.7881.639-1.427 1.4271-1.427h3.1369c.7881 0 1.4271.6389 1.4271 1.427v3.4365c0 .7881.6389 1.427 1.427 1.427h.4409c.3784 0 .7414.1504 1.0092.4179.2675.2678.4179.6309.4179 1.0092v.1414c0 .3783-.1504.7414-.4179 1.0092-.2678.2675-.6308.4178-1.0092.4178-.1461 0-.2947 0-.4409 0-.7881 0-1.427.639-1.427 1.4271v.4409c0 .3784-.1504.7414-.4179 1.0092-.2678.2675-.6309.4179-1.0092.4179-.047 0-.0944 0-.1414 0-.3783 0-.7414.1504-1.0092.4179-.2675.2678-.4178.6308-.4178 1.0092v.1413c0 .3784.1503.7414.4178 1.0092.2678.2675.6309.4179 1.0092.4179h.1414c.3783 0 .7414-.1504 1.0092-.4179.2675-.2678.4179-.6308.4179-1.0092v-.1413c0-.3784.1503-.7414.4178-1.0092.2678-.2675.6309-.4179 1.0092-.4179h.4409c.7882 0 1.4271.6389 1.4271 1.4271v3.4364c0 .7881.639 1.427 1.4271 1.427h3.4364c.7881 0 1.4271.639 1.4271 1.4271v.1414c0 .7881-.639 1.4271-1.4271 1.4271-2.4213 0-7.3057 0-9.727 0-.7881 0-1.427.6389-1.427 1.427v.1414c0 .3783-.1504.7414-.4179 1.0092-.2678.2675-.6309.4179-1.0092.4179h-.1414c-.3783 0-.7414-.1504-1.0092-.4179-.2675-.2678-.4179-.6309-.4179-1.0092 0-2.9644 0-9.7582 0-12.7225 0-.7881-.6389-1.4271-1.427-1.4271h-.4409c-.3784 0-.7414-.1503-1.0092-.4178-.2675-.2678-.4179-.6309-.4179-1.0092 0-.0471 0-.0944 0-.1414 0-.3783.1504-.7414.4179-1.0092.2678-.2675.6308-.4179 1.0092-.4179h.4409c.7881 0 1.427-.6389 1.427-1.427 0-1.0278 0-2.4087 0-3.4365zm9.2861 0c0-.7881.639-1.427 1.4271-1.427h.1414c.7881 0 1.427.6389 1.427 1.427v3.4365c0 .7881-.6389 1.427-1.427 1.427-.0471 0-.0944 0-.1414 0-.7881 0-1.4271-.6389-1.4271-1.427 0-1.0278 0-2.4087 0-3.4365zm9.2861 0c0-.3783.1503-.7414.4178-1.0092.2678-.2674.6309-.4178 1.0092-.4178h.1414c.3783 0 .7414.1504 1.0092.4178.2675.2678.4179.6309.4179 1.0092v.441c0 .7881.6389 1.427 1.427 1.427h.441c.7881 0 1.427-.6389 1.427-1.427v-.441c0-.7881.639-1.427 1.4271-1.427h6.4319c.7881 0 1.4271.6389 1.4271 1.427v.441c0 .3783-.1504.7414-.4179 1.0092-.2678.2675-.6308.4178-1.0092.4178-.047 0-.0943 0-.1414 0-.3783 0-.7414.1504-1.0091.4179-.2675.2678-.4179.6309-.4179 1.0092v.1414c0 .7881-.639 1.427-1.4271 1.427-1.0277 0-2.4087 0-3.4364 0-.7881 0-1.4271.639-1.4271 1.4271v.1414c0 .7881.639 1.427 1.4271 1.427h3.4364c.7881 0 1.4271-.6389 1.4271-1.427 0-.0471 0-.0944 0-.1414 0-.3783.1504-.7414.4179-1.0092.2677-.2675.6308-.4179 1.0091-.4179h.1414c.3784 0 .7414.1504 1.0092.4179.2675.2678.4179.6309.4179 1.0092v6.4319c0 .3784-.1504.7414-.4179 1.0092-.2678.2675-.6308.4179-1.0092.4179-.047 0-.0943 0-.1414 0-.3783 0-.7414-.1504-1.0091-.4179-.2675-.2678-.4179-.6308-.4179-1.0092v-.1413c0-.7882-.639-1.4271-1.4271-1.4271-1.812 0-4.9195 0-6.7315 0-.7881 0-1.427-.639-1.427-1.4271 0-1.0277 0-2.4087 0-3.4364 0-.7881-.639-1.4271-1.4271-1.4271-.9484 0-2.1885 0-3.1369 0-.7881 0-1.427-.6389-1.427-1.427 0-.0471 0-.0944 0-.1414 0-.3783.1503-.7414.4178-1.0092.2678-.2675.6309-.4179 1.0092-.4179h.1414c.3783 0 .7414-.1503 1.0092-.4178.2675-.2678.4179-.6309.4179-1.0092 0-.1462 0-.2948 0-.441zm-42.3073 1.868c-.7881 0-1.4271.639-1.4271 1.4271v.1414c0 .7881.639 1.427 1.4271 1.427h3.4364c.7881 0 1.4271.639 1.4271 1.4271v.1414c0 .7881.6389 1.427 1.427 1.427h3.4365c.7881 0 1.427-.6389 1.427-1.427 0-.9484 0-2.1885 0-3.1369 0-.7881-.6389-1.4271-1.427-1.4271-2.4213 0-7.3058 0-9.727 0zm17.4446 1.4271c0-.3783.1504-.7414.4179-1.0092.2678-.2675.6308-.4179 1.0092-.4179h.1413c.3784 0 .7414.1504 1.0092.4179.2675.2678.4179.6309.4179 1.0092v.1414c0 .3783-.1504.7414-.4179 1.0092-.2678.2675-.6308.4178-1.0092.4178h-.1413c-.3784 0-.7414-.1503-1.0092-.4178-.2675-.2678-.4179-.6309-.4179-1.0092zm-37.4438 2.9955c0-.3783.150374-.7414.417873-1.0092.267798-.2675.630857-.4179 1.009187-.4179h.14139c.37833 0 .74138.1504 1.00918.4179.2675.2678.41787.6309.41787 1.0092v.1414c0 .3783-.15037.7414-.41787 1.0092-.2678.2675-.63085.4178-1.00918.4178h-.14139c-.37833 0-.741389-.1503-1.009187-.4178-.267499-.2678-.417873-.6309-.417873-1.0092zm6.29056 0c0-.7881.63894-1.4271 1.42705-1.4271h3.43649c.7881 0 1.427.639 1.427 1.4271v.1414c0 .3783-.1504.7414-.4179 1.0092-.2678.2675-.6308.4178-1.0091.4178-.1462 0-.2948 0-.441 0-.7881 0-1.42704.639-1.42704 1.4271v.4409c0 .7881-.63894 1.4271-1.42706 1.4271-1.02775 0-2.40868 0-3.43644 0-.78812 0-1.42706-.639-1.42706-1.4271 0-.1461 0-.2947 0-.4409 0-.7881.63894-1.4271 1.42706-1.4271h.44094c.37833 0 .74139-.1503 1.00918-.4178.2675-.2678.41788-.6309.41788-1.0092 0-.0471 0-.0944 0-.1414zm49.72534 0c0-.7881.639-1.4271 1.4271-1.4271h.4409c.7881 0 1.4271.639 1.4271 1.4271v3.4364c0 .7881.6389 1.4271 1.427 1.4271h.1414c.3783 0 .7414.1504 1.0092.4179.2675.2678.4179.6308.4179 1.0092v.1413c0 .7882-.639 1.4271-1.4271 1.4271-1.0277 0-2.4087 0-3.4364 0-.7881 0-1.4271-.6389-1.4271-1.4271 0-1.7463 0-4.6855 0-6.4319zm-46.72984 6.2906c0-.3784.15037-.7414.41787-1.0092.2678-.2675.63087-.4179 1.00917-.4179h.441c.3783 0 .7413.1504 1.0091.4179.2675.2678.4179.6308.4179 1.0092v.1413c0 .3784-.1504.7414-.4179 1.0092-.2678.2675-.6308.4179-1.0091.4179-.1462 0-.2948 0-.441 0-.3783 0-.74137-.1504-1.00917-.4179-.2675-.2678-.41787-.6308-.41787-1.0092 0-.047 0-.0943 0-.1413zm28.15774 0c0-.3784.1504-.7414.4179-1.0092.2678-.2675.6308-.4179 1.0092-.4179h.1413c.3784 0 .7414.1504 1.0092.4179.2675.2678.4179.6308.4179 1.0092v.1413c0 .3784-.1504.7414-.4179 1.0092-.2678.2675-.6308.4179-1.0092.4179h-.1413c-.3784 0-.7414-.1504-1.0092-.4179-.2675-.2678-.4179-.6308-.4179-1.0092zm-37.4438 2.9955c0-.7882.638941-1.4271 1.42706-1.4271h3.43644c.78812 0 1.42706.6389 1.42706 1.4271v.4409c0 .7881.63894 1.427 1.42705 1.427h6.43199c.3783 0 .7413.1504 1.0091.4179.2675.2678.4179.6309.4179 1.0092v.1414c0 .3783.1504.7414.4179 1.0092.2678.2675.6308.4179 1.0092.4179h.1414c.3783 0 .7414.1503 1.0091.4178.2675.2678.4179.6309.4179 1.0092v.1414c0 .3783-.1504.7414-.4179 1.0092-.2677.2675-.6308.4179-1.0091.4179h-.1414c-.3784 0-.7414.1503-1.0092.4178-.2675.2678-.4179.6309-.4179 1.0092v.4409c0 .7882-.6389 1.4271-1.427 1.4271-1.0278 0-2.4087 0-3.4365 0-.7881 0-1.42704-.6389-1.42704-1.4271 0-.1461 0-.2947 0-.4409 0-.7881.63894-1.427 1.42704-1.427h.441c.3783 0 .7413-.1504 1.0091-.4179.2675-.2678.4179-.6309.4179-1.0092 0-.047 0-.0944 0-.1414 0-.3783-.1504-.7414-.4179-1.0092-.2678-.2675-.6308-.4178-1.0091-.4178-.1462 0-.2948 0-.441 0-.3783 0-.74137.1503-1.00917.4178-.2675.2678-.41787.6309-.41787 1.0092v.1414c0 .3783-.15037.7414-.41787 1.0092-.2678.2675-.63086.4179-1.00919.4179h-.14139c-.37833 0-.74138-.1504-1.00918-.4179-.2675-.2678-.41787-.6309-.41787-1.0092v-.1414c0-.3783-.15038-.7414-.41788-1.0092-.26779-.2675-.63085-.4178-1.00918-.4178-.14618 0-.29476 0-.44094 0-.78812 0-1.42706.6389-1.42706 1.427v3.4364c0 .7882-.63894 1.4271-1.42705 1.4271-.04703 0-.09436 0-.14139 0-.788119 0-1.42706-.6389-1.42706-1.4271 0-2.4212 0-7.3057 0-9.7269zm62.3065 0c0-.7882.6389-1.4271 1.427-1.4271h.1414c.3783 0 .7414.1504 1.0092.4179.2675.2678.4179.6308.4179 1.0092v.4409c0 .7881.6389 1.427 1.427 1.427h3.4365c.7881 0 1.427-.6389 1.427-1.427 0-.1462 0-.2948 0-.4409 0-.7882.639-1.4271 1.4271-1.4271h.4409c.7881 0 1.4271.6389 1.4271 1.4271v.4409c0 .3783.1504.7414.4179 1.0092.2677.2675.6308.4178 1.0091.4178h.1414c.7881 0 1.4271.639 1.4271 1.4271v3.1369c0 .7881-.639 1.4271-1.4271 1.4271-.047 0-.0943 0-.1414 0-.3783 0-.7414-.1504-1.0091-.4179-.2675-.2678-.4179-.6309-.4179-1.0092v-.1414c0-.3783-.1504-.7414-.4179-1.0092-.2678-.2675-.6308-.4178-1.0092-.4178-.1462 0-.2947 0-.4409 0-.3783 0-.7414.1503-1.0092.4178-.2675.2678-.4179.6309-.4179 1.0092v.1414c0 .3783.1504.7414.4179 1.0092.2678.2675.6309.4179 1.0092.4179h.4409c.7881 0 1.4271.6389 1.4271 1.427v3.4365c0 .7881-.639 1.427-1.4271 1.427h-3.4364c-.7881 0-1.4271-.6389-1.4271-1.427v-3.4365c0-.7881-.6389-1.427-1.427-1.427-.1462 0-.2948 0-.441 0-.3783 0-.7414-.1504-1.0092-.4179-.2675-.2678-.4178-.6309-.4178-1.0092 0-.047 0-.0944 0-.1414 0-.3783-.1504-.7414-.4179-1.0092-.2678-.2675-.6309-.4178-1.0092-.4178h-.1414c-.7881 0-1.427-.639-1.427-1.4271 0-1.0278 0-2.4087 0-3.4364zm-43.7344 3.295c0-.3783.1504-.7414.4179-1.0092.2678-.2675.6308-.4179 1.0092-.4179h.4409c.3783 0 .7414.1504 1.0092.4179.2675.2678.4179.6309.4179 1.0092v.1414c0 .3783-.1504.7414-.4179 1.0092-.2678.2675-.6309.4179-1.0092.4179-.1462 0-.2947 0-.4409 0-.3784 0-.7414-.1504-1.0092-.4179-.2675-.2678-.4179-.6309-.4179-1.0092 0-.047 0-.0944 0-.1414zm0 5.991c0-.7881.639-1.427 1.4271-1.427h.4409c.7881 0 1.4271.6389 1.4271 1.427v.4409c0 .7882-.639 1.4271-1.4271 1.4271h-.4409c-.7881 0-1.4271-.6389-1.4271-1.4271zm6.2906 0c0-.3783.1504-.7414.4178-1.0092.2678-.2675.6309-.4178 1.0092-.4178h.441c.7881 0 1.427.6389 1.427 1.427v6.7315c0 .7881.639 1.4271 1.4271 1.4271h.1414c.3783 0 .7414.1503 1.0092.4178.2675.2678.4178.6309.4178 1.0092v.1414c0 .3783-.1503.7414-.4178 1.0092-.2678.2675-.6309.4179-1.0092.4179h-.1414c-.3783 0-.7414.1503-1.0092.4178-.2675.2678-.4179.6309-.4179 1.0092v.1414c0 .3783.1504.7414.4179 1.0092.2678.2675.6309.4179 1.0092.4179h.1414c.3783 0 .7414.1503 1.0092.4178.2675.2678.4178.6309.4178 1.0092v.441c0 .7881-.6389 1.427-1.427 1.427-1.0278 0-2.4087 0-3.4365 0-.7881 0-1.427-.6389-1.427-1.427 0-3.5063 0-12.5113 0-16.0176zm29.5848 1.868c-.7881 0-1.4271.639-1.4271 1.4271v6.4319c0 .7881.639 1.4271 1.4271 1.4271h6.4319c.7881 0 1.4271-.639 1.4271-1.4271v-6.4319c0-.7881-.639-1.4271-1.4271-1.4271zm-54.4475 7.7644c0-1.2648.502346-2.4779 1.3968-3.3721.89416-.8944 2.10734-1.3968 3.37204-1.3968h12.32946c1.2647 0 2.4779.5024 3.3721 1.3968.8944.8942 1.3968 2.1073 1.3968 3.3721v12.3294c0 1.2647-.5024 2.4779-1.3968 3.3721-.8942.8944-2.1074 1.3968-3.3721 1.3968h-12.32946c-1.2647 0-2.47788-.5024-3.37204-1.3968-.894454-.8942-1.3968-2.1074-1.3968-3.3721zm43.7343-3.3418c0-.3784.1504-.7414.4179-1.0092.2678-.2675.6309-.4179 1.0092-.4179h.1414c.3783 0 .7414.1504 1.0092.4179.2675.2678.4179.6308.4179 1.0092v.4409c0 .3783-.1504.7414-.4179 1.0092-.2678.2675-.6309.4179-1.0092.4179-.047 0-.0944 0-.1414 0-.3783 0-.7414-.1504-1.0092-.4179-.2675-.2678-.4179-.6309-.4179-1.0092 0-.1462 0-.2947 0-.4409zm12.2816 0c0-.7881.639-1.4271 1.4271-1.4271h.4409c.7881 0 1.4271.639 1.4271 1.4271v.4409c0 .7881-.639 1.4271-1.4271 1.4271h-.4409c-.7881 0-1.4271-.639-1.4271-1.4271zm18.8717 0c0-.3784.1504-.7414.4179-1.0092.2677-.2675.6308-.4179 1.0091-.4179h.1414c.7881 0 1.4271.639 1.4271 1.4271v3.4364c0 .7881-.639 1.4271-1.4271 1.4271h-3.4364c-.7881 0-1.4271-.639-1.4271-1.4271 0-.047 0-.0943 0-.1414 0-.3783.1504-.7414.4179-1.0092.2678-.2675.6309-.4178 1.0092-.4178h.4409c.7881 0 1.4271-.639 1.4271-1.4271zm-68.87473 1.868c-1.66639 0-3.01737 1.3509-3.01737 3.0173v9.5419c0 1.6664 1.35098 3.0174 3.01737 3.0174h9.54183c1.6664 0 3.0174-1.351 3.0174-3.0174v-9.5419c0-1.6664-1.351-3.0173-3.0174-3.0173zm34.42643 1.427c0-.3783.1504-.7414.4179-1.0092.2678-.2675.6308-.4178 1.0092-.4178h.4409c.3783 0 .7414.1503 1.0092.4178.2675.2678.4178.6309.4178 1.0092v.1414c0 .3783-.1503.7414-.4178 1.0092-.2678.2675-.6309.4179-1.0092.4179-.1462 0-.2948 0-.4409 0-.3784 0-.7414-.1504-1.0092-.4179-.2675-.2678-.4179-.6309-.4179-1.0092 0-.047 0-.0943 0-.1414zm-34.14874 4.5858c0-1.6664 1.35097-3.0173 3.01737-3.0173h3.25127c1.6664 0 3.0174 1.3509 3.0174 3.0173v3.2514c0 1.6664-1.351 3.0173-3.0174 3.0173h-3.25127c-1.6664 0-3.01737-1.3509-3.01737-3.0173zm65.30194 1.4052c0-.7881.639-1.427 1.4271-1.427h3.4364c.7881 0 1.4271.6389 1.4271 1.427v9.727c0 .7881-.639 1.4271-1.4271 1.4271-.047 0-.0943 0-.1414 0-.3783 0-.7414-.1504-1.0091-.4179-.2675-.2678-.4179-.6308-.4179-1.0092v-.1414c0-.7881-.639-1.427-1.4271-1.427-1.0277 0-2.4087 0-3.4364 0-.7881 0-1.4271-.639-1.4271-1.4271 0-.1462 0-.2947 0-.4409 0-.7881-.6389-1.4271-1.427-1.4271h-.441c-.7881 0-1.427.639-1.427 1.4271v.4409c0 .7881-.639 1.4271-1.4271 1.4271h-6.4319c-.7881 0-1.4271-.639-1.4271-1.4271v-.4409c0-.7881.639-1.4271 1.4271-1.4271h3.4364c.7881 0 1.4271-.6389 1.4271-1.427 0-.0471 0-.0944 0-.1414 0-.3783.1503-.7414.4178-1.0092.2678-.2675.6309-.4179 1.0092-.4179h6.432c.7881 0 1.427-.6389 1.427-1.427zm-27.8582 6.2906c0-.3783.1504-.7414.4179-1.0092.2678-.2675.6309-.4179 1.0092-.4179h.1414c.3783 0 .7414.1504 1.0092.4179.2675.2678.4179.6309.4179 1.0092v.4409c0 .3784-.1504.7414-.4179 1.0092-.2678.2675-.6309.4179-1.0092.4179-.047 0-.0944 0-.1414 0-.3783 0-.7414-.1504-1.0092-.4179-.2675-.2678-.4179-.6308-.4179-1.0092 0-.1462 0-.2947 0-.4409zm-18.8716 3.295c0-.3783.1504-.7414.4178-1.0091.2678-.2675.6309-.4179 1.0092-.4179h.441c.3783 0 .7414.1504 1.0092.4179.2675.2677.4178.6308.4178 1.0091v.1414c0 .3784-.1503.7414-.4178 1.0092-.2678.2675-.6309.4179-1.0092.4179-.1462 0-.2948 0-.441 0-.3783 0-.7414-.1504-1.0092-.4179-.2674-.2678-.4178-.6308-.4178-1.0092 0-.047 0-.0943 0-.1414zm12.5811 0c0-.3783.1504-.7414.4179-1.0091.2678-.2675.6308-.4179 1.0092-.4179h.1413c.3784 0 .7414.1504 1.0092.4179.2675.2677.4179.6308.4179 1.0091v.1414c0 .3784-.1504.7414-.4179 1.0092-.2678.2675-.6308.4179-1.0092.4179h-.1413c-.3784 0-.7414-.1504-1.0092-.4179-.2675-.2678-.4179-.6308-.4179-1.0092zm12.2816 0c0-.7881.6389-1.427 1.427-1.427h3.4365c.7881 0 1.427.6389 1.427 1.427v.1414c0 .7881-.6389 1.4271-1.427 1.4271-1.0278 0-2.4087 0-3.4365 0-.7881 0-1.427-.639-1.427-1.4271 0-.047 0-.0943 0-.1414zm15.5766 0c0-.3783.1503-.7414.4178-1.0091.2678-.2675.6309-.4179 1.0092-.4179h.441c.3783 0 .7414.1504 1.0092.4179.2674.2677.4178.6308.4178 1.0091v.1414c0 .3784-.1504.7414-.4178 1.0092-.2678.2675-.6309.4179-1.0092.4179-.1462 0-.2948 0-.441 0-.3783 0-.7414-.1504-1.0092-.4179-.2675-.2678-.4178-.6308-.4178-1.0092 0-.047 0-.0943 0-.1414z" fill="#938876" fill-rule="evenodd"/></svg>