<svg width="78" height="78" viewBox="0 0 78 78" fill="none" xmlns="http://www.w3.org/2000/svg">
<path fill-rule="evenodd" clip-rule="evenodd" d="M0 4.76884C0 3.50414 0.502346 2.29096 1.3968 1.3968C2.29096 0.502346 3.50414 0 4.76884 0H17.0983C18.363 0 19.5762 0.502346 20.4704 1.3968C21.3648 2.29096 21.8672 3.50414 21.8672 4.76884V17.0983C21.8672 18.363 21.3648 19.5762 20.4704 20.4704C19.5762 21.3648 18.363 21.8672 17.0983 21.8672H4.76884C3.50414 21.8672 2.29096 21.3648 1.3968 20.4704C0.502346 19.5762 0 18.363 0 17.0983V4.76884ZM24.8627 1.42706C24.8627 0.638941 25.5016 0 26.2897 0H32.7217C33.1 0 33.4631 0.150374 33.7309 0.417873C33.9984 0.685671 34.1487 1.04873 34.1487 1.42706C34.1487 1.47409 34.1487 1.52142 34.1487 1.56845C34.1487 2.35656 33.5098 2.9955 32.7217 2.9955C31.7733 2.9955 30.5332 2.9955 29.5848 2.9955C28.7967 2.9955 28.1577 3.63444 28.1577 4.42256C28.1577 5.45032 28.1577 6.83125 28.1577 7.859C28.1577 8.64712 27.5188 9.28606 26.7307 9.28606C26.5845 9.28606 26.4359 9.28606 26.2897 9.28606C25.5016 9.28606 24.8627 8.64712 24.8627 7.859V1.42706ZM37.4438 1.42706C37.4438 1.04873 37.5942 0.685671 37.8617 0.417873C38.1295 0.150374 38.4925 0 38.8709 0H39.0122C39.3906 0 39.7536 0.150374 40.0214 0.417873C40.2889 0.685671 40.4393 1.04873 40.4393 1.42706V1.56845C40.4393 1.94678 40.2889 2.30983 40.0214 2.57763C39.7536 2.84513 39.3906 2.9955 39.0122 2.9955H38.8709C38.4925 2.9955 38.1295 2.84513 37.8617 2.57763C37.5942 2.30983 37.4438 1.94678 37.4438 1.56845V1.42706ZM43.7343 1.42706C43.7343 1.04873 43.8847 0.685671 44.1522 0.417873C44.42 0.150374 44.7831 0 45.1614 0H45.3028C45.6811 0 46.0442 0.150374 46.312 0.417873C46.5795 0.685671 46.7299 1.04873 46.7299 1.42706V1.56845C46.7299 1.94678 46.5795 2.30983 46.312 2.57763C46.0442 2.84513 45.6811 2.9955 45.3028 2.9955H45.1614C44.7831 2.9955 44.42 2.84513 44.1522 2.57763C43.8847 2.30983 43.7343 1.94678 43.7343 1.56845V1.42706ZM56.0159 4.76884C56.0159 3.50414 56.5183 2.29096 57.4127 1.3968C58.3069 0.502346 59.52 0 60.7848 0H73.1142C74.3789 0 75.5921 0.502346 76.4863 1.3968C77.3807 2.29096 77.8831 3.50414 77.8831 4.76884V17.0983C77.8831 18.363 77.3807 19.5762 76.4863 20.4704C75.5921 21.3648 74.3789 21.8672 73.1142 21.8672H60.7848C59.52 21.8672 58.3069 21.3648 57.4127 20.4704C56.5183 19.5762 56.0159 18.363 56.0159 17.0983V4.76884ZM6.01287 2.9955C4.34648 2.9955 2.9955 4.34648 2.9955 6.01287V15.5547C2.9955 17.2211 4.34648 18.5721 6.01287 18.5721H15.5547C17.2211 18.5721 18.5721 17.2211 18.5721 15.5547V6.01287C18.5721 4.34648 17.2211 2.9955 15.5547 2.9955H6.01287ZM49.7254 4.42256C49.7254 3.63444 50.3643 2.9955 51.1524 2.9955H51.5933C51.9717 2.9955 52.3347 3.14588 52.6025 3.41338C52.87 3.68117 53.0204 4.04423 53.0204 4.42256V20.4401C53.0204 20.8184 52.87 21.1815 52.6025 21.4493C52.3347 21.7168 51.9717 21.8672 51.5933 21.8672H51.1524C50.3643 21.8672 49.7254 21.2282 49.7254 20.4401C49.7254 18.0189 49.7254 13.1344 49.7254 10.7131C49.7254 9.925 49.0864 9.28606 48.2983 9.28606C48.2513 9.28606 48.2039 9.28606 48.1569 9.28606C47.7786 9.28606 47.4155 9.13569 47.1477 8.86819C46.8802 8.60039 46.7299 8.23733 46.7299 7.859V7.71761C46.7299 7.33928 46.8802 6.97623 47.1477 6.70843C47.4155 6.44093 47.7786 6.29056 48.1569 6.29056H48.2983C48.6766 6.29056 49.0397 6.14018 49.3075 5.87268C49.575 5.60489 49.7254 5.24183 49.7254 4.8635C49.7254 4.71732 49.7254 4.56874 49.7254 4.42256ZM62.3283 2.9955C60.6619 2.9955 59.311 4.34648 59.311 6.01287V15.5547C59.311 17.2211 60.6619 18.5721 62.3283 18.5721H71.8702C73.5366 18.5721 74.8876 17.2211 74.8876 15.5547V6.01287C74.8876 4.34648 73.5366 2.9955 71.8702 2.9955H62.3283ZM6.29056 9.30793C6.29056 7.64153 7.64153 6.29056 9.30793 6.29056H12.5592C14.2256 6.29056 15.5766 7.64153 15.5766 9.30793V12.5592C15.5766 14.2256 14.2256 15.5766 12.5592 15.5766H9.30793C7.64153 15.5766 6.29056 14.2256 6.29056 12.5592V9.30793ZM31.1532 7.71761C31.1532 7.33928 31.3036 6.97623 31.5711 6.70843C31.8389 6.44093 32.202 6.29056 32.5803 6.29056H32.7217C33.1 6.29056 33.4631 6.44093 33.7309 6.70843C33.9984 6.97623 34.1487 7.33928 34.1487 7.71761V7.859C34.1487 8.23733 33.9984 8.60039 33.7309 8.86819C33.4631 9.13569 33.1 9.28606 32.7217 9.28606H32.5803C32.202 9.28606 31.8389 9.13569 31.5711 8.86819C31.3036 8.60039 31.1532 8.23733 31.1532 7.859V7.71761ZM37.4438 7.71761C37.4438 6.9295 38.0827 6.29056 38.8709 6.29056C39.8986 6.29056 41.2795 6.29056 42.3073 6.29056C43.0954 6.29056 43.7343 6.9295 43.7343 7.71761V11.1541C43.7343 11.9422 44.3733 12.5811 45.1614 12.5811C45.2084 12.5811 45.2558 12.5811 45.3028 12.5811C45.6811 12.5811 46.0442 12.7315 46.312 12.999C46.5795 13.2668 46.7299 13.6298 46.7299 14.0082V14.1496C46.7299 14.9377 46.0909 15.5766 45.3028 15.5766C44.275 15.5766 42.8941 15.5766 41.8664 15.5766C41.0782 15.5766 40.4393 14.9377 40.4393 14.1496V10.7131C40.4393 9.925 39.8004 9.28606 39.0122 9.28606C38.9652 9.28606 38.9179 9.28606 38.8709 9.28606C38.4925 9.28606 38.1295 9.13569 37.8617 8.86819C37.5942 8.60039 37.4438 8.23733 37.4438 7.859V7.71761ZM62.3065 9.30793C62.3065 7.64153 63.6574 6.29056 65.3238 6.29056H68.5752C70.2416 6.29056 71.5925 7.64153 71.5925 9.30793V12.5592C71.5925 14.2256 70.2416 15.5766 68.5752 15.5766H65.3238C63.6574 15.5766 62.3065 14.2256 62.3065 12.5592V9.30793ZM24.8627 14.0082C24.8627 13.6298 25.0131 13.2668 25.2805 12.999C25.5483 12.7315 25.9114 12.5811 26.2897 12.5811C26.4359 12.5811 26.5845 12.5811 26.7307 12.5811C27.109 12.5811 27.4721 12.7315 27.7399 12.999C28.0074 13.2668 28.1577 13.6298 28.1577 14.0082C28.1577 14.0552 28.1577 14.1025 28.1577 14.1496C28.1577 14.5279 28.0074 14.8909 27.7399 15.1587C27.4721 15.4262 27.109 15.5766 26.7307 15.5766C26.5845 15.5766 26.4359 15.5766 26.2897 15.5766C25.9114 15.5766 25.5483 15.4262 25.2805 15.1587C25.0131 14.8909 24.8627 14.5279 24.8627 14.1496C24.8627 14.1025 24.8627 14.0552 24.8627 14.0082ZM31.1532 17.0037C31.1532 16.2156 31.7922 15.5766 32.5803 15.5766C34.3267 15.5766 37.2659 15.5766 39.0122 15.5766C39.8004 15.5766 40.4393 16.2156 40.4393 17.0037C40.4393 18.0314 40.4393 19.4124 40.4393 20.4401C40.4393 21.2282 41.0782 21.8672 41.8664 21.8672C42.0125 21.8672 42.1611 21.8672 42.3073 21.8672C42.6856 21.8672 43.0487 22.0175 43.3165 22.285C43.584 22.5528 43.7343 22.9159 43.7343 23.2942C43.7343 23.3413 43.7343 23.3886 43.7343 23.4356C43.7343 24.2237 43.0954 24.8627 42.3073 24.8627C40.4953 24.8627 37.3878 24.8627 35.5758 24.8627C34.7877 24.8627 34.1487 24.2237 34.1487 23.4356C34.1487 23.3886 34.1487 23.3413 34.1487 23.2942C34.1487 22.9159 34.2991 22.5528 34.5666 22.285C34.8344 22.0175 35.1975 21.8672 35.5758 21.8672C35.722 21.8672 35.8706 21.8672 36.0167 21.8672C36.8048 21.8672 37.4438 21.2282 37.4438 20.4401V19.9992C37.4438 19.2111 36.8048 18.5721 36.0167 18.5721H35.5758C34.7877 18.5721 34.1487 19.2111 34.1487 19.9992V20.4401C34.1487 20.8184 33.9984 21.1815 33.7309 21.4493C33.4631 21.7168 33.1 21.8672 32.7217 21.8672C32.6746 21.8672 32.6273 21.8672 32.5803 21.8672C31.7922 21.8672 31.1532 21.2282 31.1532 20.4401C31.1532 19.4124 31.1532 18.0314 31.1532 17.0037ZM24.8627 19.9992C24.8627 19.2111 25.5016 18.5721 26.2897 18.5721H26.7307C27.5188 18.5721 28.1577 19.2111 28.1577 19.9992V20.4401C28.1577 21.2282 27.5188 21.8672 26.7307 21.8672H26.2897C25.5016 21.8672 24.8627 21.2282 24.8627 20.4401V19.9992ZM43.7343 19.9992C43.7343 19.6208 43.8847 19.2578 44.1522 18.99C44.42 18.7225 44.7831 18.5721 45.1614 18.5721C45.2084 18.5721 45.2558 18.5721 45.3028 18.5721C45.6811 18.5721 46.0442 18.7225 46.312 18.99C46.5795 19.2578 46.7299 19.6208 46.7299 19.9992C46.7299 20.1454 46.7299 20.2939 46.7299 20.4401C46.7299 20.8184 46.5795 21.1815 46.312 21.4493C46.0442 21.7168 45.6811 21.8672 45.3028 21.8672C45.2558 21.8672 45.2084 21.8672 45.1614 21.8672C44.7831 21.8672 44.42 21.7168 44.1522 21.4493C43.8847 21.1815 43.7343 20.8184 43.7343 20.4401C43.7343 20.2939 43.7343 20.1454 43.7343 19.9992ZM28.1577 23.2942C28.1577 22.9159 28.3081 22.5528 28.5756 22.285C28.8434 22.0175 29.2065 21.8672 29.5848 21.8672H29.7262C30.1045 21.8672 30.4676 22.0175 30.7354 22.285C31.0029 22.5528 31.1532 22.9159 31.1532 23.2942V23.4356C31.1532 23.814 31.3036 24.177 31.5711 24.4448C31.8389 24.7123 32.202 24.8627 32.5803 24.8627H32.7217C33.5098 24.8627 34.1487 25.5016 34.1487 26.2897C34.1487 27.3175 34.1487 28.6984 34.1487 29.7262C34.1487 30.5143 34.7877 31.1532 35.5758 31.1532C35.722 31.1532 35.8706 31.1532 36.0167 31.1532C36.3951 31.1532 36.7581 31.3036 37.0259 31.5711C37.2934 31.8389 37.4438 32.202 37.4438 32.5803C37.4438 32.6273 37.4438 32.6746 37.4438 32.7217C37.4438 33.1 37.2934 33.4631 37.0259 33.7309C36.7581 33.9984 36.3951 34.1487 36.0167 34.1487C35.8706 34.1487 35.722 34.1487 35.5758 34.1487C34.7877 34.1487 34.1487 34.7877 34.1487 35.5758V36.0167C34.1487 36.3951 33.9984 36.7581 33.7309 37.0259C33.4631 37.2934 33.1 37.4438 32.7217 37.4438C32.6746 37.4438 32.6273 37.4438 32.5803 37.4438C32.202 37.4438 31.8389 37.5942 31.5711 37.8617C31.3036 38.1295 31.1532 38.4925 31.1532 38.8709C31.1532 40.6172 31.1532 43.5564 31.1532 45.3028C31.1532 45.6811 31.3036 46.0442 31.5711 46.312C31.8389 46.5795 32.202 46.7299 32.5803 46.7299C32.6273 46.7299 32.6746 46.7299 32.7217 46.7299C33.1 46.7299 33.4631 46.5795 33.7309 46.312C33.9984 46.0442 34.1487 45.6811 34.1487 45.3028V45.1614C34.1487 44.3733 34.7877 43.7343 35.5758 43.7343C36.6036 43.7343 37.9845 43.7343 39.0122 43.7343C39.8004 43.7343 40.4393 44.3733 40.4393 45.1614C40.4393 45.2084 40.4393 45.2558 40.4393 45.3028C40.4393 45.6811 40.2889 46.0442 40.0214 46.312C39.7536 46.5795 39.3906 46.7299 39.0122 46.7299H38.8709C38.4925 46.7299 38.1295 46.8802 37.8617 47.1477C37.5942 47.4155 37.4438 47.7786 37.4438 48.1569V48.2983C37.4438 48.6766 37.2934 49.0397 37.0259 49.3075C36.7581 49.575 36.3951 49.7254 36.0167 49.7254C35.8706 49.7254 35.722 49.7254 35.5758 49.7254C34.7877 49.7254 34.1487 50.3643 34.1487 51.1524V51.5933C34.1487 52.3815 34.7877 53.0204 35.5758 53.0204H36.0167C36.8048 53.0204 37.4438 52.3815 37.4438 51.5933V51.1524C37.4438 50.3643 38.0827 49.7254 38.8709 49.7254C39.8986 49.7254 41.2795 49.7254 42.3073 49.7254C43.0954 49.7254 43.7343 50.3643 43.7343 51.1524C43.7343 51.2986 43.7343 51.4472 43.7343 51.5933C43.7343 52.3815 43.0954 53.0204 42.3073 53.0204H41.8664C41.488 53.0204 41.125 53.1708 40.8572 53.4383C40.5897 53.7061 40.4393 54.0691 40.4393 54.4475C40.4393 54.4945 40.4393 54.5418 40.4393 54.5889C40.4393 54.9672 40.2889 55.3302 40.0214 55.598C39.7536 55.8655 39.3906 56.0159 39.0122 56.0159H38.8709C38.0827 56.0159 37.4438 56.6549 37.4438 57.443C37.4438 58.4707 37.4438 59.8517 37.4438 60.8794C37.4438 61.6675 38.0827 62.3065 38.8709 62.3065C38.9179 62.3065 38.9652 62.3065 39.0122 62.3065C39.3906 62.3065 39.7536 62.4568 40.0214 62.7243C40.2889 62.9921 40.4393 63.3552 40.4393 63.7335V63.8749C40.4393 64.2532 40.5897 64.6163 40.8572 64.8841C41.125 65.1516 41.488 65.302 41.8664 65.302C42.0125 65.302 42.1611 65.302 42.3073 65.302C42.6856 65.302 43.0487 65.1516 43.3165 64.8841C43.584 64.6163 43.7343 64.2532 43.7343 63.8749C43.7343 63.8279 43.7343 63.7806 43.7343 63.7335C43.7343 63.3552 43.8847 62.9921 44.1522 62.7243C44.42 62.4568 44.7831 62.3065 45.1614 62.3065H45.3028C45.6811 62.3065 46.0442 62.1561 46.312 61.8886C46.5795 61.6208 46.7299 61.2577 46.7299 60.8794V60.738C46.7299 60.3597 46.8802 59.9966 47.1477 59.7288C47.4155 59.4613 47.7786 59.311 48.1569 59.311H48.2983C49.0864 59.311 49.7254 58.672 49.7254 57.8839C49.7254 56.0719 49.7254 52.9644 49.7254 51.1524C49.7254 50.3643 50.3643 49.7254 51.1524 49.7254H57.8839C58.672 49.7254 59.311 49.0864 59.311 48.2983C59.311 48.2513 59.311 48.2039 59.311 48.1569C59.311 47.7786 59.4613 47.4155 59.7288 47.1477C59.9966 46.8802 60.3597 46.7299 60.738 46.7299H60.8794C61.2577 46.7299 61.6208 46.8802 61.8886 47.1477C62.1561 47.4155 62.3065 47.7786 62.3065 48.1569V48.2983C62.3065 48.6766 62.4568 49.0397 62.7243 49.3075C62.9921 49.575 63.3552 49.7254 63.7335 49.7254H63.8749C64.2532 49.7254 64.6163 49.8757 64.8841 50.1432C65.1516 50.411 65.302 50.7741 65.302 51.1524C65.302 54.1168 65.302 60.9106 65.302 63.8749C65.302 64.663 64.663 65.302 63.8749 65.302C62.9265 65.302 61.6864 65.302 60.738 65.302C59.9499 65.302 59.311 65.9409 59.311 66.729C59.311 66.8752 59.311 67.0238 59.311 67.17C59.311 67.9581 58.672 68.597 57.8839 68.597H57.443C57.0646 68.597 56.7016 68.7474 56.4338 69.0149C56.1663 69.2827 56.0159 69.6458 56.0159 70.0241C56.0159 70.0711 56.0159 70.1184 56.0159 70.1655C56.0159 70.5438 55.8655 70.9069 55.598 71.1747C55.3302 71.4422 54.9672 71.5925 54.5889 71.5925H54.4475C54.0691 71.5925 53.7061 71.4422 53.4383 71.1747C53.1708 70.9069 53.0204 70.5438 53.0204 70.1655V70.0241C53.0204 69.6458 52.87 69.2827 52.6025 69.0149C52.3347 68.7474 51.9717 68.597 51.5933 68.597C51.4472 68.597 51.2986 68.597 51.1524 68.597C50.7741 68.597 50.411 68.7474 50.1432 69.0149C49.8757 69.2827 49.7254 69.6458 49.7254 70.0241C49.7254 70.0711 49.7254 70.1184 49.7254 70.1655C49.7254 70.5438 49.575 70.9069 49.3075 71.1747C49.0397 71.4422 48.6766 71.5925 48.2983 71.5925H48.1569C47.7786 71.5925 47.4155 71.4422 47.1477 71.1747C46.8802 70.9069 46.7299 70.5438 46.7299 70.1655V70.0241C46.7299 69.6458 46.5795 69.2827 46.312 69.0149C46.0442 68.7474 45.6811 68.597 45.3028 68.597H45.1614C44.7831 68.597 44.42 68.7474 44.1522 69.0149C43.8847 69.2827 43.7343 69.6458 43.7343 70.0241V70.1655C43.7343 70.5438 43.584 70.9069 43.3165 71.1747C43.0487 71.4422 42.6856 71.5925 42.3073 71.5925C42.1611 71.5925 42.0125 71.5925 41.8664 71.5925C41.488 71.5925 41.125 71.4422 40.8572 71.1747C40.5897 70.9069 40.4393 70.5438 40.4393 70.1655C40.4393 70.1184 40.4393 70.0711 40.4393 70.0241C40.4393 69.6458 40.2889 69.2827 40.0214 69.0149C39.7536 68.7474 39.3906 68.597 39.0122 68.597H38.8709C38.0827 68.597 37.4438 69.236 37.4438 70.0241C37.4438 71.0518 37.4438 72.4328 37.4438 73.4605C37.4438 74.2486 36.8048 74.8876 36.0167 74.8876C35.8706 74.8876 35.722 74.8876 35.5758 74.8876C35.1975 74.8876 34.8344 75.038 34.5666 75.3055C34.2991 75.5732 34.1487 75.9363 34.1487 76.3146C34.1487 76.3617 34.1487 76.409 34.1487 76.456C34.1487 76.8344 33.9984 77.1974 33.7309 77.4652C33.4631 77.7327 33.1 77.8831 32.7217 77.8831H32.5803C32.202 77.8831 31.8389 77.7327 31.5711 77.4652C31.3036 77.1974 31.1532 76.8344 31.1532 76.456V76.3146C31.1532 75.9363 31.0029 75.5732 30.7354 75.3055C30.4676 75.038 30.1045 74.8876 29.7262 74.8876H29.5848C29.2065 74.8876 28.8434 74.7372 28.5756 74.4697C28.3081 74.2019 28.1577 73.8389 28.1577 73.4605C28.1577 73.3143 28.1577 73.1658 28.1577 73.0196C28.1577 72.6413 28.3081 72.2782 28.5756 72.0104C28.8434 71.7429 29.2065 71.5925 29.5848 71.5925C29.6318 71.5925 29.6791 71.5925 29.7262 71.5925C30.1045 71.5925 30.4676 71.4422 30.7354 71.1747C31.0029 70.9069 31.1532 70.5438 31.1532 70.1655V70.0241C31.1532 69.6458 31.3036 69.2827 31.5711 69.0149C31.8389 68.7474 32.202 68.597 32.5803 68.597H32.7217C33.1 68.597 33.4631 68.4466 33.7309 68.1792C33.9984 67.9114 34.1487 67.5483 34.1487 67.17C34.1487 65.4236 34.1487 62.4844 34.1487 60.738C34.1487 60.3597 33.9984 59.9966 33.7309 59.7288C33.4631 59.4613 33.1 59.311 32.7217 59.311C32.6746 59.311 32.6273 59.311 32.5803 59.311C31.7922 59.311 31.1532 58.672 31.1532 57.8839C31.1532 56.0719 31.1532 52.9644 31.1532 51.1524C31.1532 50.3643 30.5143 49.7254 29.7262 49.7254C29.6791 49.7254 29.6318 49.7254 29.5848 49.7254C29.2065 49.7254 28.8434 49.575 28.5756 49.3075C28.3081 49.0397 28.1577 48.6766 28.1577 48.2983V48.1569C28.1577 47.7786 28.0074 47.4155 27.7399 47.1477C27.4721 46.8802 27.109 46.7299 26.7307 46.7299C26.5845 46.7299 26.4359 46.7299 26.2897 46.7299C25.9114 46.7299 25.5483 46.5795 25.2805 46.312C25.0131 46.0442 24.8627 45.6811 24.8627 45.3028C24.8627 45.2558 24.8627 45.2084 24.8627 45.1614C24.8627 44.7831 25.0131 44.42 25.2805 44.1522C25.5483 43.8847 25.9114 43.7343 26.2897 43.7343C26.4359 43.7343 26.5845 43.7343 26.7307 43.7343C27.5188 43.7343 28.1577 43.0954 28.1577 42.3073C28.1577 41.2795 28.1577 39.8986 28.1577 38.8709C28.1577 38.0827 27.5188 37.4438 26.7307 37.4438H23.2942C22.5061 37.4438 21.8672 36.8048 21.8672 36.0167C21.8672 35.8706 21.8672 35.722 21.8672 35.5758C21.8672 34.7877 21.2282 34.1487 20.4401 34.1487H19.9992C19.2111 34.1487 18.5721 34.7877 18.5721 35.5758V36.0167C18.5721 36.8048 19.2111 37.4438 19.9992 37.4438H20.4401C20.8184 37.4438 21.1815 37.5942 21.4493 37.8617C21.7168 38.1295 21.8672 38.4925 21.8672 38.8709C21.8672 38.9179 21.8672 38.9652 21.8672 39.0122C21.8672 39.3906 21.7168 39.7536 21.4493 40.0214C21.1815 40.2889 20.8184 40.4393 20.4401 40.4393C20.2939 40.4393 20.1454 40.4393 19.9992 40.4393C19.2111 40.4393 18.5721 41.0782 18.5721 41.8664V42.3073C18.5721 42.6856 18.4217 43.0487 18.1542 43.3165C17.8865 43.584 17.5234 43.7343 17.1451 43.7343C17.098 43.7343 17.0507 43.7343 17.0037 43.7343C16.2156 43.7343 15.5766 43.0954 15.5766 42.3073C15.5766 39.886 15.5766 35.0016 15.5766 32.5803C15.5766 31.7922 14.9377 31.1532 14.1496 31.1532C14.1025 31.1532 14.0552 31.1532 14.0082 31.1532C13.6298 31.1532 13.2668 31.0029 12.999 30.7354C12.7315 30.4676 12.5811 30.1045 12.5811 29.7262V29.5848C12.5811 29.2065 12.4307 28.8434 12.1632 28.5756C11.8954 28.3081 11.5324 28.1577 11.1541 28.1577C11.0079 28.1577 10.8593 28.1577 10.7131 28.1577C9.925 28.1577 9.28606 27.5188 9.28606 26.7307V26.2897C9.28606 25.9114 9.43643 25.5483 9.70393 25.2805C9.97173 25.0131 10.3348 24.8627 10.7131 24.8627H26.7307C27.109 24.8627 27.4721 24.7123 27.7399 24.4448C28.0074 24.177 28.1577 23.814 28.1577 23.4356C28.1577 23.3886 28.1577 23.3413 28.1577 23.2942ZM0 26.2897C0 25.9114 0.150374 25.5483 0.417873 25.2805C0.685671 25.0131 1.04873 24.8627 1.42706 24.8627C1.47409 24.8627 1.52142 24.8627 1.56845 24.8627C1.94678 24.8627 2.30983 25.0131 2.57763 25.2805C2.84513 25.5483 2.9955 25.9114 2.9955 26.2897C2.9955 26.4359 2.9955 26.5845 2.9955 26.7307C2.9955 27.109 2.84513 27.4721 2.57763 27.7399C2.30983 28.0074 1.94678 28.1577 1.56845 28.1577C1.52142 28.1577 1.47409 28.1577 1.42706 28.1577C1.04873 28.1577 0.685671 28.0074 0.417873 27.7399C0.150374 27.4721 0 27.109 0 26.7307C0 26.5845 0 26.4359 0 26.2897ZM43.7343 26.2897C43.7343 25.5016 44.3733 24.8627 45.1614 24.8627C46.1098 24.8627 47.3499 24.8627 48.2983 24.8627C49.0864 24.8627 49.7254 25.5016 49.7254 26.2897C49.7254 27.3175 49.7254 28.6984 49.7254 29.7262C49.7254 30.5143 50.3643 31.1532 51.1524 31.1532C51.2986 31.1532 51.4472 31.1532 51.5933 31.1532C51.9717 31.1532 52.3347 31.3036 52.6025 31.5711C52.87 31.8389 53.0204 32.202 53.0204 32.5803C53.0204 32.6273 53.0204 32.6746 53.0204 32.7217C53.0204 33.1 52.87 33.4631 52.6025 33.7309C52.3347 33.9984 51.9717 34.1487 51.5933 34.1487C51.4472 34.1487 51.2986 34.1487 51.1524 34.1487C50.3643 34.1487 49.7254 34.7877 49.7254 35.5758V36.0167C49.7254 36.3951 49.575 36.7581 49.3075 37.0259C49.0397 37.2934 48.6766 37.4438 48.2983 37.4438C48.2513 37.4438 48.2039 37.4438 48.1569 37.4438C47.7786 37.4438 47.4155 37.5942 47.1477 37.8617C46.8802 38.1295 46.7299 38.4925 46.7299 38.8709V39.0122C46.7299 39.3906 46.8802 39.7536 47.1477 40.0214C47.4155 40.2889 47.7786 40.4393 48.1569 40.4393H48.2983C48.6766 40.4393 49.0397 40.2889 49.3075 40.0214C49.575 39.7536 49.7254 39.3906 49.7254 39.0122V38.8709C49.7254 38.4925 49.8757 38.1295 50.1432 37.8617C50.411 37.5942 50.7741 37.4438 51.1524 37.4438C51.2986 37.4438 51.4472 37.4438 51.5933 37.4438C52.3815 37.4438 53.0204 38.0827 53.0204 38.8709C53.0204 39.8986 53.0204 41.2795 53.0204 42.3073C53.0204 43.0954 53.6594 43.7343 54.4475 43.7343H57.8839C58.672 43.7343 59.311 44.3733 59.311 45.1614C59.311 45.2084 59.311 45.2558 59.311 45.3028C59.311 46.0909 58.672 46.7299 57.8839 46.7299C55.4626 46.7299 50.5782 46.7299 48.1569 46.7299C47.3688 46.7299 46.7299 47.3688 46.7299 48.1569C46.7299 48.2039 46.7299 48.2513 46.7299 48.2983C46.7299 48.6766 46.5795 49.0397 46.312 49.3075C46.0442 49.575 45.6811 49.7254 45.3028 49.7254H45.1614C44.7831 49.7254 44.42 49.575 44.1522 49.3075C43.8847 49.0397 43.7343 48.6766 43.7343 48.2983C43.7343 45.3339 43.7343 38.5401 43.7343 35.5758C43.7343 34.7877 43.0954 34.1487 42.3073 34.1487H41.8664C41.488 34.1487 41.125 33.9984 40.8572 33.7309C40.5897 33.4631 40.4393 33.1 40.4393 32.7217C40.4393 32.6746 40.4393 32.6273 40.4393 32.5803C40.4393 32.202 40.5897 31.8389 40.8572 31.5711C41.125 31.3036 41.488 31.1532 41.8664 31.1532C42.0125 31.1532 42.1611 31.1532 42.3073 31.1532C43.0954 31.1532 43.7343 30.5143 43.7343 29.7262C43.7343 28.6984 43.7343 27.3175 43.7343 26.2897ZM53.0204 26.2897C53.0204 25.5016 53.6594 24.8627 54.4475 24.8627C54.4945 24.8627 54.5418 24.8627 54.5889 24.8627C55.377 24.8627 56.0159 25.5016 56.0159 26.2897C56.0159 27.3175 56.0159 28.6984 56.0159 29.7262C56.0159 30.5143 55.377 31.1532 54.5889 31.1532C54.5418 31.1532 54.4945 31.1532 54.4475 31.1532C53.6594 31.1532 53.0204 30.5143 53.0204 29.7262C53.0204 28.6984 53.0204 27.3175 53.0204 26.2897ZM62.3065 26.2897C62.3065 25.9114 62.4568 25.5483 62.7243 25.2805C62.9921 25.0131 63.3552 24.8627 63.7335 24.8627C63.7806 24.8627 63.8279 24.8627 63.8749 24.8627C64.2532 24.8627 64.6163 25.0131 64.8841 25.2805C65.1516 25.5483 65.302 25.9114 65.302 26.2897C65.302 26.4359 65.302 26.5845 65.302 26.7307C65.302 27.5188 65.9409 28.1577 66.729 28.1577H67.17C67.9581 28.1577 68.597 27.5188 68.597 26.7307V26.2897C68.597 25.5016 69.236 24.8627 70.0241 24.8627H76.456C77.2441 24.8627 77.8831 25.5016 77.8831 26.2897V26.7307C77.8831 27.109 77.7327 27.4721 77.4652 27.7399C77.1974 28.0074 76.8344 28.1577 76.456 28.1577C76.409 28.1577 76.3617 28.1577 76.3146 28.1577C75.9363 28.1577 75.5732 28.3081 75.3055 28.5756C75.038 28.8434 74.8876 29.2065 74.8876 29.5848V29.7262C74.8876 30.5143 74.2486 31.1532 73.4605 31.1532C72.4328 31.1532 71.0518 31.1532 70.0241 31.1532C69.236 31.1532 68.597 31.7922 68.597 32.5803C68.597 32.6273 68.597 32.6746 68.597 32.7217C68.597 33.5098 69.236 34.1487 70.0241 34.1487C71.0518 34.1487 72.4328 34.1487 73.4605 34.1487C74.2486 34.1487 74.8876 33.5098 74.8876 32.7217C74.8876 32.6746 74.8876 32.6273 74.8876 32.5803C74.8876 32.202 75.038 31.8389 75.3055 31.5711C75.5732 31.3036 75.9363 31.1532 76.3146 31.1532H76.456C76.8344 31.1532 77.1974 31.3036 77.4652 31.5711C77.7327 31.8389 77.8831 32.202 77.8831 32.5803C77.8831 34.3267 77.8831 37.2659 77.8831 39.0122C77.8831 39.3906 77.7327 39.7536 77.4652 40.0214C77.1974 40.2889 76.8344 40.4393 76.456 40.4393C76.409 40.4393 76.3617 40.4393 76.3146 40.4393C75.9363 40.4393 75.5732 40.2889 75.3055 40.0214C75.038 39.7536 74.8876 39.3906 74.8876 39.0122V38.8709C74.8876 38.0827 74.2486 37.4438 73.4605 37.4438C71.6485 37.4438 68.541 37.4438 66.729 37.4438C65.9409 37.4438 65.302 36.8048 65.302 36.0167C65.302 34.989 65.302 33.608 65.302 32.5803C65.302 31.7922 64.663 31.1532 63.8749 31.1532C62.9265 31.1532 61.6864 31.1532 60.738 31.1532C59.9499 31.1532 59.311 30.5143 59.311 29.7262C59.311 29.6791 59.311 29.6318 59.311 29.5848C59.311 29.2065 59.4613 28.8434 59.7288 28.5756C59.9966 28.3081 60.3597 28.1577 60.738 28.1577H60.8794C61.2577 28.1577 61.6208 28.0074 61.8886 27.7399C62.1561 27.4721 62.3065 27.109 62.3065 26.7307C62.3065 26.5845 62.3065 26.4359 62.3065 26.2897ZM19.9992 28.1577C19.2111 28.1577 18.5721 28.7967 18.5721 29.5848C18.5721 29.6318 18.5721 29.6791 18.5721 29.7262C18.5721 30.5143 19.2111 31.1532 19.9992 31.1532C21.0269 31.1532 22.4079 31.1532 23.4356 31.1532C24.2237 31.1532 24.8627 31.7922 24.8627 32.5803C24.8627 32.6273 24.8627 32.6746 24.8627 32.7217C24.8627 33.5098 25.5016 34.1487 26.2897 34.1487C27.3175 34.1487 28.6984 34.1487 29.7262 34.1487C30.5143 34.1487 31.1532 33.5098 31.1532 32.7217C31.1532 31.7733 31.1532 30.5332 31.1532 29.5848C31.1532 28.7967 30.5143 28.1577 29.7262 28.1577C27.3049 28.1577 22.4204 28.1577 19.9992 28.1577ZM37.4438 29.5848C37.4438 29.2065 37.5942 28.8434 37.8617 28.5756C38.1295 28.3081 38.4925 28.1577 38.8709 28.1577H39.0122C39.3906 28.1577 39.7536 28.3081 40.0214 28.5756C40.2889 28.8434 40.4393 29.2065 40.4393 29.5848V29.7262C40.4393 30.1045 40.2889 30.4676 40.0214 30.7354C39.7536 31.0029 39.3906 31.1532 39.0122 31.1532H38.8709C38.4925 31.1532 38.1295 31.0029 37.8617 30.7354C37.5942 30.4676 37.4438 30.1045 37.4438 29.7262V29.5848ZM0 32.5803C0 32.202 0.150374 31.8389 0.417873 31.5711C0.685671 31.3036 1.04873 31.1532 1.42706 31.1532H1.56845C1.94678 31.1532 2.30983 31.3036 2.57763 31.5711C2.84513 31.8389 2.9955 32.202 2.9955 32.5803V32.7217C2.9955 33.1 2.84513 33.4631 2.57763 33.7309C2.30983 33.9984 1.94678 34.1487 1.56845 34.1487H1.42706C1.04873 34.1487 0.685671 33.9984 0.417873 33.7309C0.150374 33.4631 0 33.1 0 32.7217V32.5803ZM6.29056 32.5803C6.29056 31.7922 6.9295 31.1532 7.71761 31.1532C8.74537 31.1532 10.1263 31.1532 11.1541 31.1532C11.9422 31.1532 12.5811 31.7922 12.5811 32.5803C12.5811 32.6273 12.5811 32.6746 12.5811 32.7217C12.5811 33.1 12.4307 33.4631 12.1632 33.7309C11.8954 33.9984 11.5324 34.1487 11.1541 34.1487C11.0079 34.1487 10.8593 34.1487 10.7131 34.1487C9.925 34.1487 9.28606 34.7877 9.28606 35.5758V36.0167C9.28606 36.8048 8.64712 37.4438 7.859 37.4438C6.83125 37.4438 5.45032 37.4438 4.42256 37.4438C3.63444 37.4438 2.9955 36.8048 2.9955 36.0167C2.9955 35.8706 2.9955 35.722 2.9955 35.5758C2.9955 34.7877 3.63444 34.1487 4.42256 34.1487H4.8635C5.24183 34.1487 5.60489 33.9984 5.87268 33.7309C6.14018 33.4631 6.29056 33.1 6.29056 32.7217C6.29056 32.6746 6.29056 32.6273 6.29056 32.5803ZM56.0159 32.5803C56.0159 31.7922 56.6549 31.1532 57.443 31.1532H57.8839C58.672 31.1532 59.311 31.7922 59.311 32.5803C59.311 33.608 59.311 34.989 59.311 36.0167C59.311 36.8048 59.9499 37.4438 60.738 37.4438C60.7851 37.4438 60.8324 37.4438 60.8794 37.4438C61.2577 37.4438 61.6208 37.5942 61.8886 37.8617C62.1561 38.1295 62.3065 38.4925 62.3065 38.8709V39.0122C62.3065 39.8004 61.6675 40.4393 60.8794 40.4393C59.8517 40.4393 58.4707 40.4393 57.443 40.4393C56.6549 40.4393 56.0159 39.8004 56.0159 39.0122C56.0159 37.2659 56.0159 34.3267 56.0159 32.5803ZM9.28606 38.8709C9.28606 38.4925 9.43643 38.1295 9.70393 37.8617C9.97173 37.5942 10.3348 37.4438 10.7131 37.4438C10.8593 37.4438 11.0079 37.4438 11.1541 37.4438C11.5324 37.4438 11.8954 37.5942 12.1632 37.8617C12.4307 38.1295 12.5811 38.4925 12.5811 38.8709C12.5811 38.9179 12.5811 38.9652 12.5811 39.0122C12.5811 39.3906 12.4307 39.7536 12.1632 40.0214C11.8954 40.2889 11.5324 40.4393 11.1541 40.4393C11.0079 40.4393 10.8593 40.4393 10.7131 40.4393C10.3348 40.4393 9.97173 40.2889 9.70393 40.0214C9.43643 39.7536 9.28606 39.3906 9.28606 39.0122C9.28606 38.9652 9.28606 38.9179 9.28606 38.8709ZM37.4438 38.8709C37.4438 38.4925 37.5942 38.1295 37.8617 37.8617C38.1295 37.5942 38.4925 37.4438 38.8709 37.4438H39.0122C39.3906 37.4438 39.7536 37.5942 40.0214 37.8617C40.2889 38.1295 40.4393 38.4925 40.4393 38.8709V39.0122C40.4393 39.3906 40.2889 39.7536 40.0214 40.0214C39.7536 40.2889 39.3906 40.4393 39.0122 40.4393H38.8709C38.4925 40.4393 38.1295 40.2889 37.8617 40.0214C37.5942 39.7536 37.4438 39.3906 37.4438 39.0122V38.8709ZM0 41.8664C0 41.0782 0.638941 40.4393 1.42706 40.4393H4.8635C5.65162 40.4393 6.29056 41.0782 6.29056 41.8664C6.29056 42.0125 6.29056 42.1611 6.29056 42.3073C6.29056 43.0954 6.9295 43.7343 7.71761 43.7343H14.1496C14.5279 43.7343 14.8909 43.8847 15.1587 44.1522C15.4262 44.42 15.5766 44.7831 15.5766 45.1614C15.5766 45.2084 15.5766 45.2558 15.5766 45.3028C15.5766 45.6811 15.727 46.0442 15.9945 46.312C16.2623 46.5795 16.6253 46.7299 17.0037 46.7299H17.1451C17.5234 46.7299 17.8865 46.8802 18.1542 47.1477C18.4217 47.4155 18.5721 47.7786 18.5721 48.1569V48.2983C18.5721 48.6766 18.4217 49.0397 18.1542 49.3075C17.8865 49.575 17.5234 49.7254 17.1451 49.7254H17.0037C16.6253 49.7254 16.2623 49.8757 15.9945 50.1432C15.727 50.411 15.5766 50.7741 15.5766 51.1524C15.5766 51.2986 15.5766 51.4472 15.5766 51.5933C15.5766 52.3815 14.9377 53.0204 14.1496 53.0204C13.1218 53.0204 11.7409 53.0204 10.7131 53.0204C9.925 53.0204 9.28606 52.3815 9.28606 51.5933C9.28606 51.4472 9.28606 51.2986 9.28606 51.1524C9.28606 50.3643 9.925 49.7254 10.7131 49.7254H11.1541C11.5324 49.7254 11.8954 49.575 12.1632 49.3075C12.4307 49.0397 12.5811 48.6766 12.5811 48.2983C12.5811 48.2513 12.5811 48.2039 12.5811 48.1569C12.5811 47.7786 12.4307 47.4155 12.1632 47.1477C11.8954 46.8802 11.5324 46.7299 11.1541 46.7299C11.0079 46.7299 10.8593 46.7299 10.7131 46.7299C10.3348 46.7299 9.97173 46.8802 9.70393 47.1477C9.43643 47.4155 9.28606 47.7786 9.28606 48.1569C9.28606 48.2039 9.28606 48.2513 9.28606 48.2983C9.28606 48.6766 9.13569 49.0397 8.86819 49.3075C8.60039 49.575 8.23733 49.7254 7.859 49.7254H7.71761C7.33928 49.7254 6.97623 49.575 6.70843 49.3075C6.44093 49.0397 6.29056 48.6766 6.29056 48.2983V48.1569C6.29056 47.7786 6.14018 47.4155 5.87268 47.1477C5.60489 46.8802 5.24183 46.7299 4.8635 46.7299C4.71732 46.7299 4.56874 46.7299 4.42256 46.7299C3.63444 46.7299 2.9955 47.3688 2.9955 48.1569C2.9955 49.1847 2.9955 50.5656 2.9955 51.5933C2.9955 52.3815 2.35656 53.0204 1.56845 53.0204C1.52142 53.0204 1.47409 53.0204 1.42706 53.0204C0.638941 53.0204 0 52.3815 0 51.5933C0 49.1721 0 44.2876 0 41.8664ZM62.3065 41.8664C62.3065 41.0782 62.9454 40.4393 63.7335 40.4393C63.7806 40.4393 63.8279 40.4393 63.8749 40.4393C64.2532 40.4393 64.6163 40.5897 64.8841 40.8572C65.1516 41.125 65.302 41.488 65.302 41.8664C65.302 42.0125 65.302 42.1611 65.302 42.3073C65.302 43.0954 65.9409 43.7343 66.729 43.7343C67.7568 43.7343 69.1377 43.7343 70.1655 43.7343C70.9536 43.7343 71.5925 43.0954 71.5925 42.3073C71.5925 42.1611 71.5925 42.0125 71.5925 41.8664C71.5925 41.0782 72.2315 40.4393 73.0196 40.4393H73.4605C74.2486 40.4393 74.8876 41.0782 74.8876 41.8664V42.3073C74.8876 42.6856 75.038 43.0487 75.3055 43.3165C75.5732 43.584 75.9363 43.7343 76.3146 43.7343C76.3617 43.7343 76.409 43.7343 76.456 43.7343C77.2441 43.7343 77.8831 44.3733 77.8831 45.1614C77.8831 46.1098 77.8831 47.3499 77.8831 48.2983C77.8831 49.0864 77.2441 49.7254 76.456 49.7254C76.409 49.7254 76.3617 49.7254 76.3146 49.7254C75.9363 49.7254 75.5732 49.575 75.3055 49.3075C75.038 49.0397 74.8876 48.6766 74.8876 48.2983V48.1569C74.8876 47.7786 74.7372 47.4155 74.4697 47.1477C74.2019 46.8802 73.8389 46.7299 73.4605 46.7299C73.3143 46.7299 73.1658 46.7299 73.0196 46.7299C72.6413 46.7299 72.2782 46.8802 72.0104 47.1477C71.7429 47.4155 71.5925 47.7786 71.5925 48.1569C71.5925 48.2039 71.5925 48.2513 71.5925 48.2983C71.5925 48.6766 71.7429 49.0397 72.0104 49.3075C72.2782 49.575 72.6413 49.7254 73.0196 49.7254C73.1658 49.7254 73.3143 49.7254 73.4605 49.7254C74.2486 49.7254 74.8876 50.3643 74.8876 51.1524C74.8876 52.1802 74.8876 53.5611 74.8876 54.5889C74.8876 55.377 74.2486 56.0159 73.4605 56.0159H70.0241C69.236 56.0159 68.597 55.377 68.597 54.5889V51.1524C68.597 50.3643 67.9581 49.7254 67.17 49.7254C67.0238 49.7254 66.8752 49.7254 66.729 49.7254C66.3507 49.7254 65.9876 49.575 65.7198 49.3075C65.4523 49.0397 65.302 48.6766 65.302 48.2983C65.302 48.2513 65.302 48.2039 65.302 48.1569C65.302 47.7786 65.1516 47.4155 64.8841 47.1477C64.6163 46.8802 64.2532 46.7299 63.8749 46.7299H63.7335C62.9454 46.7299 62.3065 46.0909 62.3065 45.3028C62.3065 44.275 62.3065 42.8941 62.3065 41.8664ZM18.5721 45.1614C18.5721 44.7831 18.7225 44.42 18.99 44.1522C19.2578 43.8847 19.6208 43.7343 19.9992 43.7343C20.1454 43.7343 20.2939 43.7343 20.4401 43.7343C20.8184 43.7343 21.1815 43.8847 21.4493 44.1522C21.7168 44.42 21.8672 44.7831 21.8672 45.1614C21.8672 45.2084 21.8672 45.2558 21.8672 45.3028C21.8672 45.6811 21.7168 46.0442 21.4493 46.312C21.1815 46.5795 20.8184 46.7299 20.4401 46.7299C20.2939 46.7299 20.1454 46.7299 19.9992 46.7299C19.6208 46.7299 19.2578 46.5795 18.99 46.312C18.7225 46.0442 18.5721 45.6811 18.5721 45.3028C18.5721 45.2558 18.5721 45.2084 18.5721 45.1614ZM18.5721 51.1524C18.5721 50.3643 19.2111 49.7254 19.9992 49.7254H20.4401C21.2282 49.7254 21.8672 50.3643 21.8672 51.1524V51.5933C21.8672 52.3815 21.2282 53.0204 20.4401 53.0204H19.9992C19.2111 53.0204 18.5721 52.3815 18.5721 51.5933V51.1524ZM24.8627 51.1524C24.8627 50.7741 25.0131 50.411 25.2805 50.1432C25.5483 49.8757 25.9114 49.7254 26.2897 49.7254C26.4359 49.7254 26.5845 49.7254 26.7307 49.7254C27.5188 49.7254 28.1577 50.3643 28.1577 51.1524C28.1577 52.9644 28.1577 56.0719 28.1577 57.8839C28.1577 58.672 28.7967 59.311 29.5848 59.311C29.6318 59.311 29.6791 59.311 29.7262 59.311C30.1045 59.311 30.4676 59.4613 30.7354 59.7288C31.0029 59.9966 31.1532 60.3597 31.1532 60.738V60.8794C31.1532 61.2577 31.0029 61.6208 30.7354 61.8886C30.4676 62.1561 30.1045 62.3065 29.7262 62.3065H29.5848C29.2065 62.3065 28.8434 62.4568 28.5756 62.7243C28.3081 62.9921 28.1577 63.3552 28.1577 63.7335V63.8749C28.1577 64.2532 28.3081 64.6163 28.5756 64.8841C28.8434 65.1516 29.2065 65.302 29.5848 65.302H29.7262C30.1045 65.302 30.4676 65.4523 30.7354 65.7198C31.0029 65.9876 31.1532 66.3507 31.1532 66.729C31.1532 66.8752 31.1532 67.0238 31.1532 67.17C31.1532 67.9581 30.5143 68.597 29.7262 68.597C28.6984 68.597 27.3175 68.597 26.2897 68.597C25.5016 68.597 24.8627 67.9581 24.8627 67.17C24.8627 63.6637 24.8627 54.6587 24.8627 51.1524ZM54.4475 53.0204C53.6594 53.0204 53.0204 53.6594 53.0204 54.4475V60.8794C53.0204 61.6675 53.6594 62.3065 54.4475 62.3065H60.8794C61.6675 62.3065 62.3065 61.6675 62.3065 60.8794V54.4475C62.3065 53.6594 61.6675 53.0204 60.8794 53.0204H54.4475ZM0 60.7848C0 59.52 0.502346 58.3069 1.3968 57.4127C2.29096 56.5183 3.50414 56.0159 4.76884 56.0159H17.0983C18.363 56.0159 19.5762 56.5183 20.4704 57.4127C21.3648 58.3069 21.8672 59.52 21.8672 60.7848V73.1142C21.8672 74.3789 21.3648 75.5921 20.4704 76.4863C19.5762 77.3807 18.363 77.8831 17.0983 77.8831H4.76884C3.50414 77.8831 2.29096 77.3807 1.3968 76.4863C0.502346 75.5921 0 74.3789 0 73.1142V60.7848ZM43.7343 57.443C43.7343 57.0646 43.8847 56.7016 44.1522 56.4338C44.42 56.1663 44.7831 56.0159 45.1614 56.0159C45.2084 56.0159 45.2558 56.0159 45.3028 56.0159C45.6811 56.0159 46.0442 56.1663 46.312 56.4338C46.5795 56.7016 46.7299 57.0646 46.7299 57.443C46.7299 57.5892 46.7299 57.7377 46.7299 57.8839C46.7299 58.2622 46.5795 58.6253 46.312 58.8931C46.0442 59.1606 45.6811 59.311 45.3028 59.311C45.2558 59.311 45.2084 59.311 45.1614 59.311C44.7831 59.311 44.42 59.1606 44.1522 58.8931C43.8847 58.6253 43.7343 58.2622 43.7343 57.8839C43.7343 57.7377 43.7343 57.5892 43.7343 57.443ZM56.0159 57.443C56.0159 56.6549 56.6549 56.0159 57.443 56.0159H57.8839C58.672 56.0159 59.311 56.6549 59.311 57.443V57.8839C59.311 58.672 58.672 59.311 57.8839 59.311H57.443C56.6549 59.311 56.0159 58.672 56.0159 57.8839V57.443ZM74.8876 57.443C74.8876 57.0646 75.038 56.7016 75.3055 56.4338C75.5732 56.1663 75.9363 56.0159 76.3146 56.0159C76.3617 56.0159 76.409 56.0159 76.456 56.0159C77.2441 56.0159 77.8831 56.6549 77.8831 57.443C77.8831 58.4707 77.8831 59.8517 77.8831 60.8794C77.8831 61.6675 77.2441 62.3065 76.456 62.3065H73.0196C72.2315 62.3065 71.5925 61.6675 71.5925 60.8794C71.5925 60.8324 71.5925 60.7851 71.5925 60.738C71.5925 60.3597 71.7429 59.9966 72.0104 59.7288C72.2782 59.4613 72.6413 59.311 73.0196 59.311C73.1658 59.311 73.3143 59.311 73.4605 59.311C74.2486 59.311 74.8876 58.672 74.8876 57.8839V57.443ZM6.01287 59.311C4.34648 59.311 2.9955 60.6619 2.9955 62.3283V71.8702C2.9955 73.5366 4.34648 74.8876 6.01287 74.8876H15.5547C17.2211 74.8876 18.5721 73.5366 18.5721 71.8702V62.3283C18.5721 60.6619 17.2211 59.311 15.5547 59.311H6.01287ZM40.4393 60.738C40.4393 60.3597 40.5897 59.9966 40.8572 59.7288C41.125 59.4613 41.488 59.311 41.8664 59.311C42.0125 59.311 42.1611 59.311 42.3073 59.311C42.6856 59.311 43.0487 59.4613 43.3165 59.7288C43.584 59.9966 43.7343 60.3597 43.7343 60.738C43.7343 60.7851 43.7343 60.8324 43.7343 60.8794C43.7343 61.2577 43.584 61.6208 43.3165 61.8886C43.0487 62.1561 42.6856 62.3065 42.3073 62.3065C42.1611 62.3065 42.0125 62.3065 41.8664 62.3065C41.488 62.3065 41.125 62.1561 40.8572 61.8886C40.5897 61.6208 40.4393 61.2577 40.4393 60.8794C40.4393 60.8324 40.4393 60.7851 40.4393 60.738ZM6.29056 65.3238C6.29056 63.6574 7.64153 62.3065 9.30793 62.3065H12.5592C14.2256 62.3065 15.5766 63.6574 15.5766 65.3238V68.5752C15.5766 70.2416 14.2256 71.5925 12.5592 71.5925H9.30793C7.64153 71.5925 6.29056 70.2416 6.29056 68.5752V65.3238ZM71.5925 66.729C71.5925 65.9409 72.2315 65.302 73.0196 65.302C74.0473 65.302 75.4283 65.302 76.456 65.302C77.2441 65.302 77.8831 65.9409 77.8831 66.729V76.456C77.8831 77.2441 77.2441 77.8831 76.456 77.8831C76.409 77.8831 76.3617 77.8831 76.3146 77.8831C75.9363 77.8831 75.5732 77.7327 75.3055 77.4652C75.038 77.1974 74.8876 76.8344 74.8876 76.456V76.3146C74.8876 75.5265 74.2486 74.8876 73.4605 74.8876C72.4328 74.8876 71.0518 74.8876 70.0241 74.8876C69.236 74.8876 68.597 74.2486 68.597 73.4605C68.597 73.3143 68.597 73.1658 68.597 73.0196C68.597 72.2315 67.9581 71.5925 67.17 71.5925H66.729C65.9409 71.5925 65.302 72.2315 65.302 73.0196V73.4605C65.302 74.2486 64.663 74.8876 63.8749 74.8876H57.443C56.6549 74.8876 56.0159 74.2486 56.0159 73.4605V73.0196C56.0159 72.2315 56.6549 71.5925 57.443 71.5925C58.4707 71.5925 59.8517 71.5925 60.8794 71.5925C61.6675 71.5925 62.3065 70.9536 62.3065 70.1655C62.3065 70.1184 62.3065 70.0711 62.3065 70.0241C62.3065 69.6458 62.4568 69.2827 62.7243 69.0149C62.9921 68.7474 63.3552 68.597 63.7335 68.597C65.4799 68.597 68.4191 68.597 70.1655 68.597C70.9536 68.597 71.5925 67.9581 71.5925 67.17V66.729ZM43.7343 73.0196C43.7343 72.6413 43.8847 72.2782 44.1522 72.0104C44.42 71.7429 44.7831 71.5925 45.1614 71.5925C45.2084 71.5925 45.2558 71.5925 45.3028 71.5925C45.6811 71.5925 46.0442 71.7429 46.312 72.0104C46.5795 72.2782 46.7299 72.6413 46.7299 73.0196C46.7299 73.1658 46.7299 73.3143 46.7299 73.4605C46.7299 73.8389 46.5795 74.2019 46.312 74.4697C46.0442 74.7372 45.6811 74.8876 45.3028 74.8876C45.2558 74.8876 45.2084 74.8876 45.1614 74.8876C44.7831 74.8876 44.42 74.7372 44.1522 74.4697C43.8847 74.2019 43.7343 73.8389 43.7343 73.4605C43.7343 73.3143 43.7343 73.1658 43.7343 73.0196ZM24.8627 76.3146C24.8627 75.9363 25.0131 75.5732 25.2805 75.3055C25.5483 75.038 25.9114 74.8876 26.2897 74.8876C26.4359 74.8876 26.5845 74.8876 26.7307 74.8876C27.109 74.8876 27.4721 75.038 27.7399 75.3055C28.0074 75.5732 28.1577 75.9363 28.1577 76.3146C28.1577 76.3617 28.1577 76.409 28.1577 76.456C28.1577 76.8344 28.0074 77.1974 27.7399 77.4652C27.4721 77.7327 27.109 77.8831 26.7307 77.8831C26.5845 77.8831 26.4359 77.8831 26.2897 77.8831C25.9114 77.8831 25.5483 77.7327 25.2805 77.4652C25.0131 77.1974 24.8627 76.8344 24.8627 76.456C24.8627 76.409 24.8627 76.3617 24.8627 76.3146ZM37.4438 76.3146C37.4438 75.9363 37.5942 75.5732 37.8617 75.3055C38.1295 75.038 38.4925 74.8876 38.8709 74.8876H39.0122C39.3906 74.8876 39.7536 75.038 40.0214 75.3055C40.2889 75.5732 40.4393 75.9363 40.4393 76.3146V76.456C40.4393 76.8344 40.2889 77.1974 40.0214 77.4652C39.7536 77.7327 39.3906 77.8831 39.0122 77.8831H38.8709C38.4925 77.8831 38.1295 77.7327 37.8617 77.4652C37.5942 77.1974 37.4438 76.8344 37.4438 76.456V76.3146ZM49.7254 76.3146C49.7254 75.5265 50.3643 74.8876 51.1524 74.8876C52.1802 74.8876 53.5611 74.8876 54.5889 74.8876C55.377 74.8876 56.0159 75.5265 56.0159 76.3146C56.0159 76.3617 56.0159 76.409 56.0159 76.456C56.0159 77.2441 55.377 77.8831 54.5889 77.8831C53.5611 77.8831 52.1802 77.8831 51.1524 77.8831C50.3643 77.8831 49.7254 77.2441 49.7254 76.456C49.7254 76.409 49.7254 76.3617 49.7254 76.3146ZM65.302 76.3146C65.302 75.9363 65.4523 75.5732 65.7198 75.3055C65.9876 75.038 66.3507 74.8876 66.729 74.8876C66.8752 74.8876 67.0238 74.8876 67.17 74.8876C67.5483 74.8876 67.9114 75.038 68.1792 75.3055C68.4466 75.5732 68.597 75.9363 68.597 76.3146C68.597 76.3617 68.597 76.409 68.597 76.456C68.597 76.8344 68.4466 77.1974 68.1792 77.4652C67.9114 77.7327 67.5483 77.8831 67.17 77.8831C67.0238 77.8831 66.8752 77.8831 66.729 77.8831C66.3507 77.8831 65.9876 77.7327 65.7198 77.4652C65.4523 77.1974 65.302 76.8344 65.302 76.456C65.302 76.409 65.302 76.3617 65.302 76.3146Z" fill="#938876"/>
</svg>
