<svg fill="none" height="106" viewBox="0 0 330 106" width="330" xmlns="http://www.w3.org/2000/svg" xmlns:xlink="http://www.w3.org/1999/xlink"><filter id="a" color-interpolation-filters="sRGB" filterUnits="userSpaceOnUse" height="115.8" width="460.004" x="-65" y="-3"><feFlood flood-opacity="0" result="BackgroundImageFix"/><feColorMatrix in="SourceAlpha" result="hardAlpha" type="matrix" values="0 0 0 0 0 0 0 0 0 0 0 0 0 0 0 0 0 0 127 0"/><feOffset dy="2"/><feGaussianBlur stdDeviation="2.5"/><feComposite in2="hardAlpha" operator="out"/><feColorMatrix type="matrix" values="0 0 0 0 0 0 0 0 0 0 0 0 0 0 0 0 0 0 0.18 0"/><feBlend in2="BackgroundImageFix" mode="normal" result="effect1_dropShadow_282_223"/><feBlend in="SourceGraphic" in2="effect1_dropShadow_282_223" mode="normal" result="shape"/></filter><clipPath id="b"><path d="m0 0h330v106h-330z"/></clipPath><g clip-path="url(#b)"><g filter="url(#a)"><path d="m-60 43.0256h446v63.0686h-446z" fill="#f1dd02" transform="matrix(.9953359 -.09646994 .09646994 .9953359 -4.430523 -5.587521)"/></g><path d="m35.984 55.8232-.7337-7.4841 3.145-.3083.759 7.7429c.1931 1.9705.6942 3.1875 2.9036 2.9709 2.1895-.2146 2.4448-1.5057 2.2516-3.4763l-.7589-7.7428 3.1449-.3083.7336 7.4841c.4019 4.1004-.9992 6.2071-5.1195 6.611-4.16.4078-5.9237-1.3887-6.3256-5.4891zm17.1703 7.4203-3.0255.2966-1.2819-13.0773 2.6274-.2576.5308 1.3145c.5296-1.1572 1.7906-1.8234 2.8456-1.9268 2.5478-.2497 4.5562 1.5831 4.8703 4.7877.318 3.2445-1.304 5.3528-3.8518 5.6025-1.055.1034-2.4233-.3251-3.1676-1.3574zm-.9432-8.187c.199 2.0303 1.2781 2.7886 2.4724 2.6715 1.1744-.1151 2.074-1.188 1.8926-3.0391-.1776-1.8113-1.2762-2.7687-2.4506-2.6536-1.1943.1171-2.1134.9909-1.9144 3.0212zm14.3586-3.9999-.2263-2.3089 1.6321-.16-.2419-2.4682 3.0255-.2965.2419 2.4681 2.1497-.2107.2264 2.309-2.1497.2107.3902 3.9809c.0917.9355.4078 1.0854 1.3832.9898l.8758-.0859.2419 2.4682-1.9108.1873c-2.4284.238-3.3093-.1378-3.5376-2.4666l-.4682-4.7772zm8.0146 1.8269c-.3493-3.5629 1.9808-5.4191 4.7276-5.6884 2.707-.2653 5.373 1.1011 5.7223 4.664.3492 3.563-1.9968 5.4609-4.7038 5.7262-2.7469.2693-5.3969-1.1389-5.7461-4.7018zm4.9578-3.3396c-1.1943.117-2.0775.9472-1.8726 3.0372.2029 2.07 1.1966 2.7765 2.4306 2.6555 1.2142-.119 2.0518-1.005 1.8489-3.075-.2049-2.09-1.2325-2.7328-2.4069-2.6177zm13.2218 3.7681 2.6493-1.2645c.4652 1.2606 1.547 1.6369 2.6418 1.5296 1.254-.1229 1.988-.8379 1.8804-1.9327-.16-1.6322-1.9327-1.8804-3.9231-1.6853l-.2068-2.1099c2.289-.2244 3.4985-1.0061 3.3834-2.1805-.1015-1.035-1.1275-1.4569-2.2223-1.3496-.9753.0956-1.8699.6053-2.0096 1.8448l-2.8245-.7279c.5773-2.1063 2.6033-3.1691 4.7928-3.3837 2.4283-.238 5.0397.5711 5.2737 2.9596.141 1.4332-.666 2.6376-1.549 3.2667 1.363.3688 2.258 1.7079 2.377 2.9221.271 2.7667-2.104 4.3661-4.8312 4.6334-2.2492.2205-4.409-.4922-5.4319-2.5221zm17.5631 1.333c-2.309.2263-4.321-.6215-5.35-2.5101l2.533-1.2129c.505 1.2567 1.462 1.5849 2.437 1.4893 1.394-.1365 2.327-1.072 2.175-2.6246-.16-1.6322-1.349-2.2793-2.583-2.1583-.976.0956-1.687.6275-2.063 1.5084l-2.785-.7318.169-6.8893 8.898-.8722.241 2.4682-6.389.6263-.055 2.5173c.575-.4984 1.644-.8644 2.579-.9561 2.369-.2322 4.81 1.096 5.113 4.1812.298 3.0454-2.054 4.8836-4.92 5.1646zm21.364-2.0942c-2.17.2127-4.095-1.3871-4.308-3.5567-.212-2.1696 1.369-4.073 3.539-4.2857s4.091 1.3473 4.304 3.5169c.212 2.1696-1.366 4.1128-3.535 4.3255zm-11.231-4.8877c-2.169.2127-4.091-1.3473-4.303-3.517-.213-2.1696 1.365-4.1128 3.535-4.3254 2.149-.2108 4.094 1.3871 4.307 3.5567s-1.389 4.075-3.539 4.2857zm2.489 5.5034-2.508.2459 7.992-14.2075 2.528-.2478zm8.203-6.1094c-.856.0839-1.504.8508-1.42 1.7067.086.8758.871 1.5023 1.727 1.4184.855-.0839 1.504-.8508 1.418-1.7267-.084-.8558-.869-1.4823-1.725-1.3984zm-12.627-3.1431c.084.8559.849 1.4842 1.705 1.4003.876-.0858 1.504-.8508 1.42-1.7067-.085-.8758-.85-1.5041-1.726-1.4183-.856.0839-1.484.8489-1.399 1.7247zm23.898 2.3197c-.349-3.563 1.981-5.4191 4.728-5.6884 2.707-.2653 5.373 1.1011 5.722 4.664s-1.997 5.4609-4.704 5.7262c-2.747.2693-5.397-1.1389-5.746-4.7018zm4.958-3.3396c-1.194.117-2.077.9471-1.873 3.0371.203 2.0701 1.197 2.7765 2.431 2.6556 1.214-.119 2.052-1.005 1.849-3.0751-.205-2.0899-1.233-2.7328-2.407-2.6176zm5.821-.3294-.227-2.309 1.632-.16-.158-1.6122c-.23-2.3488.84-3.1168 3.507-3.3783l1.374-.1346.234 2.3885-.836.082c-1.075.1053-1.3.2681-1.226 1.0245l.131 1.3336 2.15-.2108.226 2.309-2.15.2107.742 7.5637-3.026.2966-.741-7.5637zm7.308-.7165-.226-2.3089 1.632-.16-.158-1.6123c-.23-2.3487.84-3.1168 3.507-3.3782l1.374-.1347.234 2.3886-.836.0819c-1.075.1054-1.3.2682-1.226 1.0245l.131 1.3336 2.149-.2107.227 2.3089-2.15.2108.741 7.5637-3.025.2966-.742-7.5638zm14.372-.4843c-.371-3.7819 2.41-7.1894 6.231-7.564 3.663-.359 6.987 2.1888 7.352 5.911l.023.2388c.131 2.5595-1.39 3.8541-2.823 3.9946-.916.0897-1.797-.2862-2.219-1.1089-.533.9164-1.368 1.4202-2.204 1.5022-1.393.1366-2.836-.8474-3.043-2.9572-.297-3.0255 1.459-4.1823 3.469-4.3794.796-.078 1.648-.0007 2.408.1659l.369 3.762c.089.9156.652 1.3227 1.209 1.268.657-.0643 1.333-.7536 1.292-2.1965l-.025-.2587c-.285-2.9061-2.865-4.8236-5.711-4.5446-3.065.3005-5.248 3.0465-4.953 6.0521.298 3.0454 3.025 5.2299 6.09 4.9294.955-.0937 1.788-.4164 2.577-.9761l.152 1.5526c-.781.4383-1.697.729-2.652.8227-3.782.3707-7.17-2.4121-7.542-6.2139zm5.244-.2126c.09.9156.652 1.3227 1.229 1.2661.637-.0624 1.275-.7279 1.16-1.9022l-.164-1.672c-.223-.0184-.485-.0328-.744-.0075-.836.082-1.655.5441-1.481 2.3156zm13.263-5.5202-4.28.4195-.271-2.7668 11.684-1.1453.271 2.7668-4.279.4195 1.032 10.5295-3.125.3063zm7.016 4.8989c-.308-3.145 1.903-5.3914 4.789-5.6743 3.245-.3181 5.499 1.9729 5.641 5.4758l-7.305.716c.237 1.3836 1.378 1.955 2.492 1.8457.936-.0917 1.583-.4566 1.919-.9316l2.494.6398c-.887 1.6142-2.49 2.4747-4.103 2.6328-3.204.3141-5.607-1.4399-5.927-4.7042zm5.089-3.4329c-1.134.1112-2.093.7879-2.139 2.159l4.498-.4409c-.164-1.27-1.184-1.8332-2.359-1.7181zm6.185 2.3277c-.308-3.1449 1.903-5.3914 4.789-5.6743 3.245-.318 5.499 1.973 5.642 5.4758l-7.305.7161c.236 1.3836 1.377 1.955 2.491 1.8457.936-.0917 1.583-.4566 1.919-.9316l2.494.6397c-.887 1.6142-2.49 2.4748-4.103 2.6328-3.204.3142-5.607-1.4398-5.927-4.7042zm5.09-3.4329c-1.135.1113-2.094.788-2.14 2.1591l4.498-.441c-.164-1.27-1.184-1.8332-2.358-1.7181zm10.531 10.1812-3.025.2966-1.282-13.0774 2.627-.2575.531 1.3145c.53-1.1572 1.791-1.8234 2.846-1.9268 2.547-.2498 4.556 1.5831 4.87 4.7877.318 3.2444-1.304 5.3527-3.852 5.6025-1.055.1034-2.423-.3252-3.168-1.3575zm-.943-8.187c.199 2.0302 1.278 2.7886 2.472 2.6715 1.175-.1151 2.074-1.188 1.893-3.0391-.178-1.8113-1.276-2.7687-2.451-2.6536-1.194.117-2.113.9909-1.914 3.0212zm8.493-5.7561 3.025-.2965.508 5.1752c.138 1.4132.293 2.5837 1.766 2.4393 1.274-.1249 1.68-.9082 1.5-2.7394l-.509-5.1951 3.045-.2985.968 9.8727-2.627.2575-.555-1.3523c-.482 1.0319-1.194 1.7648-2.706 1.9131-2.628.2575-3.57-1.1573-3.834-3.8444zm11.016-4.5363 3.026-.2966.468 4.7771c.53-1.1571 1.791-1.8233 2.846-1.9268 2.547-.2497 4.546 1.4836 4.862 4.7081.316 3.2246-1.296 5.4324-3.844 5.6821-1.055.1035-2.415-.2455-3.16-1.2778l-.247 1.3707-2.647.2595zm3.704 8.0571c.201 2.0502 1.274 2.7488 2.468 2.6318 1.175-.1152 2.065-1.2876 1.885-3.1188-.177-1.8113-1.268-2.6891-2.443-2.574-1.194.1171-2.107 1.0507-1.91 3.061zm9.184 1.2902-1.031-10.5096 3.026-.2966.952 9.7135c.092.9355.408 1.0854 1.423.9859l.856-.0839.242 2.4681-1.931.1893c-2.428.238-3.309-.1378-3.537-2.4667zm4.729-5.2865-.227-2.309 4.917-.4819.968 9.8727-3.046.2985-.741-7.5637zm3.017-4.2748c-.995.0976-1.871-.6405-1.967-1.6158-.098-.9952.621-1.8694 1.616-1.967s1.869.6206 1.967 1.6158c.095.9753-.621 1.8695-1.616 1.967zm9.082 10.9664c-3.265.3199-5.263-1.6143-5.569-4.7394-.305-3.1051 1.545-5.3562 4.55-5.6508 1.692-.1659 3.606.2896 4.713 2.1505l-2.439 1.1634c-.4-.8048-1.108-1.0569-1.864-.9828-1.095.1074-2.078.9472-1.873 3.0372.211 2.1497 1.356 2.7609 2.431 2.6556.836-.082 1.398-.4988 1.679-1.1092l2.556.6538c-.839 1.8909-2.612 2.6675-4.184 2.8217zm4.694-10.6488-.338-3.4435 3.862-.3785.337 3.4435-.344 5.0979-2.209.2166zm2.94 9.9004c-1.075.1054-2.037-.6846-2.142-1.7594s.686-2.0166 1.761-2.122c1.055-.1034 2.015.6667 2.12 1.7415.106 1.0749-.684 2.0365-1.739 2.1399zm-254.2386 40.4003 2.0736-.987c.3624.9291 1.2124 1.2979 2.3171 1.1896.8509-.0834 1.7502-.4428 1.6741-1.2191-.0688-.7017-.8489-.9718-1.9442-1.0755l-1.2326-.1203c-1.658-.154-3.1388-.8076-3.3056-2.5095-.2093-2.1348 1.9214-3.3082 3.9218-3.5043 1.6123-.158 3.2562.3138 4.0339 1.79l-2.0587.9855c-.3345-.6454-1.0578-.9513-1.9983-.8591-.9107.0893-1.5637.4999-1.5037 1.112.0497.5076.5342.8369 1.234.9039l1.37.137c1.6444.1704 3.6647.4848 3.8667 2.5449.2078 2.1199-1.8263 3.5099-3.8865 3.7119-2.1795.2136-3.7929-.5627-4.5616-2.1zm9.1869-.5539c-.1771-1.8063 1.8081-2.6189 4.6539-3.1088l-.0278-.2837c-.0834-.8509-.562-1.1205-1.3532-1.0429-.627.0614-1.1067.3948-1.1975 1.0066l-1.9781-.4994c.396-1.0336 1.5171-1.8971 3.219-2.0639 2.1049-.2063 3.3676.529 3.5871 2.7683l.1595 1.6272c.0952.9703.3255 2.2439.5377 2.8712l-2.1049.2063-.3565-.8693c-.4763.8304-1.3129 1.2138-2.3728 1.3177-1.4032.1376-2.6347-.5857-2.7664-1.9293zm4.8304-1.7697c-1.5543.288-2.5788.5995-2.5027 1.3757.0468.4778.5254.7474 1.1225.6888.8957-.0878 1.5309-.5268 1.3978-1.8853zm5.903 2.7372-3.3682-7.1455 2.3438-.2297 2.077 4.8907 1.0878-5.201 2.3438-.2297-1.9315 7.665zm5.0607-4.2791c-.2312-2.3587 1.4273-4.0435 3.5919-4.2557 2.4334-.2385 4.1241 1.4797 4.2309 4.1068l-5.4788.5371c.1771 1.0377 1.033 1.4662 1.869 1.3842.7016-.0687 1.1872-.3424 1.4387-.6986l1.8707.4797c-.665 1.2107-1.8678 1.8561-3.077 1.9747-2.4035.2356-4.2054-1.0799-4.4454-3.5282zm3.817-2.5747c-.8509.0835-1.5698.591-1.6047 1.6193l3.3739-.3307c-.1236-.9525-.8884-1.3749-1.7692-1.2886zm9.4218 1.2921c-.262-2.6722 1.4856-4.0644 3.5457-4.2663 2.0303-.199 4.0298.8258 4.2917 3.498.262 2.6722-1.4976 4.0956-3.5278 4.2946-2.0602.202-4.0477-.8542-4.3096-3.5263zm3.7184-2.5047c-.8957.0878-1.5582.7103-1.4045 2.2778.1522 1.5526.8974 2.0824 1.823 1.9917.9106-.0893 1.5388-.7537 1.3866-2.3063-.1536-1.5675-.9244-2.0496-1.8051-1.9632zm4.8674-2.0446 1.9854-.1947.3803.9575c.2742-.5845 1.0324-1.3069 2.1669-1.4182 1.9109-.1873 2.6014.8604 2.7975 2.8608l.4419 4.5084-2.2691.2224-.3863-3.9411c-.1025-1.045-.2321-1.9065-1.3219-1.7996-.9554.0936-1.3047.8362-1.173 2.1798l.3732 3.8067-2.2691.2225zm13.4476 3.7911 2.0736-.987c.3624.9291 1.2124 1.298 2.3171 1.1897.851-.0834 1.7502-.4429 1.6741-1.2192-.0688-.7016-.8489-.9718-1.9442-1.0754l-1.2326-.1204c-1.658-.1539-3.1388-.8076-3.3056-2.5094-.2093-2.1348 1.9214-3.3083 3.9218-3.5044 1.6123-.158 3.2562.3139 4.0339 1.7901l-2.0587.9855c-.3345-.6455-1.0578-.9513-1.9983-.8592-.9107.0893-1.5637.5-1.5037 1.112.0497.5076.5342.8369 1.2341.904l1.3699.137c1.6444.1704 3.6647.4848 3.8667 2.5449.2078 2.1198-1.8263 3.5099-3.8864 3.7118-2.1796.2137-3.793-.5626-4.5617-2.1zm8.7374-4.2175-.1698-1.7317 1.2242-.12-.1815-1.8511 2.2691-.2224.181 1.8511 1.613-.158.169 1.7317-1.612.158.293 2.9857c.069.7016.306.814 1.037.7423l.657-.0643.182 1.8511-1.434.1405c-1.821.1785-2.4815-.1034-2.6527-1.85l-.3512-3.5829zm5.821-.5705-.17-1.7317 3.687-.3615.726 7.4045-2.284.2239-.556-5.6728zm2.263-3.2061c-.747.0732-1.404-.4804-1.476-1.2119-.073-.7464.466-1.402 1.212-1.4752.747-.0732 1.402.4654 1.476 1.2118.071.7315-.466 1.4021-1.212 1.4753zm6.811 8.2248c-2.448.2399-3.947-1.2108-4.177-3.5545-.228-2.3289 1.159-4.0172 3.413-4.2382 1.269-.1244 2.704.2172 3.534 1.6129l-1.828.8726c-.301-.6036-.832-.7927-1.399-.7371-.821.0805-1.558.7104-1.404 2.2779.158 1.6122 1.017 2.0706 1.823 1.9916.627-.0614 1.048-.374 1.26-.8318l1.917.4903c-.63 1.4182-1.96 2.0006-3.139 2.1163zm3.357-10.578 2.269-.2224.527 5.3742 2.203-3.0495 2.687-.2634-2.593 3.3741 3.543 4.0085-2.687.2634-2.189-2.4983-.696.8971.183 1.8661-2.269.2224zm8.255 5.4758c-.231-2.3587 1.427-4.0435 3.592-4.2557 2.433-.2385 4.124 1.4797 4.231 4.1068l-5.479.5371c.177 1.0377 1.033 1.4662 1.869 1.3843.702-.0688 1.187-.3425 1.439-.6987l1.87.4798c-.665 1.2106-1.868 1.856-3.077 1.9746-2.403.2356-4.205-1.0799-4.445-3.5282zm3.817-2.5747c-.851.0835-1.57.591-1.605 1.6193l3.374-.3307c-.123-.9525-.888-1.3749-1.769-1.2886zm7.663 5.2324-2.269.2225-.726-7.4046 1.791-.1756.537 1.319c.345-1.2396 1.094-1.7501 2.235-1.8016l.222 2.2691c-.242-.0064-.407-.0053-.616.0152-1.105.1083-1.655.6446-1.54 1.8239zm6.498-.456c-1.732.1697-3.124-.342-3.812-1.5254l1.857-.8904c.285.605.986.8377 1.837.7543.731-.0717 1.381-.3615 1.336-.8242-.031-.3135-.35-.4933-1.215-.5591l-1.351-.0937c-1.457-.0984-2.514-.7333-2.635-1.9724-.152-1.5525 1.338-2.4974 3.174-2.6774 1.418-.139 2.779.2099 3.445 1.3202l-1.842.8889c-.202-.5227-.784-.6164-1.456-.5506-.806.0791-1.203.329-1.165.7172.029.2985.3.4528.969.5078l1.398.1192c1.824.1528 2.711.5934 2.833 1.8324.171 1.7467-1.388 2.7585-3.373 2.9532zm5.76-.6099c-.656-.0864-1.191-.6218-1.258-1.3085-.079-.8061.515-1.5124 1.321-1.5914.791-.0776 1.511.4999 1.591 1.321.018.1791.005.3612-.038.5313l-.863 3.0386-1.343.1317zm9.837-9.0729-3.21.3146-.203-2.0751 8.763-.859.203 2.0751-3.209.3146.774 7.8972-2.344.2297zm5.262 3.6741c-.231-2.3587 1.428-4.0435 3.592-4.2557 2.433-.2385 4.124 1.4797 4.231 4.1069l-5.479.537c.177 1.0377 1.033 1.4662 1.869 1.3843.702-.0688 1.187-.3425 1.439-.6987l1.871.4798c-.665 1.2106-1.868 1.856-3.077 1.9746-2.404.2356-4.206-1.0799-4.446-3.5282zm3.817-2.5746c-.851.0834-1.57.5909-1.604 1.6192l3.373-.3307c-.123-.9525-.888-1.3749-1.769-1.2885zm4.639 1.7458c-.231-2.3587 1.427-4.0436 3.592-4.2557 2.433-.2386 4.124 1.4797 4.231 4.1068l-5.479.5371c.177 1.0376 1.033 1.4662 1.869 1.3842.701-.0688 1.187-.3424 1.438-.6987l1.871.4798c-.665 1.2107-1.868 1.8561-3.077 1.9746-2.403.2356-4.205-1.0799-4.445-3.5281zm3.817-2.5747c-.851.0834-1.57.591-1.605 1.6193l3.374-.3307c-.124-.9525-.888-1.3749-1.769-1.2886zm8.606 5.3208c-1.732.1698-3.123-.3419-3.812-1.5254l1.857-.8904c.285.6051.986.8378 1.837.7544.732-.0717 1.382-.3615 1.336-.8243-.03-.3135-.349-.4932-1.215-.5591l-1.351-.0937c-1.456-.0984-2.513-.7333-2.635-1.9723-.152-1.5526 1.338-2.4975 3.174-2.6775 1.419-.139 2.779.21 3.446 1.3202l-1.842.889c-.202-.5228-.784-.6165-1.456-.5506-.806.079-1.204.329-1.166.7171.03.2986.301.4528.969.5079l1.399.1191c1.823.1529 2.711.5934 2.832 1.8325.171 1.7466-1.388 2.7585-3.373 2.9531zm5.761-.6099c-.657-.0863-1.192-.6217-1.259-1.3084-.079-.8062.515-1.5125 1.321-1.5915.791-.0776 1.511.5 1.592 1.321.017.1792.005.3612-.039.5313l-.862 3.0387-1.344.1317zm6.856-10.8758 3.538-.3468 2.776 6.9473 1.404-7.357 3.538-.3468.978 9.9722-2.299.2253-.768-7.8374-1.606 8.0701-1.94.1902-3.127-7.6062.768 7.8374-2.284.2239zm12.908 1.3271 2.269-.2224.381 3.8814c.104 1.0599.22 1.9378 1.325 1.8295.955-.0937 1.259-.6812 1.125-2.0546l-.382-3.8963 2.284-.2239.725 7.4045-1.97.1932-.416-1.0143c-.361.7739-.895 1.3237-2.03 1.4349-1.97.1931-2.677-.868-2.875-2.8833zm8.473 2.7415c-.253-2.5826 1.213-3.917 2.751-4.0678.941-.0922 1.894.2515 2.54 1.002l.199-1.0444 1.956-.1917.671 6.8522c.245 2.493-1.111 3.7262-3.425 3.953-1.225.12-2.637-.1484-3.457-1.4396l1.785-.8532c.321.5111.92.6182 1.442.567.911-.0893 1.545-.5433 1.445-1.5584l-.13-1.3286c-.565.8541-1.394 1.3122-2.23 1.3941-1.612.1581-3.326-1.0304-3.547-3.2846zm2.347-.3506c.129 1.3137.938 1.8825 1.834 1.7947.88-.0864 1.583-.6074 1.441-2.0555-.142-1.448-.935-1.8526-1.816-1.7662-.896.0878-1.587.7282-1.459 2.027zm10.54 3.1719c-1.732.1697-3.124-.3419-3.812-1.5254l1.857-.8904c.285.605.986.8378 1.837.7543.732-.0717 1.381-.3614 1.336-.8242-.031-.3135-.35-.4932-1.215-.5591l-1.351-.0937c-1.456-.0984-2.513-.7333-2.635-1.9724-.152-1.5525 1.338-2.4974 3.174-2.6774 1.418-.139 2.779.21 3.445 1.3202l-1.842.889c-.202-.5228-.784-.6165-1.455-.5506-.807.079-1.204.3289-1.166.7171.029.2986.301.4528.969.5079l1.398.1191c1.824.1528 2.711.5934 2.833 1.8325.171 1.7466-1.388 2.7585-3.373 2.9531zm8.876-3.9297c-.105-1.0748.487-2.2633 2.075-3.1273-.721-.7432-1.066-1.4932-1.132-2.165-.148-1.5077 1.095-2.6695 2.857-2.8422 1.448-.1419 2.981.8984 3.122 2.3316.085.8658-.343 1.8874-1.619 2.8565l1.561 1.4747c.315-.6337.543-1.3795.639-2.248l1.896-.1858c-.094 1.5013-.576 2.8899-1.136 3.7888l2.078 1.9817-2.627.2576-.764-.7239c-1.066.8129-2.098 1.2004-3.039 1.2926-2.135.2092-3.757-1.1238-3.911-2.6913zm2.365-.3222c.066.6717.766 1.206 1.662 1.1182.463-.0454 1.014-.2652 1.533-.6627l-2.092-1.9653c-.847.4297-1.153 1.0022-1.103 1.5098zm1.512-6.1016c-.523.0512-.91.4056-.86.9132.038.3882.343.8858 1.072 1.4021.722-.4777.984-1.0309.941-1.4638-.052-.5374-.541-.9115-1.153-.8515zm14.324 7.5185-2.27.2224-.725-7.4045 1.985-.1947.38.9575c.275-.5845 1.018-1.3055 2.123-1.4138 1.179-.1156 1.893.2515 2.315 1.024.487-.8767 1.372-1.3854 2.417-1.4878 1.896-.1859 2.601.8603 2.797 2.8607l.442 4.5084-2.269.2224-.386-3.9411c-.103-1.045-.247-1.905-1.337-1.7982-.926.0908-1.251.7707-1.124 2.0695l.384 3.9113-2.284.2239-.386-3.9411c-.103-1.045-.233-1.9065-1.293-1.8026-.94.0922-1.274.8333-1.148 2.1172zm10.083-4.7564c-.262-2.6722 1.485-4.0643 3.545-4.2663 2.031-.199 4.03.8259 4.292 3.498.262 2.6722-1.498 4.0957-3.528 4.2947-2.06.2019-4.047-.8542-4.309-3.5264zm3.718-2.5047c-.896.0878-1.558.7104-1.405 2.2779.153 1.5525.898 2.0824 1.823 1.9916.911-.0892 1.539-.7537 1.387-2.3062-.154-1.5675-.924-2.0496-1.805-1.9633zm7.862 5.1375-2.269.2224-.726-7.4045 1.792-.1756.536 1.319c.346-1.2397 1.094-1.7501 2.235-1.8016l.222 2.2691c-.241-.0065-.407-.0053-.616.0152-1.105.1083-1.655.6445-1.54 1.8239zm2.53-4.031c-.231-2.3587 1.428-4.0436 3.592-4.2558 2.433-.2385 4.124 1.4798 4.231 4.1069l-5.479.537c.177 1.0377 1.033 1.4663 1.869 1.3843.702-.0688 1.187-.3424 1.439-.6987l1.871.4798c-.665 1.2107-1.868 1.8561-3.077 1.9746-2.404.2356-4.206-1.0799-4.446-3.5281zm3.817-2.5747c-.851.0834-1.57.591-1.604 1.6193l3.373-.3307c-.123-.9525-.888-1.3749-1.769-1.2886zm12.986 3.4144c-.079-.8061.514-1.5274 1.32-1.6064s1.512.5149 1.591 1.3211c.079.8061-.498 1.5259-1.304 1.6049s-1.528-.5135-1.607-1.3196zm-7.852.7697c-.079-.8061.513-1.5273 1.32-1.6064.791-.0775 1.512.5149 1.591 1.3211.079.8061-.513 1.5274-1.305 1.6049-.806.079-1.527-.5134-1.606-1.3196zm3.941-.3863c-.079-.8061.484-1.5244 1.29-1.6035.806-.079 1.527.5135 1.606 1.3196.079.8062-.513 1.5274-1.319 1.6064-.807.079-1.498-.5164-1.577-1.3225z" fill="#1e1e1e"/></g></svg>