<svg fill="none" height="147" viewBox="0 0 330 147" width="330" xmlns="http://www.w3.org/2000/svg" xmlns:xlink="http://www.w3.org/1999/xlink"><filter id="a" color-interpolation-filters="sRGB" filterUnits="userSpaceOnUse" height="153.353" width="463.644" x="-65" y="-3"><feFlood flood-opacity="0" result="BackgroundImageFix"/><feColorMatrix in="SourceAlpha" result="hardAlpha" type="matrix" values="0 0 0 0 0 0 0 0 0 0 0 0 0 0 0 0 0 0 127 0"/><feOffset dy="2"/><feGaussianBlur stdDeviation="2.5"/><feComposite in2="hardAlpha" operator="out"/><feColorMatrix type="matrix" values="0 0 0 0 0 0 0 0 0 0 0 0 0 0 0 0 0 0 0.18 0"/><feBlend in2="BackgroundImageFix" mode="normal" result="effect1_dropShadow_288_177"/><feBlend in="SourceGraphic" in2="effect1_dropShadow_288_177" mode="normal" result="shape"/></filter><filter id="b" color-interpolation-filters="sRGB" filterUnits="userSpaceOnUse" height="55.8069" width="454.189" x="-55.5459" y="94.5464"><feFlood flood-opacity="0" result="BackgroundImageFix"/><feColorMatrix in="SourceAlpha" result="hardAlpha" type="matrix" values="0 0 0 0 0 0 0 0 0 0 0 0 0 0 0 0 0 0 127 0"/><feOffset dy="2"/><feGaussianBlur stdDeviation="2.5"/><feComposite in2="hardAlpha" operator="out"/><feColorMatrix type="matrix" values="0 0 0 0 0 0 0 0 0 0 0 0 0 0 0 0 0 0 0.18 0"/><feBlend in2="BackgroundImageFix" mode="normal" result="effect1_dropShadow_288_177"/><feBlend in="SourceGraphic" in2="effect1_dropShadow_288_177" mode="normal" result="shape"/></filter><clipPath id="c"><path d="m0 0h330v147h-330z"/></clipPath><g clip-path="url(#c)"><g filter="url(#a)"><path d="m-60 43.0256h446v100.798h-446z" fill="#1e1e1e" transform="matrix(.9953359 -.09646994 .09646994 .9953359 -4.430523 -5.587521)"/></g><g filter="url(#b)"><path d="m-50.5459 140.572h446v2.79437h-446z" fill="#161616" transform="matrix(.9953359 -.09646994 .09646994 .9953359 -13.796724 -4.220518)"/></g><path d="m42.4244 91.0847-.7336-7.4842 3.1449-.3082.759 7.7428c.1932 1.9706.6943 3.1875 2.9037 2.9709 2.1895-.2146 2.4448-1.5056 2.2516-3.4762l-.759-7.7429 3.1449-.3083.7337 7.4842c.4019 4.1003-.9993 6.2071-5.1195 6.6109-4.1601.4078-5.9237-1.3887-6.3257-5.489zm17.1704 7.4203-3.0255.2966-1.2819-13.0774 2.6274-.2575.5307 1.3145c.5297-1.1572 1.7907-1.8234 2.8456-1.9268 2.5478-.2498 4.5562 1.5831 4.8703 4.7877.3181 3.2444-1.304 5.3527-3.8518 5.6025-1.0549.1034-2.4232-.3252-3.1675-1.3575zm-.9432-8.187c.199 2.0302 1.2781 2.7886 2.4724 2.6715 1.1744-.1151 2.074-1.188 1.8925-3.0391-.1775-1.8114-1.2762-2.7687-2.4505-2.6536-1.1943.117-2.1135.9909-1.9144 3.0212zm14.3586-3.9999-.2264-2.3089 1.6322-.16-.2419-2.4682 3.0255-.2966.2419 2.4682 2.1497-.2107.2263 2.3089-2.1497.2107.3903 3.981c.0917.9355.4078 1.0853 1.3831.9897l.8758-.0858.242 2.4682-1.9109.1873c-2.4283.238-3.3092-.1378-3.5375-2.4667l-.4683-4.7771zm8.0145 1.8268c-.3492-3.5629 1.9808-5.419 4.7276-5.6883 2.7071-.2654 5.3731 1.1011 5.7223 4.664.3493 3.5629-1.9967 5.4609-4.7038 5.7262-2.7468.2693-5.3968-1.1389-5.7461-4.7019zm4.9579-3.3396c-1.1943.1171-2.0775.9472-1.8727 3.0372.203 2.0701 1.1966 2.7765 2.4307 2.6556 1.2142-.1191 2.0517-1.005 1.8488-3.0751-.2048-2.09-1.2324-2.7328-2.4068-2.6177zm13.2217 3.7682 2.6497-1.2645c.465 1.2606 1.547 1.6369 2.641 1.5295 1.254-.1229 1.988-.8379 1.881-1.9326-.16-1.6322-1.933-1.8805-3.923-1.6853l-.207-2.1099c2.289-.2244 3.498-1.0061 3.383-2.1805-.101-1.035-1.127-1.457-2.222-1.3496-.975.0956-1.87.6053-2.01 1.8448l-2.824-.7279c.5772-2.1064 2.603-3.1691 4.793-3.3837 2.428-.2381 5.039.571 5.274 2.9596.14 1.4331-.666 2.6375-1.549 3.2667 1.362.3688 2.257 1.7079 2.376 2.9221.272 2.7667-2.104 4.3661-4.831 4.6334-2.249.2204-4.409-.4923-5.4317-2.5221zm17.5637 1.3329c-2.309.2263-4.322-.6214-5.351-2.51l2.534-1.213c.505 1.2568 1.461 1.585 2.437 1.4894 1.393-.1366 2.326-1.0721 2.174-2.6246-.16-1.6322-1.349-2.2793-2.583-2.1584-.975.0956-1.687.6276-2.062 1.5085l-2.785-.7319.169-6.8893 8.897-.8721.242 2.4681-6.389.6263-.055 2.5174c.574-.4984 1.643-.8645 2.579-.9562 2.369-.2322 4.81 1.096 5.112 4.1812.299 3.0454-2.053 4.8837-4.919 5.1646zm21.363-2.0941c-2.169.2126-4.095-1.3872-4.307-3.5568-.213-2.1696 1.369-4.073 3.538-4.2857 2.17-.2126 4.091 1.3474 4.304 3.517s-1.365 4.1128-3.535 4.3255zm-11.23-4.8878c-2.17.2127-4.091-1.3473-4.304-3.5169-.212-2.1696 1.365-4.1128 3.535-4.3255 2.15-.2107 4.095 1.3872 4.308 3.5568.212 2.1696-1.389 4.0749-3.539 4.2856zm2.489 5.5035-2.508.2458 7.992-14.2074 2.528-.2478zm8.203-6.1094c-.856.0839-1.504.8508-1.421 1.7067.086.8758.871 1.5022 1.727 1.4183s1.504-.8508 1.418-1.7266c-.084-.8559-.868-1.4823-1.724-1.3984zm-12.627-3.1432c.084.8559.849 1.4843 1.705 1.4004.875-.0858 1.504-.8508 1.42-1.7067-.086-.8758-.851-1.5042-1.727-1.4183-.856.0839-1.484.8488-1.398 1.7246zm23.898 2.3197c-.35-3.5629 1.98-5.4191 4.727-5.6883 2.707-.2654 5.373 1.1011 5.723 4.664.349 3.5629-1.997 5.4608-4.704 5.7262-2.747.2692-5.397-1.139-5.746-4.7019zm4.957-3.3396c-1.194.1171-2.077.9472-1.872 3.0372.203 2.0701 1.196 2.7765 2.431 2.6555 1.214-.119 2.051-1.0049 1.848-3.075-.205-2.09-1.232-2.7328-2.407-2.6177zm5.821-.3294-.226-2.3089 1.632-.16-.158-1.6123c-.23-2.3487.84-3.1168 3.507-3.3782l1.373-.1347.234 2.3886-.836.0819c-1.074.1054-1.3.2681-1.225 1.0245l.13 1.3336 2.15-.2107.226 2.3089-2.149.2108.741 7.5637-3.025.2966-.742-7.5638zm7.309-.7164-.227-2.3089 1.633-.16-.159-1.6123c-.23-2.3487.84-3.1168 3.508-3.3783l1.373-.1346.234 2.3886-.836.0819c-1.075.1054-1.3.2681-1.226 1.0245l.131 1.3336 2.15-.2107.226 2.3089-2.15.2107.742 7.5638-3.026.2965-.741-7.5637zm14.371-.4843c-.371-3.7819 2.41-7.1894 6.232-7.5641 3.662-.359 6.987 2.1889 7.352 5.911l.023.2389c.13 2.5595-1.391 3.854-2.824 3.9945-.915.0898-1.796-.2861-2.219-1.1088-.533.9164-1.368 1.4202-2.204 1.5022-1.393.1365-2.836-.8474-3.043-2.9573-.296-3.0255 1.459-4.1823 3.47-4.3793.796-.0781 1.648-.0008 2.407.1659l.369 3.7619c.09.9157.652 1.3227 1.21 1.2681.657-.0644 1.332-.7536 1.292-2.1965l-.026-.2588c-.285-2.906-2.864-4.8235-5.71-4.5445-3.066.3004-5.248 3.0465-4.954 6.052.299 3.0455 3.025 5.2299 6.09 4.9295.956-.0937 1.788-.4165 2.577-.9761l.153 1.5525c-.781.4383-1.697.7291-2.653.8227-3.782.3707-7.169-2.412-7.542-6.2138zm5.244-.2127c.09.9157.652 1.3227 1.23 1.2662.637-.0625 1.275-.7279 1.16-1.9023l-.164-1.672c-.223-.0183-.486-.0328-.745-.0074-.836.082-1.654.544-1.481 2.3155zm13.263-5.5202-4.279.4195-.272-2.7667 11.684-1.1453.272 2.7667-4.28.4195 1.032 10.5295-3.125.3064zm7.017 4.8989c-.309-3.1449 1.903-5.3914 4.789-5.6743 3.244-.318 5.498 1.973 5.641 5.4758l-7.305.7161c.236 1.3835 1.377 1.9549 2.492 1.8457.935-.0917 1.583-.4566 1.918-.9316l2.494.6397c-.886 1.6142-2.49 2.4748-4.102 2.6328-3.205.3142-5.608-1.4398-5.927-4.7042zm5.089-3.4329c-1.135.1113-2.093.788-2.14 2.1591l4.499-.441c-.165-1.27-1.185-1.8332-2.359-1.7181zm6.185 2.3278c-.309-3.1449 1.903-5.3914 4.789-5.6743 3.244-.318 5.499 1.973 5.641 5.4758l-7.305.7161c.236 1.3835 1.377 1.9549 2.492 1.8457.935-.0917 1.583-.4567 1.918-.9316l2.495.6397c-.887 1.6142-2.491 2.4748-4.103 2.6328-3.205.3141-5.607-1.4399-5.927-4.7042zm5.089-3.4329c-1.135.1112-2.093.788-2.14 2.159l4.499-.4409c-.165-1.27-1.185-1.8332-2.359-1.7181zm10.532 10.1812-3.026.2965-1.282-13.0773 2.628-.2575.53 1.3144c.53-1.1571 1.791-1.8233 2.846-1.9268 2.548-.2497 4.556 1.5831 4.87 4.7878.318 3.2444-1.304 5.3527-3.852 5.6024-1.054.1035-2.423-.3251-3.167-1.3574zm-.944-8.1871c.199 2.0303 1.279 2.7886 2.473 2.6716 1.174-.1152 2.074-1.188 1.892-3.0392-.177-1.8113-1.276-2.7687-2.45-2.6536-1.195.1171-2.114.9909-1.915 3.0212zm8.493-5.756 3.026-.2966.507 5.1752c.139 1.4133.294 2.5837 1.767 2.4393 1.273-.1248 1.679-.9081 1.5-2.7393l-.51-5.1951 3.046-.2986.967 9.8727-2.627.2576-.555-1.3524c-.481 1.0319-1.193 1.7649-2.706 1.9132-2.627.2575-3.57-1.1573-3.833-3.8444zm11.017-4.5363 3.025-.2966.468 4.7771c.53-1.1572 1.791-1.8234 2.846-1.9268 2.548-.2497 4.546 1.4835 4.863 4.7081.316 3.2245-1.297 5.4324-3.844 5.6821-1.055.1034-2.416-.2455-3.16-1.2778l-.248 1.3706-2.647.2595zm3.703 8.0571c.201 2.0502 1.275 2.7488 2.469 2.6317 1.174-.1151 2.064-1.2875 1.885-3.1187-.178-1.8113-1.269-2.6891-2.443-2.574-1.194.1171-2.108 1.0506-1.911 3.061zm9.184 1.2902-1.03-10.5096 3.025-.2966.953 9.7135c.091.9355.407 1.0853 1.423.9858l.855-.0839.242 2.4682-1.93.1893c-2.429.238-3.31-.1379-3.538-2.4667zm4.729-5.2866-.226-2.3089 4.916-.4819.968 9.8727-3.045.2985-.742-7.5638zm3.017-4.2747c-.995.0975-1.871-.6405-1.967-1.6158-.097-.9953.621-1.8695 1.616-1.967.996-.0976 1.87.6205 1.967 1.6158.096.9753-.62 1.8694-1.616 1.967zm9.082 10.9663c-3.264.32-5.262-1.6143-5.569-4.7393-.304-3.1051 1.545-5.3563 4.551-5.6509 1.692-.1658 3.605.2897 4.712 2.1506l-2.438 1.1634c-.401-.8048-1.109-1.0569-1.865-.9828-1.095.1073-2.077.9472-1.873 3.0372.211 2.1497 1.356 2.7609 2.431 2.6555.836-.0819 1.398-.4987 1.68-1.1092l2.556.6538c-.84 1.8909-2.612 2.6676-4.185 2.8217zm4.694-10.6487-.337-3.4435 3.861-.3785.338 3.4435-.344 5.0979-2.21.2165zm2.94 9.9004c-1.075.1054-2.036-.6846-2.142-1.7594-.105-1.0749.687-2.0166 1.762-2.122 1.055-.1034 2.014.6666 2.12 1.7415.105 1.0748-.685 2.0365-1.74 2.1399zm-228.0576 40.3928c-3.3121.325-5.5261-1.596-5.8586-4.988-.3293-3.36 1.546-5.714 4.8422-6.037 2.0063-.197 3.6462.623 4.605 2.04l-2.1497 1.031c-.562-.813-1.4722-1.077-2.332-.993-1.4809.145-2.5185 1.533-2.3062 3.698.2185 2.23 1.4996 3.326 3.0123 3.178.7962-.078 1.741-.444 2.1441-1.416l2.293.595c-.7116 1.597-2.2437 2.696-4.2501 2.892zm5.0237-.685 2.986-11.032 2.7708-.272 5.0713 10.243-2.7388.268-.8227-1.832-4.0765.399-.4512 1.958zm4.6162-8.507-.9412 4.176 2.7071-.266zm10.6452 7.172c-1.9917.018-3.4548-.803-4.1938-2.274l2.2119-1.053c.3009.775.9195 1.18 1.779 1.257l-.245-2.5-.667-.08c-1.7572-.213-3.3464-.845-3.5259-2.676-.2014-2.055 1.6574-3.266 3.5669-3.63l-.1077-1.0985 1.1625-.1139.1077 1.0984c1.5571-.024 3.0255.524 3.7582 1.931l-2.1959 1.051c-.2585-.505-.7387-.812-1.3594-.912l.2232 2.277.1783.015c1.751.15 3.9091.517 4.1245 2.715.2045 2.086-1.634 3.504-3.6535 3.895l.1187 1.21-1.1625.114zm.9642-2.136c.7088-.15 1.3782-.538 1.3049-1.286-.0562-.573-.6463-.853-1.5296-1.008zm-3.0488-5.682c.0531.541.5714.908 1.3164.964l.0971.007-.2061-2.102c-.755.17-1.262.574-1.2074 1.131zm7.9431 5.073.6363-.561c1.6761-1.434 4.6582-3.977 4.4818-5.776-.0811-.828-.808-1.191-1.5883-1.115-.6688.066-1.3541.455-1.4962 1.465l-2.2755-.581c.4281-1.537 1.8278-2.5099 3.7068-2.6941 2.1656-.2122 3.8991.7431 4.0942 2.7341.2108 2.149-1.5268 4.104-4.4699 6.225l5.0796-.498.1951 1.991-8.1688.801zm9.1776-4.276c-.334-3.407 1.038-5.6478 4.0154-5.9397 2.994-.2934 4.775 1.6377 5.109 5.0457.332 3.392-1.035 5.68-4.029 5.974-2.9773.291-4.7629-1.688-5.0954-5.08zm2.4617-1.784c-.0359.453-.0353.952.0224 1.541.2513 2.564 1.2093 3.643 2.4353 3.523.51-.05.937-.285 1.231-.731zm1.7307-2.356c-.478.047-.875.262-1.1749.645l3.6499 4.273c.023-.421.008-.901-.042-1.411-.252-2.58-1.191-3.629-2.433-3.507zm74.862-4.3322-.181-1.8472 1.305-.128-.193-1.9745 2.42-.2373.194 1.9746 1.72-.1686.181 1.8471-1.72.1686.312 3.1848c.073.7484.326.8683 1.107.7918l.7-.0687.194 1.9746-1.529.15c-1.943.19-2.647-.11-2.83-1.9735l-.374-3.8217zm6.41 1.4455c-.247-2.5159 1.522-4.3131 3.831-4.5394 2.596-.2544 4.399 1.5784 4.513 4.3806l-5.844.5729c.189 1.1068 1.102 1.5639 1.994 1.4765.748-.0733 1.266-.3653 1.534-.7452l1.996.5117c-.71 1.2916-1.993 1.9796-3.282 2.1066-2.564.251-4.486-1.1522-4.742-3.7637zm4.071-2.7463c-.907.089-1.674.6304-1.711 1.7272l3.598-.3527c-.131-1.016-.947-1.4666-1.887-1.3745zm4.948 1.8622c-.246-2.5159 1.523-4.3131 3.832-4.5394 2.595-.2544 4.399 1.5784 4.512 4.3806l-5.844.5729c.189 1.1068 1.102 1.5639 1.994 1.4765.748-.0733 1.266-.3653 1.535-.7452l1.995.5117c-.709 1.2914-1.992 1.9797-3.282 2.1067-2.564.251-4.486-1.1523-4.742-3.7638zm4.072-2.7463c-.908.089-1.675.6304-1.712 1.7272l3.599-.3527c-.132-1.016-.948-1.4666-1.887-1.3745zm9.18 5.6755c-1.848.1811-3.332-.3647-4.066-1.6271l1.98-.9497c.305.6454 1.052.8936 1.96.8046.78-.0765 1.474-.3856 1.425-.8792-.033-.3344-.373-.5261-1.296-.5964l-1.441-.0999c-1.553-.1049-2.681-.7822-2.81-2.1038-.163-1.6561 1.426-2.664 3.385-2.856 1.513-.1482 2.964.224 3.675 1.4083l-1.965.9482c-.215-.5577-.836-.6576-1.553-.5874-.859.0843-1.283.351-1.243.765.031.3185.321.483 1.034.5417l1.491.1271c1.946.163 2.892.6329 3.021 1.9546.183 1.8631-1.48 2.9424-3.597 3.15zm9.477-3.2762c-.189-1.9268 1.929-2.7935 4.964-3.3161l-.029-.3025c-.089-.9077-.6-1.1953-1.444-1.1125-.669.0655-1.18.4211-1.277 1.0737l-2.11-.5327c.422-1.1025 1.618-2.0235 3.433-2.2015 2.246-.2201 3.593.5643 3.827 2.9528l.17 1.7357c.101 1.0351.347 2.3936.573 3.0627l-2.245.2201-.38-.9274c-.508.8858-1.4 1.2948-2.531 1.4057-1.497.1467-2.81-.6249-2.951-2.058zm5.153-1.8876c-1.658.3072-2.751.6394-2.67 1.4674.05.5095.56.7971 1.197.7347.956-.0937 1.633-.562 1.491-2.0111zm3.5-4.7803 2.117-.2076.406 1.0213c.292-.6235 1.101-1.3941 2.311-1.5127 2.039-.1998 2.775.9177 2.984 3.0515l.472 4.8089-2.421.2373-.412-4.2039c-.109-1.1146-.247-2.0335-1.41-1.9196-1.019.0999-1.391.892-1.251 2.3252l.398 4.0605-2.42.2373zm12.854 6.9069c-2.038.1998-3.647-1.2823-3.899-3.862-.253-2.5796 1.046-4.2503 3.084-4.4501.86-.0843 1.937.2442 2.533 1.07l-.375-3.8217 2.42-.2372.74 7.5478c.078.7962.237 1.9221.574 3.0627l-2.309.2263-.423-1.0357c-.58.9732-1.485 1.4156-2.345 1.4999zm.15-6.5096c-.956.0936-1.676.9519-1.534 2.401.144 1.465 1.025 2.2468 1.98 2.1532.939-.0921 1.673-.8071 1.512-2.4473-.157-1.6083-1.019-2.199-1.958-2.1069zm13.765 4.9527-2.421.2373-.774-7.8982 2.118-.2076.405 1.0214c.293-.6236 1.086-1.3926 2.264-1.5081 1.258-.1233 2.02.2683 2.47 1.0922.52-.9351 1.463-1.4777 2.578-1.587 2.022-.1982 2.775.9177 2.984 3.0515l.471 4.8089-2.42.2373-.412-4.2039c-.11-1.1146-.264-2.032-1.426-1.918-.987.0968-1.334.8221-1.199 2.2074l.409 4.172-2.436.2388-.412-4.2038c-.109-1.1147-.248-2.0336-1.378-1.9227-1.003.0983-1.36.8889-1.226 2.2583zm10.755-5.0734c-.28-2.8503 1.584-4.3353 3.782-4.5507 2.166-.2123 4.298.8809 4.578 3.7312.279 2.8504-1.598 4.3687-3.763 4.581-2.198.2154-4.318-.9112-4.597-3.7615zm3.966-2.6717c-.955.0937-1.662.7578-1.498 2.4298.162 1.656.957 2.2212 1.945 2.1244.971-.0952 1.641-.804 1.479-2.46-.164-1.672-.986-2.1863-1.926-2.0942zm8.387 5.48-2.421.2373-.774-7.8982 1.911-.1873.572 1.4069c.369-1.3223 1.167-1.8668 2.384-1.9217l.237 2.4204c-.258-.0069-.435-.0056-.658.0162-1.178.1155-1.765.6875-1.642 1.9455zm2.698-4.2998c-.246-2.5159 1.523-4.3131 3.832-4.5394 2.595-.2544 4.399 1.5784 4.512 4.3806l-5.844.5729c.189 1.1068 1.102 1.564 1.994 1.4765.748-.0733 1.266-.3652 1.535-.7452l1.995.5118c-.709 1.2913-1.992 1.9798-3.282 2.1062-2.564.2513-4.486-1.1519-4.742-3.7634zm4.072-2.7463c-.908.089-1.675.6304-1.712 1.7273l3.599-.3528c-.132-1.016-.948-1.4666-1.887-1.3745zm5.476 4.4631c-.085-.8599.549-1.6133 1.409-1.6976.844-.0827 1.612.5333 1.696 1.3932s-.548 1.6292-1.392 1.712c-.86.0842-1.629-.5477-1.713-1.4076z" fill="#f0e700"/><path d="m115.332 110.481c-1.593-1.822-2.737-4.137-2.997-6.796-.217-2.214.21-4.41 1.145-6.3505l2.294-.2248c-1.058 2.0008-1.413 4.1253-1.188 6.4183.258 2.628 1.576 4.926 3.15 6.717zm2.911-7.568-.587-5.9878 2.516-.2466.607 6.1944c.155 1.576.555 2.55 2.323 2.377 1.752-.172 1.956-1.205 1.801-2.781l-.607-6.1947 2.516-.2466.587 5.9873c.321 3.28-.8 4.966-4.096 5.289-3.328.326-4.739-1.111-5.06-4.391zm10.421 1.148 2.212-1.052c.387.991 1.293 1.384 2.472 1.268.907-.088 1.866-.472 1.785-1.3-.073-.748-.905-1.037-2.074-1.147l-1.314-.128c-1.769-.165-3.348-.862-3.526-2.6772-.224-2.2771 2.049-3.5288 4.183-3.738 1.72-.1685 3.473.3348 4.303 1.9094l-2.196 1.0512c-.357-.6884-1.129-1.0147-2.132-.9164-.971.0952-1.668.5333-1.604 1.1861.053.5414.57.8927 1.317.9642l1.461.1462c1.754.1817 3.909.5175 4.124 2.7145.222 2.261-1.948 3.744-4.145 3.959-2.325.228-4.046-.6-4.866-2.24zm14.053 1.308c-1.992.018-3.455-.803-4.194-2.274l2.212-1.053c.301.774.92 1.18 1.779 1.257l-.245-2.5-.667-.08c-1.757-.213-3.346-.8453-3.526-2.6766-.201-2.0541 1.657-3.2652 3.567-3.6293l-.108-1.0987 1.163-.1139.108 1.0987c1.557-.024 3.025.5233 3.758 1.9306l-2.196 1.0512c-.259-.5052-.739-.8118-1.36-.9117l.224 2.2771.178.0146c1.751.1499 3.909.5172 4.124 2.715.205 2.086-1.634 3.504-3.653 3.895l.119 1.21-1.163.114zm.964-2.137c.709-.149 1.378-.537 1.305-1.285-.056-.573-.646-.853-1.53-1.008zm-3.049-5.6813c.053.5414.572.9086 1.317.9642l.097.0066-.206-2.102c-.755.1705-1.262.5739-1.208 1.1312zm7.646-.0903-.192-1.9586c1.672-.1639 2.41-.3488 2.843-1.8381l1.831-.1795 1.042 10.6368-2.404.236-.699-7.1339zm7.398 1.3005c-.299-3.0574.747-5.8287 4.043-6.1518 1.609-.1577 2.752.3572 3.4 1.2262l-2.089.9925c-.243-.346-.741-.5061-1.298-.4515-1.131.1108-1.828 1.0313-1.65 2.8466.478-.5293 1.149-.9005 2.2-1.0035 1.911-.1873 3.782 1.1887 3.998 3.3862.217 2.2134-1.378 3.8164-3.783 4.0524-3.041.298-4.526-1.888-4.821-4.8971zm2.723 1.3731c.113 1.146.855 1.829 1.906 1.726 1.035-.101 1.598-.912 1.488-2.0428-.11-1.1146-.823-1.8325-1.874-1.7294-1.019.0999-1.632.8995-1.52 2.0462zm7.838 5.357c1.212-2.064 2.043-4.573 1.786-7.2009-.225-2.293-.985-4.3084-2.412-6.0657l2.293-.2247c1.295 1.7219 2.141 3.7933 2.358 6.0067.26 2.6596-.412 5.1526-1.605 7.2466z" fill="#967f01"/><path d="m38.1137 54.5842 7.5558-.7406c3.752-.3678 6.6588.2355 7.0139 3.8581.1547 1.5785-.4765 2.8682-1.6917 3.7972 1.6576.3861 2.9154 1.4907 3.1208 3.5866.3805 3.8814-2.2721 5.6044-6.464 6.0153l-7.8404.7686zm8.8454 9.2171-3.7779.3703.383 3.9073 3.7779-.3704c1.7596-.1724 2.5658-1.0091 2.4466-2.2252-.1192-1.2162-1.07-1.8545-2.8296-1.682zm-.833-6.6324-3.5968.3526.3425 3.4932 3.5967-.3525c1.3715-.1345 2.131-.9143 2.027-1.9752-.1065-1.0868-.998-1.6525-2.3694-1.5181zm14.1715 9.0607 8.2803-.8117.3526 3.5968-12.3687 1.2124-1.6944-17.2851 4.0884-.4008zm9.8861 2.6623 4.8522-17.9269 4.5024-.4414 8.241 16.6435-4.4506.4362-1.3369-2.9778-6.6243.6494-.7332 3.1807zm7.5012-13.8238-1.5294 6.7856 4.3989-.4312zm18.8534 11.5539c-5.3822.5276-8.98-2.5944-9.5202-8.1059-.5352-5.4599 2.5121-9.2854 7.8684-9.8105 3.2604-.3195 5.9255 1.0128 7.4835 3.3158l-3.4936 1.6748c-.9132-1.3212-2.3922-1.751-3.7895-1.614-2.4065.2359-4.0925 2.4911-3.7475 6.0103.3551 3.6226 2.4368 5.404 4.895 5.1631 1.2938-.1269 2.8291-.7215 3.4841-2.3009l3.7265.9671c-1.157 2.5952-3.6464 4.3806-6.9067 4.7002zm7.4787-18.4978 4.088-.4008.672 6.8571 5.564-7.4684 4.994-.4895-6.106 8.0701 8.137 9.1821-4.735.4641-5.762-6.5411-1.569 2.1132.499 5.0976-4.088.4007zm27.039 14.8007-1.694-17.2852 12.369-1.2124.352 3.5968-8.28.8116.294 3.0016 8.28-.8116.353 3.5967-8.28.8117.695 7.09zm18.164-1.7805-4.089.4008-1.694-17.2852 6.65-.6518c4.477-.4388 7.945.2923 8.366 4.5877.192 1.9666-.479 4.1747-3.679 5.3766l5.702 6.4686-4.735.4641-5.323-6.0616-1.837.1801zm-1.357-13.8436.383 3.9073 2.691-.2638c1.915-.1877 3.357-.6687 3.199-2.273-.157-1.6043-1.667-1.822-3.582-1.6343zm15.588-1.7631-2.432.2384-.315-3.2086 8.901-.8726.315 3.2086-2.381.2334 1.066 10.8679 2.38-.2333.315 3.2086-8.902.8725-.314-3.2086 2.432-.2384zm16.155 12.6281-5.693.5581-1.694-17.2852 5.693-.558c5.641-.553 10.217 1.0885 10.861 7.661.647 6.5983-3.526 9.0712-9.167 9.6241zm-1.942-3.2842 1.682-.1649c2.976-.2917 5.656-1.2074 5.209-5.7616-.446-4.5542-3.258-4.984-6.233-4.6923l-1.682.1649zm11.893 2.3088 4.852-17.9268 4.503-.4414 8.241 16.6434-4.451.4363-1.337-2.9778-6.624.6494-.733 3.1807zm7.501-13.8237-1.529 6.7856 4.399-.4312zm14.714 4.8537-7.633-9.9106 4.761-.4667 4.508 6.2722 3.203-7.0281 4.787-.4692-5.563 11.2042.659 6.7277-4.062.3982zm20.104.7202 3.594-1.7108c.629 1.6104 2.102 2.2497 4.017 2.062 1.475-.1446 3.033-.7676 2.901-2.1132-.119-1.2161-1.471-1.6845-3.369-1.8641l-2.137-.2086c-2.874-.2669-5.441-1.3999-5.73-4.3498-.362-3.7002 3.331-5.7342 6.798-6.0741 2.795-.2739 5.644.544 6.992 3.1027l-3.568 1.7083c-.58-1.1188-1.834-1.649-3.464-1.4892-1.578.1547-2.71.8665-2.606 1.9274.086.8798.926 1.4506 2.139 1.5668l2.374.2375c2.851.2953 6.352.8403 6.703 4.4112.36 3.6744-3.166 6.0838-6.737 6.4339-3.778.3703-6.574-.9753-7.907-3.64zm15.902 2.5428 4.852-17.9269 4.502-.4413 8.241 16.6434-4.45.4363-1.337-2.9778-6.624.6493-.734 3.1807zm7.501-13.8237-1.529 6.7855 4.399-.4312zm15.109 7.976 8.281-.8117.352 3.5968-12.368 1.2124-1.695-17.2851 4.089-.4008zm10.163 2.6352-1.695-17.2852 13.301-1.3037.352 3.5967-9.212.903.295 3.0016 5.615-.5504.352 3.5968-5.615.5504.343 3.4932 9.211-.9029.353 3.5967z" fill="#161616"/><path d="m36.1137 52.5842 7.5558-.7406c3.752-.3678 6.6588.2355 7.0139 3.8581.1547 1.5785-.4765 2.8682-1.6917 3.7972 1.6576.3861 2.9154 1.4907 3.1208 3.5866.3805 3.8814-2.2721 5.6044-6.464 6.0153l-7.8404.7686zm8.8454 9.2171-3.7779.3703.383 3.9073 3.7779-.3704c1.7596-.1724 2.5658-1.0091 2.4466-2.2252-.1192-1.2162-1.07-1.8545-2.8296-1.682zm-.833-6.6324-3.5968.3526.3425 3.4932 3.5967-.3525c1.3715-.1345 2.131-.9143 2.027-1.9752-.1065-1.0868-.998-1.6525-2.3694-1.5181zm14.1715 9.0607 8.2803-.8117.3526 3.5968-12.3687 1.2124-1.6944-17.2851 4.0884-.4008zm9.8861 2.6623 4.8522-17.9269 4.5024-.4414 8.241 16.6435-4.4506.4362-1.3369-2.9778-6.6243.6494-.7332 3.1807zm7.5012-13.8238-1.5294 6.7856 4.3989-.4312zm18.8534 11.5539c-5.3822.5276-8.98-2.5944-9.5202-8.1059-.5352-5.4599 2.5121-9.2854 7.8684-9.8105 3.2604-.3195 5.9251 1.0128 7.4835 3.3158l-3.4936 1.6748c-.9132-1.3212-2.3922-1.751-3.7895-1.614-2.4065.2359-4.0925 2.4911-3.7475 6.0103.3551 3.6226 2.4368 5.404 4.895 5.1631 1.2938-.1269 2.8291-.7215 3.4841-2.3009l3.7265.9671c-1.157 2.5952-3.6464 4.3806-6.9067 4.7002zm7.4787-18.4978 4.088-.4008.672 6.8571 5.564-7.4684 4.994-.4895-6.106 8.0701 8.137 9.1821-4.735.4641-5.762-6.5411-1.569 2.1132.499 5.0976-4.088.4007zm27.039 14.8007-1.694-17.2852 12.369-1.2124.352 3.5968-8.28.8116.294 3.0016 8.28-.8116.353 3.5967-8.28.8117.695 7.09zm18.164-1.7805-4.089.4008-1.694-17.2852 6.65-.6518c4.477-.4388 7.945.2923 8.366 4.5877.192 1.9666-.479 4.1747-3.679 5.3766l5.702 6.4686-4.735.4641-5.323-6.0616-1.837.1801zm-1.357-13.8436.383 3.9073 2.691-.2638c1.915-.1877 3.357-.6687 3.199-2.273-.157-1.6043-1.667-1.822-3.582-1.6343zm15.588-1.7631-2.432.2384-.315-3.2086 8.901-.8726.315 3.2086-2.381.2334 1.066 10.8679 2.38-.2333.315 3.2086-8.902.8725-.314-3.2086 2.432-.2384zm16.155 12.6281-5.693.5581-1.694-17.2852 5.693-.558c5.641-.553 10.217 1.0885 10.861 7.661.647 6.5983-3.526 9.0712-9.167 9.6241zm-1.942-3.2842 1.682-.1649c2.976-.2917 5.656-1.2074 5.209-5.7616-.446-4.5542-3.258-4.984-6.233-4.6923l-1.682.1649zm11.893 2.3088 4.852-17.9268 4.503-.4414 8.241 16.6434-4.451.4363-1.337-2.9778-6.624.6494-.733 3.1807zm7.501-13.8237-1.529 6.7856 4.399-.4312zm14.714 4.8537-7.633-9.9106 4.761-.4667 4.508 6.2722 3.203-7.0281 4.787-.4692-5.563 11.2042.659 6.7277-4.062.3982zm20.104.7202 3.594-1.7108c.629 1.6104 2.102 2.2497 4.017 2.062 1.475-.1446 3.033-.7676 2.901-2.1132-.119-1.2161-1.471-1.6845-3.369-1.8641l-2.137-.2086c-2.874-.2669-5.441-1.3999-5.73-4.3498-.362-3.7002 3.331-5.7342 6.798-6.0741 2.795-.2739 5.644.544 6.992 3.1027l-3.568 1.7083c-.58-1.1188-1.834-1.649-3.464-1.4892-1.578.1547-2.71.8665-2.606 1.9274.086.8798.926 1.4506 2.139 1.5668l2.374.2375c2.851.2953 6.352.8403 6.703 4.4112.36 3.6744-3.166 6.0838-6.737 6.4339-3.778.3703-6.574-.9753-7.907-3.64zm15.902 2.5428 4.852-17.9269 4.502-.4413 8.241 16.6434-4.45.4363-1.337-2.9778-6.624.6493-.734 3.1807zm7.501-13.8237-1.529 6.7855 4.399-.4312zm15.109 7.976 8.281-.8117.352 3.5968-12.368 1.2124-1.695-17.2851 4.089-.4008zm10.163 2.6352-1.695-17.2852 13.301-1.3037.352 3.5967-9.212.903.295 3.0016 5.615-.5504.352 3.5968-5.615.5504.343 3.4932 9.211-.9029.353 3.5967z" fill="#e7e7d3"/></g></svg>