<svg fill="none" height="147" viewBox="0 0 330 147" width="330" xmlns="http://www.w3.org/2000/svg" xmlns:xlink="http://www.w3.org/1999/xlink"><filter id="a" color-interpolation-filters="sRGB" filterUnits="userSpaceOnUse" height="153.353" width="463.644" x="-65" y="-3"><feFlood flood-opacity="0" result="BackgroundImageFix"/><feColorMatrix in="SourceAlpha" result="hardAlpha" type="matrix" values="0 0 0 0 0 0 0 0 0 0 0 0 0 0 0 0 0 0 127 0"/><feOffset dy="2"/><feGaussianBlur stdDeviation="2.5"/><feComposite in2="hardAlpha" operator="out"/><feColorMatrix type="matrix" values="0 0 0 0 0 0 0 0 0 0 0 0 0 0 0 0 0 0 0.18 0"/><feBlend in2="BackgroundImageFix" mode="normal" result="effect1_dropShadow_288_182"/><feBlend in="SourceGraphic" in2="effect1_dropShadow_288_182" mode="normal" result="shape"/></filter><clipPath id="b"><path d="m0 0h330v147h-330z"/></clipPath><g clip-path="url(#b)"><g filter="url(#a)"><path d="m-60 43.0256h446v100.798h-446z" fill="#000" transform="matrix(.9953359 -.09646994 .09646994 .9953359 -4.430523 -5.587521)"/></g><path d="m41.8218 89.1437-.7336-7.4841 3.1449-.3083.759 7.7429c.1932 1.9706.6943 3.1875 2.9037 2.9709 2.1895-.2146 2.4448-1.5057 2.2516-3.4762l-.759-7.7429 3.145-.3083.7336 7.4841c.4019 4.1004-.9992 6.2071-5.1195 6.611-4.1601.4078-5.9237-1.3887-6.3257-5.4891zm17.1704 7.4204-3.0255.2965-1.2819-13.0773 2.6274-.2575.5308 1.3144c.5296-1.1571 1.7906-1.8233 2.8456-1.9268 2.5478-.2497 4.5561 1.5831 4.8703 4.7878.318 3.2444-1.3041 5.3527-3.8518 5.6025-1.055.1034-2.4233-.3252-3.1676-1.3575zm-.9432-8.1871c.199 2.0303 1.2781 2.7886 2.4724 2.6716 1.1744-.1152 2.074-1.188 1.8925-3.0392-.1775-1.8113-1.2762-2.7687-2.4505-2.6536-1.1943.1171-2.1134.9909-1.9144 3.0212zm14.3586-3.9998-.2264-2.309 1.6322-.16-.2419-2.4681 3.0255-.2966.2419 2.4682 2.1497-.2107.2263 2.3089-2.1497.2107.3903 3.9809c.0917.9355.4078 1.0854 1.3831.9898l.8758-.0858.242 2.4681-1.9109.1873c-2.4283.2381-3.3092-.1378-3.5375-2.4666l-.4682-4.7771zm8.0145 1.8268c-.3492-3.5629 1.9808-5.4191 4.7277-5.6883 2.707-.2654 5.373 1.101 5.7223 4.664.3492 3.5629-1.9968 5.4608-4.7038 5.7262-2.7469.2692-5.3969-1.139-5.7462-4.7019zm4.9579-3.3396c-1.1943.1171-2.0775.9472-1.8726 3.0372.2029 2.0701 1.1965 2.7765 2.4306 2.6555 1.2142-.119 2.0518-1.0049 1.8489-3.075-.2049-2.09-1.2325-2.7328-2.4069-2.6177zm12.8042 1.5583 5.6578-8.9144 3.025-.2966.767 7.8225 1.831-.1795.261 2.6672-1.831.1795.275 2.8066-3.025.2966-.275-2.8066-6.4692.6341zm6.0458-4.9534-2.806 4.1737 3.184-.3122zm6.69 2.0371c-.418-4.2596 1.297-7.0603 5.02-7.4252 3.742-.3668 5.968 2.0476 6.385 6.3072.416 4.2396-1.293 7.1-5.035 7.4668-3.722.3649-5.954-2.1092-6.37-6.3488zm3.077-2.2309c-.045.5671-.044 1.19.028 1.9265.314 3.2046 1.512 4.5542 3.044 4.404.637-.0624 1.171-.3559 1.538-.9144zm2.163-2.945c-.597.0585-1.093.3282-1.468.8071l4.562 5.3403c.029-.5253.011-1.1264-.052-1.7633-.316-3.2246-1.489-4.5363-3.042-4.3841zm22.574 9.4227c-2.17.2127-4.095-1.3871-4.308-3.5567-.212-2.1696 1.369-4.073 3.539-4.2857s4.091 1.3473 4.304 3.5169c.212 2.1696-1.366 4.1128-3.535 4.3255zm-11.231-4.8877c-2.169.2126-4.091-1.3474-4.303-3.517-.213-2.1696 1.365-4.1128 3.535-4.3254 2.149-.2108 4.095 1.3871 4.307 3.5567.213 2.1696-1.389 4.075-3.539 4.2857zm2.489 5.5034-2.508.2459 7.992-14.2075 2.528-.2478zm8.203-6.1094c-.856.0839-1.504.8508-1.42 1.7067.086.8758.871 1.5022 1.727 1.4183s1.504-.8508 1.418-1.7266c-.084-.8559-.869-1.4823-1.725-1.3984zm-12.627-3.1431c.084.8559.849 1.4842 1.705 1.4003.876-.0858 1.504-.8508 1.42-1.7067-.085-.8758-.85-1.5041-1.726-1.4183-.856.0839-1.484.8489-1.399 1.7247zm23.898 2.3196c-.349-3.5629 1.981-5.419 4.728-5.6883 2.707-.2653 5.373 1.1011 5.722 4.664s-1.997 5.4609-4.704 5.7262c-2.747.2693-5.397-1.1389-5.746-4.7019zm4.958-3.3396c-1.194.1171-2.077.9472-1.873 3.0372.203 2.0701 1.197 2.7765 2.431 2.6556 1.214-.1191 2.052-1.005 1.849-3.0751-.205-2.09-1.233-2.7328-2.407-2.6177zm5.821-.3293-.227-2.309 1.632-.16-.158-1.6122c-.23-2.3488.84-3.1169 3.508-3.3783l1.373-.1346.234 2.3885-.836.082c-1.075.1053-1.3.2681-1.226 1.0244l.131 1.3337 2.15-.2108.226 2.309-2.15.2107.742 7.5637-3.026.2966-.741-7.5637zm7.308-.7165-.226-2.3089 1.632-.16-.158-1.6123c-.23-2.3487.84-3.1168 3.507-3.3782l1.374-.1347.234 2.3886-.836.0819c-1.075.1054-1.3.2681-1.226 1.0245l.131 1.3336 2.149-.2107.227 2.3089-2.15.2108.741 7.5637-3.025.2966-.742-7.5638zm14.372-.4843c-.371-3.7819 2.41-7.1894 6.231-7.564 3.663-.359 6.987 2.1888 7.352 5.911l.024.2388c.13 2.5595-1.391 3.8541-2.824 3.9945-.916.0898-1.797-.2861-2.219-1.1088-.533.9164-1.368 1.4202-2.204 1.5022-1.393.1366-2.836-.8474-3.043-2.9573-.297-3.0255 1.459-4.1822 3.469-4.3793.797-.078 1.648-.0008 2.408.1659l.369 3.762c.09.9156.652 1.3227 1.209 1.268.657-.0643 1.333-.7536 1.292-2.1965l-.025-.2587c-.285-2.9061-2.864-4.8236-5.711-4.5446-3.065.3005-5.248 3.0465-4.953 6.0521.298 3.0454 3.025 5.2299 6.09 4.9294.955-.0937 1.788-.4164 2.577-.9761l.152 1.5526c-.781.4383-1.697.729-2.652.8227-3.782.3707-7.17-2.4121-7.542-6.2139zm5.244-.2126c.09.9156.652 1.3227 1.229 1.2661.637-.0625 1.275-.7279 1.16-1.9023l-.164-1.6719c-.223-.0184-.485-.0328-.744-.0075-.836.082-1.655.5441-1.481 2.3156zm13.263-5.5202-4.28.4195-.271-2.7668 11.684-1.1453.271 2.7668-4.279.4194 1.032 10.5296-3.125.3063zm7.016 4.8988c-.308-3.1449 1.903-5.3913 4.789-5.6742 3.245-.3181 5.499 1.9729 5.641 5.4758l-7.305.716c.237 1.3836 1.378 1.955 2.492 1.8457.936-.0917 1.583-.4566 1.919-.9316l2.494.6397c-.887 1.6143-2.49 2.4748-4.103 2.6329-3.204.3141-5.607-1.4399-5.927-4.7043zm5.089-3.4328c-1.134.1112-2.093.7879-2.139 2.159l4.498-.441c-.164-1.2699-1.184-1.8331-2.359-1.718zm6.185 2.3277c-.308-3.1449 1.903-5.3914 4.789-5.6743 3.245-.318 5.499 1.973 5.642 5.4758l-7.305.7161c.236 1.3836 1.377 1.9549 2.492 1.8457.935-.0917 1.583-.4566 1.918-.9316l2.494.6397c-.887 1.6142-2.49 2.4748-4.103 2.6328-3.204.3142-5.607-1.4398-5.927-4.7042zm5.09-3.4329c-1.135.1113-2.094.788-2.14 2.1591l4.498-.441c-.164-1.27-1.184-1.8332-2.358-1.7181zm10.531 10.1812-3.025.2966-1.282-13.0774 2.627-.2575.531 1.3145c.53-1.1572 1.791-1.8234 2.846-1.9268 2.547-.2498 4.556 1.583 4.87 4.7877.318 3.2444-1.304 5.3527-3.852 5.6025-1.055.1034-2.423-.3252-3.168-1.3575zm-.943-8.1871c.199 2.0303 1.278 2.7887 2.472 2.6716 1.175-.1151 2.074-1.188 1.893-3.0391-.178-1.8114-1.276-2.7687-2.451-2.6536-1.194.117-2.113.9909-1.914 3.0211zm8.493-5.756 3.025-.2965.508 5.1752c.138 1.4132.293 2.5837 1.766 2.4393 1.274-.1249 1.68-.9082 1.5-2.7394l-.509-5.1951 3.045-.2985.968 9.8726-2.627.2576-.555-1.3524c-.482 1.032-1.193 1.7649-2.706 1.9132-2.628.2575-3.57-1.1573-3.834-3.8444zm11.016-4.5363 3.026-.2966.468 4.7771c.53-1.1572 1.791-1.8234 2.846-1.9268 2.547-.2497 4.546 1.4836 4.862 4.7081.316 3.2246-1.296 5.4324-3.844 5.6821-1.055.1034-2.415-.2455-3.16-1.2778l-.247 1.3707-2.647.2595zm3.704 8.0571c.201 2.0502 1.274 2.7488 2.468 2.6318 1.175-.1152 2.065-1.2876 1.885-3.1188-.177-1.8113-1.268-2.6891-2.443-2.574-1.194.1171-2.107 1.0507-1.91 3.061zm9.184 1.2902-1.031-10.5096 3.026-.2966.952 9.7135c.092.9355.408 1.0854 1.423.9859l.856-.0839.242 2.4681-1.931.1893c-2.428.238-3.309-.1378-3.537-2.4667zm4.729-5.2865-.227-2.309 4.917-.4819.968 9.8727-3.046.2985-.741-7.5637zm3.017-4.2748c-.995.0976-1.871-.6405-1.967-1.6158-.098-.9952.621-1.8694 1.616-1.967s1.869.6206 1.967 1.6158c.095.9753-.621 1.8695-1.616 1.967zm9.082 10.9664c-3.265.3199-5.263-1.6144-5.569-4.7394-.304-3.1051 1.545-5.3562 4.55-5.6509 1.692-.1658 3.606.2897 4.713 2.1506l-2.439 1.1634c-.4-.8048-1.108-1.0569-1.864-.9828-1.095.1073-2.078.9472-1.873 3.0372.211 2.1497 1.356 2.7609 2.431 2.6555.836-.0819 1.398-.4987 1.68-1.1091l2.555.6538c-.839 1.8909-2.612 2.6675-4.184 2.8217zm4.694-10.6488-.338-3.4435 3.862-.3785.337 3.4435-.344 5.0979-2.209.2166zm2.94 9.9004c-1.075.1054-2.037-.6846-2.142-1.7594-.105-1.0749.687-2.0166 1.761-2.122 1.055-.1034 2.015.6667 2.12 1.7415.106 1.0749-.684 2.0365-1.739 2.1399zm-226.6779 40.2579c-3.3121.325-5.5261-1.597-5.8586-4.988-.3293-3.36 1.5459-5.714 4.8421-6.037 2.0064-.1971 3.6462.623 4.6051 2.04l-2.1497 1.031c-.562-.813-1.4722-1.078-2.3321-.994-1.4809.146-2.5184 1.533-2.3061 3.699.2185 2.229 1.4995 3.326 3.0123 3.177.7962-.078 1.741-.444 2.1441-1.416l2.293.596c-.7116 1.597-2.2437 2.695-4.2501 2.892zm5.0237-.685 2.986-11.0323 2.7707-.2716 5.0714 10.2419-2.7389.269-.8226-1.833-4.0765.4-.4512 1.957zm4.6161-8.507-.9411 4.175 2.707-.265zm10.6453 7.171c-1.9917.019-3.4548-.802-4.1938-2.273l2.2119-1.053c.3009.774.9195 1.18 1.779 1.256l-.245-2.5-.667-.079c-1.7572-.214-3.3464-.846-3.5259-2.677-.2014-2.0539 1.6573-3.2651 3.5669-3.6291l-.1077-1.0987 1.1625-.114.1077 1.0988c1.557-.024 3.0254.5233 3.7582 1.9305l-2.1959 1.0515c-.2585-.505-.7387-.812-1.3594-.912l.2232 2.277.1783.015c1.7509.15 3.9091.517 4.1245 2.714.2044 2.086-1.634 3.505-3.6535 3.895l.1186 1.211-1.1624.114zm.9642-2.136c.7088-.15 1.3782-.537 1.3048-1.285-.0561-.574-.6463-.853-1.5295-1.008zm-3.0488-5.682c.0531.542.5714.909 1.3163.965l.0971.006-.206-2.102c-.755.171-1.262.574-1.2074 1.131zm7.6459-.09-.192-1.9585c1.672-.1639 2.4095-.3487 2.8423-1.838l1.8312-.1795 1.0427 10.637-2.4045.236-.6993-7.134zm7.0053-.574c-.2045-2.086 1.3164-3.9553 3.4024-4.1598 2.1018-.206 4.0058 1.3436 4.2118 3.4455.055.5573-.018 1.1273-.219 1.6933l-2.057 5.588-2.5479.249 1.4049-3.385c-2.1024.206-3.9861-1.297-4.1952-3.431zm2.1653-.051c.1655.868.9779 1.447 1.8219 1.364.908-.089 1.583-.91 1.494-1.818-.003-.032-.007-.064-.026-.094l-.007-.0797c-.18-.8505-.959-1.4172-1.803-1.3345l-.1435.0141c-.868.1654-1.4332.9604-1.3505 1.8041zm75.3929-6.5709-.181-1.8471 1.306-.128-.194-1.9746 2.421-.2372.193 1.9745 1.72-.1686.181 1.8472-1.72.1686.312 3.1847c.074.7484.327.8683 1.107.7918l.701-.0686.193 1.9745-1.529.1498c-1.942.1905-2.647-.1102-2.83-1.9733l-.374-3.8217zm6.41 1.4456c-.246-2.516 1.523-4.3131 3.832-4.5395 2.595-.2544 4.399 1.5784 4.513 4.3807l-5.844.5728c.188 1.1069 1.101 1.564 1.993 1.4766.748-.0734 1.266-.3653 1.535-.7453l1.995.5118c-.709 1.2914-1.992 1.9798-3.282 2.1062-2.564.2513-4.486-1.1518-4.742-3.7633zm4.072-2.7463c-.908.0889-1.675.6303-1.712 1.7272l3.599-.3528c-.132-1.016-.948-1.4665-1.887-1.3744zm4.947 1.8622c-.246-2.516 1.523-4.3131 3.832-4.5395 2.595-.2544 4.399 1.5784 4.513 4.3807l-5.844.5728c.189 1.1069 1.102 1.564 1.993 1.4766.749-.0734 1.267-.3653 1.535-.7453l1.995.5118c-.709 1.2914-1.992 1.9798-3.282 2.1062-2.563.2513-4.486-1.1518-4.742-3.7633zm4.072-2.7463c-.908.0889-1.675.6303-1.712 1.7272l3.599-.3528c-.132-1.016-.948-1.4665-1.887-1.3744zm9.18 5.6755c-1.847.181-3.332-.3648-4.066-1.6271l1.981-.9498c.304.6454 1.052.8936 1.959.8047.781-.0765 1.474-.3856 1.425-.8792-.032-.3344-.373-.5262-1.296-.5964l-1.44-.1c-1.554-.1049-2.682-.7821-2.811-2.1038-.162-1.6561 1.427-2.6639 3.385-2.8559 1.513-.1483 2.964.2239 3.675 1.4082l-1.965.9482c-.215-.5576-.836-.6576-1.552-.5873-.86.0843-1.284.3509-1.244.7649.032.3185.321.4831 1.034.5418l1.492.1271c1.945.163 2.891.6329 3.021 1.9546.182 1.863-1.48 2.9424-3.598 3.15zm9.477-3.2762c-.188-1.9268 1.929-2.7935 4.965-3.3161l-.03-.3026c-.089-.9076-.6-1.1952-1.443-1.1125-.669.0656-1.181.4212-1.278 1.0738l-2.11-.5327c.423-1.1025 1.618-2.0236 3.434-2.2015 2.245-.2201 3.592.5642 3.826 2.9528l.17 1.7357c.102 1.035.347 2.3935.574 3.0626l-2.246.2201-.38-.9273c-.508.8858-1.4 1.2948-2.531 1.4056-1.497.1467-2.81-.6248-2.951-2.0579zm5.153-1.8877c-1.658.3072-2.751.6394-2.67 1.4674.05.5096.561.7972 1.198.7347.955-.0936 1.633-.562 1.491-2.011zm3.5-4.7802 2.118-.2076.405 1.0213c.293-.6235 1.101-1.3941 2.312-1.5127 2.038-.1998 2.774.9176 2.984 3.0514l.471 4.809-2.42.2372-.412-4.2038c-.11-1.1147-.248-2.0336-1.41-1.9196-1.02.0999-1.392.892-1.252 2.3251l.398 4.0606-2.42.2372zm12.854 6.9069c-2.038.1998-3.646-1.2824-3.899-3.862-.253-2.5797 1.046-4.2504 3.084-4.4502.86-.0843 1.937.2442 2.533 1.0701l-.375-3.8217 2.421-.2373.74 7.5479c.078.7961.236 1.922.573 3.0626l-2.309.2263-.423-1.0356c-.58.9732-1.485 1.4156-2.345 1.4999zm.15-6.5097c-.956.0937-1.675.952-1.533 2.401.143 1.465 1.024 2.2469 1.979 2.1532.94-.0921 1.674-.8071 1.513-2.4472-.158-1.6083-1.02-2.1991-1.959-2.107zm13.765 4.9528-2.42.2372-.775-7.8981 2.118-.2076.406 1.0213c.292-.6235 1.085-1.3925 2.263-1.508 1.258-.1233 2.02.2682 2.471 1.0922.519-.9351 1.463-1.4778 2.577-1.587 2.023-.1983 2.775.9177 2.984 3.0514l.472 4.809-2.421.2372-.412-4.2038c-.109-1.1147-.263-2.032-1.426-1.9181-.987.0968-1.334.8221-1.198 2.2075l.409 4.172-2.437.2388-.412-4.2039c-.109-1.1146-.247-2.0335-1.378-1.9227-1.003.0984-1.36.8889-1.225 2.2584zm10.755-5.0735c-.279-2.8503 1.585-4.3352 3.782-4.5506 2.166-.2123 4.299.8808 4.578 3.7312.28 2.8503-1.597 4.3687-3.763 4.5809-2.197.2154-4.317-.9111-4.597-3.7615zm3.966-2.6716c-.955.0936-1.662.7577-1.498 2.4297.163 1.6561.958 2.2212 1.945 2.1244.971-.0952 1.641-.8039 1.479-2.46-.164-1.672-.986-2.1862-1.926-2.0941zm8.387 5.48-2.42.2372-.775-7.8981 1.911-.1873.572 1.4069c.369-1.3223 1.168-1.8668 2.384-1.9218l.237 2.4204c-.258-.0068-.434-.0056-.657.0163-1.179.1155-1.766.6875-1.642 1.9454zm2.698-4.2998c-.246-2.516 1.523-4.3131 3.832-4.5394 2.595-.2545 4.399 1.5783 4.513 4.3806l-5.844.5728c.189 1.1069 1.102 1.564 1.993 1.4766.749-.0734 1.267-.3653 1.535-.7453l1.995.5118c-.709 1.2914-1.992 1.9798-3.282 2.1062-2.563.2514-4.486-1.1518-4.742-3.7633zm4.072-2.7463c-.908.089-1.675.6303-1.712 1.7272l3.599-.3528c-.132-1.016-.948-1.4665-1.887-1.3744zm5.476 4.4631c-.084-.8599.549-1.6133 1.409-1.6976.844-.0827 1.612.5333 1.696 1.3932s-.548 1.6292-1.392 1.7119c-.859.0843-1.629-.5477-1.713-1.4075z" fill="#f0e700"/><path d="m113.66 108.644c-1.593-1.821-2.736-4.136-2.997-6.796-.217-2.2129.211-4.4091 1.146-6.3496l2.293-.2248c-1.058 2.0008-1.412 4.1255-1.188 6.4184.258 2.627 1.576 4.926 3.151 6.717zm2.911-7.568-.587-5.9869 2.516-.2466.607 6.1945c.155 1.576.556 2.55 2.323 2.377 1.752-.172 1.956-1.205 1.802-2.781l-.608-6.1948 2.516-.2466.587 5.9874c.322 3.28-.799 4.966-4.095 5.289-3.328.326-4.739-1.111-5.061-4.392zm10.421 1.149 2.212-1.053c.387.991 1.294 1.385 2.472 1.269.908-.089 1.867-.472 1.786-1.3-.074-.748-.906-1.037-2.074-1.1472l-1.315-.1284c-1.768-.1642-3.348-.8615-3.526-2.6768-.223-2.277 2.05-3.5287 4.183-3.7379 1.72-.1686 3.474.3348 4.303 1.9093l-2.196 1.0513c-.357-.6885-1.128-1.0148-2.131-.9164-.972.0952-1.668.5332-1.604 1.1861.053.5414.569.8927 1.316.9642l1.461.1461c1.754.1818 3.909.5171 4.125 2.7147.221 2.261-1.948 3.744-4.146 3.959-2.325.228-4.046-.6-4.866-2.24zm14.053 1.308c-1.991.018-3.454-.803-4.194-2.274l2.212-1.053c.301.774.92 1.18 1.779 1.256l-.245-2.4996-.667-.0793c-1.757-.2136-3.346-.8456-3.526-2.6768-.201-2.0542 1.658-3.2653 3.567-3.6293l-.107-1.0987 1.162-.114.108 1.0988c1.557-.0241 3.025.5233 3.758 1.9305l-2.196 1.0513c-.258-.5052-.739-.8118-1.359-.9118l.223 2.2771.178.0147c1.751.1499 3.909.5171 4.125 2.7146.204 2.0855-1.634 3.5045-3.654 3.8945l.119 1.211-1.163.114zm.965-2.137c.708-.15 1.378-.537 1.304-1.285-.056-.5734-.646-.8532-1.529-1.0078zm-3.049-5.6814c.053.5414.571.9086 1.316.9642l.097.0065-.206-2.1019c-.755.1705-1.262.5738-1.207 1.1312zm7.646-.0904-.192-1.9586c1.672-.1639 2.409-.3487 2.842-1.838l1.831-.1795 1.043 10.6369-2.405.236-.699-7.134zm11.804 6.2378c-1.847.181-3.457-.497-4.28-2.0076l2.027-.9704c.404 1.0054 1.169 1.268 1.95 1.191 1.114-.1088 1.861-.8572 1.739-2.0992-.128-1.3058-1.079-1.8235-2.066-1.7267-.781.0765-1.35.5021-1.65 1.2068l-2.228-.5855.135-5.5115 7.118-.6977.193 1.9745-5.111.5011-.044 2.0139c.459-.3987 1.315-.6916 2.063-.765 1.895-.1857 3.848.8768 4.09 3.345.239 2.4363-1.643 3.9073-3.936 4.1313zm5.843 1.823c1.212-2.064 2.044-4.5731 1.786-7.2005-.225-2.293-.985-4.3085-2.411-6.0657l2.293-.2248c1.294 1.722 2.14 3.7933 2.357 6.0067.261 2.6593-.411 5.1523-1.605 7.2473z" fill="#967f01"/><path d="m36.1137 52.5842 7.5558-.7406c3.752-.3678 6.6588.2355 7.0139 3.8581.1547 1.5785-.4765 2.8682-1.6917 3.7972 1.6576.3861 2.9154 1.4907 3.1208 3.5866.3805 3.8814-2.2721 5.6044-6.464 6.0153l-7.8404.7686zm8.8454 9.2171-3.7779.3703.383 3.9073 3.7779-.3704c1.7596-.1724 2.5658-1.0091 2.4466-2.2252-.1192-1.2162-1.07-1.8545-2.8296-1.682zm-.833-6.6324-3.5968.3526.3425 3.4932 3.5967-.3525c1.3715-.1345 2.131-.9143 2.027-1.9752-.1065-1.0868-.998-1.6525-2.3694-1.5181zm14.1715 9.0607 8.2803-.8117.3526 3.5968-12.3687 1.2124-1.6944-17.2851 4.0884-.4008zm9.8861 2.6623 4.8522-17.9269 4.5024-.4414 8.241 16.6435-4.4506.4362-1.3369-2.9778-6.6243.6494-.7332 3.1807zm7.5012-13.8238-1.5294 6.7856 4.3989-.4312zm18.8534 11.5539c-5.3822.5276-8.98-2.5944-9.5202-8.1059-.5352-5.4599 2.5121-9.2854 7.8684-9.8105 3.2604-.3195 5.9251 1.0128 7.4835 3.3158l-3.4936 1.6748c-.9132-1.3212-2.3922-1.751-3.7895-1.614-2.4065.2359-4.0925 2.4911-3.7475 6.0103.3551 3.6226 2.4368 5.404 4.895 5.1631 1.2938-.1269 2.8291-.7215 3.4841-2.3009l3.7265.9671c-1.157 2.5952-3.6464 4.3806-6.9067 4.7002zm7.4787-18.4978 4.088-.4008.672 6.8571 5.564-7.4684 4.994-.4895-6.106 8.0701 8.137 9.1821-4.735.4641-5.762-6.5411-1.569 2.1132.499 5.0976-4.088.4007zm27.039 14.8007-1.694-17.2852 12.369-1.2124.352 3.5968-8.28.8116.294 3.0016 8.28-.8116.353 3.5967-8.28.8117.695 7.09zm18.164-1.7805-4.089.4008-1.694-17.2852 6.65-.6518c4.477-.4388 7.945.2923 8.366 4.5877.192 1.9666-.479 4.1747-3.679 5.3766l5.702 6.4686-4.735.4641-5.323-6.0616-1.837.1801zm-1.357-13.8436.383 3.9073 2.691-.2638c1.915-.1877 3.357-.6687 3.199-2.273-.157-1.6043-1.667-1.822-3.582-1.6343zm15.588-1.7631-2.432.2384-.315-3.2086 8.901-.8726.315 3.2086-2.381.2334 1.066 10.8679 2.38-.2333.315 3.2086-8.902.8725-.314-3.2086 2.432-.2384zm16.155 12.6281-5.693.5581-1.694-17.2852 5.693-.558c5.641-.553 10.217 1.0885 10.861 7.661.647 6.5983-3.526 9.0712-9.167 9.6241zm-1.942-3.2842 1.682-.1649c2.976-.2917 5.656-1.2074 5.209-5.7616-.446-4.5542-3.258-4.984-6.233-4.6923l-1.682.1649zm11.893 2.3088 4.852-17.9268 4.503-.4414 8.241 16.6434-4.451.4363-1.337-2.9778-6.624.6494-.733 3.1807zm7.501-13.8237-1.529 6.7856 4.399-.4312zm14.714 4.8537-7.633-9.9106 4.761-.4667 4.508 6.2722 3.203-7.0281 4.787-.4692-5.563 11.2042.659 6.7277-4.062.3982zm20.104.7202 3.594-1.7108c.629 1.6104 2.102 2.2497 4.017 2.062 1.475-.1446 3.033-.7676 2.901-2.1132-.119-1.2161-1.471-1.6845-3.369-1.8641l-2.137-.2086c-2.874-.2669-5.441-1.3999-5.73-4.3498-.362-3.7002 3.331-5.7342 6.798-6.0741 2.795-.2739 5.644.544 6.992 3.1027l-3.568 1.7083c-.58-1.1188-1.834-1.649-3.464-1.4892-1.578.1547-2.71.8665-2.606 1.9274.086.8798.926 1.4506 2.139 1.5668l2.374.2375c2.851.2953 6.352.8403 6.703 4.4112.36 3.6744-3.166 6.0838-6.737 6.4339-3.778.3703-6.574-.9753-7.907-3.64zm15.902 2.5428 4.852-17.9269 4.502-.4413 8.241 16.6434-4.45.4363-1.337-2.9778-6.624.6493-.734 3.1807zm7.501-13.8237-1.529 6.7855 4.399-.4312zm15.109 7.976 8.281-.8117.352 3.5968-12.368 1.2124-1.695-17.2851 4.089-.4008zm10.163 2.6352-1.695-17.2852 13.301-1.3037.352 3.5967-9.212.903.295 3.0016 5.615-.5504.352 3.5968-5.615.5504.343 3.4932 9.211-.9029.353 3.5967z" fill="#e7e7d3"/></g></svg>