<svg width="330" height="106" viewBox="0 0 330 106" fill="none" xmlns="http://www.w3.org/2000/svg">
<g clip-path="url(#clip0_282_227)">
<g filter="url(#filter0_d_282_227)">
<rect x="-60" y="43.0256" width="446" height="63.0686" transform="rotate(-5.53593 -60 43.0256)" fill="#F1DD02"/>
</g>
<path d="M35.984 55.8232L35.2503 48.3391L38.3953 48.0308L39.1543 55.7737C39.3474 57.7442 39.8485 58.9612 42.0579 58.7446C44.2474 58.53 44.5027 57.2389 44.3095 55.2683L43.5506 47.5255L46.6955 47.2172L47.4291 54.7013C47.831 58.8017 46.4299 60.9084 42.3096 61.3123C38.1496 61.7201 36.3859 59.9236 35.984 55.8232ZM53.1543 63.2435L50.1288 63.5401L48.8469 50.4628L51.4743 50.2052L52.0051 51.5197C52.5347 50.3625 53.7957 49.6963 54.8507 49.5929C57.3985 49.3432 59.4069 51.176 59.721 54.3806C60.039 57.6251 58.417 59.7334 55.8692 59.9831C54.8142 60.0865 53.4459 59.658 52.7016 58.6257L53.1543 63.2435ZM52.2111 55.0565C52.4101 57.0868 53.4892 57.8451 54.6835 57.728C55.8579 57.6129 56.7575 56.54 56.5761 54.6889C56.3985 52.8776 55.2999 51.9202 54.1255 52.0353C52.9312 52.1524 52.0121 53.0262 52.2111 55.0565ZM66.5697 51.0566L66.3434 48.7477L67.9755 48.5877L67.7336 46.1195L70.7591 45.823L71.001 48.2911L73.1507 48.0804L73.3771 50.3894L71.2274 50.6001L71.6176 54.581C71.7093 55.5165 72.0254 55.6664 73.0008 55.5708L73.8766 55.4849L74.1185 57.9531L72.2077 58.1404C69.7793 58.3784 68.8984 58.0026 68.6701 55.6738L68.2019 50.8966L66.5697 51.0566ZM74.5843 52.8835C74.235 49.3206 76.5651 47.4644 79.3119 47.1951C82.0189 46.9298 84.6849 48.2962 85.0342 51.8591C85.3834 55.4221 83.0374 57.32 80.3304 57.5853C77.5835 57.8546 74.9335 56.4464 74.5843 52.8835ZM79.5421 49.5439C78.3478 49.6609 77.4646 50.4911 77.6695 52.5811C77.8724 54.6511 78.8661 55.3576 80.1001 55.2366C81.3143 55.1176 82.1519 54.2316 81.949 52.1616C81.7441 50.0716 80.7165 49.4288 79.5421 49.5439ZM92.7639 53.312L95.4132 52.0475C95.8784 53.3081 96.9602 53.6844 98.055 53.5771C99.309 53.4542 100.043 52.7392 99.9354 51.6444C99.7754 50.0122 98.0027 49.764 96.0123 49.9591L95.8055 47.8492C98.0945 47.6248 99.304 46.8431 99.1889 45.6687C99.0874 44.6337 98.0614 44.2118 96.9666 44.3191C95.9913 44.4147 95.0967 44.9244 94.957 46.1639L92.1325 45.436C92.7098 43.3297 94.7358 42.2669 96.9253 42.0523C99.3536 41.8143 101.965 42.6234 102.199 45.0119C102.34 46.4451 101.533 47.6495 100.65 48.2786C102.013 48.6474 102.908 49.9865 103.027 51.2007C103.298 53.9674 100.923 55.5668 98.1958 55.8341C95.9466 56.0546 93.7868 55.3419 92.7639 53.312ZM110.327 54.645C108.018 54.8713 106.006 54.0235 104.977 52.1349L107.51 50.922C108.015 52.1787 108.972 52.5069 109.947 52.4113C111.341 52.2748 112.274 51.3393 112.122 49.7867C111.962 48.1545 110.773 47.5074 109.539 47.6284C108.563 47.724 107.852 48.2559 107.476 49.1368L104.691 48.405L104.86 41.5157L113.758 40.6435L113.999 43.1117L107.61 43.738L107.555 46.2553C108.13 45.7569 109.199 45.3909 110.134 45.2992C112.503 45.067 114.944 46.3952 115.247 49.4804C115.545 52.5258 113.193 54.364 110.327 54.645ZM131.691 52.5508C129.521 52.7635 127.596 51.1637 127.383 48.9941C127.171 46.8245 128.752 44.9211 130.922 44.7084C133.092 44.4957 135.013 46.0557 135.226 48.2253C135.438 50.3949 133.86 52.3381 131.691 52.5508ZM120.46 47.6631C118.291 47.8758 116.369 46.3158 116.157 44.1461C115.944 41.9765 117.522 40.0333 119.692 39.8207C121.841 39.6099 123.786 41.2078 123.999 43.3774C124.212 45.547 122.61 47.4524 120.46 47.6631ZM122.949 53.1665L120.441 53.4124L128.433 39.2049L130.961 38.9571L122.949 53.1665ZM131.152 47.0571C130.296 47.141 129.648 47.9079 129.732 48.7638C129.818 49.6396 130.603 50.2661 131.459 50.1822C132.314 50.0983 132.963 49.3314 132.877 48.4555C132.793 47.5997 132.008 46.9732 131.152 47.0571ZM118.525 43.914C118.609 44.7699 119.374 45.3982 120.23 45.3143C121.106 45.2285 121.734 44.4635 121.65 43.6076C121.565 42.7318 120.8 42.1035 119.924 42.1893C119.068 42.2732 118.44 43.0382 118.525 43.914ZM142.423 46.2337C142.074 42.6707 144.404 40.8146 147.151 40.5453C149.858 40.28 152.524 41.6464 152.873 45.2093C153.222 48.7722 150.876 50.6702 148.169 50.9355C145.422 51.2048 142.772 49.7966 142.423 46.2337ZM147.381 42.8941C146.187 43.0111 145.304 43.8412 145.508 45.9312C145.711 48.0013 146.705 48.7077 147.939 48.5868C149.153 48.4678 149.991 47.5818 149.788 45.5117C149.583 43.4218 148.555 42.7789 147.381 42.8941ZM153.202 42.5647L152.975 40.2557L154.607 40.0957L154.449 38.4835C154.219 36.1347 155.289 35.3667 157.956 35.1052L159.33 34.9706L159.564 37.3591L158.728 37.4411C157.653 37.5464 157.428 37.7092 157.502 38.4656L157.633 39.7992L159.783 39.5884L160.009 41.8974L157.859 42.1081L158.601 49.6718L155.575 49.9684L154.834 42.4047L153.202 42.5647ZM160.51 41.8482L160.284 39.5393L161.916 39.3793L161.758 37.767C161.528 35.4183 162.598 34.6502 165.265 34.3888L166.639 34.2541L166.873 36.6427L166.037 36.7246C164.962 36.83 164.737 36.9928 164.811 37.7491L164.942 39.0827L167.091 38.872L167.318 41.1809L165.168 41.3917L165.909 48.9554L162.884 49.252L162.142 41.6882L160.51 41.8482ZM174.882 41.3639C174.511 37.582 177.292 34.1745 181.113 33.7999C184.776 33.4409 188.1 35.9887 188.465 39.7109L188.488 39.9497C188.619 42.5092 187.098 43.8038 185.665 43.9443C184.749 44.034 183.868 43.6581 183.446 42.8354C182.913 43.7518 182.078 44.2556 181.242 44.3376C179.849 44.4742 178.406 43.4902 178.199 41.3804C177.902 38.3549 179.658 37.1981 181.668 37.001C182.464 36.923 183.316 37.0003 184.076 37.1669L184.445 40.9289C184.534 41.8445 185.097 42.2516 185.654 42.1969C186.311 42.1326 186.987 41.4433 186.946 40.0004L186.921 39.7417C186.636 36.8356 184.056 34.9181 181.21 35.1971C178.145 35.4976 175.962 38.2436 176.257 41.2492C176.555 44.2946 179.282 46.4791 182.347 46.1786C183.302 46.0849 184.135 45.7622 184.924 45.2025L185.076 46.7551C184.295 47.1934 183.379 47.4841 182.424 47.5778C178.642 47.9485 175.254 45.1657 174.882 41.3639ZM180.126 41.1513C180.216 42.0669 180.778 42.474 181.355 42.4174C181.992 42.355 182.63 41.6895 182.515 40.5152L182.351 38.8432C182.128 38.8248 181.866 38.8104 181.607 38.8357C180.771 38.9177 179.952 39.3798 180.126 41.1513ZM193.389 35.6311L189.109 36.0506L188.838 33.2838L200.522 32.1385L200.793 34.9053L196.514 35.3248L197.546 45.8543L194.421 46.1606L193.389 35.6311ZM200.405 40.53C200.097 37.385 202.308 35.1386 205.194 34.8557C208.439 34.5376 210.693 36.8286 210.835 40.3315L203.53 41.0475C203.767 42.4311 204.908 43.0025 206.022 42.8932C206.958 42.8015 207.605 42.4366 207.941 41.9616L210.435 42.6014C209.548 44.2156 207.945 45.0761 206.332 45.2342C203.128 45.5483 200.725 43.7943 200.405 40.53ZM205.494 37.0971C204.36 37.2083 203.401 37.885 203.355 39.2561L207.853 38.8152C207.689 37.5452 206.669 36.982 205.494 37.0971ZM211.679 39.4248C211.371 36.2799 213.582 34.0334 216.468 33.7505C219.713 33.4325 221.967 35.7235 222.11 39.2263L214.805 39.9424C215.041 41.326 216.182 41.8974 217.296 41.7881C218.232 41.6964 218.879 41.3315 219.215 40.8565L221.709 41.4962C220.822 43.1104 219.219 43.971 217.606 44.129C214.402 44.4432 211.999 42.6892 211.679 39.4248ZM216.769 35.9919C215.634 36.1032 214.675 36.7799 214.629 38.151L219.127 37.71C218.963 36.44 217.943 35.8768 216.769 35.9919ZM227.3 46.1731L224.275 46.4697L222.993 33.3923L225.62 33.1348L226.151 34.4493C226.681 33.2921 227.942 32.6259 228.997 32.5225C231.544 32.2727 233.553 34.1056 233.867 37.3102C234.185 40.5546 232.563 42.6629 230.015 42.9127C228.96 43.0161 227.592 42.5875 226.847 41.5552L227.3 46.1731ZM226.357 37.9861C226.556 40.0163 227.635 40.7747 228.829 40.6576C230.004 40.5425 230.903 39.4696 230.722 37.6185C230.544 35.8072 229.446 34.8498 228.271 34.9649C227.077 35.0819 226.158 35.9558 226.357 37.9861ZM234.85 32.23L237.875 31.9335L238.383 37.1087C238.521 38.5219 238.676 39.6924 240.149 39.548C241.423 39.4231 241.829 38.6398 241.649 36.8086L241.14 31.6135L244.185 31.315L245.153 41.1877L242.526 41.4452L241.971 40.0929C241.489 41.1248 240.777 41.8577 239.265 42.006C236.637 42.2635 235.695 40.8487 235.431 38.1616L234.85 32.23ZM245.866 27.6937L248.892 27.3971L249.36 32.1742C249.89 31.0171 251.151 30.3509 252.206 30.2474C254.753 29.9977 256.752 31.731 257.068 34.9555C257.384 38.1801 255.772 40.3879 253.224 40.6376C252.169 40.7411 250.809 40.3921 250.064 39.3598L249.817 40.7305L247.17 40.99L245.866 27.6937ZM249.57 35.7508C249.771 37.801 250.844 38.4996 252.038 38.3826C253.213 38.2674 254.103 37.095 253.923 35.2638C253.746 33.4525 252.655 32.5747 251.48 32.6898C250.286 32.8069 249.373 33.7405 249.57 35.7508ZM258.754 37.041L257.723 26.5314L260.749 26.2348L261.701 35.9483C261.793 36.8838 262.109 37.0337 263.124 36.9342L263.98 36.8503L264.222 39.3184L262.291 39.5077C259.863 39.7457 258.982 39.3699 258.754 37.041ZM263.483 31.7545L263.256 29.4455L268.173 28.9636L269.141 38.8363L266.095 39.1348L265.354 31.5711L263.483 31.7545ZM266.5 27.4797C265.505 27.5773 264.629 26.8392 264.533 25.8639C264.435 24.8687 265.154 23.9945 266.149 23.8969C267.144 23.7993 268.018 24.5175 268.116 25.5127C268.211 26.488 267.495 27.3822 266.5 27.4797ZM275.582 38.4461C272.317 38.766 270.319 36.8318 270.013 33.7067C269.708 30.6016 271.558 28.3505 274.563 28.0559C276.255 27.89 278.169 28.3455 279.276 30.2064L276.837 31.3698C276.437 30.565 275.729 30.3129 274.973 30.387C273.878 30.4944 272.895 31.3342 273.1 33.4242C273.311 35.5739 274.456 36.1851 275.531 36.0798C276.367 35.9978 276.929 35.581 277.21 34.9706L279.766 35.6244C278.927 37.5153 277.154 38.2919 275.582 38.4461ZM280.276 27.7973L279.938 24.3538L283.8 23.9753L284.137 27.4188L283.793 32.5167L281.584 32.7333L280.276 27.7973ZM283.216 37.6977C282.141 37.8031 281.179 37.0131 281.074 35.9383C280.969 34.8635 281.76 33.9217 282.835 33.8163C283.89 33.7129 284.85 34.483 284.955 35.5578C285.061 36.6327 284.271 37.5943 283.216 37.6977ZM55.1579 78.0909C51.8458 78.4155 49.6318 76.4944 49.2994 73.1026C48.97 69.7427 50.8453 67.3886 54.1415 67.0654C56.1479 66.8688 57.7877 67.6887 58.7465 69.1059L56.5968 70.1366C56.0348 69.3235 55.1247 69.059 54.2648 69.1433C52.7839 69.2885 51.7463 70.6763 51.9586 72.842C52.1771 75.0713 53.4582 76.1675 54.971 76.0192C55.7671 75.9412 56.7119 75.5753 57.115 74.6033L59.408 75.1985C58.6965 76.7955 57.1643 77.8942 55.1579 78.0909ZM60.1817 77.4055L63.1677 66.3736L65.9384 66.102L71.0098 76.3441L68.2709 76.6126L67.4482 74.7801L63.3717 75.1797L62.9205 77.137L60.1817 77.4055ZM64.7978 68.8986L63.8567 73.0743L66.5637 72.809L64.7978 68.8986ZM75.4431 76.0703C73.4514 76.0887 71.9883 75.2675 71.2493 73.7966L73.4611 72.7438C73.7621 73.5181 74.3806 73.9237 75.2402 74.0002L74.9951 71.5002L74.3282 71.4209C72.571 71.2073 70.9817 70.5753 70.8022 68.7441C70.6009 66.6899 72.4596 65.4788 74.3692 65.1148L74.2615 64.0161L75.4239 63.9021L75.5316 65.0009C77.0887 64.9768 78.5571 65.5242 79.2899 66.9314L77.094 67.9827C76.8354 67.4775 76.3552 67.1709 75.7345 67.0709L75.9577 69.348L76.136 69.3627C77.887 69.5126 80.0451 69.8798 80.2605 72.0773C80.465 74.1633 78.6266 75.5814 76.6071 75.9723L76.7257 77.1825L75.5633 77.2964L75.4431 76.0703ZM76.4073 73.934C77.116 73.7842 77.7855 73.397 77.7121 72.6486C77.6559 72.0754 77.0658 71.7956 76.1825 71.641L76.4073 73.934ZM73.3585 68.2524C73.4115 68.7938 73.9298 69.161 74.6748 69.2166L74.7719 69.2231L74.5659 67.1212C73.8109 67.2917 73.3038 67.695 73.3585 68.2524ZM81.3015 73.3257L81.9379 72.7649C83.6139 71.3306 86.5961 68.7875 86.4197 66.9881C86.3385 66.1601 85.6116 65.7973 84.8314 65.8738C84.1626 65.9393 83.4772 66.328 83.3352 67.3387L81.0597 66.7579C81.4877 65.2209 82.8875 64.2477 84.7665 64.0635C86.9321 63.8512 88.6656 64.8066 88.8607 66.7971C89.0714 68.9468 87.3338 70.9016 84.3907 73.0229L89.4704 72.5249L89.6655 74.5154L81.4966 75.3161L81.3015 73.3257ZM90.4792 69.0499C90.1451 65.6423 91.5171 63.4017 94.4948 63.1099C97.4885 62.8164 99.2694 64.7479 99.6034 68.1556C99.9359 71.5473 98.5686 73.8356 95.575 74.129C92.5973 74.4209 90.8117 72.4417 90.4792 69.0499ZM92.9408 67.2653C92.9049 67.719 92.9055 68.2173 92.9633 68.8064C93.2146 71.3702 94.1725 72.4499 95.3986 72.3297C95.9082 72.2797 96.3353 72.0449 96.6291 71.5981L92.9408 67.2653ZM94.6712 64.9092C94.1935 64.9561 93.7967 65.1718 93.4966 65.5549L97.1468 69.8272C97.1699 69.4069 97.1549 68.9261 97.105 68.4165C96.8521 65.8369 95.9133 64.7875 94.6712 64.9092ZM169.533 60.5773L169.352 58.7302L170.658 58.6022L170.464 56.6276L172.885 56.3904L173.078 58.3649L174.798 58.1963L174.979 60.0435L173.259 60.2121L173.572 63.3968C173.645 64.1452 173.898 64.2651 174.678 64.1886L175.379 64.1199L175.572 66.0945L174.044 66.2443C172.101 66.4348 171.396 66.1341 171.214 64.271L170.839 60.4493L169.533 60.5773ZM175.943 62.0229C175.697 59.5069 177.466 57.7098 179.775 57.4834C182.37 57.229 184.174 59.0618 184.288 61.8641L178.444 62.4369C178.633 63.5438 179.546 64.0009 180.437 63.9135C181.186 63.8401 181.704 63.5482 181.972 63.1682L183.967 63.68C183.258 64.9713 181.975 65.6598 180.685 65.7862C178.121 66.0375 176.199 64.6343 175.943 62.0229ZM180.015 59.2766C179.107 59.3655 178.34 59.9069 178.303 61.0038L181.902 60.651C181.77 59.635 180.954 59.1845 180.015 59.2766ZM184.963 61.1388C184.716 58.6228 186.485 56.8257 188.794 56.5993C191.39 56.3449 193.193 58.1777 193.307 60.98L187.463 61.5528C187.652 62.6597 188.565 63.1168 189.457 63.0294C190.205 62.956 190.723 62.6641 190.991 62.2841L192.987 62.7959C192.277 64.0872 190.994 64.7757 189.704 64.9021C187.141 65.1534 185.219 63.7502 184.963 61.1388ZM189.034 58.3925C188.127 58.4814 187.36 59.0228 187.323 60.1197L190.921 59.7669C190.79 58.7509 189.974 58.3004 189.034 58.3925ZM198.214 64.068C196.367 64.249 194.883 63.7032 194.148 62.4409L196.129 61.4911C196.433 62.1365 197.181 62.3847 198.089 62.2958C198.869 62.2193 199.562 61.9102 199.514 61.4165C199.481 61.0821 199.141 60.8904 198.217 60.8202L196.777 60.7202C195.223 60.6153 194.096 59.9381 193.966 58.6164C193.804 56.9603 195.393 55.9525 197.352 55.7605C198.864 55.6122 200.316 55.9844 201.027 57.1687L199.062 58.1169C198.846 57.5593 198.226 57.4593 197.509 57.5296C196.649 57.6139 196.225 57.8805 196.266 58.2945C196.297 58.613 196.586 58.7775 197.299 58.8362L198.791 58.9633C200.736 59.1264 201.682 59.5963 201.812 60.9179C201.995 62.781 200.332 63.8604 198.214 64.068ZM207.692 60.7918C207.503 58.865 209.62 57.9983 212.656 57.4756L212.626 57.1731C212.537 56.2654 212.027 55.9779 211.183 56.0606C210.514 56.1262 210.002 56.4818 209.905 57.1343L207.795 56.6016C208.218 55.4992 209.414 54.5781 211.229 54.4002C213.474 54.1801 214.821 54.9644 215.055 57.353L215.225 59.0887C215.327 60.1237 215.573 61.4822 215.799 62.1513L213.554 62.3714L213.173 61.4441C212.665 62.3299 211.773 62.7389 210.642 62.8497C209.146 62.9964 207.832 62.2249 207.692 60.7918ZM212.844 58.9041C211.186 59.2113 210.093 59.5435 210.174 60.3715C210.224 60.8811 210.735 61.1687 211.372 61.1062C212.327 61.0126 213.005 60.5442 212.863 59.0952L212.844 58.9041ZM216.344 54.1238L218.462 53.9162L218.867 54.9376C219.16 54.314 219.969 53.5435 221.179 53.4248C223.217 53.225 223.954 54.3425 224.163 56.4763L224.634 61.2852L222.214 61.5225L221.802 57.3187C221.692 56.204 221.554 55.2851 220.392 55.3991C219.373 55.4989 219 56.2911 219.141 57.7242L219.539 61.7847L217.118 62.022L216.344 54.1238ZM229.198 61.0308C227.16 61.2306 225.552 59.7484 225.299 57.1688C225.046 54.5891 226.345 52.9184 228.384 52.7186C229.244 52.6343 230.321 52.9628 230.916 53.7887L230.541 49.967L232.962 49.7297L233.702 57.2775C233.78 58.0737 233.938 59.1996 234.275 60.3402L231.966 60.5665L231.543 59.5309C230.963 60.5041 230.058 60.9465 229.198 61.0308ZM229.348 54.5211C228.393 54.6148 227.673 55.4731 227.815 56.9221C227.959 58.3871 228.839 59.1689 229.794 59.0753C230.734 58.9832 231.468 58.2682 231.307 56.6281C231.149 55.0198 230.288 54.429 229.348 54.5211ZM243.113 59.4739L240.693 59.7111L239.919 51.813L242.036 51.6054L242.442 52.6267C242.735 52.0032 243.527 51.2342 244.706 51.1187C245.964 50.9954 246.725 51.3869 247.176 52.2109C247.695 51.2758 248.639 50.7331 249.753 50.6239C251.776 50.4256 252.528 51.5415 252.737 53.6753L253.209 58.4843L250.788 58.7215L250.376 54.5177C250.267 53.403 250.113 52.4857 248.95 52.5996C247.963 52.6964 247.616 53.4217 247.752 54.8071L248.161 58.9791L245.725 59.2179L245.313 55.014C245.203 53.8994 245.065 52.9805 243.934 53.0913C242.931 53.1896 242.575 53.9802 242.709 55.3496L243.113 59.4739ZM253.868 54.4004C253.589 51.5501 255.453 50.0652 257.65 49.8498C259.816 49.6375 261.949 50.7306 262.228 53.581C262.508 56.4313 260.631 57.9496 258.465 58.1619C256.268 58.3773 254.148 57.2508 253.868 54.4004ZM257.835 51.7288C256.879 51.8224 256.173 52.4865 256.337 54.1585C256.499 55.8146 257.294 56.3797 258.281 56.2829C259.252 56.1877 259.922 55.479 259.76 53.8229C259.596 52.1509 258.774 51.6367 257.835 51.7288ZM266.221 57.2087L263.801 57.446L263.027 49.5479L264.937 49.3605L265.509 50.7675C265.878 49.4452 266.677 48.9007 267.893 48.8457L268.131 51.2661C267.873 51.2593 267.696 51.2605 267.473 51.2823C266.295 51.3979 265.708 51.9698 265.831 53.2278L266.221 57.2087ZM268.92 52.909C268.673 50.393 270.442 48.5959 272.751 48.3695C275.347 48.1151 277.15 49.9479 277.264 52.7502L271.42 53.323C271.609 54.4299 272.522 54.887 273.414 54.7996C274.162 54.7262 274.68 54.4343 274.948 54.0543L276.944 54.5661C276.234 55.8575 274.951 56.5459 273.661 56.6723C271.098 56.9236 269.176 55.5205 268.92 52.909ZM272.991 50.1627C272.084 50.2516 271.317 50.793 271.28 51.8899L274.878 51.5371C274.747 50.5211 273.931 50.0706 272.991 50.1627ZM278.467 54.6257C278.383 53.7659 279.016 53.0125 279.876 52.9282C280.72 52.8454 281.488 53.4615 281.572 54.3214C281.657 55.1812 281.025 55.9506 280.181 56.0333C279.321 56.1176 278.551 55.4856 278.467 54.6257Z" fill="#1E1E1E"/>
<path d="M108.891 75.2192C107.298 73.3979 106.155 71.0824 105.894 68.4231C105.677 66.2097 106.105 64.0135 107.04 62.0731L109.333 61.8483C108.275 63.849 107.921 65.9737 108.146 68.2667C108.403 70.8942 109.722 73.1925 111.296 74.9835L108.891 75.2192ZM111.802 67.6511L111.215 61.6638L113.731 61.4171L114.339 67.6115C114.493 69.1879 114.894 70.1614 116.661 69.9882C118.413 69.8165 118.617 68.7836 118.463 67.2072L117.856 61.0129L120.372 60.7663L120.958 66.7536C121.28 70.0338 120.159 71.7192 116.863 72.0423C113.535 72.3686 112.124 70.9314 111.802 67.6511ZM122.224 68.7999L124.436 67.7471C124.822 68.7381 125.729 69.1315 126.907 69.016C127.815 68.927 128.774 68.5436 128.693 67.7156C128.619 66.9672 127.787 66.679 126.619 66.5684L125.304 66.4401C123.536 66.2758 121.956 65.5786 121.778 63.7633C121.555 61.4862 123.828 60.2345 125.962 60.0254C127.681 59.8568 129.435 60.3601 130.264 61.9347L128.068 62.986C127.712 62.2975 126.94 61.9712 125.937 62.0695C124.965 62.1648 124.269 62.6028 124.333 63.2557C124.386 63.7971 124.903 64.1483 125.649 64.2199L127.11 64.366C128.865 64.5477 131.02 64.8831 131.235 67.0806C131.457 69.3417 129.287 70.8245 127.089 71.0399C124.765 71.2678 123.044 70.4397 122.224 68.7999ZM136.277 70.1072C134.285 70.1256 132.822 69.3044 132.083 67.8335L134.295 66.7807C134.596 67.555 135.214 67.9606 136.074 68.0371L135.829 65.5371L135.162 65.4578C133.404 65.2442 131.815 64.6122 131.636 62.781C131.434 60.7268 133.293 59.5157 135.203 59.1517L135.095 58.0529L136.257 57.939L136.365 59.0377C137.922 59.0137 139.391 59.5611 140.123 60.9683L137.927 62.0195C137.669 61.5144 137.189 61.2077 136.568 61.1078L136.791 63.3849L136.969 63.3996C138.72 63.5495 140.879 63.9167 141.094 66.1142C141.298 68.2002 139.46 69.6183 137.441 70.0092L137.559 71.2194L136.397 71.3333L136.277 70.1072ZM137.241 67.9709C137.949 67.8211 138.619 67.4339 138.546 66.6855C138.489 66.1122 137.899 65.8325 137.016 65.6779L137.241 67.9709ZM134.192 62.2893C134.245 62.8307 134.763 63.1978 135.508 63.2534L135.605 63.26L135.399 61.1581C134.644 61.3285 134.137 61.7319 134.192 62.2893ZM141.838 62.1989L141.646 60.2403C143.318 60.0764 144.055 59.8916 144.488 58.4023L146.319 58.2228L147.362 68.8598L144.957 69.0955L144.258 61.9617L141.838 62.1989ZM149.236 63.4994C148.936 60.442 149.983 57.6707 153.279 57.3476C154.887 57.19 156.031 57.7048 156.679 58.5738L154.59 59.5663C154.347 59.2204 153.849 59.0602 153.291 59.1148C152.161 59.2257 151.463 60.1461 151.641 61.9614C152.12 61.4322 152.791 61.0609 153.842 60.9579C155.753 60.7706 157.624 62.1466 157.839 64.3441C158.056 66.5575 156.461 68.1608 154.057 68.3965C151.015 68.6946 149.531 66.509 149.236 63.4994ZM151.959 64.8723C152.071 66.0188 152.813 66.7017 153.864 66.5986C154.899 66.4972 155.463 65.6863 155.352 64.5558C155.243 63.4411 154.529 62.7233 153.478 62.8263C152.459 62.9262 151.846 63.7258 151.959 64.8723ZM159.796 70.2293C161.009 68.1651 161.84 65.6561 161.582 63.0287C161.357 60.7357 160.597 58.7202 159.171 56.963L161.464 56.7382C162.758 58.4602 163.604 60.5315 163.821 62.7449C164.082 65.4042 163.41 67.8976 162.217 69.992L159.796 70.2293Z" fill="#967F01"/>
</g>
<defs>
<filter id="filter0_d_282_227" x="-65" y="-3" width="460.004" height="115.8" filterUnits="userSpaceOnUse" color-interpolation-filters="sRGB">
<feFlood flood-opacity="0" result="BackgroundImageFix"/>
<feColorMatrix in="SourceAlpha" type="matrix" values="0 0 0 0 0 0 0 0 0 0 0 0 0 0 0 0 0 0 127 0" result="hardAlpha"/>
<feOffset dy="2"/>
<feGaussianBlur stdDeviation="2.5"/>
<feComposite in2="hardAlpha" operator="out"/>
<feColorMatrix type="matrix" values="0 0 0 0 0 0 0 0 0 0 0 0 0 0 0 0 0 0 0.18 0"/>
<feBlend mode="normal" in2="BackgroundImageFix" result="effect1_dropShadow_282_227"/>
<feBlend mode="normal" in="SourceGraphic" in2="effect1_dropShadow_282_227" result="shape"/>
</filter>
<clipPath id="clip0_282_227">
<rect width="330" height="106" fill="white"/>
</clipPath>
</defs>
</svg>
