<svg fill="none" height="106" viewBox="0 0 330 106" width="330" xmlns="http://www.w3.org/2000/svg" xmlns:xlink="http://www.w3.org/1999/xlink"><filter id="a" color-interpolation-filters="sRGB" filterUnits="userSpaceOnUse" height="106.648" width="459.117" x="-64.5566" y="1.5761"><feFlood flood-opacity="0" result="BackgroundImageFix"/><feColorMatrix in="SourceAlpha" result="hardAlpha" type="matrix" values="0 0 0 0 0 0 0 0 0 0 0 0 0 0 0 0 0 0 127 0"/><feOffset dy="2"/><feGaussianBlur stdDeviation="2.5"/><feComposite in2="hardAlpha" operator="out"/><feColorMatrix type="matrix" values="0 0 0 0 0 0 0 0 0 0 0 0 0 0 0 0 0 0 0.18 0"/><feBlend in2="BackgroundImageFix" mode="normal" result="effect1_dropShadow_282_227"/><feBlend in="SourceGraphic" in2="effect1_dropShadow_282_227" mode="normal" result="shape"/></filter><filter id="b" color-interpolation-filters="sRGB" filterUnits="userSpaceOnUse" height="55.176" width="454.128" x="-59.5684" y="53.0479"><feFlood flood-opacity="0" result="BackgroundImageFix"/><feColorMatrix in="SourceAlpha" result="hardAlpha" type="matrix" values="0 0 0 0 0 0 0 0 0 0 0 0 0 0 0 0 0 0 127 0"/><feOffset dy="2"/><feGaussianBlur stdDeviation="2.5"/><feComposite in2="hardAlpha" operator="out"/><feColorMatrix type="matrix" values="0 0 0 0 0 0 0 0 0 0 0 0 0 0 0 0 0 0 0.18 0"/><feBlend in2="BackgroundImageFix" mode="normal" result="effect1_dropShadow_282_227"/><feBlend in="SourceGraphic" in2="effect1_dropShadow_282_227" mode="normal" result="shape"/></filter><clipPath id="c"><path d="m0 0h330v106h-330z"/></clipPath><g clip-path="url(#c)"><g filter="url(#a)"><path d="m-59.5566 47.6017h446v53.8735h-446z" fill="#f1e402" transform="matrix(.9953359 -.09646994 .09646994 .9953359 -4.869911 -5.523403)"/></g><g filter="url(#b)"><path d="m-54.5684 99.0735h446v2.16055h-446z" fill="#f0d101" transform="matrix(.9953359 -.09646994 .09646994 .9953359 -9.812128 -4.802122)"/></g><path d="m36.0815 57.8184-.7336-7.4841 3.1449-.3083.759 7.7429c.1932 1.9706.6943 3.1875 2.9037 2.9709 2.1895-.2146 2.4448-1.5057 2.2516-3.4762l-.759-7.7429 3.1449-.3083.7337 7.4841c.4019 4.1004-.9993 6.2071-5.1195 6.611-4.1601.4078-5.9237-1.3887-6.3257-5.4891zm17.1704 7.4204-3.0255.2965-1.2819-13.0773 2.6274-.2575.5307 1.3144c.5297-1.1571 1.7907-1.8233 2.8456-1.9268 2.5478-.2497 4.5562 1.5831 4.8703 4.7878.3181 3.2444-1.304 5.3527-3.8518 5.6025-1.0549.1034-2.4232-.3252-3.1675-1.3575zm-.9432-8.1871c.199 2.0303 1.2781 2.7886 2.4724 2.6716 1.1743-.1152 2.074-1.188 1.8925-3.0392-.1775-1.8113-1.2762-2.7687-2.4505-2.6536-1.1943.1171-2.1135.9909-1.9144 3.0212zm14.3586-3.9998-.2264-2.309 1.6322-.16-.2419-2.4681 3.0255-.2966.2419 2.4682 2.1497-.2107.2263 2.3089-2.1497.2107.3903 3.9809c.0917.9355.4078 1.0854 1.3831.9898l.8758-.0858.242 2.4681-1.9109.1873c-2.4284.2381-3.3092-.1378-3.5375-2.4666l-.4683-4.7771zm8.0145 1.8268c-.3492-3.5629 1.9808-5.4191 4.7276-5.6883 2.7071-.2654 5.3731 1.101 5.7223 4.664.3493 3.5629-1.9967 5.4608-4.7038 5.7262-2.7468.2692-5.3968-1.139-5.7461-4.7019zm4.9579-3.3396c-1.1943.1171-2.0775.9472-1.8727 3.0372.203 2.0701 1.1966 2.7765 2.4307 2.6555 1.2142-.119 2.0517-1.0049 1.8488-3.075-.2048-2.09-1.2325-2.7328-2.4068-2.6177zm13.2217 3.7681 2.6493-1.2645c.4652 1.2607 1.5471 1.6369 2.6418 1.5296 1.254-.1229 1.9875-.8379 1.8805-1.9327-.16-1.6321-1.9327-1.8804-3.9232-1.6853l-.2068-2.1099c2.289-.2243 3.4986-1.0061 3.3834-2.1804-.1014-1.0351-1.1275-1.457-2.2222-1.3497-.9754.0956-1.8699.6053-2.0096 1.8449l-2.8245-.728c.5772-2.1063 2.6032-3.169 4.7927-3.3837 2.4284-.238 5.0402.5711 5.2742 2.9597.14 1.4331-.666 2.6375-1.549 3.2666 1.363.3689 2.257 1.708 2.376 2.9221.272 2.7668-2.104 4.3661-4.8306 4.6334-2.2492.2205-4.4091-.4922-5.432-2.5221zm17.5636 1.333c-2.309.2263-4.322-.6214-5.351-2.51l2.534-1.213c.505 1.2567 1.462 1.585 2.437 1.4894 1.393-.1366 2.326-1.0721 2.174-2.6247-.16-1.6321-1.349-2.2793-2.583-2.1583-.975.0956-1.686.6276-2.062 1.5084l-2.785-.7318.169-6.8893 8.897-.8722.242 2.4682-6.389.6263-.055 2.5174c.574-.4984 1.643-.8645 2.579-.9562 2.369-.2322 4.81 1.096 5.112 4.1812.299 3.0454-2.053 4.8836-4.919 5.1646zm21.363-2.0942c-2.169.2127-4.095-1.3871-4.307-3.5567-.213-2.1696 1.369-4.073 3.539-4.2857 2.169-.2127 4.091 1.3473 4.303 3.5169.213 2.1696-1.365 4.1129-3.535 4.3255zm-11.23-4.8877c-2.17.2127-4.091-1.3473-4.304-3.5169-.212-2.1696 1.366-4.1128 3.535-4.3255 2.15-.2107 4.095 1.3871 4.308 3.5567.212 2.1696-1.389 4.075-3.539 4.2857zm2.489 5.5035-2.508.2458 7.992-14.2074 2.528-.2478zm8.203-6.1094c-.856.0839-1.504.8508-1.42 1.7067.085.8758.87 1.5022 1.726 1.4183s1.504-.8508 1.418-1.7266c-.083-.8559-.868-1.4823-1.724-1.3984zm-12.627-3.1432c.084.8559.849 1.4843 1.705 1.4004.876-.0859 1.504-.8508 1.42-1.7067-.086-.8758-.851-1.5042-1.727-1.4184-.856.0839-1.484.8489-1.398 1.7247zm23.898 2.3197c-.35-3.5629 1.981-5.4191 4.727-5.6884 2.707-.2653 5.373 1.1011 5.723 4.664.349 3.563-1.997 5.4609-4.704 5.7262-2.747.2693-5.397-1.1389-5.746-4.7018zm4.958-3.3396c-1.195.1171-2.078.9472-1.873 3.0372.203 2.07 1.197 2.7765 2.431 2.6555 1.214-.119 2.051-1.005 1.848-3.075-.204-2.09-1.232-2.7328-2.406-2.6177zm5.82-.3294-.226-2.3089 1.632-.16-.158-1.6123c-.23-2.3488.84-3.1168 3.507-3.3783l1.373-.1346.235 2.3886-.836.0819c-1.075.1054-1.3.2681-1.226 1.0245l.13 1.3336 2.15-.2107.226 2.3089-2.149.2107.741 7.5638-3.025.2965-.742-7.5637zm7.309-.7164-.227-2.309 1.633-.16-.158-1.6122c-.231-2.3488.84-3.1168 3.507-3.3783l1.373-.1346.234 2.3885-.836.082c-1.075.1053-1.3.2681-1.226 1.0245l.131 1.3336 2.15-.2108.226 2.309-2.15.2107.742 7.5637-3.026.2966-.741-7.5637zm14.371-.4844c-.371-3.7818 2.41-7.1894 6.232-7.564 3.662-.359 6.987 2.1888 7.352 5.911l.023.2389c.13 2.5594-1.391 3.854-2.824 3.9945-.915.0897-1.796-.2861-2.219-1.1089-.533.9164-1.367 1.4203-2.203 1.5022-1.394.1366-2.837-.8473-3.043-2.9572-.297-3.0255 1.458-4.1823 3.469-4.3794.796-.078 1.648-.0007 2.408.1659l.368 3.762c.09.9156.652 1.3227 1.21 1.2681.657-.0644 1.333-.7536 1.292-2.1965l-.026-.2588c-.285-2.9061-2.864-4.8236-5.71-4.5446-3.066.3005-5.248 3.0465-4.954 6.0521.299 3.0454 3.025 5.2299 6.09 4.9294.956-.0936 1.788-.4164 2.577-.976l.153 1.5525c-.781.4383-1.697.729-2.653.8227-3.782.3707-7.169-2.4121-7.542-6.2139zm5.244-.2126c.09.9156.653 1.3227 1.23 1.2661.637-.0624 1.275-.7278 1.16-1.9022l-.164-1.672c-.223-.0183-.486-.0328-.744-.0074-.836.0819-1.655.544-1.482 2.3155zm13.263-5.5202-4.279.4195-.271-2.7667 11.684-1.1454.271 2.7668-4.28.4195 1.032 10.5295-3.125.3063zm7.017 4.8989c-.309-3.1449 1.903-5.3914 4.789-5.6743 3.244-.318 5.499 1.973 5.641 5.4758l-7.305.7161c.236 1.3835 1.377 1.9549 2.492 1.8456.935-.0917 1.583-.4566 1.918-.9315l2.495.6397c-.887 1.6142-2.491 2.4747-4.103 2.6328-3.205.3141-5.607-1.4399-5.927-4.7042zm5.089-3.4329c-1.135.1112-2.093.788-2.14 2.159l4.499-.4409c-.165-1.27-1.185-1.8332-2.359-1.7181zm6.185 2.3278c-.309-3.145 1.903-5.3914 4.789-5.6743 3.244-.3181 5.499 1.9729 5.641 5.4758l-7.305.716c.236 1.3836 1.377 1.955 2.492 1.8457.936-.0917 1.583-.4566 1.918-.9316l2.495.6398c-.887 1.6142-2.491 2.4747-4.103 2.6328-3.205.3141-5.607-1.4399-5.927-4.7042zm5.089-3.4329c-1.134.1112-2.093.7879-2.14 2.159l4.499-.4409c-.165-1.27-1.185-1.8332-2.359-1.7181zm10.532 10.1811-3.026.2966-1.282-13.0773 2.628-.2576.53 1.3145c.53-1.1572 1.791-1.8234 2.846-1.9268 2.548-.2497 4.556 1.5831 4.87 4.7877.318 3.2445-1.304 5.3528-3.851 5.6025-1.055.1034-2.424-.3251-3.168-1.3574zm-.944-8.187c.199 2.0303 1.279 2.7886 2.473 2.6715 1.174-.1151 2.074-1.188 1.892-3.0391-.177-1.8113-1.276-2.7687-2.45-2.6536-1.194.1171-2.114.9909-1.915 3.0212zm8.494-5.756 3.025-.2966.507 5.1752c.139 1.4132.294 2.5837 1.767 2.4393 1.274-.1249 1.679-.9082 1.5-2.7394l-.51-5.1951 3.046-.2985.968 9.8727-2.628.2575-.554-1.3523c-.482 1.0319-1.194 1.7648-2.707 1.9131-2.627.2576-3.57-1.1572-3.833-3.8444zm11.016-4.5364 3.025-.2965.469 4.7771c.529-1.1572 1.79-1.8234 2.845-1.9268 2.548-.2498 4.547 1.4835 4.863 4.7081.316 3.2245-1.297 5.4323-3.844 5.6821-1.055.1034-2.416-.2456-3.16-1.2779l-.248 1.3707-2.647.2595zm3.703 8.0572c.201 2.0501 1.275 2.7488 2.469 2.6317 1.174-.1151 2.064-1.2875 1.885-3.1188-.178-1.8113-1.269-2.689-2.443-2.5739-1.194.117-2.108 1.0506-1.911 3.061zm9.184 1.2902-1.03-10.5097 3.025-.2965.953 9.7134c.091.9355.407 1.0854 1.423.9859l.856-.0839.241 2.4682-1.93.1892c-2.429.2381-3.31-.1378-3.538-2.4666zm4.729-5.2866-.226-2.3089 4.916-.4819.968 9.8726-3.045.2986-.742-7.5638zm3.018-4.2747c-.996.0975-1.872-.6405-1.967-1.6159-.098-.9952.62-1.8694 1.615-1.967.996-.0975 1.87.6206 1.967 1.6158.096.9754-.62 1.8695-1.615 1.9671zm9.081 10.9663c-3.264.32-5.262-1.6143-5.569-4.7393-.304-3.1052 1.545-5.3563 4.551-5.6509 1.692-.1659 3.605.2896 4.712 2.1505l-2.438 1.1634c-.4-.8047-1.108-1.0569-1.865-.9827-1.095.1073-2.077.9472-1.872 3.0371.21 2.1497 1.355 2.7609 2.43 2.6556.836-.082 1.398-.4988 1.68-1.1092l2.556.6538c-.84 1.8909-2.612 2.6675-4.185 2.8217zm4.694-10.6488-.337-3.4434 3.861-.3786.338 3.4435-.344 5.0979-2.21.2166zm2.94 9.9005c-1.075.1053-2.036-.6846-2.142-1.7595-.105-1.0748.687-2.0166 1.762-2.1219 1.055-.1034 2.015.6666 2.12 1.7415.105 1.0748-.685 2.0365-1.74 2.1399zm-228.1551 39.3979c-3.3121.3246-5.5261-1.5965-5.8585-4.9883-.3294-3.3599 1.5459-5.714 4.8421-6.0372 2.0064-.1966 3.6462.6233 4.605 2.0405l-2.1497 1.0307c-.562-.8131-1.4721-1.0776-2.332-.9933-1.4809.1452-2.5185 1.533-2.3062 3.6987.2185 2.2293 1.4996 3.3255 3.0124 3.1772.7961-.078 1.7409-.4439 2.144-1.4159l2.293.5952c-.7115 1.597-2.2437 2.6957-4.2501 2.8924zm5.0238-.6854 2.986-11.0319 2.7707-.2716 5.0714 10.2421-2.7389.2685-.8227-1.8325-4.0765.3996-.4512 1.9573zm4.6161-8.5069-.9411 4.1757 2.707-.2653zm10.6453 7.1717c-1.9917.0184-3.4548-.8028-4.1938-2.2737l2.2118-1.0528c.301.7743.9195 1.1799 1.7791 1.2564l-.2451-2.5-.6669-.0793c-1.7572-.2136-3.3465-.8456-3.526-2.6768-.2013-2.0542 1.6574-3.2653 3.567-3.6293l-.1077-1.0987 1.1624-.114.1077 1.0988c1.5571-.0241 3.0255.5233 3.7583 1.9305l-2.1959 1.0513c-.2586-.5052-.7388-.8118-1.3595-.9118l.2232 2.2771.1783.0147c1.751.1499 3.9091.5171 4.1245 2.7146.2045 2.086-1.6339 3.5041-3.6534 3.895l.1186 1.2102-1.1624.1139zm.9642-2.1363c.7087-.1498 1.3782-.537 1.3048-1.2854-.0562-.5732-.6463-.853-1.5296-1.0076zm-3.0488-5.6816c.053.5414.5713.9086 1.3163.9642l.0971.0065-.206-2.1019c-.755.1705-1.2621.5738-1.2074 1.1312zm7.943 5.0733.6364-.5608c1.676-1.4343 4.6582-3.9774 4.4818-5.7768-.0812-.828-.8081-1.1908-1.5883-1.1143-.6688.0655-1.3542.4542-1.4962 1.4649l-2.2755-.5808c.428-1.537 1.8278-2.5102 3.7068-2.6944 2.1656-.2123 3.8991.7431 4.0942 2.7336.2107 2.1497-1.5269 4.1045-4.47 6.2258l5.0797-.498.1951 1.9905-8.1689.8007zm9.1777-4.2758c-.3341-3.4076 1.0379-5.6482 4.0156-5.94 2.9937-.2935 4.7746 1.638 5.1086 5.0457.3325 3.3917-1.0348 5.68-4.0284 5.9734-2.9777.2919-4.7633-1.6873-5.0958-5.0791zm2.4616-1.7846c-.0359.4537-.0353.952.0225 1.5411.2513 2.5638 1.2092 3.6435 2.4353 3.5233.5096-.05.9367-.2848 1.2305-.7316zm1.7304-2.3561c-.4777.0469-.8745.2626-1.1746.6457l3.6502 4.2723c.0231-.4203.0081-.9011-.0418-1.4107-.2529-2.5796-1.1917-3.629-2.4338-3.5073zm74.8618-4.3319-.181-1.8471 1.306-.128-.194-1.9746 2.421-.2372.193 1.9745 1.72-.1686.181 1.8472-1.72.1686.313 3.1847c.073.7484.326.8683 1.106.7918l.701-.0687.193 1.9746-1.528.1498c-1.943.1905-2.648-.1102-2.83-1.9733l-.375-3.8217zm6.41 1.4456c-.246-2.516 1.523-4.3131 3.832-4.5395 2.595-.2544 4.399 1.5784 4.513 4.3807l-5.844.5728c.189 1.1069 1.102 1.564 1.993 1.4766.749-.0734 1.267-.3653 1.535-.7453l1.995.5118c-.709 1.2913-1.992 1.9798-3.282 2.1062-2.564.2513-4.486-1.1519-4.742-3.7633zm4.072-2.7463c-.908.0889-1.675.6303-1.712 1.7272l3.599-.3528c-.132-1.016-.948-1.4665-1.887-1.3744zm4.948 1.8622c-.247-2.516 1.522-4.3131 3.831-4.5395 2.596-.2544 4.399 1.5784 4.513 4.3807l-5.844.5728c.189 1.1069 1.102 1.564 1.994 1.4766.748-.0734 1.266-.3653 1.534-.7453l1.996.5118c-.71 1.2913-1.993 1.9798-3.283 2.1062-2.563.2513-4.485-1.1519-4.741-3.7633zm4.071-2.7463c-.907.0889-1.674.6303-1.711 1.7272l3.598-.3528c-.131-1.016-.947-1.4665-1.887-1.3744zm9.18 5.6755c-1.847.181-3.331-.3648-4.066-1.6271l1.981-.9498c.304.6454 1.052.8936 1.96.8047.78-.0765 1.473-.3856 1.425-.8793-.033-.3344-.373-.5261-1.297-.5963l-1.44-.1c-1.554-.1049-2.681-.7821-2.811-2.1038-.162-1.6561 1.427-2.6639 3.386-2.8559 1.512-.1483 2.964.2239 3.675 1.4082l-1.965.9482c-.216-.5576-.836-.6576-1.553-.5873-.86.0843-1.284.3509-1.243.7649.031.3185.32.483 1.033.5417l1.492.1271c1.945.1631 2.891.633 3.021 1.9546.183 1.8631-1.48 2.9425-3.598 3.1501zm9.478-3.2762c-.189-1.9268 1.928-2.7935 4.964-3.3162l-.03-.3025c-.089-.9077-.599-1.1952-1.443-1.1125-.669.0656-1.181.4212-1.278 1.0737l-2.11-.5327c.423-1.1024 1.619-2.0235 3.434-2.2014 2.245-.2201 3.592.5642 3.826 2.9528l.17 1.7357c.102 1.035.348 2.3935.574 3.0626l-2.245.2201-.381-.9273c-.508.8858-1.4 1.2948-2.531 1.4056-1.496.1467-2.81-.6248-2.95-2.0579zm5.152-1.8877c-1.658.3072-2.751.6394-2.67 1.4674.05.5096.561.7972 1.198.7347.955-.0936 1.633-.562 1.491-2.011zm3.5-4.7803 2.118-.2076.405 1.0214c.293-.6236 1.102-1.3941 2.312-1.5128 2.038-.1998 2.775.9177 2.984 3.0515l.471 4.8089-2.42.2373-.412-4.2038c-.11-1.1147-.248-2.0336-1.41-1.9196-1.019.0998-1.392.892-1.251 2.3251l.398 4.0605-2.421.2373zm12.854 6.907c-2.038.1998-3.646-1.2824-3.899-3.862-.253-2.5797 1.046-4.2504 3.085-4.4502.86-.0843 1.937.2442 2.532 1.0701l-.375-3.8217 2.421-.2373.74 7.5478c.078.7962.236 1.9221.573 3.0627l-2.309.2263-.423-1.0356c-.58.9732-1.485 1.4156-2.345 1.4999zm.15-6.5097c-.955.0937-1.675.952-1.533 2.401.144 1.465 1.024 2.2468 1.979 2.1532.94-.0921 1.674-.8071 1.513-2.4472-.158-1.6083-1.019-2.1991-1.959-2.107zm13.765 4.9528-2.42.2372-.774-7.8981 2.117-.2076.406 1.0213c.293-.6235 1.085-1.3925 2.264-1.508 1.258-.1233 2.019.2682 2.47 1.0922.519-.9351 1.463-1.4778 2.577-1.587 2.023-.1983 2.775.9176 2.984 3.0514l.472 4.809-2.421.2372-.412-4.2038c-.109-1.1147-.263-2.032-1.426-1.9181-.987.0968-1.334.8221-1.198 2.2075l.409 4.172-2.436.2388-.412-4.2039c-.11-1.1146-.248-2.0335-1.379-1.9227-1.003.0983-1.359.8889-1.225 2.2583zm10.755-5.0735c-.279-2.8503 1.585-4.3352 3.782-4.5506 2.166-.2123 4.299.8808 4.578 3.7312.28 2.8503-1.597 4.3686-3.763 4.5809-2.197.2154-4.317-.9111-4.597-3.7615zm3.967-2.6716c-.956.0936-1.662.7577-1.498 2.4297.162 1.6561.957 2.2212 1.944 2.1244.971-.0952 1.641-.8039 1.479-2.46-.164-1.672-.986-2.1862-1.925-2.0941zm8.386 5.4799-2.42.2373-.774-7.8981 1.91-.1874.572 1.407c.369-1.3223 1.168-1.8668 2.384-1.9218l.238 2.4204c-.258-.0068-.435-.0056-.658.0162-1.178.1156-1.765.6875-1.642 1.9455zm2.699-4.2997c-.247-2.516 1.522-4.3131 3.831-4.5395 2.596-.2544 4.399 1.5784 4.513 4.3807l-5.844.5728c.189 1.1069 1.102 1.564 1.994 1.4766.748-.0734 1.266-.3653 1.534-.7453l1.996.5118c-.71 1.2914-1.993 1.9798-3.283 2.1062-2.563.2513-4.485-1.1518-4.741-3.7633zm4.071-2.7463c-.907.0889-1.674.6303-1.711 1.7272l3.598-.3528c-.131-1.016-.947-1.4665-1.887-1.3744zm5.476 4.463c-.084-.8598.549-1.6132 1.409-1.6975.844-.0828 1.612.5333 1.696 1.3932.085.8598-.547 1.6292-1.391 1.7119-.86.0843-1.63-.5477-1.714-1.4076z" fill="#1e1e1e"/><path d="m108.891 76.2192c-1.593-1.8213-2.736-4.1368-2.997-6.7961-.217-2.2134.211-4.4096 1.146-6.35l2.293-.2248c-1.058 2.0007-1.412 4.1254-1.187 6.4184.257 2.6275 1.576 4.9258 3.15 6.7168zm2.911-7.5681-.587-5.9873 2.516-.2467.608 6.1944c.154 1.5764.555 2.5499 2.322 2.3767 1.752-.1717 1.956-1.2046 1.802-2.781l-.607-6.1943 2.516-.2466.586 5.9873c.322 3.2802-.799 4.9656-4.095 5.2887-3.328.3263-4.739-1.1109-5.061-4.3912zm10.422 1.1488 2.212-1.0528c.386.991 1.293 1.3844 2.471 1.2689.908-.089 1.867-.4724 1.786-1.3004-.074-.7484-.906-1.0366-2.074-1.1472l-1.315-.1283c-1.768-.1643-3.348-.8615-3.526-2.6768-.223-2.2771 2.05-3.5288 4.184-3.7379 1.719-.1686 3.473.3347 4.302 1.9093l-2.196 1.0513c-.356-.6885-1.128-1.0148-2.131-.9165-.972.0953-1.668.5333-1.604 1.1862.053.5414.57.8926 1.316.9642l1.461.1461c1.755.1817 3.91.5171 4.125 2.7146.222 2.2611-1.948 3.7439-4.146 3.9593-2.324.2279-4.045-.6002-4.865-2.24zm14.053 1.3073c-1.992.0184-3.455-.8028-4.194-2.2737l2.212-1.0528c.301.7743.919 1.1799 1.779 1.2564l-.245-2.5-.667-.0793c-1.758-.2136-3.347-.8456-3.526-2.6768-.202-2.0542 1.657-3.2653 3.567-3.6293l-.108-1.0988 1.162-.1139.108 1.0987c1.557-.024 3.026.5234 3.758 1.9306l-2.196 1.0512c-.258-.5051-.738-.8118-1.359-.9117l.223 2.2771.178.0147c1.751.1499 3.91.5171 4.125 2.7146.204 2.086-1.634 3.5041-3.653 3.895l.118 1.2102-1.162.1139zm.964-2.1363c.708-.1498 1.378-.537 1.305-1.2854-.057-.5733-.647-.853-1.53-1.0076zm-3.049-5.6816c.053.5414.571.9085 1.316.9641l.097.0066-.206-2.1019c-.755.1704-1.262.5738-1.207 1.1312zm7.646-.0904-.192-1.9586c1.672-.1639 2.409-.3487 2.842-1.838l1.831-.1795 1.043 10.637-2.405.2357-.699-7.1338zm7.398 1.3005c-.3-3.0574.747-5.8287 4.043-6.1518 1.608-.1576 2.752.3572 3.4 1.2262l-2.089.9925c-.243-.3459-.741-.5061-1.299-.4515-1.13.1109-1.828 1.0313-1.65 2.8466.479-.5292 1.15-.9005 2.201-1.0035 1.911-.1873 3.782 1.1887 3.997 3.3862.217 2.2134-1.378 3.8167-3.782 4.0524-3.042.2981-4.526-1.8875-4.821-4.8971zm2.723 1.3729c.112 1.1465.854 1.8294 1.905 1.7263 1.035-.1014 1.599-.9123 1.488-2.0428-.109-1.1147-.823-1.8325-1.874-1.7295-1.019.0999-1.632.8995-1.519 2.046zm7.837 5.357c1.213-2.0642 2.044-4.5732 1.786-7.2006-.225-2.293-.985-4.3085-2.411-6.0657l2.293-.2248c1.294 1.722 2.14 3.7933 2.357 6.0067.261 2.6593-.411 5.1527-1.604 7.2471z" fill="#967f01"/></g></svg>