<svg fill="none" height="31" viewBox="0 0 30 31" width="30" xmlns="http://www.w3.org/2000/svg"><path clip-rule="evenodd" d="m24.4753 17.8375c.4703-.4703.7201-1.1063.6739-1.7171-.1458-1.9392-.4741-6.30277-.6449-8.57136-.0639-.84772-.6909-1.47473-1.5384-1.53841-2.2686-.1708-6.6321-.49909-8.5713-.64491-.6108-.04613-1.2469.20364-1.7171.67393-2.2079 2.20788-8.71159 8.71155-11.33091 11.33085-.614122.6141-.677265 1.5464-.14128 2.0824 2.21835 2.2183 7.63844 7.6384 9.85659 9.8565.5362.5362 1.4684.4731 2.0825-.141 2.6194-2.6193 9.123-9.123 11.3309-11.3309zm-2.3883-9.46453c.3215.32152.2163.93781-.033 1.18716-.2701.27004-.8986.17313-1.1377-.06595-.2309-.23084-.2648-.82539.0052-1.09543.2576-.25759.8359-.35535 1.1655-.02578z" fill="#1e1e1e" fill-rule="evenodd"/></svg>