<svg fill="none" height="24" viewBox="0 0 24 24" width="24" xmlns="http://www.w3.org/2000/svg" xmlns:xlink="http://www.w3.org/1999/xlink"><clipPath id="a"><path d="m0 0h24v24h-24z"/></clipPath><g clip-path="url(#a)"><path d="m16.6331 16.3247h-3.1989c-.0851-.0002-.1667-.0342-.2267-.0945-.0601-.0604-.0937-.1421-.0935-.2272v-8.02865c0-.17737.1436-.32099.3202-.32099h2.9658c2.2257 0 2.6927 1.31063 2.6927 2.40934 0 .6357-.1687 1.1404-.5038 1.5108.8162.3367 1.2557 1.0956 1.2557 2.1935 0 1.6018-1.2008 2.5577-3.2115 2.5577zm-4.6445 0h-6.64405c-.04211-.0001-.0838-.0086-.12266-.0248s-.07413-.04-.1038-.0699-.05316-.0653-.06911-.1043-.02405-.0807-.02384-.1228v-8.02863c0-.17737.14283-.32099.31941-.32099h3.10392c1.93843 0 3.09523 1.0438 3.09523 2.79232 0 1.1631-.5846 2.0767-1.5272 2.4478l2.2108 2.8968c.0406.0463.067.1033.0761.1642s.0006.1232-.0246.1793c-.0253.0562-.066.104-.1176.1377s-.1117.0519-.1733.0524m.0118-16.3238c-6.62667 0-11.9997 5.37279-11.9997 11.9997 0 6.6285 5.37279 12.0015 12.0003 12.0015 6.6275 0 11.9997-5.3728 11.9997-12.0003 0-6.62751-5.3712-11.99969919-11.9991-11.99969919" fill="#fcf5eb"/></g></svg>