<svg fill="none" height="24" viewBox="0 0 24 24" width="24" xmlns="http://www.w3.org/2000/svg"><g fill="#fcf5eb"><path d="m4.99316 8.79556c-.00345.0076-.00653.01541-.00991.02312-.11592.21492-.19972.58115-.26172 1.03145-.00114.00791-.00181.01591-.00294.02386-.00718.0531-.01391.10735-.02055.16261-.02204.1784-.0414.3655-.05726.5598-.07545.878-.11146 1.8956-.17069 2.7192-.03188.3786-.07233.7554-.12884 1.1213-.04937-.0134-.09666-.0296-.14242-.0469-.31354-.1308-.62581-.3998-.79028-.7793-.09301-.23-.12943-.4817-.11195-.7261.01397-.1553.05074-.32.11489-.4933.0073-.0175.01479-.035.02275-.0521.05242.0037.11896.0027.19271-.0026.13674-.0065.2729-.029.40744-.0701.08164-.023.15826-.051.22171-.0855.00237-.0012.00496-.0018.00734-.003-.00041-.0044-.00129-.009-.00184-.0135-.0008-.0266-.00727-.0572-.02019-.0896-.02874-.086-.08675-.1731-.1927-.2283-.00225-.0012-.00471-.0022-.00698-.0033-.09293-.0583-.21419-.0947-.36302-.0815-.07537.0049-.15751.0237-.24704.0617-.00919.0036-.01855.0073-.02789.0113.01038-.0333.02699-.0843.04404-.1505.25253-.8977-.37203-1.0146-.58252-1.0153-.0099-.0005-.0199-.0019-.0301-.0022.00019.001.00017.0021.00037.003-.00139.0001-.00273.0002-.00404.0003.00503.0181.00948.0368.01395.0558.03648.1951.05099.3851.04625.5664-.00837.2065-.04141.4222-.10572.6211-.19905-.0179-.44649-.0445-.66585.1688-.03074.0282-.05967.0608-.08663.098.00015.0005.00022.001.00037.0015-.00136.0018-.00268.0037-.00404.0055.00922.0181.02047.0352.03304.0518.03028.0449.0773.085.13581.1185.00254.0015.00514.0029.00771.0044.01019.0057.02042.0117.0312.0169.05855.0296.12501.0517.19601.0661.13333.0294.27827.0335.40047.0022-.00757.0274-.0141.0551-.02093.0826-.20207.6085-.09711 1.826.07232 2.5041.0025.0137.00481.0274.00734.0411l.00183-.0026c.00019.0007.00055.0015.00074.0022 0 0 .20835-.2208.4056-.4305.10419.0655.25444.1758.42579.2701.11244.0643.2277.1162.34871.1443.11863.0305.23923.04.35605.0114.18052-.0448.3289-.1291.45332-.2408.00397-.0032.0085-.006.01248-.0092.07303-.0588.13977-.1421.20225-.2426.2104-.3147.32766-.7273.42947-1.1185.00864-.0331.01628-.0663.02459-.0991.14861-.5543.25726-1.0672.36302-1.1691.0162-.0126.03265-.0178.04993-.015.00212.0017.00442.0047.00697.0099.01822.0933.17578.8993.34944 1.8353.00606.0326.01414.0633.02276.0925.01241.0695.04744.1425.09911.2085.05226.072.1162.1242.18646.16.11828.0663.26248.0953.41295.051.07466-.0222.24683-.0643.36816-.2066.06313-.0686.10504-.1494.11379-.2368.00861-.0396.01513-.0829.01689-.1303.00833-.0884-.00518-.5839-.01689-.9654-.00218-.1399-.004-.2908-.00404-.4536l.26392.0671c.03811.0103.07447.0213.10535.029-.00011.0151.00039.03.00037.0448-.00803.7485.10048 1.2042.26942 1.4602.1529.2411.36265.3194.61006.2639.25045-.0488.5064-.2251.69778-.414.02835-.0253.05683-.0517.08553-.079.05632.0245.12212.046.19454.0635.28622.0777.55352.0582.77712-.0168.2198-.0685.4293-.2008.5847-.428.1294.0792.2827.128.4386.1446.0044.0006.0088.0009.0132.0015.0121.0011.0242.0018.0364.0025.4161.036.7388-.187.8325-.5047.1065.1616.2401.2583.3843.2966.0053.0015.0104.0034.0158.0048.0048.0011.0098.0015.0147.0025.0434.0096.0873.0137.1325.011.1905-.0067.3885-.1069.5634-.2932.0221-.0199.0447-.0403.0672-.0621.0242.0213.0485.0416.0734.0602.1407.1128.3765.2268.6225.1685.1777-.038.3389-.1574.46-.3678.0074-.0117.0154-.0233.0227-.0356.015.0231.0303.0455.0459.0672.4311.6115 1.0625.6188 1.4528.029.0591.0539.1257.0991.1968.1376.018.01.0364.0193.055.0283.0051.0024.01.005.0151.0073.0211.0098.0431.0176.0649.0261.0121.0046.0238.0101.036.0143.0227.0079.0458.0143.069.0209.0128.0037.0253.0078.0382.011.023.0059.0464.0105.0697.0151.0127.0025.0252.0055.0379.0077.0224.0038.0449.0064.0675.0092.0147.0018.0293.0038.044.0051.023.0021.046.0034.069.0044.0134.0006.0267.0013.0401.0015.0282.0005.0564-.0001.0844-.0011.0061-.0003.0122-.0004.0183-.0007.2204-.0108.427-.0692.5738-.1641.0085-.0051.017-.0101.0253-.0154.0017-.0013.0034-.0025.0051-.0037.021-.0137.042-.0274.0613-.0426.682.2432 1.0723.0637 1.3699-.3582.0057.0047.0119.0089.0176.0135.1362.1149.2695.1935.3983.2438.0047.0019.0096.0033.0143.0051.0225.0084.0446.0164.0668.0231.2016.0642.4005.0629.599-.0022.0065-.002.0127-.0045.0191-.0066.0164-.0057.0329-.011.0492-.0176.1995-.0759.3621-.2007.4724-.3138.0072-.0066.0149-.0127.022-.0195.0943.0572.3638.2031.7793.2577.3019.0437.6024.0264.8865-.0374.071-.0146.1439-.032.2187-.0529-.751.3109-2.2036.8541-2.3363.8787-.4823.0909-.9574.0419-1.4018-.1453-.4477.1997-1.2519.4353-1.6345.1318-.2915.121-.628.3031-.9449.3186-.1905.0079-.3655-.0231-.5425-.0764-.1491.0557-.2991.1059-.45.1446-.3385.0882-.6967.0675-1.0006-.0917-.2062.0795-.4134.1565-.6225.2287-.3873.1336-.7079-.0173-.954-.2919-.0924.0536-.8103.369-1.1772.0977-.0979.0375-.8188.3924-1.1038.1501-.2056.0826-.3983.1649-.5895.2169-.0005.0001-.0009.0004-.0014.0004 0 0 .0004-.0001.0007-.0004-.21574.0592-.43277.0803-.66328.0279-.01652.0063-.03332.0126-.04956.0191-.50775.1983-.95569.4159-1.46494.3425-.32016.1272-.64033.2631-.96758.3711-.06152.0207-.12462.0433-.1894.051-.11591.016-.23686.0086-.3377-.0514-.10178-.0606-.17843-.1451-.23969-.2444-.07427.0298-.14845.0596-.22244.0877-.2853.1116-.90174.48-1.24728.2973-.10915-.0588-.18552-.1294-.23969-.2143-.4474.1843-.89843.3607-1.34969.5359-.32338.1251-.70362.3383-1.06191.222-.1657-.0532-.31573-.142-.46103-.2334-.03403.0124-.06866.0255-.10388.0385-.18879.0743-.37804.1487-.567106.2232-.102115-.5513-.200375-1.1182-.186468-1.6822.006223-.2557.024421-.5119.081488-.761.013316-.0624.028966-.125.045516-.1868-.044365.0109-.089587.0185-.135446.0206-.094964 0-.192018-.0042-.285208-.029-.109308-.0309-.491012-.1682-.3277862-.3238.2006092-.1897.4920952-.2662.7418322-.3674.002655-.0009.005841-.0022.00881-.0033.073942-.3568.068884-.7158 0-1.0788-.00831-.0435 1.811328-.7263 1.865778-.7503.05295-.3894.13867-.77306.29402-1.12724l2.03976-.80387c.00087.00087.00203.00166.00294.00257z"/><path d="m7.0109 12.0107c.00354.023.19347 1.301.16224 1.8224-.0148.1356-.05906.2436-.13398.2621-.02253.0041-.04454.0011-.06607-.0062-.04739-.0178-.10304-.0637-.16628-.1483.01191-.3243.01024-.6399-.00587-.9199-.00555-.1324-.01392-.2603-.0279-.3689-.02082-.1674-.05576-.3141-.10204-.4412-.00176-.0047-.00371-.0093-.00551-.0139-.00666-.0178-.0123-.0356-.01945-.0525.0198-.008.03962-.0151.05946-.0228.07451-.0296.2134-.1031.30099-.1108z"/><path d="m9.60309 11.1771c-.01241.0069-.02423.0147-.03634.022-.23603.1289-.40647.3224-.52783.5278-.09557.1568-.1641.327-.20776.5-.04658.173-.06297.3198-.06093.4004.00075.024.0018.0499.00293.0775.00298.3969.13587.7523.37697.925.00226.0018.00433.004.00661.0058-.03693.0403-.0742.0761-.11085.1076-.1989.1611-.3544.1784-.53114-.0088-.03005-.0335-.06032-.0735-.09066-.1208.03016-.1088.05216-.2192.06533-.3307.05306-.3929-.01678-.737-.1927-1.0582-.00692-.0132-.014-.0262-.02129-.0393-.00228-.004-.00467-.0078-.00698-.0118-.05379-.0948-.11697-.1893-.19197-.2822l-.00294.0022-.00367.0036c-.02264.0201-.10047.0907-.19748.192l-.00807.0077c-.11211-.0393-.231-.0642-.35165-.0807.02414-.015.0687-.0424.07708-.0459.38941-.2264 1.73511-.6966 1.97627-.7819.00536-.0021.04023-.0138.0367-.0117z"/><path d="m11.7614 10.5707c-.0614.0199-.1275.0541-.1956.102-.3397.2139-.5571.6362-.6758 1.1045-.0362.1373-.0646.286-.0829.4464-.0433.35-.0385.6971.0062.9782-.0313.3162-.5557.3851-.83287.2426.01438-.0171.02757-.0347.04107-.0518.2207-.2264.345-.5399.3686-.8633.0103-.1166.0054-.2294-.0121-.3369-.0489-.3321-.2077-.645-.48236-.8535-.03594-.0301-.07222-.0571-.10865-.0807l1.83381-.6394s.0718-.0256.1076-.0375c.0106-.0041.0218-.0071.033-.0106z"/><path d="m9.67173 11.8091c.09263.0398.17142.1292.21987.2474.05518.1478.06944.3476.00147.5671-.05528.1727-.15846.355-.31971.5249-.09018-.0657-.15492-.1516-.19785-.2485-.03348-.079-.05487-.1684-.06313-.2631-.01625-.2175.04377-.4485.15453-.6233.02231-.0345.04737-.0682.07488-.1009.03626-.0412.0755-.0775.11819-.1061.00391.0008.00786.0015.01175.0025z"/><path d="m11.8341 11.2853c.036.2819.2475 1.0603.3524 1.3765-.116.4962-.6498.5713-.7672.2739-.0641-.1628-.0899-.432-.0679-.707.0431-.3607.1719-.7276.3506-.8784.0403-.0296.0842-.0518.1321-.065z"/><path d="m14.4167 8.11025c-.4364.70592-.6085 1.45001-.4885 2.40465.0111.1069.0242.2148.0385.3241-1.3319.15-1.0264 1.521-.6625 1.9873.0037.0055.0069.0114.0106.0169-.0118.0589-.0491.1029-.0965.1332-.0163.0101-.0339.0187-.0521.0261-.0631.0244-.1334.0289-.1869.0135-.0389-.0137-.0702-.0404-.0851-.0851-.0008-.0023-.0015-.0047-.0022-.007-.1812-.6643-.3356-1.4041-.5403-1.8786-.002-.0046-.004-.0091-.0059-.0136-.0089-.0203-.0177-.0402-.0268-.0595-.0031-.0066-.0061-.0133-.0092-.0198-.0087-.018-.0175-.0355-.0264-.0525-.0037-.007-.0073-.014-.011-.0209-.0041-.0075-.0084-.0148-.0125-.022-.1108-.1988-.2381-.3209-.3898-.3069h-.0044c.0357-.56931.1937-1.11745.5091-1.63855.0268-.04053 2.0197-.81497 2.0401-.80276.0003.00027.0013.00087.0018.00146z"/><path d="m16.0337 8.66268c-.1256.43266-.2382.86002-.3007 1.33097-.0234.16405-.0397.32715-.0455.48525-.0004.0119-.0003.024-.0007.036-.0084.2013-.007.4122.0073.6357.0259.4448.0949.8875.207 1.3159.0172.0721.0352.1454.0547.2199-.0609.2589-.2944.5549-.7157.0019h.0007c-.0593-.152-.0907-.3119-.1042-.478-.018-.3401.0341-.7496.0873-1.1621.0515-.3553.1025-.7211.0943-1.08685-.0008-.10342-.0064-.20219-.019-.29475-.003-.02167-.0071-.04346-.0107-.06534-.0328-.22294-.0956-.44407-.2011-.66181-.0318-.07139-.0661-.14126-.1032-.20849.1461-.05873 1.1342-.45641 1.1555-.44378-.0311.11185-.0676.23836-.106.3755z"/><path d="m17.6616 10.5945c-.0053.0083-.0099.017-.0151.0254-.0123.0197-.0241.0394-.0356.0591-.0054.0094-.0109.0187-.0161.0282-.1572.2793-.2316.5543-.2529.8123-.0022.0225-.0038.045-.0052.0676-.0005.0114-.0011.0228-.0014.0341-.0129.3026.0439.6186.1934.9287.0142.031.0289.0609.0437.0895l-.0136.029c-.0139.0253-.0322.0469-.0532.0657-.0389.033-.0898.0582-.1487.0742-.203.0521-.4845-.0166-.6273-.1479-.0296-.0297-.055-.0634-.0752-.1014-.0021-.0048-.0043-.0097-.0059-.0146.0664-.1161.1267-.2373.1813-.3623.1318-.2896.2787-.7039.3201-1.2062.0073-.0664.0135-.1329.0176-.1993.0734-.027.4919-.1832.4919-.1832.0006.0001.0016.0009.0022.0011z"/><path d="m5.17485 9.7914c.0894.2439.12799.6262.12811 1.0417-.00157.1934-.01181.3904-.03047.5807-.05588.5821-.15225 1.1331-.30796 1.3989-.00134.0021-.00233.0045-.00368.0066l.18904-2.7053c.01165-.15357.02001-.26766.02496-.3226z"/><path d="m19.407 10.5321c-.0019.0471-.005.0947-.0092.1424-.0226.2416-.0829.5443-.1799.8516-.1689.5215-.4225.9779-.6482 1.1794-.0309.0241-.0637.0419-.0973.054-.022.0071-.0449.0119-.0683.015-.0715.0082-.143-.0097-.2059-.0558-.0108-.0095-.0216-.0201-.0316-.0323.0087-.0148.017-.0297.0254-.0444.2075-.3365.3026-.6268.3149-.8776.0146-.2143-.032-.4131-.153-.5995-.0394-.0633-.0852-.1226-.1362-.178.126-.049 1.1863-.4559 1.1863-.4559.0005.0008.0018.0009.003.0011z"/><path d="m14.1425 11.5261c.0325.1054.0657.2034.0992.2933.0586.1615.128.3275.2429.5631.0093.0195.0179.0374.0254.0536-.1368.1827-.3487.2746-.5249.2276-.1088-.0343-.2137-.1269-.2955-.3124l.0015-.0011c-.0428-.0963-.0697-.1853-.0848-.2665-.045-.2735.0344-.5718.4727-.6776.0077-.0014.0154-.0032.0232-.0044.0139.0437.0276.0848.0403.1244z"/><path d="m21.0455 10.1658c-.0028.0174-.0051.0353-.0077.0536-.0085.0559-.0157.1209-.0227.1931-.0065.0646-.0127.1326-.0191.203-.0066.0717-.0147.1473-.0232.2257-.0046.0444-.0091.0894-.0146.1347-.0406.3225-.1089.675-.25.9746-.0291.061-.0607.1206-.0965.1776-.0882.1395-.1975.2608-.3344.3528.1069-.3573.1363-.6746.0936-.9467-.0006-.0039-.0013-.0078-.0019-.0117-.0087-.0525-.0189-.1034-.033-.1524-.1058-.3814-.3561-.5937-.5796-.711.1571-.0605 1.2858-.4944 1.2858-.4944.0011.0005.0022.0006.0033.0011z"/><path d="m23.9952 10.36h-.0014c.004.0446.0055.0896.0062.1347-.034 1.4269-1.2143 1.908-2.017 1.9337.0143-.0392.0279-.0779.0404-.116.1163-.3145.1513-.6125.1196-.8821-.0013-.0125-.0031-.025-.0047-.0374-.0013-.0091-.0026-.0182-.0041-.0272-.0102-.0667-.0247-.1311-.044-.1934-.0088-.0294-.0182-.0585-.0287-.087.6244-.2474 1.9293-.7327 1.9293-.7327.0018.0021.0029.005.0044.0074z"/><path d="m19.6797 11.3709c.0385.0516.0722.103.1013.1538.0919.1692.156.3757.1431.5359-.0172.2136-.188.3648-.4665.1769.0047-.0109.0397-.0922.0804-.2085.0022-.0066.0044-.0132.0066-.0198.0536-.156.1145-.3674.1285-.5565.0036-.0311.0061-.0587.0066-.0818z"/><path d="m17.8712 11.2593c.0736.0954.1469.2016.1846.3256.0077.0292.0142.0591.0176.0903.0195.1644-.0273.3529-.1802.57-.0073.01-.0143.0204-.022.0305-.0142-.0305-.0264-.0641-.0375-.0999-.0207-.0727-.039-.1639-.0517-.2631-.0241-.2189-.0107-.4525.0319-.591.0066-.0201.0143-.0393.0224-.058.0048-.0099.0097-.019.015-.0268.0068.0073.0132.0149.0199.0224z"/><path d="m21.3975 11.0045c.0259.0236.0497.0479.0716.0727.1584.1945.2287.4487.1821.667-.0528.2414-.2191.4328-.4567.4338-.0087-.0003-.0175-.0008-.0264-.0018.1353-.2248.192-.479.2155-.6989.0117-.0989.0177-.2028.0154-.3098 0-.0667-.001-.1224-.0015-.163z"/><path d="m16.3769 9.09361c.0363.08805.0703.18474.102.28741.0643.21113.1374.51013.1692.85638.0108.1181.0172.2364.0162.3527-.0063.5292-.1347 1.0099-.3131 1.3387-.0972-.2964-.1442-.6574-.1575-1.0289-.018-.6136.0472-1.31532.1832-1.80629z"/><path d="m14.5415 8.87595c.0263.05181.0502.10732.0713.16701.0793.25375.1254.56421.1482.88866.024.42668.0128.93828-.0102 1.53178-.0215-.0746-.0526-.1824-.0878-.3131-.0813-.3217-.1454-.6047-.1883-.8604-.0801-.50483-.1031-1.04923.0668-1.41395z"/></g></svg>