<svg fill="none" height="24" viewBox="0 0 24 24" width="24" xmlns="http://www.w3.org/2000/svg" xmlns:xlink="http://www.w3.org/1999/xlink"><clipPath id="a"><path d="m0 0h24v24h-24z"/></clipPath><g clip-path="url(#a)"><path clip-rule="evenodd" d="m7.03016.0830838c-1.27683.0602642-2.14889.2647922-2.91097.5634002-.78885.307537-1.45759.719666-2.12282 1.387636-.66603.66835-1.075034 1.33826-1.380242 2.12794-.295489.76401-.495721 1.63649-.552121 2.9141-.05596804 1.27995-.06880805 1.68819-.06256804 4.94684.00621601 3.2581.02059204 3.6672.08162404 4.9475.061056 1.2765.264792 2.1482.563401 2.9106.30792.7889.719636 1.4572 1.387996 2.1229.66797.6656 1.33826 1.0743 2.12829 1.3799.76323.2951 1.63609.4961 2.9133.5521 1.27994.0563 1.68854.0688 4.94635.0626 3.2593-.0063 3.6679-.0207 4.9479-.0813 1.2768-.061 2.1481-.2655 2.9109-.5634.7889-.3087 1.4576-.7196 2.1229-1.388.6652-.668 1.0742-1.3383 1.3794-2.1283.2955-.7633.4965-1.6361.5521-2.9126.056-1.2807.0692-1.6897.063-4.9479-.0063-3.25861-.0209-3.66685-.0816-4.94642-.0607-1.27761-.2652-2.14893-.5634-2.91178-.3083-.78888-.7197-1.45685-1.3876-2.12287-.668-.66526-1.3383-1.075057-2.1283-1.379498-.7636-.295488-1.6361-.496896-2.9133-.5520962-1.28-.0567601-1.6886-.06921611-4.9475-.0629761-3.25817.006216-3.66677.020208-4.94674.0816241zm.13999 21.6931162c-1.1699-.051-1.80521-.2454-2.22862-.4083-.56064-.2169-.96072-.4771-1.3818-.895-.42029-.4195-.68117-.8185-.90007-1.378-.16447-.4234-.36236-1.0579-.41717-2.2278-.0595-1.2648-.0731-1.6443-.07894-4.8484-.00621-3.2034.00543-3.58289.06065-4.84884.05014-1.16914.24574-1.80521.40824-2.22823.21694-.56146.47626-.96075.89501-1.38183.41952-.42108.81843-.68119 1.3783-.90007.42302-.16527 1.05756-.36161 2.22706-.4172 1.26557-.05988 1.64462-.07272 4.84799-.07893 3.2041-.00624 3.5835.00506 4.8495.06065 1.1691.05092 1.8052.24456 2.2278.40824.5611.21696.9611.47551 1.3818.89503.4207.41954.6816.81768.9005 1.37871.1652.42184.3616 1.05717.4168 2.22631.0602 1.26557.0738 1.64503.0797 4.84846.0062 3.2041-.0055 3.5836-.0611 4.8488-.0509 1.1699-.2449 1.8056-.4082 2.2294-.217.5602-.4763.9603-.8954 1.3814-.4191.4195-.818.6812-1.3783.9001-.4222.1648-1.0575.3616-2.2263.4172-1.2655.0595-1.6446.0731-4.8491.0789-3.20334.0062-3.58242-.0058-4.84835-.0606zm9.78265-16.19073c.0015.79474.6477 1.43821 1.4424 1.43665.7951-.00154 1.4386-.64736 1.4374-1.44209-.0016-.79472-.6477-1.43857-1.4428-1.43701-.7951.00154-1.4386.64774-1.437 1.44245zm-11.11429 6.42623c.0066 3.4032 2.77059 6.1559 6.17299 6.1493 3.4028-.0066 6.157-2.7698 6.1504-6.173-.0066-3.40209-2.771-6.15641-6.1741-6.14981-3.40244.00663-6.15592 2.77105-6.14929 6.17351zm2.16132-.0043c-.00389-2.20882 1.78383-4.00316 3.99217-4.00704 2.2088-.00428 4.0035 1.78267 4.0078 3.99184.0043 2.2092-1.7834 4.0032-3.9926 4.0075-2.20838.0042-4.0031-1.7831-4.00737-3.9923z" fill="#fcf5eb" fill-rule="evenodd"/></g></svg>