<svg width="24" height="24" viewBox="0 0 24 24" fill="none" xmlns="http://www.w3.org/2000/svg">
<path d="M4.99316 8.79556C4.98971 8.80316 4.98663 8.81097 4.98325 8.81868C4.86733 9.0336 4.78353 9.39983 4.72153 9.85013C4.72039 9.85804 4.71972 9.86604 4.71859 9.87399C4.71141 9.92709 4.70468 9.98134 4.69804 10.0366C4.676 10.215 4.65664 10.4021 4.64078 10.5964C4.56533 11.4744 4.52932 12.492 4.47009 13.3156C4.43821 13.6942 4.39776 14.071 4.34125 14.4369C4.29188 14.4235 4.24459 14.4073 4.19883 14.39C3.88529 14.2592 3.57302 13.9902 3.40855 13.6107C3.31554 13.3807 3.27912 13.129 3.2966 12.8846C3.31057 12.7293 3.34734 12.5646 3.41149 12.3913C3.41879 12.3738 3.42628 12.3563 3.43424 12.3392C3.48666 12.3429 3.5532 12.3419 3.62695 12.3366C3.76369 12.3301 3.89985 12.3076 4.03439 12.2665C4.11603 12.2435 4.19265 12.2155 4.2561 12.181C4.25847 12.1798 4.26106 12.1792 4.26344 12.178C4.26303 12.1736 4.26215 12.169 4.2616 12.1645C4.2608 12.1379 4.25433 12.1073 4.24141 12.0749C4.21267 11.9889 4.15466 11.9018 4.04871 11.8466C4.04646 11.8454 4.044 11.8444 4.04173 11.8433C3.9488 11.785 3.82754 11.7486 3.67871 11.7618C3.60334 11.7667 3.5212 11.7855 3.43167 11.8235C3.42248 11.8271 3.41312 11.8308 3.40378 11.8348C3.41416 11.8015 3.43077 11.7505 3.44782 11.6843C3.70035 10.7866 3.07579 10.6697 2.8653 10.669C2.8554 10.6685 2.8454 10.6671 2.8352 10.6668C2.83539 10.6678 2.83537 10.6689 2.83557 10.6698C2.83418 10.6699 2.83284 10.67 2.83153 10.6701C2.83656 10.6882 2.84101 10.7069 2.84548 10.7259C2.88196 10.921 2.89647 11.111 2.89173 11.2923C2.88336 11.4988 2.85032 11.7145 2.78601 11.9134C2.58696 11.8955 2.33952 11.8689 2.12016 12.0822C2.08942 12.1104 2.06049 12.143 2.03353 12.1802C2.03368 12.1807 2.03375 12.1812 2.0339 12.1817C2.03254 12.1835 2.03122 12.1854 2.02986 12.1872C2.03908 12.2053 2.05033 12.2224 2.0629 12.239C2.09318 12.2839 2.1402 12.324 2.19871 12.3575C2.20125 12.359 2.20385 12.3604 2.20642 12.3619C2.21661 12.3676 2.22684 12.3736 2.23762 12.3788C2.29617 12.4084 2.36263 12.4305 2.43363 12.4449C2.56696 12.4743 2.7119 12.4784 2.8341 12.4471C2.82653 12.4745 2.82 12.5022 2.81317 12.5297C2.6111 13.1382 2.71606 14.3557 2.88549 15.0338C2.88799 15.0475 2.8903 15.0612 2.89283 15.0749L2.89466 15.0723C2.89485 15.073 2.89521 15.0738 2.8954 15.0745C2.8954 15.0745 3.10375 14.8537 3.301 14.644C3.40519 14.7095 3.55544 14.8198 3.72679 14.9141C3.83923 14.9784 3.95449 15.0303 4.0755 15.0584C4.19413 15.0889 4.31473 15.0984 4.43155 15.0698C4.61207 15.025 4.76045 14.9407 4.88487 14.829C4.88884 14.8258 4.89337 14.823 4.89735 14.8198C4.97038 14.761 5.03712 14.6777 5.0996 14.5772C5.31 14.2625 5.42726 13.8499 5.52907 13.4587C5.53771 13.4256 5.54535 13.3924 5.55366 13.3596C5.70227 12.8053 5.81092 12.2924 5.91668 12.1905C5.93288 12.1779 5.94933 12.1727 5.96661 12.1755C5.96873 12.1772 5.97103 12.1802 5.97358 12.1854C5.9918 12.2787 6.14936 13.0847 6.32302 14.0207C6.32908 14.0533 6.33716 14.084 6.34578 14.1132C6.35819 14.1827 6.39322 14.2557 6.44489 14.3217C6.49715 14.3937 6.56109 14.4459 6.63135 14.4817C6.74963 14.548 6.89383 14.577 7.0443 14.5327C7.11896 14.5105 7.29113 14.4684 7.41246 14.3261C7.47559 14.2575 7.5175 14.1767 7.52625 14.0893C7.53486 14.0497 7.54138 14.0064 7.54314 13.959C7.55147 13.8706 7.53796 13.3751 7.52625 12.9936C7.52407 12.8537 7.52225 12.7028 7.52221 12.54L7.78613 12.6071C7.82424 12.6174 7.8606 12.6284 7.89148 12.6361C7.89137 12.6512 7.89187 12.6661 7.89185 12.6809C7.88382 13.4294 7.99233 13.8851 8.16127 14.1411C8.31417 14.3822 8.52392 14.4605 8.77133 14.405C9.02178 14.3562 9.27773 14.1799 9.46911 13.991C9.49746 13.9657 9.52594 13.9393 9.55464 13.912C9.61096 13.9365 9.67676 13.958 9.74918 13.9755C10.0354 14.0532 10.3027 14.0337 10.5263 13.9587C10.7461 13.8902 10.9556 13.7579 11.111 13.5307C11.2404 13.6099 11.3937 13.6587 11.5496 13.6753C11.554 13.6759 11.5584 13.6762 11.5628 13.6768C11.5749 13.6779 11.587 13.6786 11.5992 13.6793C12.0153 13.7153 12.338 13.4923 12.4317 13.1746C12.5382 13.3362 12.6718 13.4329 12.816 13.4712C12.8213 13.4727 12.8264 13.4746 12.8318 13.476C12.8366 13.4771 12.8416 13.4775 12.8465 13.4785C12.8899 13.4881 12.9338 13.4922 12.979 13.4895C13.1695 13.4828 13.3675 13.3826 13.5424 13.1963C13.5645 13.1764 13.5871 13.156 13.6096 13.1342C13.6338 13.1555 13.6581 13.1758 13.683 13.1944C13.8237 13.3072 14.0595 13.4212 14.3055 13.3629C14.4832 13.3249 14.6444 13.2055 14.7655 12.9951C14.7729 12.9834 14.7809 12.9718 14.7882 12.9595C14.8032 12.9826 14.8185 13.005 14.8341 13.0267C15.2652 13.6382 15.8966 13.6455 16.2869 13.0557C16.346 13.1096 16.4126 13.1548 16.4837 13.1933C16.5017 13.2033 16.5201 13.2126 16.5387 13.2216C16.5438 13.224 16.5487 13.2266 16.5538 13.2289C16.5749 13.2387 16.5969 13.2465 16.6187 13.255C16.6308 13.2596 16.6425 13.2651 16.6547 13.2693C16.6774 13.2772 16.7005 13.2836 16.7237 13.2902C16.7365 13.2939 16.749 13.298 16.7619 13.3012C16.7849 13.3071 16.8083 13.3117 16.8316 13.3163C16.8443 13.3188 16.8568 13.3218 16.8695 13.324C16.8919 13.3278 16.9144 13.3304 16.937 13.3332C16.9517 13.335 16.9663 13.337 16.981 13.3383C17.004 13.3404 17.027 13.3417 17.05 13.3427C17.0634 13.3433 17.0767 13.344 17.0901 13.3442C17.1183 13.3447 17.1465 13.3441 17.1745 13.3431C17.1806 13.3428 17.1867 13.3427 17.1928 13.3424C17.4132 13.3316 17.6198 13.2732 17.7666 13.1783C17.7751 13.1732 17.7836 13.1682 17.7919 13.1629C17.7936 13.1616 17.7953 13.1604 17.797 13.1592C17.818 13.1455 17.839 13.1318 17.8583 13.1166C18.5403 13.3598 18.9306 13.1803 19.2282 12.7584C19.2339 12.7631 19.2401 12.7673 19.2458 12.7719C19.382 12.8868 19.5153 12.9654 19.6441 13.0157C19.6488 13.0176 19.6537 13.019 19.6584 13.0208C19.6809 13.0292 19.703 13.0372 19.7252 13.0439C19.9268 13.1081 20.1257 13.1068 20.3242 13.0417C20.3307 13.0397 20.3369 13.0372 20.3433 13.0351C20.3597 13.0294 20.3762 13.0241 20.3925 13.0175C20.592 12.9416 20.7546 12.8168 20.8649 12.7037C20.8721 12.6971 20.8798 12.691 20.8869 12.6842C20.9812 12.7414 21.2507 12.8873 21.6662 12.9419C21.9681 12.9856 22.2686 12.9683 22.5527 12.9045C22.6237 12.8899 22.6966 12.8725 22.7714 12.8516C22.0204 13.1625 20.5678 13.7057 20.4351 13.7303C19.9528 13.8212 19.4777 13.7722 19.0333 13.585C18.5856 13.7847 17.7814 14.0203 17.3988 13.7168C17.1073 13.8378 16.7708 14.0199 16.4539 14.0354C16.2634 14.0433 16.0884 14.0123 15.9114 13.959C15.7623 14.0147 15.6123 14.0649 15.4614 14.1036C15.1229 14.1918 14.7647 14.1711 14.4608 14.0119C14.2546 14.0914 14.0474 14.1684 13.8383 14.2406C13.451 14.3742 13.1304 14.2233 12.8843 13.9487C12.7919 14.0023 12.074 14.3177 11.7071 14.0464C11.6092 14.0839 10.8883 14.4388 10.6033 14.1965C10.3977 14.2791 10.205 14.3614 10.0138 14.4134C10.0133 14.4135 10.0129 14.4138 10.0124 14.4138C10.0124 14.4138 10.0128 14.4137 10.0131 14.4134C9.79736 14.4726 9.58033 14.4937 9.34982 14.4413C9.3333 14.4476 9.3165 14.4539 9.30026 14.4604C8.79251 14.6587 8.34457 14.8763 7.83532 14.8029C7.51516 14.9301 7.19499 15.066 6.86774 15.174C6.80622 15.1947 6.74312 15.2173 6.67834 15.225C6.56243 15.241 6.44148 15.2336 6.34064 15.1736C6.23886 15.113 6.16221 15.0285 6.10095 14.9292C6.02668 14.959 5.9525 14.9888 5.87851 15.0169C5.59321 15.1285 4.97677 15.4969 4.63123 15.3142C4.52208 15.2554 4.44571 15.1848 4.39154 15.0999C3.94414 15.2842 3.49311 15.4606 3.04185 15.6358C2.71847 15.7609 2.33823 15.9741 1.97994 15.8578C1.81424 15.8046 1.66421 15.7158 1.51891 15.6244C1.48488 15.6368 1.45025 15.6499 1.41503 15.6629C1.22624 15.7372 1.03699 15.8116 0.847924 15.8861C0.745809 15.3348 0.647549 14.7679 0.661456 14.2039C0.667679 13.9482 0.685877 13.692 0.742944 13.4429C0.75626 13.3805 0.77191 13.3179 0.78846 13.2561C0.744095 13.267 0.698873 13.2746 0.653014 13.2767C0.55805 13.2767 0.460996 13.2725 0.367806 13.2477C0.258498 13.2168 -0.123206 13.0795 0.0400198 12.9239C0.240629 12.7342 0.532115 12.6577 0.781852 12.5565C0.784507 12.5556 0.787693 12.5543 0.790662 12.5532C0.864604 12.1964 0.859546 11.8374 0.790662 11.4744C0.782352 11.4309 2.60199 10.7481 2.65644 10.7241C2.70939 10.3347 2.79511 9.95104 2.95046 9.59686L4.99022 8.79299C4.99109 8.79386 4.99225 8.79465 4.99316 8.79556Z" fill="#FCF5EB"/>
<path d="M7.0109 12.0107C7.01444 12.0337 7.20437 13.3117 7.17314 13.8331C7.15834 13.9687 7.11408 14.0767 7.03916 14.0952C7.01663 14.0993 6.99462 14.0963 6.97309 14.089C6.9257 14.0712 6.87005 14.0253 6.80681 13.9407C6.81872 13.6164 6.81705 13.3008 6.80094 13.0208C6.79539 12.8884 6.78702 12.7605 6.77304 12.6519C6.75222 12.4845 6.71728 12.3378 6.671 12.2107C6.66924 12.206 6.66729 12.2014 6.66549 12.1968C6.65883 12.179 6.65319 12.1612 6.64604 12.1443C6.66584 12.1363 6.68566 12.1292 6.7055 12.1215C6.78001 12.0919 6.9189 12.0184 7.00649 12.0107H7.0109Z" fill="#FCF5EB"/>
<path d="M9.60309 11.1771C9.59068 11.184 9.57886 11.1918 9.56675 11.1991C9.33072 11.328 9.16028 11.5215 9.03892 11.7269C8.94335 11.8837 8.87482 12.0539 8.83116 12.2269C8.78458 12.3999 8.76819 12.5467 8.77023 12.6273C8.77098 12.6513 8.77203 12.6772 8.77316 12.7048C8.77614 13.1017 8.90903 13.4571 9.15013 13.6298C9.15239 13.6316 9.15446 13.6338 9.15674 13.6356C9.11981 13.6759 9.08254 13.7117 9.04589 13.7432C8.84699 13.9043 8.69149 13.9216 8.51475 13.7344C8.4847 13.7009 8.45443 13.6609 8.42409 13.6136C8.45425 13.5048 8.47625 13.3944 8.48942 13.2829C8.54248 12.89 8.47264 12.5459 8.29672 12.2247C8.2898 12.2115 8.28272 12.1985 8.27543 12.1854C8.27315 12.1814 8.27076 12.1776 8.26845 12.1736C8.21466 12.0788 8.15148 11.9843 8.07648 11.8914L8.07354 11.8936L8.06987 11.8972C8.04723 11.9173 7.9694 11.9879 7.87239 12.0892L7.86432 12.0969C7.75221 12.0576 7.63332 12.0327 7.51267 12.0162C7.53681 12.0012 7.58137 11.9738 7.58975 11.9703C7.97916 11.7439 9.32486 11.2737 9.56602 11.1884C9.57138 11.1863 9.60625 11.1746 9.60272 11.1767L9.60309 11.1771Z" fill="#FCF5EB"/>
<path d="M11.7614 10.5707C11.7 10.5906 11.6339 10.6248 11.5658 10.6727C11.2261 10.8866 11.0087 11.3089 10.89 11.7772C10.8538 11.9145 10.8254 12.0632 10.8071 12.2236C10.7638 12.5736 10.7686 12.9207 10.8133 13.2018C10.782 13.518 10.2576 13.5869 9.98043 13.4444C9.99481 13.4273 10.008 13.4097 10.0215 13.3926C10.2422 13.1662 10.3665 12.8527 10.3901 12.5293C10.4004 12.4127 10.3955 12.2999 10.378 12.1924C10.3291 11.8603 10.1703 11.5474 9.89564 11.3389C9.8597 11.3088 9.82342 11.2818 9.78699 11.2582L11.6208 10.6188C11.6208 10.6188 11.6926 10.5932 11.7284 10.5813C11.739 10.5772 11.7502 10.5742 11.7614 10.5707Z" fill="#FCF5EB"/>
<path d="M9.67173 11.8091C9.76436 11.8489 9.84315 11.9383 9.8916 12.0565C9.94678 12.2043 9.96104 12.4041 9.89307 12.6236C9.83779 12.7963 9.73461 12.9786 9.57336 13.1485C9.48318 13.0828 9.41844 12.9969 9.37551 12.9C9.34203 12.821 9.32064 12.7316 9.31238 12.6369C9.29613 12.4194 9.35615 12.1884 9.46691 12.0136C9.48922 11.9791 9.51428 11.9454 9.54179 11.9127C9.57805 11.8715 9.61729 11.8352 9.65998 11.8066C9.66389 11.8074 9.66784 11.8081 9.67173 11.8091Z" fill="#FCF5EB"/>
<path d="M11.8341 11.2853C11.8701 11.5672 12.0816 12.3456 12.1865 12.6618C12.0705 13.158 11.5367 13.2331 11.4193 12.9357C11.3552 12.7729 11.3294 12.5037 11.3514 12.2287C11.3945 11.868 11.5233 11.5011 11.702 11.3503C11.7423 11.3207 11.7862 11.2985 11.8341 11.2853Z" fill="#FCF5EB"/>
<path d="M14.4167 8.11025C13.9803 8.81617 13.8082 9.56026 13.9282 10.5149C13.9393 10.6218 13.9524 10.7297 13.9667 10.839C12.6348 10.989 12.9403 12.36 13.3042 12.8263C13.3079 12.8318 13.3111 12.8377 13.3148 12.8432C13.303 12.9021 13.2657 12.9461 13.2183 12.9764C13.202 12.9865 13.1844 12.9951 13.1662 13.0025C13.1031 13.0269 13.0328 13.0314 12.9793 13.016C12.9404 13.0023 12.9091 12.9756 12.8942 12.9309C12.8934 12.9286 12.8927 12.9262 12.892 12.9239C12.7108 12.2596 12.5564 11.5198 12.3517 11.0453C12.3497 11.0407 12.3477 11.0362 12.3458 11.0317C12.3369 11.0114 12.3281 10.9915 12.319 10.9722C12.3159 10.9656 12.3129 10.9589 12.3098 10.9524C12.3011 10.9344 12.2923 10.9169 12.2834 10.8999C12.2797 10.8929 12.2761 10.8859 12.2724 10.879C12.2683 10.8715 12.264 10.8642 12.2599 10.857C12.1491 10.6582 12.0218 10.5361 11.8701 10.5501H11.8657C11.9014 9.98079 12.0594 9.43265 12.3748 8.91155C12.4016 8.87102 14.3945 8.09658 14.4149 8.10879C14.4152 8.10906 14.4162 8.10966 14.4167 8.11025Z" fill="#FCF5EB"/>
<path d="M16.0337 8.66268C15.9081 9.09534 15.7955 9.5227 15.733 9.99365C15.7096 10.1577 15.6933 10.3208 15.6875 10.4789C15.6871 10.4908 15.6872 10.5029 15.6868 10.5149C15.6784 10.7162 15.6798 10.9271 15.6941 11.1506C15.72 11.5954 15.789 12.0381 15.9011 12.4665C15.9183 12.5386 15.9363 12.6119 15.9558 12.6864C15.8949 12.9453 15.6614 13.2413 15.2401 12.6883H15.2408C15.1815 12.5363 15.1501 12.3764 15.1366 12.2103C15.1186 11.8702 15.1707 11.4607 15.2239 11.0482C15.2754 10.6929 15.3264 10.3271 15.3182 9.96135C15.3174 9.85793 15.3118 9.75916 15.2992 9.6666C15.2962 9.64493 15.2921 9.62314 15.2885 9.60126C15.2557 9.37832 15.1929 9.15719 15.0874 8.93945C15.0556 8.86806 15.0213 8.79819 14.9842 8.73096C15.1303 8.67223 16.1184 8.27455 16.1397 8.28718C16.1086 8.39903 16.0721 8.52554 16.0337 8.66268Z" fill="#FCF5EB"/>
<path d="M17.6616 10.5945C17.6563 10.6028 17.6517 10.6115 17.6465 10.6199C17.6342 10.6396 17.6224 10.6593 17.6109 10.679C17.6055 10.6884 17.6 10.6977 17.5948 10.7072C17.4376 10.9865 17.3632 11.2615 17.3419 11.5195C17.3397 11.542 17.3381 11.5645 17.3367 11.5871C17.3362 11.5985 17.3356 11.6099 17.3353 11.6212C17.3224 11.9238 17.3792 12.2398 17.5287 12.5499C17.5429 12.5809 17.5576 12.6108 17.5724 12.6394L17.5588 12.6684C17.5449 12.6937 17.5266 12.7153 17.5056 12.7341C17.4667 12.7671 17.4158 12.7923 17.3569 12.8083C17.1539 12.8604 16.8724 12.7917 16.7296 12.6604C16.7 12.6307 16.6746 12.597 16.6544 12.559C16.6523 12.5542 16.6501 12.5493 16.6485 12.5444C16.7149 12.4283 16.7752 12.3071 16.8298 12.1821C16.9616 11.8925 17.1085 11.4782 17.1499 10.9759C17.1572 10.9095 17.1634 10.843 17.1675 10.7766C17.2409 10.7496 17.6594 10.5934 17.6594 10.5934C17.66 10.5935 17.661 10.5943 17.6616 10.5945Z" fill="#FCF5EB"/>
<path d="M5.17485 9.7914C5.26425 10.0353 5.30284 10.4176 5.30296 10.8331C5.30139 11.0265 5.29115 11.2235 5.27249 11.4138C5.21661 11.9959 5.12024 12.5469 4.96453 12.8127C4.96319 12.8148 4.9622 12.8172 4.96085 12.8193L5.14989 10.114C5.16154 9.96043 5.1699 9.84634 5.17485 9.7914Z" fill="#FCF5EB"/>
<path d="M19.407 10.5321C19.4051 10.5792 19.402 10.6268 19.3978 10.6745C19.3752 10.9161 19.3149 11.2188 19.2179 11.5261C19.049 12.0476 18.7954 12.504 18.5697 12.7055C18.5388 12.7296 18.506 12.7474 18.4724 12.7595C18.4504 12.7666 18.4275 12.7714 18.4041 12.7745C18.3326 12.7827 18.2611 12.7648 18.1982 12.7187C18.1874 12.7092 18.1766 12.6986 18.1666 12.6864C18.1753 12.6716 18.1836 12.6567 18.192 12.642C18.3995 12.3055 18.4946 12.0152 18.5069 11.7644C18.5215 11.5501 18.4749 11.3513 18.3539 11.1649C18.3145 11.1016 18.2687 11.0423 18.2177 10.9869C18.3437 10.9379 19.404 10.531 19.404 10.531C19.4045 10.5318 19.4058 10.5319 19.407 10.5321Z" fill="#FCF5EB"/>
<path d="M14.1425 11.5261C14.175 11.6315 14.2082 11.7295 14.2417 11.8194C14.3003 11.9809 14.3697 12.1469 14.4846 12.3825C14.4939 12.402 14.5025 12.4199 14.51 12.4361C14.3732 12.6188 14.1613 12.7107 13.9851 12.6637C13.8763 12.6294 13.7714 12.5368 13.6896 12.3513L13.6911 12.3502C13.6483 12.2539 13.6214 12.1649 13.6063 12.0837C13.5613 11.8102 13.6407 11.5119 14.079 11.4061C14.0867 11.4047 14.0944 11.4029 14.1022 11.4017C14.1161 11.4454 14.1298 11.4865 14.1425 11.5261Z" fill="#FCF5EB"/>
<path d="M21.0455 10.1658C21.0427 10.1832 21.0404 10.2011 21.0378 10.2194C21.0293 10.2753 21.0221 10.3403 21.0151 10.4125C21.0086 10.4771 21.0024 10.5451 20.996 10.6155C20.9894 10.6872 20.9813 10.7628 20.9728 10.8412C20.9682 10.8856 20.9637 10.9306 20.9582 10.9759C20.9176 11.2984 20.8493 11.6509 20.7082 11.9505C20.6791 12.0115 20.6475 12.0711 20.6117 12.1281C20.5235 12.2676 20.4142 12.3889 20.2773 12.4809C20.3842 12.1236 20.4136 11.8063 20.3709 11.5342C20.3703 11.5303 20.3696 11.5264 20.369 11.5225C20.3603 11.47 20.3501 11.4191 20.336 11.3701C20.2302 10.9887 19.9799 10.7764 19.7564 10.6591C19.9135 10.5986 21.0422 10.1647 21.0422 10.1647C21.0433 10.1652 21.0444 10.1653 21.0455 10.1658Z" fill="#FCF5EB"/>
<path d="M23.9952 10.36H23.9938C23.9978 10.4046 23.9993 10.4496 24 10.4947C23.966 11.9216 22.7857 12.4027 21.983 12.4284C21.9973 12.3892 22.0109 12.3505 22.0234 12.3124C22.1397 11.9979 22.1747 11.6999 22.143 11.4303C22.1417 11.4178 22.1399 11.4053 22.1383 11.3929C22.137 11.3838 22.1357 11.3747 22.1342 11.3657C22.124 11.299 22.1095 11.2346 22.0902 11.1723C22.0814 11.1429 22.072 11.1138 22.0615 11.0853C22.6859 10.8379 23.9908 10.3526 23.9908 10.3526C23.9926 10.3547 23.9937 10.3576 23.9952 10.36Z" fill="#FCF5EB"/>
<path d="M19.6797 11.3709C19.7182 11.4225 19.7519 11.4739 19.781 11.5247C19.8729 11.6939 19.937 11.9004 19.9241 12.0606C19.9069 12.2742 19.7361 12.4254 19.4576 12.2375C19.4623 12.2266 19.4973 12.1453 19.538 12.029C19.5402 12.0224 19.5424 12.0158 19.5446 12.0092C19.5982 11.8532 19.6591 11.6418 19.6731 11.4527C19.6767 11.4216 19.6792 11.394 19.6797 11.3709Z" fill="#FCF5EB"/>
<path d="M17.8712 11.2593C17.9448 11.3547 18.0181 11.4609 18.0558 11.5849C18.0635 11.6141 18.07 11.644 18.0734 11.6752C18.0929 11.8396 18.0461 12.0281 17.8932 12.2452C17.8859 12.2552 17.8789 12.2656 17.8712 12.2757C17.857 12.2452 17.8448 12.2116 17.8337 12.1758C17.813 12.1031 17.7947 12.0119 17.782 11.9127C17.7579 11.6938 17.7713 11.4602 17.8139 11.3217C17.8205 11.3016 17.8282 11.2824 17.8363 11.2637C17.8411 11.2538 17.846 11.2447 17.8513 11.2369C17.8581 11.2442 17.8645 11.2518 17.8712 11.2593Z" fill="#FCF5EB"/>
<path d="M21.3975 11.0045C21.4234 11.0281 21.4472 11.0524 21.4691 11.0772C21.6275 11.2717 21.6978 11.5259 21.6512 11.7442C21.5984 11.9856 21.4321 12.177 21.1945 12.178C21.1858 12.1777 21.177 12.1772 21.1681 12.1762C21.3034 11.9514 21.3601 11.6972 21.3836 11.4773C21.3953 11.3784 21.4013 11.2745 21.399 11.1675C21.399 11.1008 21.398 11.0451 21.3975 11.0045Z" fill="#FCF5EB"/>
<path d="M16.3769 9.09361C16.4132 9.18166 16.4472 9.27835 16.4789 9.38102C16.5432 9.59215 16.6163 9.89115 16.6481 10.2374C16.6589 10.3555 16.6653 10.4738 16.6643 10.5901C16.658 11.1193 16.5296 11.6 16.3512 11.9288C16.254 11.6324 16.207 11.2714 16.1937 10.8999C16.1757 10.2863 16.2409 9.58458 16.3769 9.09361Z" fill="#FCF5EB"/>
<path d="M14.5415 8.87595C14.5678 8.92776 14.5917 8.98327 14.6128 9.04296C14.6921 9.29671 14.7382 9.60717 14.761 9.93162C14.785 10.3583 14.7738 10.8699 14.7508 11.4634C14.7293 11.3888 14.6982 11.281 14.663 11.1503C14.5817 10.8286 14.5176 10.5456 14.4747 10.2899C14.3946 9.78507 14.3716 9.24067 14.5415 8.87595Z" fill="#FCF5EB"/>
</svg>
