<svg fill="none" height="24" viewBox="0 0 24 24" width="24" xmlns="http://www.w3.org/2000/svg" xmlns:xlink="http://www.w3.org/1999/xlink"><clipPath id="a"><path d="m0 0h24v24h-24z"/></clipPath><g clip-path="url(#a)"><path d="m12 0c6.5806 0 12 5.41935 12 12 0 6.629-5.4194 12-12 12-6.62903 0-12-5.371-12-12 0-6.58065 5.37097-12 12-12zm7.8871 5.56452c-.1936.29032-1.8871 2.46774-5.7097 4.01612.3871.77416.6291 1.35486.9194 2.03226 3.3871-.4355 6.7742.2419 7.1129.3387 0-2.41934-.871-4.64515-2.3226-6.38708zm-1.1129-1.20968c-2.5161-2.22581-5.9516-3.04839-9.19356-2.27419.29033.38709 2.12906 2.90322 3.82256 5.99999 3.6291-1.35483 5.1774-3.43548 5.371-3.7258zm-11.17743-1.59678c-2.85483 1.35484-4.98387 4.01613-5.66129 7.16129.48387.04839 4.69355.04839 9.48392-1.20967-1.69359-3.04839-3.5323-5.56452-3.82263-5.95162zm-5.85483 9.29034c0 2.6129.96774 5.0322 2.6129 6.8226 1.64516-2.8065 5.03226-5.8065 8.75806-6.871-.2903-.5806-.5323-1.1613-.871-1.7419-5.08061 1.5484-10.06448 1.5-10.49996 1.4516zm3.91935 8.0806c3.04839 2.371 7.01611 2.7581 10.30641 1.3549-.1451-.9194-.7258-4.0645-2.1774-7.7904-4.11288 1.4033-7.01611 4.2581-8.12901 6.4355zm12.04841.3871c2.2742-1.5484 3.9193-4.0161 4.4032-6.8709-.3871-.0968-3.1935-.9194-6.3871-.4355 1.3065 3.7258 1.8871 6.7258 1.9839 7.3064z" fill="#fcf5eb"/></g></svg>