<svg width="24" height="24" viewBox="0 0 24 24" fill="none" xmlns="http://www.w3.org/2000/svg">
<g clip-path="url(#clip0_3387_1156)">
<path fill-rule="evenodd" clip-rule="evenodd" d="M12 21.6917C12.7257 21.4668 13.4671 21.3777 14.0491 21.2559C14.1805 21.2325 14.311 21.1997 14.4407 21.1669C14.3143 20.8857 14.2939 20.553 14.4094 20.2344C14.5408 19.8782 14.8206 19.6158 15.1542 19.494C15.3306 19.7986 15.3751 20.1828 15.2437 20.539C15.1704 20.7405 15.0509 20.9138 14.9017 21.045C15.2511 20.9419 15.5926 20.8201 15.9253 20.6795C15.7803 20.4078 15.7335 20.0844 15.8184 19.7658C15.917 19.3956 16.172 19.1097 16.4932 18.9598C16.6967 19.2503 16.7753 19.6252 16.6768 19.9954C16.633 20.1594 16.5582 20.3093 16.4604 20.4359C16.7376 20.3 17.0076 20.15 17.2701 19.9907C17.1125 19.733 17.0465 19.419 17.1081 19.1004C17.1806 18.7255 17.4151 18.4209 17.7251 18.2475C17.9483 18.524 18.0528 18.8942 17.9803 19.2691C17.958 19.3862 17.9203 19.494 17.8698 19.5924C18.1037 19.4284 18.3301 19.2503 18.5483 19.0629C18.3431 18.838 18.2216 18.5334 18.2304 18.2007C18.2405 17.8164 18.4222 17.479 18.6997 17.2588C18.965 17.4931 19.1285 17.8399 19.1184 18.2241C19.1148 18.36 19.0891 18.4912 19.0449 18.613C19.2597 18.4069 19.4651 18.1866 19.6608 17.9617C19.4268 17.7742 19.2597 17.4978 19.2104 17.1791C19.1521 16.7995 19.2706 16.4387 19.5041 16.1716C19.8073 16.3544 20.0301 16.6684 20.0883 17.0432C20.1087 17.1744 20.1074 17.3056 20.0874 17.4322C20.2708 17.1885 20.4435 16.9354 20.6046 16.673C20.3523 16.5325 20.1488 16.2982 20.0454 16.0029C19.9189 15.6421 19.9686 15.2626 20.1492 14.958C20.4811 15.0845 20.7573 15.3516 20.8838 15.7124C20.925 15.8296 20.9475 15.9467 20.9528 16.0686C21.0912 15.8015 21.2183 15.5343 21.3334 15.2579C21.0688 15.1594 20.8369 14.9674 20.6886 14.7002C20.5026 14.3675 20.487 13.9833 20.613 13.6506C20.9615 13.7162 21.2789 13.9317 21.4649 14.2691C21.5211 14.3675 21.5618 14.4753 21.5877 14.5831C21.6735 14.3254 21.7493 14.0629 21.8147 13.8005C21.5253 13.7537 21.2507 13.6084 21.0494 13.3647C20.8055 13.0695 20.7201 12.6947 20.7834 12.3432C21.1385 12.3479 21.4899 12.5025 21.7339 12.7977C21.8294 12.9102 21.9006 13.0414 21.9481 13.1726C22.0056 12.8539 22.0479 12.5306 22.0744 12.1979C21.7995 12.2026 21.5214 12.1183 21.2881 11.9355C20.9867 11.7012 20.8232 11.3498 20.8103 10.9983C21.1578 10.9233 21.534 10.9983 21.8354 11.2373C21.9436 11.3216 22.0341 11.4201 22.1062 11.5278C22.1069 11.4763 22.1072 11.4294 22.1072 11.3826C22.1072 11.1202 22.0973 10.8624 22.0778 10.6047C21.793 10.6562 21.4904 10.6047 21.2244 10.4407C20.8975 10.2439 20.6945 9.91586 20.64 9.5691C20.9766 9.45195 21.359 9.48473 21.6859 9.68154C21.8124 9.7612 21.9203 9.85492 22.0083 9.9627C21.9679 9.67685 21.9154 9.39571 21.8513 9.11455C21.5873 9.20827 21.2905 9.21297 21.0073 9.10988C20.648 8.97868 20.3857 8.6975 20.2643 8.36479C20.5726 8.19141 20.9537 8.14453 21.313 8.27574C21.4533 8.32729 21.5788 8.40227 21.6869 8.49599C21.5986 8.20078 21.4971 7.91026 21.3831 7.62442C21.1014 7.74625 20.7753 7.76031 20.4655 7.64785C20.1062 7.51664 19.8439 7.23546 19.7225 6.90276C20.0308 6.72938 20.4119 6.68254 20.7711 6.81375C20.895 6.86061 21.0074 6.92153 21.1065 7.00119C20.9627 6.70129 20.8048 6.41544 20.6335 6.13428C20.3914 6.30298 20.0879 6.39198 19.7706 6.35449C19.3905 6.30763 19.0702 6.09677 18.8743 5.80155C19.133 5.55788 19.4933 5.42667 19.8733 5.47353C20.0171 5.48759 20.1523 5.52977 20.2755 5.59068C20.1105 5.35638 19.9358 5.12679 19.752 4.90655C19.5482 5.12679 19.2667 5.27205 18.9473 5.29548C18.566 5.32828 18.2104 5.18302 17.96 4.92998C18.1656 4.64413 18.4928 4.44261 18.8741 4.40981C19.0428 4.39575 19.2065 4.41919 19.3583 4.46605C19.1264 4.22238 18.8823 3.98808 18.6268 3.76315C18.4571 4.04431 18.1795 4.25521 17.8369 4.33018C17.4637 4.41453 17.0915 4.32549 16.8085 4.10993C16.9719 3.79128 17.268 3.54762 17.6413 3.46328C17.8696 3.41173 18.0975 3.43044 18.3049 3.49604C18.0009 3.25237 17.6825 3.02747 17.3515 2.82129C17.2032 3.1165 16.9403 3.3508 16.6016 3.45389C16.2356 3.56636 15.8575 3.50074 15.5597 3.30393C15.6996 2.9806 15.9772 2.7135 16.3433 2.60104C16.5359 2.5448 16.7318 2.53542 16.9176 2.56823C16.6144 2.39953 16.3012 2.2449 15.9794 2.10901C15.6568 2.24022 15.2864 2.25429 14.9339 2.12777C14.5153 1.97313 14.2096 1.64511 14.0679 1.26086C14.4268 1.05468 14.8706 1.0031 15.2891 1.15305C15.6421 1.28426 15.9148 1.53731 16.0766 1.8419C16.3807 1.97311 16.6774 2.11838 16.9661 2.27302C16.8284 2.09495 16.73 1.88409 16.6864 1.64979C16.6054 1.20931 16.7306 0.782866 16.9931 0.459534C17.3526 0.665717 17.6228 1.02187 17.7039 1.46235C17.7779 1.86066 17.6799 2.25428 17.4624 2.56356C17.7891 2.76505 18.1039 2.9853 18.4049 3.2196C18.265 2.99467 18.1835 2.73223 18.1824 2.45108C18.1805 2.00591 18.3799 1.60759 18.695 1.34049C19.0124 1.6029 19.2151 2.00124 19.217 2.44641C19.2188 2.86815 19.0432 3.24303 18.761 3.51014C19.0234 3.73506 19.2744 3.97401 19.5133 4.22237C19.4499 4.02556 19.4279 3.81 19.4566 3.58976C19.5144 3.14928 19.7655 2.7791 20.1136 2.55418C20.3927 2.86345 20.5403 3.28519 20.4826 3.72567C20.4308 4.11929 20.2238 4.45669 19.9308 4.6863C20.1521 4.94871 20.3607 5.22052 20.5557 5.50168C20.5157 5.28144 20.5249 5.0518 20.592 4.82688C20.7187 4.40045 21.0249 4.07245 21.4039 3.90844C21.6313 4.25521 21.7107 4.69098 21.584 5.12209C21.469 5.51102 21.2055 5.81092 20.8739 5.98899C21.082 6.33107 21.271 6.68254 21.4394 7.04805C21.44 6.79969 21.5038 6.55134 21.6373 6.32172C21.8619 5.93747 22.2367 5.69378 22.6441 5.62349C22.783 6.01243 22.7556 6.4576 22.5311 6.84185C22.3283 7.18861 22.0029 7.42293 21.6415 7.51665C21.7685 7.83061 21.8804 8.15392 21.9764 8.48194C22.0137 8.25233 22.1074 8.02738 22.2604 7.83057C22.5327 7.47912 22.9358 7.28231 23.349 7.26826C23.4365 7.67125 23.3518 8.10705 23.0795 8.46318C22.8346 8.77714 22.4841 8.9693 22.1156 9.01616C22.1964 9.35824 22.2599 9.70969 22.3052 10.0705C22.382 9.82684 22.5225 9.60656 22.7251 9.42381C23.0586 9.12859 23.4907 9.01615 23.8999 9.07707C23.9101 9.48944 23.7448 9.90649 23.4113 10.2017C23.1099 10.4688 22.7282 10.586 22.3556 10.5625C22.3768 10.8343 22.3876 11.1061 22.3876 11.3826C22.3876 11.4857 22.3861 11.5887 22.383 11.6965C22.4752 11.4856 22.6176 11.2982 22.8077 11.1483C23.157 10.8718 23.5947 10.7828 24 10.8624C23.9874 11.2748 23.7994 11.6825 23.4501 11.959C23.1273 12.212 22.7292 12.3104 22.3509 12.2588C22.3192 12.6337 22.2674 13.0086 22.1963 13.3694C22.3305 13.1539 22.5248 12.9664 22.7703 12.8399C23.1666 12.6337 23.6135 12.6291 23.9951 12.7884C23.9028 13.1914 23.6399 13.5568 23.2436 13.7583C22.8733 13.9505 22.4587 13.9645 22.0944 13.838C21.9987 14.2316 21.8805 14.6159 21.7413 14.9861C21.9108 14.7893 22.1365 14.63 22.4043 14.5456C22.8286 14.4097 23.2701 14.48 23.6205 14.7002C23.4635 15.0798 23.145 15.3938 22.7207 15.5297C22.3227 15.6562 21.9097 15.6046 21.5708 15.4172C21.4534 15.6937 21.3243 15.9654 21.184 16.2279C21.3453 16.1201 21.5315 16.0404 21.7355 16.0029C22.1736 15.9233 22.6027 16.0451 22.9225 16.3075C22.7182 16.6684 22.3626 16.9401 21.9244 17.0198C21.5384 17.0901 21.1595 17.0011 20.8561 16.7996C20.6317 17.1651 20.3854 17.5165 20.1191 17.8492C20.3478 17.6852 20.6252 17.5915 20.9256 17.5868C21.3711 17.5774 21.774 17.7695 22.0466 18.0788C21.7863 18.4022 21.3912 18.6083 20.9456 18.6177C20.5183 18.6271 20.1301 18.449 19.8586 18.1632C19.5601 18.5052 19.2394 18.8286 18.8987 19.1332C19.1872 18.9692 19.5335 18.8989 19.8855 18.9645C20.3236 19.0488 20.679 19.316 20.883 19.6768C20.5631 19.9392 20.1339 20.0657 19.6958 19.9814C19.2674 19.9017 18.9181 19.6393 18.7121 19.2925C18.3949 19.5596 18.0614 19.8127 17.7135 20.0423C17.9888 19.9579 18.2912 19.9579 18.5846 20.0517C19.0079 20.1922 19.3239 20.5062 19.4779 20.8904C19.1258 21.1107 18.6838 21.1763 18.2606 21.0357C17.8559 20.8998 17.5492 20.6093 17.3885 20.2438C17.0959 20.4218 16.7938 20.5858 16.4833 20.7358C16.7043 20.7358 16.928 20.792 17.1369 20.8998C17.5314 21.1107 17.7911 21.4715 17.8799 21.8745C17.4969 22.0338 17.0501 22.0244 16.6556 21.8182C16.3038 21.6308 16.0592 21.3215 15.9474 20.9748C15.6211 21.106 15.2866 21.2231 14.9447 21.3215C15.1915 21.3543 15.434 21.448 15.6465 21.6074C16.0022 21.8745 16.1996 22.2775 16.2217 22.6898C15.8185 22.7789 15.3788 22.6992 15.0232 22.4321C14.6973 22.1884 14.5044 21.8276 14.4572 21.4527C14.3406 21.4808 14.2232 21.509 14.1051 21.5324C13.6317 21.6308 13.0508 21.7058 12.4603 21.851C13.1618 22.1369 13.8126 22.5821 14.2563 23.3271C14.2959 23.3927 14.2739 23.4818 14.2074 23.5193C14.1409 23.5615 14.0548 23.538 14.0153 23.4724C13.5505 22.6899 12.8367 22.2681 12.0906 22.015C12.0604 22.0057 12.0302 21.9963 12 21.9822C11.9698 21.9963 11.9396 22.0057 11.9094 22.015C11.1633 22.2681 10.4495 22.6899 9.9847 23.4724C9.9452 23.538 9.85911 23.5615 9.79257 23.5193C9.72603 23.4818 9.7041 23.3927 9.74361 23.3271C10.1874 22.5821 10.8382 22.1369 11.5397 21.851C10.9492 21.7058 10.3683 21.6308 9.89487 21.5324C9.77678 21.509 9.65944 21.4808 9.54272 21.4527C9.49557 21.8276 9.30265 22.1884 8.97684 22.4321C8.62117 22.6992 8.18153 22.7789 7.77826 22.6898C7.80042 22.2775 7.99775 21.8745 8.35346 21.6074C8.56597 21.448 8.80847 21.3543 9.05528 21.3215C8.71344 21.2231 8.37886 21.106 8.05257 20.9748C7.94077 21.3215 7.69616 21.6308 7.34438 21.8182C6.94992 22.0244 6.50311 22.0338 6.12008 21.8745C6.20888 21.4715 6.46857 21.1107 6.86309 20.8998C7.07203 20.792 7.29569 20.7358 7.51673 20.7358C7.20624 20.5858 6.90413 20.4218 6.6115 20.2438C6.45072 20.6093 6.14407 20.8998 5.73939 21.0357C5.31615 21.1763 4.87421 21.1107 4.52206 20.8904C4.67614 20.5062 4.99211 20.1922 5.41535 20.0517C5.70879 19.9579 6.01122 19.9579 6.28648 20.0423C5.93859 19.8127 5.60513 19.5596 5.28794 19.2925C5.08194 19.6393 4.73261 19.9017 4.30421 19.9814C3.86607 20.0657 3.43693 19.9392 3.11697 19.6768C3.32095 19.316 3.67638 19.0488 4.11448 18.9645C4.46653 18.8989 4.81283 18.9692 5.1013 19.1332C4.76058 18.8286 4.43987 18.5052 4.14142 18.1632C3.86982 18.449 3.48173 18.6271 3.05432 18.6177C2.60878 18.6083 2.2137 18.4022 1.95358 18.0788C2.22598 17.7695 2.62883 17.5774 3.07442 17.5868C3.37479 17.5915 3.65221 17.6852 3.88088 17.8492C3.61458 17.5165 3.36828 17.1651 3.14387 16.7996C2.84055 17.0011 2.46154 17.0901 2.07542 17.0198C1.63728 16.9401 1.28161 16.6684 1.0773 16.3075C1.39736 16.0451 1.82612 15.9233 2.2645 16.0029C2.46853 16.0404 2.6547 16.1201 2.81604 16.2279C2.67574 15.9654 2.54659 15.6937 2.42921 15.4172C2.09032 15.6046 1.67711 15.6562 1.27927 15.5297C0.855188 15.3938 0.536544 15.0798 0.379563 14.7002C0.730075 14.48 1.17149 14.4097 1.59557 14.5456C1.86361 14.63 2.08915 14.7893 2.25869 14.9861C2.11947 14.6159 2.00138 14.2316 1.90532 13.838C1.54122 13.9645 1.12697 13.9505 0.756312 13.7583C0.359878 13.5568 0.0969987 13.1914 0.00468484 12.7884C0.386592 12.6291 0.833633 12.6337 1.2296 12.8399C1.47514 12.9664 1.66961 13.1539 1.80363 13.3694C1.7324 13.0086 1.68086 12.6337 1.64899 12.2588C1.27084 12.3104 0.872529 12.212 0.550134 11.959C0.20056 11.6825 0.0126521 11.2748 0 10.8624C0.405337 10.7828 0.843005 10.8718 1.19211 11.1483C1.38236 11.2982 1.52482 11.4856 1.61713 11.6965C1.61385 11.5887 1.61244 11.4857 1.61244 11.3826C1.61244 11.1061 1.62322 10.8343 1.64431 10.5625C1.27177 10.586 0.889865 10.4688 0.588556 10.2017C0.254914 9.90649 0.0899658 9.48944 0.100275 9.07707C0.509361 9.01615 0.941412 9.12859 1.27505 9.42381C1.47749 9.60656 1.61807 9.82684 1.69492 10.0705C1.7399 9.70969 1.80363 9.35824 1.88423 9.01616C1.51591 8.9693 1.1654 8.77714 0.920322 8.46318C0.648066 8.10705 0.563719 7.67125 0.650878 7.26826C1.06418 7.28231 1.46718 7.47912 1.73943 7.83057C1.89266 8.02738 1.98638 8.25233 2.0234 8.48194C2.11956 8.15392 2.23146 7.83061 2.35845 7.51665C1.99716 7.42293 1.67196 7.18861 1.46905 6.84185C1.2446 6.4576 1.21695 6.01243 1.35565 5.62349C1.76333 5.69378 2.13807 5.93747 2.36262 6.32172C2.49622 6.55134 2.56004 6.79969 2.56056 7.04805C2.72902 6.68254 2.91801 6.33107 3.12611 5.98899C2.79448 5.81092 2.53104 5.51102 2.41595 5.12209C2.28929 4.69098 2.36867 4.25521 2.59613 3.90844C2.97508 4.07245 3.28131 4.40045 3.40792 4.82688C3.47507 5.0518 3.48431 5.28144 3.44429 5.50168C3.63932 5.22052 3.84789 4.94871 4.06916 4.6863C3.7762 4.45669 3.56921 4.11929 3.51743 3.72567C3.45966 3.28519 3.60731 2.86345 3.88636 2.55418C4.23449 2.7791 4.48561 3.14928 4.54339 3.58976C4.57206 3.81 4.55013 4.02556 4.48668 4.22237C4.72562 3.97401 4.9766 3.73506 5.23892 3.51014C4.95683 3.24303 4.78124 2.86815 4.78298 2.44641C4.78481 2.00124 4.98757 1.6029 5.30495 1.34049C5.62008 1.60759 5.81947 2.00591 5.81764 2.45108C5.81647 2.73223 5.73503 2.99467 5.59511 3.2196C5.89613 2.9853 6.21089 2.76505 6.53764 2.56356C6.32012 2.25428 6.22214 1.86066 6.29613 1.46235C6.37715 1.02187 6.64744 0.665717 7.0069 0.459534C7.26941 0.782866 7.39457 1.20931 7.31355 1.64979C7.26997 1.88409 7.17156 2.09495 7.03394 2.27302C7.32264 2.11838 7.61926 1.97311 7.92338 1.8419C8.08519 1.53731 8.35791 1.28426 8.71081 1.15305C9.12941 1.0031 9.57322 1.05468 9.93212 1.26086C9.79037 1.64511 9.48466 1.97313 9.06606 2.12777C8.71358 2.25429 8.34311 2.24022 8.02057 2.10901C7.69878 2.2449 7.38557 2.39953 7.08239 2.56823C7.26819 2.53542 7.46406 2.5448 7.65666 2.60104C8.02277 2.7135 8.30032 2.9806 8.44029 3.30393C8.14245 3.50074 7.76443 3.56636 7.39836 3.45389C7.05971 3.3508 6.79683 3.1165 6.64852 2.82129C6.31745 3.02747 5.99913 3.25237 5.69506 3.49604C5.90246 3.43044 6.13039 3.41173 6.35873 3.46328C6.73197 3.54762 7.02813 3.79128 7.19153 4.10993C6.90849 4.32549 6.53628 4.41453 6.16305 4.33018C5.8205 4.25521 5.54286 4.04431 5.37323 3.76315C5.11775 3.98808 4.8736 4.22238 4.6417 4.46605C4.79347 4.41919 4.95716 4.39575 5.12585 4.40981C5.50715 4.44261 5.83437 4.64413 6.04004 4.92998C5.78962 5.18302 5.43396 5.32828 5.05266 5.29548C4.73326 5.27205 4.45182 5.12679 4.24798 4.90655C4.06415 5.12679 3.88946 5.35638 3.72451 5.59068C3.8477 5.52977 3.98294 5.48759 4.12671 5.47353C4.50674 5.42667 4.867 5.55788 5.12566 5.80155C4.92979 6.09677 4.60941 6.30763 4.22938 6.35449C3.91209 6.39198 3.60858 6.30298 3.3665 6.13428C3.19523 6.41544 3.03731 6.70129 2.89354 7.00119C2.99261 6.92153 3.10498 6.86061 3.22887 6.81375C3.5881 6.68254 3.96921 6.72938 4.27745 6.90276C4.15604 7.23546 3.89377 7.51664 3.53454 7.64785C3.2247 7.76031 2.8986 7.74625 2.61693 7.62442C2.50287 7.91026 2.40138 8.20078 2.31309 8.49599C2.4212 8.40227 2.54674 8.32729 2.68703 8.27574C3.04631 8.14453 3.42737 8.19141 3.73566 8.36479C3.61425 8.6975 3.35197 8.97868 2.9927 9.10988C2.70948 9.21297 2.41267 9.20827 2.14866 9.11455C2.08456 9.39571 2.03231 9.67685 1.99154 9.9627C2.07964 9.85492 2.1876 9.7612 2.31408 9.68154C2.64102 9.48473 3.02344 9.45195 3.36003 9.5691C3.30554 9.91586 3.10249 10.2439 2.77555 10.4407C2.50962 10.6047 2.20695 10.6562 1.92219 10.6047C1.90251 10.8624 1.89267 11.1202 1.89267 11.3826C1.89267 11.4294 1.89314 11.4763 1.8936 11.5278C1.96577 11.4201 2.05621 11.3216 2.16459 11.2373C2.46599 10.9983 2.84223 10.9233 3.18974 10.9983C3.17676 11.3498 3.01327 11.7012 2.71187 11.9355C2.4786 12.1183 2.20054 12.2026 1.92547 12.1979C1.95218 12.5306 1.99435 12.8539 2.05199 13.1726C2.09941 13.0414 2.17064 12.9102 2.26614 12.7977C2.51004 12.5025 2.86149 12.3479 3.21655 12.3432C3.27986 12.6947 3.19448 13.0695 2.95057 13.3647C2.74926 13.6084 2.47471 13.7537 2.1853 13.8005C2.25067 14.0629 2.3265 14.3254 2.41234 14.5831C2.43821 14.4753 2.47883 14.3675 2.53507 14.2691C2.72105 13.9317 3.03843 13.7162 3.38693 13.6506C3.51298 13.9833 3.49738 14.3675 3.31139 14.7002C3.16308 14.9674 2.93122 15.1594 2.6666 15.2579C2.78174 15.5343 2.90882 15.8015 3.04715 16.0686C3.05254 15.9467 3.07503 15.8296 3.11622 15.7124C3.24274 15.3516 3.51894 15.0845 3.85084 14.958C4.03144 15.2626 4.08111 15.6421 3.95459 16.0029C3.85117 16.2982 3.64761 16.5325 3.39537 16.673C3.55647 16.9354 3.7291 17.1885 3.91261 17.4322C3.8925 17.3056 3.89133 17.1744 3.91167 17.0432C3.96987 16.6684 4.19268 16.3544 4.49587 16.1716C4.72937 16.4387 4.84788 16.7995 4.78963 17.1791C4.74034 17.4978 4.57319 17.7742 4.33922 17.9617C4.53486 18.1866 4.74034 18.4069 4.955 18.613C4.91086 18.4912 4.88523 18.36 4.88157 18.2241C4.87145 17.8399 5.03494 17.4931 5.30031 17.2588C5.57781 17.479 5.75944 17.8164 5.76961 18.2007C5.77837 18.5334 5.65682 18.838 5.45162 19.0629C5.66985 19.2503 5.89627 19.4284 6.13015 19.5924C6.07968 19.494 6.04201 19.3862 6.0197 19.2691C5.94717 18.8942 6.05171 18.524 6.2749 18.2475C6.58488 18.4209 6.81937 18.7255 6.8919 19.1004C6.95343 19.419 6.88755 19.733 6.72986 19.9907C6.99242 20.15 7.26242 20.3 7.53955 20.4359C7.4418 20.3093 7.36702 20.1594 7.3232 19.9954C7.22466 19.6252 7.30329 19.2503 7.50671 18.9598C7.82798 19.1097 8.08303 19.3956 8.18153 19.7658C8.26654 20.0844 8.21973 20.4078 8.07469 20.6795C8.40735 20.8201 8.74891 20.9419 9.09835 21.045C8.94905 20.9138 8.82956 20.7405 8.75627 20.539C8.62487 20.1828 8.66939 19.7986 8.84582 19.494C9.17937 19.6158 9.45917 19.8782 9.59056 20.2344C9.70602 20.553 9.68564 20.8857 9.55926 21.1669C9.68897 21.1997 9.81947 21.2325 9.95091 21.2559C10.5329 21.3777 11.2743 21.4668 12 21.6917ZM13.2745 5.63288C15.3827 6.13896 16.7384 6.47168 18.2389 7.32921C18.1248 7.61506 17.4858 9.21297 17.2557 9.53162C17.0257 9.54099 15.721 9.38633 15.721 9.38633L15.993 17.1322C13.2123 16.9823 11.2568 17.7883 8.17127 17.1322C8.07258 15.9186 8.37488 9.38633 8.37488 9.38633L6.73961 9.53162L5.81792 7.32921C7.41453 6.56071 9.12412 5.98901 10.9597 5.63288C11.3168 6.18114 12.6797 6.25143 13.2745 5.63288Z" fill="#FCF5EB"/>
</g>
<defs>
<clipPath id="clip0_3387_1156">
<rect width="24" height="24" fill="white"/>
</clipPath>
</defs>
</svg>
