<svg fill="none" height="24" viewBox="0 0 24 24" width="24" xmlns="http://www.w3.org/2000/svg"><path d="m5.20232 2.85661c2.75154 2.06569 5.71118 6.25404 6.79778 8.50179 1.0867-2.24759 4.0461-6.43614 6.7977-8.50179 1.9854-1.49051 5.2022-2.643788 5.2022 1.026 0 .7329-.4202 6.15679-.6667 7.03729-.8566 3.0614-3.9783 3.8423-6.7551 3.3697 4.8538.8261 6.0885 3.5624 3.4219 6.2987-5.0644 5.1968-7.279-1.3039-7.8467-2.9696-.104-.3054-.1527-.4482-.1534-.3268-.0007-.1214-.0494.0214-.1534.3268-.5675 1.6657-2.78206 8.1665-7.84673 2.9696-2.66664-2.7363-1.43193-5.4728 3.42192-6.2987-2.77687.4726-5.89859-.3083-6.755132-3.3697-.246462-.8806-.666658-6.30447-.666658-7.03729 0-3.669788 3.21703-2.51651 5.20232-1.026z" fill="#fcf5eb"/></svg>