<svg fill="none" height="24" viewBox="0 0 24 24" width="24" xmlns="http://www.w3.org/2000/svg" xmlns:xlink="http://www.w3.org/1999/xlink"><clipPath id="a"><path d="m0 0h24v24h-24z"/></clipPath><g clip-path="url(#a)"><path clip-rule="evenodd" d="m12 21.6917c.7257-.2249 1.4671-.314 2.0491-.4358.1314-.0234.2619-.0562.3916-.089-.1264-.2812-.1468-.6139-.0313-.9325.1314-.3562.4112-.6186.7448-.7404.1764.3046.2209.6888.0895 1.045-.0733.2015-.1928.3748-.342.506.3494-.1031.6909-.2249 1.0236-.3655-.145-.2717-.1918-.5951-.1069-.9137.0986-.3702.3536-.6561.6748-.806.2035.2905.2821.6654.1836 1.0356-.0438.164-.1186.3139-.2164.4405.2772-.1359.5472-.2859.8097-.4452-.1576-.2577-.2236-.5717-.162-.8903.0725-.3749.307-.6795.617-.8529.2232.2765.3277.6467.2552 1.0216-.0223.1171-.06.2249-.1105.3233.2339-.164.4603-.3421.6785-.5295-.2052-.2249-.3267-.5295-.3179-.8622.0101-.3843.1918-.7217.4693-.9419.2653.2343.4288.5811.4187.9653-.0036.1359-.0293.2671-.0735.3889.2148-.2061.4202-.4264.6159-.6513-.234-.1875-.4011-.4639-.4504-.7826-.0583-.3796.0602-.7404.2937-1.0075.3032.1828.526.4968.5842.8716.0204.1312.0191.2624-.0009.389.1834-.2437.3561-.4968.5172-.7592-.2523-.1405-.4558-.3748-.5592-.6701-.1265-.3608-.0768-.7403.1038-1.0449.3319.1265.6081.3936.7346.7544.0412.1172.0637.2343.069.3562.1384-.2671.2655-.5343.3806-.8107-.2646-.0985-.4965-.2905-.6448-.5577-.186-.3327-.2016-.7169-.0756-1.0496.3485.0656.6659.2811.8519.6185.0562.0984.0969.2062.1228.314.0858-.2577.1616-.5202.227-.7826-.2894-.0468-.564-.1921-.7653-.4358-.2439-.2952-.3293-.67-.266-1.0215.3551.0047.7065.1593.9505.4545.0955.1125.1667.2437.2142.3749.0575-.3187.0998-.642.1263-.9747-.2749.0047-.553-.0796-.7863-.2624-.3014-.2343-.4649-.5857-.4778-.9372.3475-.075.7237 0 1.0251.239.1082.0843.1987.1828.2708.2905.0007-.0515.001-.0984.001-.1452 0-.2624-.0099-.5202-.0294-.7779-.2848.0515-.5874 0-.8534-.164-.3269-.1968-.5299-.52484-.5844-.8716.3366-.11715.719-.08437 1.0459.11244.1265.07966.2344.17338.3224.28116-.0404-.28585-.0929-.56699-.157-.84815-.264.09372-.5608.09842-.844-.00467-.3593-.1312-.6216-.41238-.743-.74509.3083-.17338.6894-.22026 1.0487-.08905.1403.05155.2658.12653.3739.22025-.0883-.29521-.1898-.58573-.3038-.87157-.2817.12183-.6078.13589-.9176.02343-.3593-.13121-.6216-.41239-.743-.74509.3083-.17338.6894-.22022 1.0486-.08901.1239.04686.2363.10778.3354.18744-.1438-.2999-.3017-.58575-.473-.86691-.2421.1687-.5456.2577-.8629.22021-.3801-.04686-.7004-.25772-.8963-.55294.2587-.24367.619-.37488.999-.32802.1438.01406.279.05624.4022.11715-.165-.2343-.3397-.46389-.5235-.68413-.2038.22024-.4853.3655-.8047.38893-.3813.0328-.7369-.11246-.9873-.3655.2056-.28585.5328-.48737.9141-.52017.1687-.01406.3324.00938.4842.05624-.2319-.24367-.476-.47797-.7315-.7029-.1697.28116-.4473.49206-.7899.56703-.3732.08435-.7454-.00469-1.0284-.22025.1634-.31865.4595-.56231.8328-.64665.2283-.05155.4562-.03284.6636.03276-.304-.24367-.6224-.46857-.9534-.67475-.1483.29521-.4112.52951-.7499.6326-.366.11247-.7441.04685-1.0419-.14996.1399-.32333.4175-.59043.7836-.70289.1926-.05624.3885-.06562.5743-.03281-.3032-.1687-.6164-.32333-.9382-.45922-.3226.13121-.693.14528-1.0455.01876-.4186-.15464-.7243-.48266-.866-.86691.3589-.20618.8027-.25776 1.2212-.10781.353.13121.6257.38426.7875.68885.3041.13121.6008.27648.8895.43112-.1377-.17807-.2361-.38893-.2797-.62323-.081-.44048.0442-.866924.3067-1.190256.3595.206183.6297.562336.7108 1.002816.074.39831-.024.79193-.2415 1.10121.3267.20149.6415.42174.9425.65604-.1399-.22493-.2214-.48737-.2225-.76852-.0019-.44517.1975-.84349.5126-1.11059.3174.26241.5201.66075.522 1.10592.0018.42174-.1738.79662-.456 1.06373.2624.22492.5134.46387.7523.71223-.0634-.19681-.0854-.41237-.0567-.63261.0578-.44048.3089-.81066.657-1.03558.2791.30927.4267.73101.369 1.17149-.0518.39362-.2588.73102-.5518.96063.2213.26241.4299.53422.6249.81538-.04-.22024-.0308-.44988.0363-.6748.1267-.42643.4329-.75443.8119-.91844.2274.34677.3068.78254.1801 1.21365-.115.38893-.3785.68883-.7101.8669.2081.34208.3971.69355.5655 1.05906.0006-.24836.0644-.49671.1979-.72633.2246-.38425.5994-.62794 1.0068-.69823.1389.38894.1115.83411-.113 1.21836-.2028.34676-.5282.58108-.8896.6748.127.31396.2389.63727.3349.96529.0373-.22961.131-.45456.284-.65137.2723-.35145.6754-.54826 1.0886-.56231.0875.40299.0028.83879-.2695 1.19492-.2449.31396-.5954.50612-.9639.55298.0808.34208.1443.69353.1896 1.05434.0768-.24366.2173-.46394.4199-.64669.3335-.29522.7656-.40766 1.1748-.34674.0102.41237-.1551.82942-.4886 1.12463-.3014.2671-.6831.3843-1.0557.3608.0212.2718.032.5436.032.8201 0 .1031-.0015.2061-.0046.3139.0922-.2109.2346-.3983.4247-.5482.3493-.2765.787-.3655 1.1923-.2859-.0126.4124-.2006.8201-.5499 1.0966-.3228.253-.7209.3514-1.0992.2998-.0317.3749-.0835.7498-.1546 1.1106.1342-.2155.3285-.403.574-.5295.3963-.2062.8432-.2108 1.2248-.0515-.0923.403-.3552.7684-.7515.9699-.3703.1922-.7849.2062-1.1492.0797-.0957.3936-.2139.7779-.3531 1.1481.1695-.1968.3952-.3561.663-.4405.4243-.1359.8658-.0656 1.2162.1546-.157.3796-.4755.6936-.8998.8295-.398.1265-.811.0749-1.1499-.1125-.1174.2765-.2465.5482-.3868.8107.1613-.1078.3475-.1875.5515-.225.4381-.0796.8672.0422 1.187.3046-.2043.3609-.5599.6326-.9981.7123-.386.0703-.7649-.0187-1.0683-.2202-.2244.3655-.4707.7169-.737 1.0496.2287-.164.5061-.2577.8065-.2624.4455-.0094.8484.1827 1.121.492-.2603.3234-.6554.5295-1.101.5389-.4273.0094-.8155-.1687-1.087-.4545-.2985.342-.6192.6654-.9599.97.2885-.164.6348-.2343.9868-.1687.4381.0843.7935.3515.9975.7123-.3199.2624-.7491.3889-1.1872.3046-.4284-.0797-.7777-.3421-.9837-.6889-.3172.2671-.6507.5202-.9986.7498.2753-.0844.5777-.0844.8711.0094.4233.1405.7393.4545.8933.8387-.3521.2203-.7941.2859-1.2173.1453-.4047-.1359-.7114-.4264-.8721-.7919-.2926.178-.5947.342-.9052.492.221 0 .4447.0562.6536.164.3945.2109.6542.5717.743.9747-.383.1593-.8298.1499-1.2243-.0563-.3518-.1874-.5964-.4967-.7082-.8434-.3263.1312-.6608.2483-1.0027.3467.2468.0328.4893.1265.7018.2859.3557.2671.5531.6701.5752 1.0824-.4032.0891-.8429.0094-1.1985-.2577-.3259-.2437-.5188-.6045-.566-.9794-.1166.0281-.234.0563-.3521.0797-.4734.0984-1.0543.1734-1.6448.3186.7015.2859 1.3523.7311 1.796 1.4761.0396.0656.0176.1547-.0489.1922-.0665.0422-.1526.0187-.1921-.0469-.4648-.7825-1.1786-1.2043-1.9247-1.4574-.0302-.0093-.0604-.0187-.0906-.0328-.0302.0141-.0604.0235-.0906.0328-.7461.2531-1.4599.6749-1.9247 1.4574-.0395.0656-.12559.0891-.19213.0469-.06654-.0375-.08847-.1266-.04896-.1922.44379-.745 1.09459-1.1902 1.79609-1.4761-.5905-.1452-1.1714-.2202-1.64483-.3186-.11809-.0234-.23543-.0516-.35215-.0797-.04715.3749-.24007.7357-.56588.9794-.35567.2671-.79531.3468-1.19858.2577.02216-.4123.21949-.8153.5752-1.0824.21251-.1594.45501-.2531.70182-.2859-.34184-.0984-.67642-.2155-1.00271-.3467-.1118.3467-.35641.656-.70819.8434-.39446.2062-.84127.2156-1.2243.0563.0888-.403.34849-.7638.74301-.9747.20894-.1078.4326-.164.65364-.164-.31049-.15-.6126-.314-.90523-.492-.16078.3655-.46743.656-.87211.7919-.42324.1406-.86518.075-1.21733-.1453.15408-.3842.47005-.6982.89329-.8387.29344-.0938.59587-.0938.87113-.0094-.34789-.2296-.68135-.4827-.99854-.7498-.206.3468-.55533.6092-.98373.6889-.43814.0843-.86728-.0422-1.18724-.3046.20398-.3608.55941-.628.99751-.7123.35205-.0656.69835.0047.98682.1687-.34072-.3046-.66143-.628-.95988-.97-.2716.2858-.65969.4639-1.0871.4545-.44554-.0094-.84062-.2155-1.10074-.5389.2724-.3093.67525-.5014 1.12084-.492.30037.0047.57779.0984.80646.2624-.2663-.3327-.5126-.6841-.73701-1.0496-.30332.2015-.68233.2905-1.06845.2202-.43814-.0797-.79381-.3514-.99812-.7123.32006-.2624.74882-.3842 1.1872-.3046.20403.0375.3902.1172.55154.225-.1403-.2625-.26945-.5342-.38683-.8107-.33889.1874-.7521.239-1.14994.1125-.424082-.1359-.742726-.4499-.899707-.8295.350512-.2202.791927-.2905 1.216007-.1546.26804.0844.49358.2437.66312.4405-.13922-.3702-.25731-.7545-.35337-1.1481-.3641.1265-.77835.1125-1.149008-.0797-.396434-.2015-.6593133-.5669-.75162716-.9699.38190716-.1593.82894816-.1547 1.22491516.0515.24554.1265.44001.314.57403.5295-.07123-.3608-.12277-.7357-.15464-1.1106-.37815.0516-.776461-.0468-1.098856-.2998-.349574-.2765-.5374819-.6842-.550134-1.0966.405337-.0796.843005.0094 1.19211.2859.19025.1499.33271.3373.42502.5482-.00328-.1078-.00469-.2108-.00469-.3139 0-.2765.01078-.5483.03187-.8201-.37254.0235-.754445-.0937-1.055754-.3608-.333642-.29521-.4985902-.71226-.488281-1.12463.409086-.06092.841137.05152 1.174775.34674.20244.18275.34302.40303.41987.64669.04498-.36081.10871-.71226.18931-1.05434-.36832-.04686-.71883-.23902-.963908-.55298-.272256-.35613-.356603-.79193-.269444-1.19492.413302.01405.816302.21086 1.088552.56231.15323.19681.24695.42176.28397.65137.09616-.32802.20806-.65133.33505-.96529-.36129-.09372-.68649-.32804-.8894-.6748-.22445-.38425-.2521-.82942-.1134-1.21836.40768.07029.78242.31398 1.00697.69823.1336.22962.19742.47797.19794.72633.16846-.36551.35745-.71698.56555-1.05906-.33163-.17807-.59507-.47797-.71016-.8669-.12666-.43111-.04728-.86688.18018-1.21365.37895.16401.68518.49201.81179.91844.06715.22492.07639.45456.03637.6748.19503-.28116.4036-.55297.62487-.81538-.29296-.22961-.49995-.56701-.55173-.96063-.05777-.44048.08988-.86222.36893-1.17149.34813.22492.59925.5951.65703 1.03558.02867.22024.00674.4358-.05671.63261.23894-.24836.48992-.48731.75224-.71223-.28209-.26711-.45768-.64199-.45594-1.06373.00183-.44517.20459-.84351.52197-1.10592.31513.2671.51452.66542.51269 1.11059-.00117.28115-.08261.54359-.22253.76852.30102-.2343.61578-.45455.94253-.65604-.21752-.30928-.3155-.7029-.24151-1.10121.08102-.44048.35131-.796633.71077-1.002816.26251.323332.38767.749776.30665 1.190256-.04358.2343-.14199.44516-.27961.62323.2887-.15464.58532-.29991.88944-.43112.16181-.30459.43453-.55764.78743-.68885.4186-.14995.86241-.09837 1.22131.10781-.14175.38425-.44746.71227-.86606.86691-.35248.12652-.72295.11245-1.04549-.01876-.32179.13589-.635.29052-.93818.45922.1858-.03281.38167-.02343.57427.03281.36611.11246.64366.37956.78363.70289-.29784.19681-.67586.26243-1.04193.14996-.33865-.10309-.60153-.33739-.74984-.6326-.33107.20618-.64939.43108-.95346.67475.2074-.0656.43533-.08431.66367-.03276.37324.08434.6694.328.8328.64665-.28304.21556-.65525.3046-1.02848.22025-.34255-.07497-.62019-.28587-.78982-.56703-.25548.22493-.49963.45923-.73153.7029.15177-.04686.31546-.0703.48415-.05624.3813.0328.70852.23432.91419.52017-.25042.25304-.60608.3983-.98738.3655-.3194-.02343-.60084-.16869-.80468-.38893-.18383.22024-.35852.44983-.52347.68413.12319-.06091.25843-.10309.4022-.11715.38003-.04686.74029.08435.99895.32802-.19587.29522-.51625.50608-.89628.55294-.31729.03749-.6208-.05151-.86288-.22021-.17127.28116-.32919.56701-.47296.86691.09907-.07966.21144-.14058.33533-.18744.35923-.13121.74034-.08437 1.04858.08901-.12141.3327-.38368.61388-.74291.74509-.30984.11246-.63594.0984-.91761-.02343-.11406.28584-.21555.57636-.30384.87157.10811-.09372.23365-.1687.37394-.22025.35928-.13121.74034-.08433 1.04863.08905-.12141.33271-.38369.61389-.74296.74509-.28322.10309-.58003.09839-.84404.00467-.0641.28116-.11635.5623-.15712.84815.0881-.10778.19606-.2015.32254-.28116.32694-.19681.70936-.22959 1.04595-.11244-.05449.34676-.25754.6748-.58448.8716-.26593.164-.5686.2155-.85336.164-.01968.2577-.02952.5155-.02952.7779 0 .0468.00047.0937.00093.1452.07217-.1077.16261-.2062.27099-.2905.3014-.239.67764-.314 1.02515-.239-.01298.3515-.17647.7029-.47787.9372-.23327.1828-.51133.2671-.7864.2624.02671.3327.06888.656.12652.9747.04742-.1312.11865-.2624.21415-.3749.2439-.2952.59535-.4498.95041-.4545.06331.3515-.02207.7263-.26598 1.0215-.20131.2437-.47586.389-.76527.4358.06537.2624.1412.5249.22704.7826.02587-.1078.06649-.2156.12273-.314.18598-.3374.50336-.5529.85186-.6185.12605.3327.11045.7169-.07554 1.0496-.14831.2672-.38017.4592-.64479.5577.11514.2764.24222.5436.38055.8107.00539-.1219.02788-.239.06907-.3562.12652-.3608.40272-.6279.73462-.7544.1806.3046.23027.6841.10375 1.0449-.10342.2953-.30698.5296-.55922.6701.1611.2624.33373.5155.51724.7592-.02011-.1266-.02128-.2578-.00094-.389.0582-.3748.28101-.6888.5842-.8716.2335.2671.35201.6279.29376 1.0075-.04929.3187-.21644.5951-.45041.7826.19564.2249.40112.4452.61578.6513-.04414-.1218-.06977-.253-.07343-.3889-.01012-.3842.15337-.731.41874-.9653.2775.2202.45913.5576.4693.9419.00876.3327-.11279.6373-.31799.8622.21823.1874.44465.3655.67853.5295-.05047-.0984-.08814-.2062-.11045-.3233-.07253-.3749.03201-.7451.2552-1.0216.30998.1734.54447.478.617.8529.06153.3186-.00435.6326-.16204.8903.26256.1593.53256.3093.80969.4452-.09775-.1266-.17253-.2765-.21635-.4405-.09854-.3702-.01991-.7451.18351-1.0356.32127.1499.57632.4358.67482.806.08501.3186.0382.642-.10684.9137.33266.1406.67422.2624 1.02366.3655-.1493-.1312-.26879-.3045-.34208-.506-.1314-.3562-.08688-.7404.08955-1.045.33355.1218.61335.3842.74474.7404.11546.3186.09508.6513-.0313.9325.12971.0328.26021.0656.39165.089.58199.1218 1.32339.2109 2.04909.4358zm1.2745-16.05882c2.1082.50608 3.4639.8388 4.9644 1.69633-.1141.28585-.7531 1.88376-.9832 2.20241-.23.00937-1.5347-.14529-1.5347-.14529l.272 7.74587c-2.7807-.1499-4.7362.6561-7.82173 0-.09869-1.2136.20361-7.74587.20361-7.74587l-1.63527.14529-.92169-2.20241c1.59661-.7685 3.3062-1.3402 5.14178-1.69633.3571.54826 1.72.61855 2.3148 0z" fill="#fcf5eb" fill-rule="evenodd"/></g></svg>